<?xml version="1.0" encoding="UTF-8" standalone="no"?>
<!DOCTYPE svg PUBLIC "-//W3C//DTD SVG 1.1//EN"
 "http://www.w3.org/Graphics/SVG/1.1/DTD/svg11.dtd">
<!-- Generated by graphviz version 2.43.0 (0)
 -->
<!-- Title: adsr_fsm Pages: 1 -->
<svg width="1108pt" height="201pt"
 viewBox="0.00 0.00 1108.00 200.50" xmlns="http://www.w3.org/2000/svg" xmlns:xlink="http://www.w3.org/1999/xlink">
<g id="graph0" class="graph" transform="scale(1 1) rotate(0) translate(4 196.5)">
<title>adsr_fsm</title>
<polygon fill="white" stroke="transparent" points="-4,4 -4,-196.5 1104,-196.5 1104,4 -4,4"/>
<!-- IDLE -->
<g id="node1" class="node">
<title>IDLE</title>
<path fill="#e8e8e8" stroke="black" d="M12,-0.5C12,-0.5 115,-0.5 115,-0.5 121,-0.5 127,-6.5 127,-12.5 127,-12.5 127,-24.5 127,-24.5 127,-30.5 121,-36.5 115,-36.5 115,-36.5 12,-36.5 12,-36.5 6,-36.5 0,-30.5 0,-24.5 0,-24.5 0,-12.5 0,-12.5 0,-6.5 6,-0.5 12,-0.5"/>
<text text-anchor="middle" x="20.5" y="-15.7" font-family="Helvetica,sans-Serif" font-size="11.00">IDLE</text>
<polyline fill="none" stroke="black" points="41,-0.5 41,-36.5 "/>
<text text-anchor="middle" x="84" y="-21.7" font-family="Helvetica,sans-Serif" font-size="11.00">env = 0</text>
<text text-anchor="middle" x="84" y="-9.7" font-family="Helvetica,sans-Serif" font-size="11.00">output silent</text>
</g>
<!-- ATTACK -->
<g id="node2" class="node">
<title>ATTACK</title>
<path fill="#aed6f1" stroke="black" d="M261,-53.5C261,-53.5 414,-53.5 414,-53.5 420,-53.5 426,-59.5 426,-65.5 426,-65.5 426,-77.5 426,-77.5 426,-83.5 420,-89.5 414,-89.5 414,-89.5 261,-89.5 261,-89.5 255,-89.5 249,-83.5 249,-77.5 249,-77.5 249,-65.5 249,-65.5 249,-59.5 255,-53.5 261,-53.5"/>
<text text-anchor="middle" x="278.5" y="-68.7" font-family="Helvetica,sans-Serif" font-size="11.00">ATTACK</text>
<polyline fill="none" stroke="black" points="308,-53.5 308,-89.5 "/>
<text text-anchor="middle" x="367" y="-74.7" font-family="Helvetica,sans-Serif" font-size="11.00">env counts 0 → 15</text>
<text text-anchor="middle" x="367" y="-62.7" font-family="Helvetica,sans-Serif" font-size="11.00">at attack_rate</text>
</g>
<!-- IDLE&#45;&gt;ATTACK -->
<g id="edge1" class="edge">
<title>IDLE&#45;&gt;ATTACK</title>
<path fill="none" stroke="#2980b9" d="M127.24,-30.73C160.37,-37.18 201.76,-45.25 238.96,-52.49"/>
<polygon fill="#2980b9" stroke="#2980b9" points="238.34,-55.94 248.83,-54.42 239.68,-49.07 238.34,-55.94"/>
<text text-anchor="middle" x="188" y="-52.3" font-family="Helvetica,sans-Serif" font-size="9.00" fill="#2980b9"> &#160;gate rising edge &#160;</text>
</g>
<!-- DECAY -->
<g id="node3" class="node">
<title>DECAY</title>
<path fill="#a9dfbf" stroke="black" d="M533,-123C533,-123 801,-123 801,-123 807,-123 813,-129 813,-135 813,-135 813,-180 813,-180 813,-186 807,-192 801,-192 801,-192 533,-192 533,-192 527,-192 521,-186 521,-180 521,-180 521,-135 521,-135 521,-129 527,-123 533,-123"/>
<text text-anchor="middle" x="576" y="-154.7" font-family="Helvetica,sans-Serif" font-size="11.00">DECAY / SUSTAIN</text>
<polyline fill="none" stroke="black" points="631,-123 631,-192 "/>
<text text-anchor="middle" x="722" y="-179.2" font-family="Helvetica,sans-Serif" font-size="11.00">env counts 15 → sustain_level</text>
<text text-anchor="middle" x="722" y="-167.2" font-family="Helvetica,sans-Serif" font-size="11.00">at decay_rate</text>
<text text-anchor="middle" x="722" y="-142.2" font-family="Helvetica,sans-Serif" font-size="11.00">holds at sustain_level</text>
<text text-anchor="middle" x="722" y="-130.2" font-family="Helvetica,sans-Serif" font-size="11.00">while gate = 1</text>
</g>
<!-- ATTACK&#45;&gt;DECAY -->
<g id="edge2" class="edge">
<title>ATTACK&#45;&gt;DECAY</title>
<path fill="none" stroke="#27ae60" d="M386.17,-89.58C404.14,-96.04 424.86,-103.05 444,-108.5 465.49,-114.62 488.34,-120.43 510.89,-125.76"/>
<polygon fill="#27ae60" stroke="#27ae60" points="510.34,-129.23 520.87,-128.1 511.94,-122.41 510.34,-129.23"/>
<text text-anchor="middle" x="473.5" y="-125.3" font-family="Helvetica,sans-Serif" font-size="9.00" fill="#27ae60"> &#160;env = 0xF &#160;</text>
</g>
<!-- RELEASE -->
<g id="node4" class="node">
<title>RELEASE</title>
<path fill="#fadbd8" stroke="black" d="M913,-53.5C913,-53.5 1088,-53.5 1088,-53.5 1094,-53.5 1100,-59.5 1100,-65.5 1100,-65.5 1100,-77.5 1100,-77.5 1100,-83.5 1094,-89.5 1088,-89.5 1088,-89.5 913,-89.5 913,-89.5 907,-89.5 901,-83.5 901,-77.5 901,-77.5 901,-65.5 901,-65.5 901,-59.5 907,-53.5 913,-53.5"/>
<text text-anchor="middle" x="933.5" y="-68.7" font-family="Helvetica,sans-Serif" font-size="11.00">RELEASE</text>
<polyline fill="none" stroke="black" points="966,-53.5 966,-89.5 "/>
<text text-anchor="middle" x="1033" y="-74.7" font-family="Helvetica,sans-Serif" font-size="11.00">env counts down → 0</text>
<text text-anchor="middle" x="1033" y="-62.7" font-family="Helvetica,sans-Serif" font-size="11.00">at release_rate</text>
</g>
<!-- ATTACK&#45;&gt;RELEASE -->
<g id="edge3" class="edge">
<title>ATTACK&#45;&gt;RELEASE</title>
<path fill="none" stroke="#c0392b" d="M426.28,-71.5C546.03,-71.5 760.55,-71.5 890.48,-71.5"/>
<polygon fill="#c0392b" stroke="#c0392b" points="890.85,-75 900.85,-71.5 890.85,-68 890.85,-75"/>
<text text-anchor="middle" x="667" y="-74.3" font-family="Helvetica,sans-Serif" font-size="9.00" fill="#c0392b"> &#160;gate = 0 &#160;</text>
</g>
<!-- DECAY&#45;&gt;RELEASE -->
<g id="edge4" class="edge">
<title>DECAY&#45;&gt;RELEASE</title>
<path fill="none" stroke="#c0392b" d="M813.26,-126.13C836.66,-120.58 860.56,-114.61 883,-108.5 900.29,-103.79 918.84,-98.17 935.95,-92.74"/>
<polygon fill="#c0392b" stroke="#c0392b" points="937.38,-95.96 945.84,-89.57 935.25,-89.29 937.38,-95.96"/>
<text text-anchor="middle" x="857" y="-123.3" font-family="Helvetica,sans-Serif" font-size="9.00" fill="#c0392b"> &#160;gate = 0 &#160;</text>
</g>
<!-- RELEASE&#45;&gt;IDLE -->
<g id="edge5" class="edge">
<title>RELEASE&#45;&gt;IDLE</title>
<path fill="none" stroke="#7f8c8d" d="M900.75,-55.57C894.75,-54.81 888.8,-54.11 883,-53.5 852.01,-50.23 844.12,-51.03 813,-49.5 565.17,-37.29 271.03,-26.06 137.24,-21.13"/>
<polygon fill="#7f8c8d" stroke="#7f8c8d" points="137.23,-17.63 127.11,-20.76 136.97,-24.63 137.23,-17.63"/>
<text text-anchor="middle" x="473.5" y="-38.3" font-family="Helvetica,sans-Serif" font-size="9.00" fill="#7f8c8d"> &#160;env = 0 &#160;</text>
</g>
<!-- RELEASE&#45;&gt;ATTACK -->
<g id="edge6" class="edge">
<title>RELEASE&#45;&gt;ATTACK</title>
<path fill="none" stroke="#2980b9" d="M900.85,-62.71C872.51,-60.56 841.55,-58.57 813,-57.5 683.31,-52.64 650.68,-52.53 521,-57.5 493.43,-58.56 463.56,-60.51 436.13,-62.62"/>
<polygon fill="#2980b9" stroke="#2980b9" points="435.84,-59.14 426.14,-63.41 436.39,-66.11 435.84,-59.14"/>
<text text-anchor="middle" x="667" y="-60.3" font-family="Helvetica,sans-Serif" font-size="9.00" fill="#2980b9"> &#160;gate rising edge &#160;</text>
</g>
</g>
</svg>
