<?xml version="1.0" encoding="UTF-8" standalone="no"?>
<!DOCTYPE svg PUBLIC "-//W3C//DTD SVG 1.1//EN"
 "http://www.w3.org/Graphics/SVG/1.1/DTD/svg11.dtd">
<!-- Generated by graphviz version 2.43.0 (0)
 -->
<!-- Title: adsr_fsm Pages: 1 -->
<svg width="1127pt" height="201pt"
 viewBox="0.00 0.00 1127.00 200.50" xmlns="http://www.w3.org/2000/svg" xmlns:xlink="http://www.w3.org/1999/xlink">
<g id="graph0" class="graph" transform="scale(1 1) rotate(0) translate(4 196.5)">
<title>adsr_fsm</title>
<polygon fill="white" stroke="transparent" points="-4,4 -4,-196.5 1123,-196.5 1123,4 -4,4"/>
<!-- IDLE -->
<g id="node1" class="node">
<title>IDLE</title>
<path fill="#e8e8e8" stroke="black" d="M12,-0.5C12,-0.5 115,-0.5 115,-0.5 121,-0.5 127,-6.5 127,-12.5 127,-12.5 127,-24.5 127,-24.5 127,-30.5 121,-36.5 115,-36.5 115,-36.5 12,-36.5 12,-36.5 6,-36.5 0,-30.5 0,-24.5 0,-24.5 0,-12.5 0,-12.5 0,-6.5 6,-0.5 12,-0.5"/>
<text text-anchor="middle" x="20.5" y="-15.7" font-family="Helvetica,sans-Serif" font-size="11.00">IDLE</text>
<polyline fill="none" stroke="black" points="41,-0.5 41,-36.5 "/>
<text text-anchor="middle" x="84" y="-21.7" font-family="Helvetica,sans-Serif" font-size="11.00">env = 0</text>
<text text-anchor="middle" x="84" y="-9.7" font-family="Helvetica,sans-Serif" font-size="11.00">output silent</text>
</g>
<!-- ATTACK -->
<g id="node2" class="node">
<title>ATTACK</title>
<path fill="#aed6f1" stroke="black" d="M261,-53.5C261,-53.5 421,-53.5 421,-53.5 427,-53.5 433,-59.5 433,-65.5 433,-65.5 433,-77.5 433,-77.5 433,-83.5 427,-89.5 421,-89.5 421,-89.5 261,-89.5 261,-89.5 255,-89.5 249,-83.5 249,-77.5 249,-77.5 249,-65.5 249,-65.5 249,-59.5 255,-53.5 261,-53.5"/>
<text text-anchor="middle" x="278.5" y="-68.7" font-family="Helvetica,sans-Serif" font-size="11.00">ATTACK</text>
<polyline fill="none" stroke="black" points="308,-53.5 308,-89.5 "/>
<text text-anchor="middle" x="370.5" y="-74.7" font-family="Helvetica,sans-Serif" font-size="11.00">env counts 0 → 255</text>
<text text-anchor="middle" x="370.5" y="-62.7" font-family="Helvetica,sans-Serif" font-size="11.00">at attack_rate</text>
</g>
<!-- IDLE&#45;&gt;ATTACK -->
<g id="edge1" class="edge">
<title>IDLE&#45;&gt;ATTACK</title>
<path fill="none" stroke="#2980b9" d="M127.02,-30.53C160.1,-36.89 201.53,-44.86 239.04,-52.08"/>
<polygon fill="#2980b9" stroke="#2980b9" points="238.51,-55.54 248.99,-53.99 239.83,-48.67 238.51,-55.54"/>
<text text-anchor="middle" x="188" y="-52.3" font-family="Helvetica,sans-Serif" font-size="9.00" fill="#2980b9"> &#160;gate rising edge &#160;</text>
</g>
<!-- DECAY -->
<g id="node3" class="node">
<title>DECAY</title>
<path fill="#a9dfbf" stroke="black" d="M545,-123C545,-123 820,-123 820,-123 826,-123 832,-129 832,-135 832,-135 832,-180 832,-180 832,-186 826,-192 820,-192 820,-192 545,-192 545,-192 539,-192 533,-186 533,-180 533,-180 533,-135 533,-135 533,-129 539,-123 545,-123"/>
<text text-anchor="middle" x="588" y="-154.7" font-family="Helvetica,sans-Serif" font-size="11.00">DECAY / SUSTAIN</text>
<polyline fill="none" stroke="black" points="643,-123 643,-192 "/>
<text text-anchor="middle" x="737.5" y="-179.2" font-family="Helvetica,sans-Serif" font-size="11.00">env counts 255 → sustain_level</text>
<text text-anchor="middle" x="737.5" y="-167.2" font-family="Helvetica,sans-Serif" font-size="11.00">at decay_rate</text>
<text text-anchor="middle" x="737.5" y="-142.2" font-family="Helvetica,sans-Serif" font-size="11.00">holds at sustain_level</text>
<text text-anchor="middle" x="737.5" y="-130.2" font-family="Helvetica,sans-Serif" font-size="11.00">while gate = 1</text>
</g>
<!-- ATTACK&#45;&gt;DECAY -->
<g id="edge2" class="edge">
<title>ATTACK&#45;&gt;DECAY</title>
<path fill="none" stroke="#27ae60" d="M391,-89.5C409.63,-95.99 431.15,-103.04 451,-108.5 474.06,-114.84 498.6,-120.84 522.75,-126.32"/>
<polygon fill="#27ae60" stroke="#27ae60" points="522.18,-129.78 532.7,-128.56 523.71,-122.95 522.18,-129.78"/>
<text text-anchor="middle" x="483" y="-126.3" font-family="Helvetica,sans-Serif" font-size="9.00" fill="#27ae60"> &#160;env = 0xFF &#160;</text>
</g>
<!-- RELEASE -->
<g id="node4" class="node">
<title>RELEASE</title>
<path fill="#fadbd8" stroke="black" d="M932,-53.5C932,-53.5 1107,-53.5 1107,-53.5 1113,-53.5 1119,-59.5 1119,-65.5 1119,-65.5 1119,-77.5 1119,-77.5 1119,-83.5 1113,-89.5 1107,-89.5 1107,-89.5 932,-89.5 932,-89.5 926,-89.5 920,-83.5 920,-77.5 920,-77.5 920,-65.5 920,-65.5 920,-59.5 926,-53.5 932,-53.5"/>
<text text-anchor="middle" x="952.5" y="-68.7" font-family="Helvetica,sans-Serif" font-size="11.00">RELEASE</text>
<polyline fill="none" stroke="black" points="985,-53.5 985,-89.5 "/>
<text text-anchor="middle" x="1052" y="-74.7" font-family="Helvetica,sans-Serif" font-size="11.00">env counts down → 0</text>
<text text-anchor="middle" x="1052" y="-62.7" font-family="Helvetica,sans-Serif" font-size="11.00">at release_rate</text>
</g>
<!-- ATTACK&#45;&gt;RELEASE -->
<g id="edge3" class="edge">
<title>ATTACK&#45;&gt;RELEASE</title>
<path fill="none" stroke="#c0392b" d="M433.24,-71.5C556.96,-71.5 777.64,-71.5 909.8,-71.5"/>
<polygon fill="#c0392b" stroke="#c0392b" points="909.95,-75 919.95,-71.5 909.95,-68 909.95,-75"/>
<text text-anchor="middle" x="682.5" y="-74.3" font-family="Helvetica,sans-Serif" font-size="9.00" fill="#c0392b"> &#160;gate = 0 &#160;</text>
</g>
<!-- DECAY&#45;&gt;RELEASE -->
<g id="edge4" class="edge">
<title>DECAY&#45;&gt;RELEASE</title>
<path fill="none" stroke="#c0392b" d="M832.02,-126.02C855.52,-120.51 879.48,-114.59 902,-108.5 919.38,-103.8 938.04,-98.15 955.22,-92.7"/>
<polygon fill="#c0392b" stroke="#c0392b" points="956.68,-95.9 965.14,-89.52 954.55,-89.24 956.68,-95.9"/>
<text text-anchor="middle" x="876" y="-123.3" font-family="Helvetica,sans-Serif" font-size="9.00" fill="#c0392b"> &#160;gate = 0 &#160;</text>
</g>
<!-- RELEASE&#45;&gt;IDLE -->
<g id="edge5" class="edge">
<title>RELEASE&#45;&gt;IDLE</title>
<path fill="none" stroke="#7f8c8d" d="M919.75,-55.57C913.75,-54.81 907.8,-54.11 902,-53.5 871.01,-50.23 863.12,-51.02 832,-49.5 576.91,-37.06 273.96,-25.88 137.51,-21.04"/>
<polygon fill="#7f8c8d" stroke="#7f8c8d" points="137.31,-17.53 127.19,-20.68 137.06,-24.53 137.31,-17.53"/>
<text text-anchor="middle" x="483" y="-38.3" font-family="Helvetica,sans-Serif" font-size="9.00" fill="#7f8c8d"> &#160;env = 0 &#160;</text>
</g>
<!-- RELEASE&#45;&gt;ATTACK -->
<g id="edge6" class="edge">
<title>RELEASE&#45;&gt;ATTACK</title>
<path fill="none" stroke="#2980b9" d="M919.85,-62.71C891.51,-60.56 860.55,-58.57 832,-57.5 699.2,-52.52 665.8,-52.64 533,-57.5 503.87,-58.57 472.3,-60.54 443.36,-62.68"/>
<polygon fill="#2980b9" stroke="#2980b9" points="442.96,-59.2 433.25,-63.45 443.48,-66.18 442.96,-59.2"/>
<text text-anchor="middle" x="682.5" y="-60.3" font-family="Helvetica,sans-Serif" font-size="9.00" fill="#2980b9"> &#160;gate rising edge &#160;</text>
</g>
</g>
</svg>
