<?xml version="1.0" encoding="UTF-8" standalone="no"?>
<!DOCTYPE svg PUBLIC "-//W3C//DTD SVG 1.1//EN"
 "http://www.w3.org/Graphics/SVG/1.1/DTD/svg11.dtd">
<!-- Generated by graphviz version 2.43.0 (0)
 -->
<!-- Title: sid_architecture Pages: 1 -->
<svg width="1675pt" height="294pt"
 viewBox="0.00 0.00 1675.00 294.00" xmlns="http://www.w3.org/2000/svg" xmlns:xlink="http://www.w3.org/1999/xlink">
<g id="graph0" class="graph" transform="scale(1 1) rotate(0) translate(4 290)">
<title>sid_architecture</title>
<polygon fill="white" stroke="transparent" points="-4,4 -4,-290 1671,-290 1671,4 -4,4"/>
<g id="clust1" class="cluster">
<title>cluster_inputs</title>
<polygon fill="none" stroke="black" stroke-dasharray="5,2" points="8,-119 8,-255 303,-255 303,-119 8,-119"/>
<text text-anchor="middle" x="155.5" y="-239.8" font-family="Times,serif" font-size="14.00">Input Pins</text>
</g>
<g id="clust2" class="cluster">
<title>cluster_clkdiv</title>
<polygon fill="#f0e0fe" stroke="black" points="360,-8 360,-97 477,-97 477,-8 360,-8"/>
<text text-anchor="middle" x="418.5" y="-81.8" font-family="Times,serif" font-size="14.00">Clock Divider</text>
</g>
<g id="clust3" class="cluster">
<title>cluster_regfile</title>
<polygon fill="#e8f0fe" stroke="black" points="324,-105 324,-278 514,-278 514,-105 324,-105"/>
<text text-anchor="middle" x="419" y="-262.8" font-family="Times,serif" font-size="14.00">Register File (x3 voices)</text>
</g>
<g id="clust4" class="cluster">
<title>cluster_pipeline</title>
<polygon fill="#fef7e0" stroke="black" points="582,-72 582,-245 729,-245 729,-72 582,-72"/>
<text text-anchor="middle" x="655.5" y="-229.8" font-family="Times,serif" font-size="14.00">Pipeline Registers</text>
</g>
<g id="clust5" class="cluster">
<title>cluster_datapath</title>
<polygon fill="#e8fee8" stroke="black" points="750,-35 750,-171 1269,-171 1269,-35 750,-35"/>
<text text-anchor="middle" x="1009.5" y="-155.8" font-family="Times,serif" font-size="14.00">Voice Datapath</text>
</g>
<g id="clust6" class="cluster">
<title>cluster_output</title>
<polygon fill="none" stroke="black" stroke-dasharray="5,2" points="1290,-58 1290,-147 1659,-147 1659,-58 1290,-58"/>
<text text-anchor="middle" x="1474.5" y="-131.8" font-family="Times,serif" font-size="14.00">Output</text>
</g>
<!-- ui_in -->
<g id="node1" class="node">
<title>ui_in</title>
<polygon fill="none" stroke="black" points="16,-185 16,-223 295,-223 295,-185 16,-185"/>
<text text-anchor="middle" x="155.5" y="-211" font-family="Courier,monospace" font-size="10.00">ui_in[7:0]</text>
<polyline fill="none" stroke="black" points="16,-204 295,-204 "/>
<text text-anchor="middle" x="66.5" y="-192" font-family="Courier,monospace" font-size="10.00">[2:0] reg_addr</text>
<polyline fill="none" stroke="black" points="117,-185 117,-204 "/>
<text text-anchor="middle" x="170.5" y="-192" font-family="Courier,monospace" font-size="10.00">[4:3] voice_sel</text>
<polyline fill="none" stroke="black" points="224,-185 224,-204 "/>
<text text-anchor="middle" x="259.5" y="-192" font-family="Courier,monospace" font-size="10.00">[7] wr_en</text>
</g>
<!-- regs -->
<g id="node4" class="node">
<title>regs</title>
<polygon fill="none" stroke="black" points="359,-113.5 359,-246.5 478,-246.5 478,-113.5 359,-113.5"/>
<text text-anchor="middle" x="418.5" y="-234.5" font-family="Courier,monospace" font-size="10.00">freq_lo[7:0]</text>
<polyline fill="none" stroke="black" points="359,-227.5 478,-227.5 "/>
<text text-anchor="middle" x="418.5" y="-215.5" font-family="Courier,monospace" font-size="10.00">freq_hi[7:0]</text>
<polyline fill="none" stroke="black" points="359,-208.5 478,-208.5 "/>
<text text-anchor="middle" x="418.5" y="-196.5" font-family="Courier,monospace" font-size="10.00">pw_lo[7:0]</text>
<polyline fill="none" stroke="black" points="359,-189.5 478,-189.5 "/>
<text text-anchor="middle" x="418.5" y="-177.5" font-family="Courier,monospace" font-size="10.00">pw_hi[3:0]</text>
<polyline fill="none" stroke="black" points="359,-170.5 478,-170.5 "/>
<text text-anchor="middle" x="418.5" y="-158.5" font-family="Courier,monospace" font-size="10.00">atk[3:0]/dec[7:4]</text>
<polyline fill="none" stroke="black" points="359,-151.5 478,-151.5 "/>
<text text-anchor="middle" x="418.5" y="-139.5" font-family="Courier,monospace" font-size="10.00">sus[3:0]/rel[7:4]</text>
<polyline fill="none" stroke="black" points="359,-132.5 478,-132.5 "/>
<text text-anchor="middle" x="418.5" y="-120.5" font-family="Courier,monospace" font-size="10.00">waveform[7:0]</text>
</g>
<!-- ui_in&#45;&gt;regs -->
<g id="edge3" class="edge">
<title>ui_in&#45;&gt;regs</title>
<path fill="none" stroke="black" d="M295.02,-191.26C313.62,-189.55 331.99,-187.86 348.63,-186.33"/>
<polygon fill="black" stroke="black" points="349.11,-189.8 358.75,-185.4 348.47,-182.83 349.11,-189.8"/>
</g>
<!-- uio_in -->
<g id="node2" class="node">
<title>uio_in</title>
<polygon fill="none" stroke="black" points="114,-128 114,-166 197,-166 197,-128 114,-128"/>
<text text-anchor="middle" x="155.5" y="-154" font-family="Courier,monospace" font-size="10.00">uio_in[7:0]</text>
<polyline fill="none" stroke="black" points="114,-147 197,-147 "/>
<text text-anchor="middle" x="155.5" y="-135" font-family="Courier,monospace" font-size="10.00">wr_data</text>
</g>
<!-- uio_in&#45;&gt;regs -->
<g id="edge4" class="edge">
<title>uio_in&#45;&gt;regs</title>
<path fill="none" stroke="black" d="M197.28,-152.16C237.7,-157.27 300.39,-165.19 348.56,-171.28"/>
<polygon fill="black" stroke="black" points="348.24,-174.77 358.6,-172.55 349.12,-167.83 348.24,-174.77"/>
</g>
<!-- clk_div -->
<g id="node3" class="node">
<title>clk_div</title>
<polygon fill="none" stroke="black" points="368,-16.5 368,-65.5 469,-65.5 469,-16.5 368,-16.5"/>
<text text-anchor="middle" x="418.5" y="-53.5" font-family="Courier,monospace" font-size="10.00">÷3 Divider</text>
<polyline fill="none" stroke="black" points="368,-46.5 469,-46.5 "/>
<text text-anchor="middle" x="418.5" y="-34.5" font-family="Courier,monospace" font-size="10.00">12 MHz → 4 MHz</text>
<text text-anchor="middle" x="418.5" y="-23.5" font-family="Courier,monospace" font-size="10.00">clk_en_4m</text>
</g>
<!-- p_regs -->
<g id="node5" class="node">
<title>p_regs</title>
<polygon fill="none" stroke="black" points="611,-80.5 611,-213.5 700,-213.5 700,-80.5 611,-80.5"/>
<text text-anchor="middle" x="655.5" y="-201.5" font-family="Courier,monospace" font-size="10.00">p_freq[15:0]</text>
<polyline fill="none" stroke="black" points="611,-194.5 700,-194.5 "/>
<text text-anchor="middle" x="655.5" y="-182.5" font-family="Courier,monospace" font-size="10.00">p_pw[11:0]</text>
<polyline fill="none" stroke="black" points="611,-175.5 700,-175.5 "/>
<text text-anchor="middle" x="655.5" y="-163.5" font-family="Courier,monospace" font-size="10.00">p_acc[15:0]</text>
<polyline fill="none" stroke="black" points="611,-156.5 700,-156.5 "/>
<text text-anchor="middle" x="655.5" y="-144.5" font-family="Courier,monospace" font-size="10.00">p_waveform</text>
<polyline fill="none" stroke="black" points="611,-137.5 700,-137.5 "/>
<text text-anchor="middle" x="655.5" y="-125.5" font-family="Courier,monospace" font-size="10.00">p_env</text>
<polyline fill="none" stroke="black" points="611,-118.5 700,-118.5 "/>
<text text-anchor="middle" x="655.5" y="-106.5" font-family="Courier,monospace" font-size="10.00">p_ast</text>
<polyline fill="none" stroke="black" points="611,-99.5 700,-99.5 "/>
<text text-anchor="middle" x="655.5" y="-87.5" font-family="Courier,monospace" font-size="10.00">...</text>
</g>
<!-- clk_div&#45;&gt;p_regs -->
<g id="edge1" class="edge">
<title>clk_div&#45;&gt;p_regs</title>
<path fill="none" stroke="black" d="M469.05,-63.35C507.95,-80.89 561.98,-105.27 601.69,-123.18"/>
<polygon fill="black" stroke="black" points="600.39,-126.43 610.95,-127.36 603.27,-120.05 600.39,-126.43"/>
<text text-anchor="middle" x="548" y="-111.8" font-family="Courier,monospace" font-size="9.00">clk_en_4m</text>
</g>
<!-- osc -->
<g id="node6" class="node">
<title>osc</title>
<polygon fill="none" stroke="black" points="758,-63.5 758,-112.5 835,-112.5 835,-63.5 758,-63.5"/>
<text text-anchor="middle" x="796.5" y="-100.5" font-family="Courier,monospace" font-size="10.00">Oscillator</text>
<polyline fill="none" stroke="black" points="758,-93.5 835,-93.5 "/>
<text text-anchor="middle" x="796.5" y="-81.5" font-family="Courier,monospace" font-size="10.00">acc + freq</text>
<text text-anchor="middle" x="796.5" y="-70.5" font-family="Courier,monospace" font-size="10.00">(16&#45;bit)</text>
</g>
<!-- clk_div&#45;&gt;osc -->
<g id="edge2" class="edge">
<title>clk_div&#45;&gt;osc</title>
<path fill="none" stroke="black" d="M469.1,-38.18C530.91,-35.93 639.34,-36.12 729,-58 735.3,-59.54 741.74,-61.66 748.01,-64.07"/>
<polygon fill="black" stroke="black" points="747.1,-67.48 757.68,-68.05 749.77,-61.01 747.1,-67.48"/>
<text text-anchor="middle" x="655.5" y="-60.8" font-family="Courier,monospace" font-size="9.00">clk_en_4m</text>
</g>
<!-- regs&#45;&gt;p_regs -->
<g id="edge5" class="edge">
<title>regs:f0&#45;&gt;p_regs:pf</title>
<path fill="none" stroke="black" d="M479.5,-237C520.9,-237 532.76,-239.2 572,-226 586.45,-221.14 589.41,-210.25 599.51,-205.87"/>
<polygon fill="black" stroke="black" points="600.32,-209.29 609.5,-204 599.03,-202.41 600.32,-209.29"/>
</g>
<!-- regs&#45;&gt;p_regs -->
<g id="edge6" class="edge">
<title>regs:f1&#45;&gt;p_regs:pf</title>
<path fill="none" stroke="black" d="M479.5,-218C534.09,-218 549.56,-205.64 599.41,-204.15"/>
<polygon fill="black" stroke="black" points="599.55,-207.65 609.5,-204 599.45,-200.65 599.55,-207.65"/>
</g>
<!-- regs&#45;&gt;p_regs -->
<g id="edge7" class="edge">
<title>regs:pw0&#45;&gt;p_regs:ppw</title>
<path fill="none" stroke="black" d="M479.5,-199C534.09,-199 549.56,-186.64 599.41,-185.15"/>
<polygon fill="black" stroke="black" points="599.55,-188.65 609.5,-185 599.45,-181.65 599.55,-188.65"/>
</g>
<!-- regs&#45;&gt;p_regs -->
<g id="edge8" class="edge">
<title>regs:pw1&#45;&gt;p_regs:ppw</title>
<path fill="none" stroke="black" d="M479.5,-180C520.63,-180 530.91,-181.24 572,-183 584.64,-183.54 590.07,-184.41 599.23,-184.8"/>
<polygon fill="black" stroke="black" points="599.43,-188.3 609.5,-185 599.57,-181.31 599.43,-188.3"/>
</g>
<!-- p_regs&#45;&gt;osc -->
<g id="edge9" class="edge">
<title>p_regs:pf&#45;&gt;osc</title>
<path fill="none" stroke="black" d="M701.5,-204C743.97,-204 770.58,-156.49 784.23,-122.28"/>
<polygon fill="black" stroke="black" points="787.63,-123.19 787.9,-112.6 781.09,-120.71 787.63,-123.19"/>
</g>
<!-- p_regs&#45;&gt;osc -->
<g id="edge10" class="edge">
<title>p_regs:pacc&#45;&gt;osc</title>
<path fill="none" stroke="black" d="M701.5,-166C731.59,-166 757.2,-142.04 774.05,-120.68"/>
<polygon fill="black" stroke="black" points="776.86,-122.77 780.07,-112.68 771.26,-118.57 776.86,-122.77"/>
</g>
<!-- pulse_cmp -->
<g id="node8" class="node">
<title>pulse_cmp</title>
<polygon fill="none" stroke="black" points="872,-63.5 872,-112.5 979,-112.5 979,-63.5 872,-63.5"/>
<text text-anchor="middle" x="925.5" y="-100.5" font-family="Courier,monospace" font-size="10.00">Pulse Compare</text>
<polyline fill="none" stroke="black" points="872,-93.5 979,-93.5 "/>
<text text-anchor="middle" x="925.5" y="-81.5" font-family="Courier,monospace" font-size="10.00">acc[15:4] &gt;= pw</text>
<text text-anchor="middle" x="925.5" y="-70.5" font-family="Courier,monospace" font-size="10.00">(12&#45;bit)</text>
</g>
<!-- p_regs&#45;&gt;pulse_cmp -->
<g id="edge12" class="edge">
<title>p_regs:ppw&#45;&gt;pulse_cmp</title>
<path fill="none" stroke="black" d="M701.5,-185C720.2,-185 722.01,-207.11 740,-202 796.67,-185.9 852.98,-146.9 888.21,-119"/>
<polygon fill="black" stroke="black" points="890.67,-121.52 896.27,-112.53 886.28,-116.07 890.67,-121.52"/>
</g>
<!-- adsr -->
<g id="node9" class="node">
<title>adsr</title>
<polygon fill="none" stroke="black" points="1025,-101 1025,-139 1138,-139 1138,-101 1025,-101"/>
<text text-anchor="middle" x="1081.5" y="-127" font-family="Courier,monospace" font-size="10.00">ADSR Envelope</text>
<polyline fill="none" stroke="black" points="1025,-120 1138,-120 "/>
<text text-anchor="middle" x="1081.5" y="-108" font-family="Courier,monospace" font-size="10.00">8&#45;bit, exp decay</text>
</g>
<!-- p_regs&#45;&gt;adsr -->
<g id="edge15" class="edge">
<title>p_regs&#45;&gt;adsr</title>
<path fill="none" stroke="black" d="M700.28,-144.21C774.97,-139.46 927.42,-129.75 1014.9,-124.18"/>
<polygon fill="black" stroke="black" points="1015.21,-127.66 1024.97,-123.54 1014.77,-120.68 1015.21,-127.66"/>
</g>
<!-- wave -->
<g id="node7" class="node">
<title>wave</title>
<polygon fill="none" stroke="black" points="1016,-44 1016,-82 1147,-82 1147,-44 1016,-44"/>
<text text-anchor="middle" x="1081.5" y="-70" font-family="Courier,monospace" font-size="10.00">Waveform Gen</text>
<polyline fill="none" stroke="black" points="1016,-63 1147,-63 "/>
<text text-anchor="middle" x="1081.5" y="-51" font-family="Courier,monospace" font-size="10.00">tri/saw/pulse/noise</text>
</g>
<!-- osc&#45;&gt;wave -->
<g id="edge11" class="edge">
<title>osc&#45;&gt;wave</title>
<path fill="none" stroke="black" d="M835.08,-67.08C846.58,-61.73 859.5,-56.72 872,-54 915.74,-44.49 965.81,-46.26 1005.92,-50.63"/>
<polygon fill="black" stroke="black" points="1005.56,-54.11 1015.9,-51.79 1006.37,-47.15 1005.56,-54.11"/>
</g>
<!-- osc&#45;&gt;pulse_cmp -->
<g id="edge13" class="edge">
<title>osc&#45;&gt;pulse_cmp</title>
<path fill="none" stroke="black" d="M835.26,-88C843.55,-88 852.54,-88 861.52,-88"/>
<polygon fill="black" stroke="black" points="861.61,-91.5 871.61,-88 861.61,-84.5 861.61,-91.5"/>
</g>
<!-- mult -->
<g id="node10" class="node">
<title>mult</title>
<polygon fill="none" stroke="black" points="1184,-72 1184,-110 1261,-110 1261,-72 1184,-72"/>
<text text-anchor="middle" x="1222.5" y="-98" font-family="Courier,monospace" font-size="10.00">Multiply</text>
<polyline fill="none" stroke="black" points="1184,-91 1261,-91 "/>
<text text-anchor="middle" x="1222.5" y="-79" font-family="Courier,monospace" font-size="10.00">wave x env</text>
</g>
<!-- wave&#45;&gt;mult -->
<g id="edge16" class="edge">
<title>wave&#45;&gt;mult</title>
<path fill="none" stroke="black" d="M1147.12,-76.02C1156.19,-77.84 1165.37,-79.69 1174.04,-81.44"/>
<polygon fill="black" stroke="black" points="1173.45,-84.89 1183.95,-83.44 1174.84,-78.03 1173.45,-84.89"/>
</g>
<!-- pulse_cmp&#45;&gt;wave -->
<g id="edge14" class="edge">
<title>pulse_cmp&#45;&gt;wave</title>
<path fill="none" stroke="black" d="M979.07,-79.47C987.68,-78.07 996.74,-76.6 1005.76,-75.13"/>
<polygon fill="black" stroke="black" points="1006.6,-78.54 1015.91,-73.49 1005.48,-71.63 1006.6,-78.54"/>
</g>
<!-- adsr&#45;&gt;mult -->
<g id="edge17" class="edge">
<title>adsr&#45;&gt;mult</title>
<path fill="none" stroke="black" d="M1138.24,-108.37C1150.04,-105.91 1162.39,-103.33 1173.86,-100.94"/>
<polygon fill="black" stroke="black" points="1174.6,-104.36 1183.67,-98.89 1173.17,-97.51 1174.6,-104.36"/>
</g>
<!-- mix -->
<g id="node11" class="node">
<title>mix</title>
<polygon fill="none" stroke="black" points="1298,-73 1298,-109 1393,-109 1393,-73 1298,-73"/>
<text text-anchor="middle" x="1345.5" y="-88.5" font-family="Courier,monospace" font-size="10.00">3&#45;Voice Mixer</text>
</g>
<!-- mult&#45;&gt;mix -->
<g id="edge18" class="edge">
<title>mult&#45;&gt;mix</title>
<path fill="none" stroke="black" d="M1261.12,-91C1269.59,-91 1278.76,-91 1287.81,-91"/>
<polygon fill="black" stroke="black" points="1287.95,-94.5 1297.95,-91 1287.95,-87.5 1287.95,-94.5"/>
</g>
<!-- pwm -->
<g id="node12" class="node">
<title>pwm</title>
<polygon fill="none" stroke="black" points="1430,-66.5 1430,-115.5 1543,-115.5 1543,-66.5 1430,-66.5"/>
<text text-anchor="middle" x="1486.5" y="-103.5" font-family="Courier,monospace" font-size="10.00">PWM DAC</text>
<polyline fill="none" stroke="black" points="1430,-96.5 1543,-96.5 "/>
<text text-anchor="middle" x="1486.5" y="-84.5" font-family="Courier,monospace" font-size="10.00">8&#45;bit, ~47.1 kHz</text>
<text text-anchor="middle" x="1486.5" y="-73.5" font-family="Courier,monospace" font-size="10.00">(12 MHz)</text>
</g>
<!-- mix&#45;&gt;pwm -->
<g id="edge19" class="edge">
<title>mix&#45;&gt;pwm</title>
<path fill="none" stroke="black" d="M1393.17,-91C1401.56,-91 1410.45,-91 1419.27,-91"/>
<polygon fill="black" stroke="black" points="1419.55,-94.5 1429.55,-91 1419.55,-87.5 1419.55,-94.5"/>
</g>
<!-- uo_out -->
<g id="node13" class="node">
<title>uo_out</title>
<polygon fill="none" stroke="black" points="1580,-73 1580,-109 1651,-109 1651,-73 1580,-73"/>
<text text-anchor="middle" x="1615.5" y="-88.5" font-family="Courier,monospace" font-size="10.00">uo_out[0]</text>
</g>
<!-- pwm&#45;&gt;uo_out -->
<g id="edge20" class="edge">
<title>pwm&#45;&gt;uo_out</title>
<path fill="none" stroke="black" d="M1543.2,-91C1552.02,-91 1561.03,-91 1569.56,-91"/>
<polygon fill="black" stroke="black" points="1569.67,-94.5 1579.67,-91 1569.67,-87.5 1569.67,-94.5"/>
</g>
</g>
</svg>
