<?xml version="1.0" encoding="UTF-8" standalone="no"?>
<!DOCTYPE svg PUBLIC "-//W3C//DTD SVG 1.1//EN"
 "http://www.w3.org/Graphics/SVG/1.1/DTD/svg11.dtd">
<!-- Generated by graphviz version 2.43.0 (0)
 -->
<!-- Title: architecture Pages: 1 -->
<svg width="2976pt" height="271pt"
 viewBox="0.00 0.00 2976.09 271.00" xmlns="http://www.w3.org/2000/svg" xmlns:xlink="http://www.w3.org/1999/xlink">
<g id="graph0" class="graph" transform="scale(1 1) rotate(0) translate(4 267)">
<title>architecture</title>
<polygon fill="white" stroke="transparent" points="-4,4 -4,-267 2972.09,-267 2972.09,4 -4,4"/>
<g id="clust1" class="cluster">
<title>cluster_inputs</title>
<polygon fill="white" stroke="#888888" stroke-dasharray="5,2" points="30,-184 30,-255 359.5,-255 359.5,-184 30,-184"/>
<text text-anchor="middle" x="194.75" y="-243" font-family="Helvetica,sans-Serif" font-size="10.00" fill="#888888">Input Pins</text>
</g>
<g id="clust2" class="cluster">
<title>cluster_pipeline</title>
<path fill="#eafaf1" stroke="#27ae60" d="M1029,-48C1029,-48 2051,-48 2051,-48 2057,-48 2063,-54 2063,-60 2063,-60 2063,-229 2063,-229 2063,-235 2057,-241 2051,-241 2051,-241 1029,-241 1029,-241 1023,-241 1017,-235 1017,-229 1017,-229 1017,-60 1017,-60 1017,-54 1023,-48 1029,-48"/>
<text text-anchor="start" x="1360" y="-227.5" font-family="Helvetica,sans-Serif" font-weight="bold" font-size="10.00">Shared Voice Pipeline</text>
<text text-anchor="start" x="1486" y="-227.5" font-family="Helvetica,sans-Serif" font-size="10.00"> (time&#45;multiplexed, 3 voices @ 16.67 MHz each)</text>
</g>
<g id="clust3" class="cluster">
<title>cluster_outputs</title>
<polygon fill="white" stroke="#888888" stroke-dasharray="5,2" points="2539,-18 2539,-89 2624,-89 2624,-18 2539,-18"/>
<text text-anchor="middle" x="2581.5" y="-77" font-family="Helvetica,sans-Serif" font-size="10.00" fill="#888888">Output Pins</text>
</g>
<!-- ui_in -->
<g id="node1" class="node">
<title>ui_in</title>
<polygon fill="#d4e6f1" stroke="black" points="116,-222 38,-222 38,-198 116,-198 116,-192 134,-210 116,-228 116,-222"/>
<text text-anchor="middle" x="86" y="-213.2" font-family="Helvetica,sans-Serif" font-size="11.00">ui_in[7:0]</text>
<text text-anchor="middle" x="86" y="-201.2" font-family="Helvetica,sans-Serif" font-size="11.00">addr/voice/WE</text>
</g>
<!-- we_edge -->
<g id="node3" class="node">
<title>we_edge</title>
<polygon fill="#d6dbdf" stroke="transparent" points="260.5,-151 260.5,-173 369.5,-173 369.5,-151 260.5,-151"/>
<polygon fill="none" stroke="black" points="260.5,-151 260.5,-173 369.5,-173 369.5,-151 260.5,-151"/>
<text text-anchor="start" x="265.5" y="-160.2" font-family="Helvetica,sans-Serif" font-weight="bold" font-size="11.00">WE Edge Detect</text>
<polygon fill="none" stroke="black" points="260.5,-132 260.5,-151 369.5,-151 369.5,-132 260.5,-132"/>
<text text-anchor="start" x="275.5" y="-139.6" font-family="Helvetica,sans-Serif" font-size="8.00">ui_in[7] rising edge</text>
</g>
<!-- ui_in&#45;&gt;we_edge -->
<g id="edge1" class="edge">
<title>ui_in&#45;&gt;we_edge</title>
<path fill="none" stroke="black" d="M134.21,-198.12C167.63,-189.71 212.84,-178.33 249.5,-169.11"/>
<polygon fill="black" stroke="black" points="250.75,-172.4 259.6,-166.56 249.05,-165.61 250.75,-172.4"/>
<text text-anchor="middle" x="216" y="-195.8" font-family="Helvetica,sans-Serif" font-size="9.00"> &#160;WE, addr,</text>
<text text-anchor="middle" x="216" y="-185.8" font-family="Helvetica,sans-Serif" font-size="9.00"> &#160;voice_sel</text>
</g>
<!-- uio_in -->
<g id="node2" class="node">
<title>uio_in</title>
<polygon fill="#d4e6f1" stroke="black" points="333.5,-222 277.5,-222 277.5,-198 333.5,-198 333.5,-192 351.5,-210 333.5,-228 333.5,-222"/>
<text text-anchor="middle" x="314.5" y="-213.2" font-family="Helvetica,sans-Serif" font-size="11.00">uio_in[7:0]</text>
<text text-anchor="middle" x="314.5" y="-201.2" font-family="Helvetica,sans-Serif" font-size="11.00">write data</text>
</g>
<!-- regs -->
<g id="node4" class="node">
<title>regs</title>
<polygon fill="#aed6f1" stroke="transparent" points="465,-179 465,-203 935,-203 935,-179 465,-179"/>
<polygon fill="none" stroke="black" points="465,-179 465,-203 935,-203 935,-179 465,-179"/>
<text text-anchor="start" x="653" y="-189.2" font-family="Helvetica,sans-Serif" font-weight="bold" font-size="11.00">Register Banks</text>
<polygon fill="none" stroke="black" points="465,-118 465,-179 701,-179 701,-118 465,-118"/>
<text text-anchor="start" x="538" y="-165.2" font-family="Helvetica,sans-Serif" font-weight="bold" font-size="11.00">Per&#45;Voice (×3)</text>
<text text-anchor="start" x="492" y="-154.2" font-family="Helvetica,sans-Serif" font-size="11.00"> &#160;&#160;&#160;&#160;&#160;&#160;&#160;&#160;&#160;&#160;&#160;&#160;&#160;&#160;&#160;&#160;&#160;&#160;&#160;</text>
<text text-anchor="start" x="568" y="-154.2" font-family="Helvetica,sans-Serif" font-size="8.00"> &#160;&#160;&#160;&#160;&#160;&#160;&#160;&#160;&#160;&#160;&#160;&#160;&#160;&#160;&#160;&#160;&#160;&#160;&#160;0: freq_lo [7:0]</text>
<text text-anchor="start" x="527.5" y="-145.6" font-family="Helvetica,sans-Serif" font-size="8.00"> &#160;&#160;&#160;&#160;&#160;&#160;&#160;&#160;&#160;&#160;&#160;&#160;&#160;&#160;&#160;&#160;&#160;&#160;&#160;1: freq_hi [15:8]</text>
<text text-anchor="start" x="519.5" y="-137.6" font-family="Helvetica,sans-Serif" font-size="8.00"> &#160;&#160;&#160;&#160;&#160;&#160;&#160;&#160;&#160;&#160;&#160;&#160;&#160;&#160;&#160;&#160;&#160;&#160;&#160;2: pulse_width [7:0]</text>
<text text-anchor="start" x="471" y="-127.2" font-family="Helvetica,sans-Serif" font-size="8.00"> &#160;&#160;&#160;&#160;&#160;&#160;&#160;&#160;&#160;&#160;&#160;&#160;&#160;&#160;&#160;&#160;&#160;&#160;&#160;6: waveform [7:0] &#160;&#160;&#160;&#160;&#160;&#160;&#160;&#160;&#160;&#160;&#160;&#160;&#160;&#160;&#160;&#160;&#160;&#160;&#160;</text>
<text text-anchor="start" x="634" y="-127.2" font-family="Helvetica,sans-Serif" font-size="11.00"> &#160;&#160;&#160;&#160;&#160;&#160;&#160;&#160;&#160;&#160;&#160;&#160;&#160;&#160;&#160;</text>
<polygon fill="none" stroke="black" points="701,-118 701,-179 935,-179 935,-118 701,-118"/>
<text text-anchor="start" x="796" y="-165.2" font-family="Helvetica,sans-Serif" font-weight="bold" font-size="11.00">Shared</text>
<text text-anchor="start" x="728.5" y="-154.2" font-family="Helvetica,sans-Serif" font-size="11.00"> &#160;&#160;&#160;&#160;&#160;&#160;&#160;&#160;&#160;&#160;&#160;&#160;&#160;&#160;&#160;&#160;&#160;&#160;&#160;</text>
<text text-anchor="start" x="804.5" y="-154.2" font-family="Helvetica,sans-Serif" font-size="8.00"> &#160;&#160;&#160;&#160;&#160;&#160;&#160;&#160;&#160;&#160;&#160;&#160;&#160;&#160;&#160;&#160;&#160;&#160;&#160;4: attack [7:0]</text>
<text text-anchor="start" x="758.5" y="-145.6" font-family="Helvetica,sans-Serif" font-size="8.00"> &#160;&#160;&#160;&#160;&#160;&#160;&#160;&#160;&#160;&#160;&#160;&#160;&#160;&#160;&#160;&#160;&#160;&#160;&#160;&#160;&#160;&#160;(lo=atk, hi=dec)</text>
<text text-anchor="start" x="764" y="-137.6" font-family="Helvetica,sans-Serif" font-size="8.00"> &#160;&#160;&#160;&#160;&#160;&#160;&#160;&#160;&#160;&#160;&#160;&#160;&#160;&#160;&#160;&#160;&#160;&#160;&#160;5: sustain [7:0]</text>
<text text-anchor="start" x="707" y="-127.2" font-family="Helvetica,sans-Serif" font-size="8.00"> &#160;&#160;&#160;&#160;&#160;&#160;&#160;&#160;&#160;&#160;&#160;&#160;&#160;&#160;&#160;&#160;&#160;&#160;&#160;&#160;&#160;&#160;(lo=sus, hi=rel) &#160;&#160;&#160;&#160;&#160;&#160;&#160;&#160;&#160;&#160;&#160;&#160;&#160;&#160;&#160;&#160;&#160;&#160;&#160;</text>
<text text-anchor="start" x="868" y="-127.2" font-family="Helvetica,sans-Serif" font-size="11.00"> &#160;&#160;&#160;&#160;&#160;&#160;&#160;&#160;&#160;&#160;&#160;&#160;&#160;&#160;&#160;</text>
<polygon fill="none" stroke="black" points="465,-97 465,-118 935,-118 935,-97 465,-97"/>
<text text-anchor="start" x="645" y="-105.6" font-family="Helvetica,sans-Serif" font-size="8.00">voice_sel = ui_in[4:3] (0–2)</text>
</g>
<!-- uio_in&#45;&gt;regs -->
<g id="edge2" class="edge">
<title>uio_in&#45;&gt;regs</title>
<path fill="none" stroke="black" d="M351.58,-204.36C377.24,-200.34 414.22,-194.55 454.57,-188.24"/>
<polygon fill="black" stroke="black" points="455.28,-191.67 464.62,-186.67 454.2,-184.76 455.28,-191.67"/>
<text text-anchor="middle" x="417" y="-200.8" font-family="Helvetica,sans-Serif" font-size="9.00"> &#160;8&#45;bit data &#160;</text>
</g>
<!-- we_edge&#45;&gt;regs -->
<g id="edge3" class="edge">
<title>we_edge&#45;&gt;regs</title>
<path fill="none" stroke="black" d="M369.23,-152.58C392.94,-152.39 422.65,-152.16 454.46,-151.91"/>
<polygon fill="black" stroke="black" points="454.89,-155.41 464.86,-151.83 454.83,-148.41 454.89,-155.41"/>
<text text-anchor="middle" x="417" y="-154.8" font-family="Helvetica,sans-Serif" font-size="9.00"> &#160;wr_en_rise &#160;</text>
</g>
<!-- vidx -->
<g id="node5" class="node">
<title>vidx</title>
<polygon fill="#a9dfbf" stroke="transparent" points="1025.5,-140 1025.5,-162 1150.5,-162 1150.5,-140 1025.5,-140"/>
<polygon fill="none" stroke="black" points="1025.5,-140 1025.5,-162 1150.5,-162 1150.5,-140 1025.5,-140"/>
<text text-anchor="start" x="1030.5" y="-149.2" font-family="Helvetica,sans-Serif" font-weight="bold" font-size="11.00">Voice Round&#45;Robin</text>
<polygon fill="none" stroke="black" points="1025.5,-112 1025.5,-140 1150.5,-140 1150.5,-112 1025.5,-112"/>
<text text-anchor="start" x="1048.5" y="-128.6" font-family="Helvetica,sans-Serif" font-size="8.00">vidx: 0→1→2→0→…</text>
<text text-anchor="start" x="1067.5" y="-119.6" font-family="Helvetica,sans-Serif" font-size="8.00">@ 50 MHz</text>
</g>
<!-- regs&#45;&gt;vidx -->
<g id="edge4" class="edge">
<title>regs&#45;&gt;vidx</title>
<path fill="none" stroke="black" d="M935.25,-142.1C963.95,-141.13 991.37,-140.21 1014.78,-139.42"/>
<polygon fill="black" stroke="black" points="1007.65,-144.06 1017,-139.08 1006.58,-137.14 1007.65,-144.06"/>
<text text-anchor="middle" x="980" y="-163.8" font-family="Helvetica,sans-Serif" font-size="9.00"> &#160;freq, PW,</text>
<text text-anchor="middle" x="980" y="-153.8" font-family="Helvetica,sans-Serif" font-size="9.00"> &#160;waveform,</text>
<text text-anchor="middle" x="980" y="-143.8" font-family="Helvetica,sans-Serif" font-size="9.00"> &#160;atk/sus &#160;</text>
</g>
<!-- prescaler -->
<g id="node6" class="node">
<title>prescaler</title>
<polygon fill="#a9dfbf" stroke="transparent" points="1187.5,-139 1187.5,-161 1308.5,-161 1308.5,-139 1187.5,-139"/>
<polygon fill="none" stroke="black" points="1187.5,-139 1187.5,-161 1308.5,-161 1308.5,-139 1187.5,-139"/>
<text text-anchor="start" x="1205.5" y="-148.2" font-family="Helvetica,sans-Serif" font-weight="bold" font-size="11.00">Acc Prescaler</text>
<polygon fill="none" stroke="black" points="1187.5,-102 1187.5,-139 1308.5,-139 1308.5,-102 1187.5,-102"/>
<text text-anchor="start" x="1211.5" y="-127.6" font-family="Helvetica,sans-Serif" font-size="8.00">4&#45;bit ÷16 counter</text>
<text text-anchor="start" x="1192.5" y="-118.6" font-family="Helvetica,sans-Serif" font-size="8.00">eff. rate = 1.042 MHz/voice</text>
<text text-anchor="start" x="1207" y="-109.6" font-family="Helvetica,sans-Serif" font-size="8.00">~15.9 Hz resolution</text>
</g>
<!-- vidx&#45;&gt;prescaler -->
<g id="edge5" class="edge">
<title>vidx&#45;&gt;prescaler</title>
<path fill="none" stroke="black" d="M1150.04,-135.05C1158.85,-134.77 1167.97,-134.49 1176.93,-134.2"/>
<polygon fill="black" stroke="black" points="1177.06,-137.7 1186.94,-133.88 1176.84,-130.7 1177.06,-137.7"/>
</g>
<!-- phase_acc -->
<g id="node7" class="node">
<title>phase_acc</title>
<polygon fill="#a9dfbf" stroke="transparent" points="1409.5,-179 1409.5,-201 1552.5,-201 1552.5,-179 1409.5,-179"/>
<polygon fill="none" stroke="black" points="1409.5,-179 1409.5,-201 1552.5,-201 1552.5,-179 1409.5,-179"/>
<text text-anchor="start" x="1421.5" y="-188.2" font-family="Helvetica,sans-Serif" font-weight="bold" font-size="11.00">Phase Accumulator</text>
<polygon fill="none" stroke="black" points="1409.5,-151 1409.5,-179 1552.5,-179 1552.5,-151 1409.5,-151"/>
<text text-anchor="start" x="1438.5" y="-167.6" font-family="Helvetica,sans-Serif" font-size="8.00">16&#45;bit per voice (×3)</text>
<text text-anchor="start" x="1414.5" y="-158.6" font-family="Helvetica,sans-Serif" font-size="8.00">acc += freq when prescaler==0</text>
</g>
<!-- vidx&#45;&gt;phase_acc -->
<g id="edge6" class="edge">
<title>vidx&#45;&gt;phase_acc</title>
<path fill="none" stroke="black" d="M1150.24,-161.62C1162.26,-165.46 1174.89,-168.86 1187,-171 1257.8,-183.5 1339.74,-183.7 1398.85,-181.39"/>
<polygon fill="black" stroke="black" points="1399.03,-184.88 1408.87,-180.96 1398.73,-177.89 1399.03,-184.88"/>
</g>
<!-- prescaler&#45;&gt;phase_acc -->
<g id="edge7" class="edge">
<title>prescaler&#45;&gt;phase_acc</title>
<path fill="none" stroke="black" d="M1308.29,-143.39C1335.91,-148.65 1369.13,-154.98 1398.92,-160.65"/>
<polygon fill="black" stroke="black" points="1398.4,-164.12 1408.88,-162.55 1399.71,-157.24 1398.4,-164.12"/>
<text text-anchor="middle" x="1358.5" y="-159.8" font-family="Helvetica,sans-Serif" font-size="9.00"> &#160;acc_update &#160;</text>
</g>
<!-- waveform -->
<g id="node8" class="node">
<title>waveform</title>
<polygon fill="#a9dfbf" stroke="transparent" points="1636,-188 1636,-210 1810,-210 1810,-188 1636,-188"/>
<polygon fill="none" stroke="black" points="1636,-188 1636,-210 1810,-210 1810,-188 1636,-188"/>
<text text-anchor="start" x="1658" y="-197.2" font-family="Helvetica,sans-Serif" font-weight="bold" font-size="11.00">Waveform Generator</text>
<polygon fill="none" stroke="black" points="1636,-142 1636,-188 1750,-188 1750,-142 1636,-142"/>
<text text-anchor="start" x="1651" y="-176.6" font-family="Helvetica,sans-Serif" font-size="8.00">Sawtooth: acc[15:8]</text>
<text text-anchor="start" x="1641" y="-167.6" font-family="Helvetica,sans-Serif" font-size="8.00">Triangle: acc[14:7] ^ fold</text>
<text text-anchor="start" x="1647.5" y="-158.6" font-family="Helvetica,sans-Serif" font-size="8.00">Pulse: acc[15:8] &gt; PW</text>
<text text-anchor="start" x="1643" y="-149.6" font-family="Helvetica,sans-Serif" font-size="8.00">Noise: shared 4&#45;bit LFSR</text>
<polygon fill="none" stroke="black" points="1750,-142 1750,-188 1810,-188 1810,-142 1750,-142"/>
<text text-anchor="start" x="1755" y="-176.6" font-family="Helvetica,sans-Serif" font-size="8.00">OR&#45;combine</text>
<text text-anchor="start" x="1763" y="-167.6" font-family="Helvetica,sans-Serif" font-size="8.00">enabled</text>
<text text-anchor="start" x="1757" y="-158.6" font-family="Helvetica,sans-Serif" font-size="8.00">waveforms</text>
<text text-anchor="start" x="1756" y="-149.6" font-family="Helvetica,sans-Serif" font-size="8.00">→ 8&#45;bit mux</text>
</g>
<!-- phase_acc&#45;&gt;waveform -->
<g id="edge8" class="edge">
<title>phase_acc&#45;&gt;waveform</title>
<path fill="none" stroke="black" d="M1552.03,-176C1575.06,-176 1601.03,-176 1625.62,-176"/>
<polygon fill="black" stroke="black" points="1625.69,-179.5 1635.69,-176 1625.69,-172.5 1625.69,-179.5"/>
<text text-anchor="middle" x="1594" y="-178.8" font-family="Helvetica,sans-Serif" font-size="9.00"> &#160;cur_acc &#160;</text>
</g>
<!-- scale -->
<g id="node10" class="node">
<title>scale</title>
<polygon fill="#a9dfbf" stroke="transparent" points="1903,-88 1903,-110 2055,-110 2055,-88 1903,-88"/>
<polygon fill="none" stroke="black" points="1903,-88 1903,-110 2055,-110 2055,-88 1903,-88"/>
<text text-anchor="start" x="1926" y="-97.2" font-family="Helvetica,sans-Serif" font-weight="bold" font-size="11.00">Envelope Scaling</text>
<polygon fill="none" stroke="black" points="1903,-69 1903,-88 2055,-88 2055,-69 1903,-69"/>
<text text-anchor="start" x="1908" y="-76.6" font-family="Helvetica,sans-Serif" font-size="8.00">voice_out[11:0] = waveform × env</text>
</g>
<!-- waveform&#45;&gt;scale -->
<g id="edge9" class="edge">
<title>waveform&#45;&gt;scale</title>
<path fill="none" stroke="black" d="M1810.35,-146.76C1842.01,-136.04 1877.45,-124.05 1907.55,-113.85"/>
<polygon fill="black" stroke="black" points="1908.78,-117.13 1917.13,-110.61 1906.53,-110.5 1908.78,-117.13"/>
<text text-anchor="middle" x="1856.5" y="-142.8" font-family="Helvetica,sans-Serif" font-size="9.00"> &#160;8&#45;bit mux &#160;</text>
</g>
<!-- adsr -->
<g id="node9" class="node">
<title>adsr</title>
<polygon fill="#a9dfbf" stroke="transparent" points="1653,-102 1653,-124 1793,-124 1793,-102 1653,-102"/>
<polygon fill="none" stroke="black" points="1653,-102 1653,-124 1793,-124 1793,-102 1653,-102"/>
<text text-anchor="start" x="1676" y="-111.2" font-family="Helvetica,sans-Serif" font-weight="bold" font-size="11.00">ADSR Envelope</text>
<polygon fill="none" stroke="black" points="1653,-56 1653,-102 1793,-102 1793,-56 1653,-56"/>
<text text-anchor="start" x="1658" y="-90.6" font-family="Helvetica,sans-Serif" font-size="8.00">4&#45;bit env counter per voice (×3)</text>
<text text-anchor="start" x="1675" y="-81.6" font-family="Helvetica,sans-Serif" font-size="8.00">18&#45;bit shared prescaler</text>
<text text-anchor="start" x="1658" y="-72.6" font-family="Helvetica,sans-Serif" font-size="8.00">16 rate levels (6–17 bit periods)</text>
<text text-anchor="start" x="1664.5" y="-63.6" font-family="Helvetica,sans-Serif" font-size="8.00">States: IDLE→ATK→DEC→REL</text>
</g>
<!-- adsr&#45;&gt;scale -->
<g id="edge10" class="edge">
<title>adsr&#45;&gt;scale</title>
<path fill="none" stroke="black" d="M1793.07,-90C1823.69,-90 1860.03,-90 1892.36,-90"/>
<polygon fill="black" stroke="black" points="1892.7,-93.5 1902.7,-90 1892.7,-86.5 1892.7,-93.5"/>
<text text-anchor="middle" x="1856.5" y="-92.8" font-family="Helvetica,sans-Serif" font-size="9.00"> &#160;4&#45;bit env &#160;</text>
</g>
<!-- mixer -->
<g id="node11" class="node">
<title>mixer</title>
<polygon fill="#f9e79f" stroke="transparent" points="2140.5,-96 2140.5,-120 2267.5,-120 2267.5,-96 2140.5,-96"/>
<polygon fill="none" stroke="black" points="2140.5,-96 2140.5,-120 2267.5,-120 2267.5,-96 2140.5,-96"/>
<text text-anchor="start" x="2162" y="-106.2" font-family="Helvetica,sans-Serif" font-weight="bold" font-size="11.00">3&#45;Voice Mixer</text>
<polygon fill="none" stroke="black" points="2140.5,-57 2140.5,-96 2267.5,-96 2267.5,-57 2140.5,-57"/>
<text text-anchor="start" x="2146.5" y="-83.6" font-family="Helvetica,sans-Serif" font-size="8.00">Accumulate voice_out[11:4]</text>
<text text-anchor="start" x="2155.5" y="-74.6" font-family="Helvetica,sans-Serif" font-size="8.00">over 3 cycles, shift &gt;&gt;2</text>
<text text-anchor="start" x="2173" y="-65.6" font-family="Helvetica,sans-Serif" font-size="8.00">→ 8&#45;bit mix_out</text>
</g>
<!-- scale&#45;&gt;mixer -->
<g id="edge11" class="edge">
<title>scale&#45;&gt;mixer</title>
<path fill="none" stroke="black" d="M2063,-89.63C2084.87,-89.53 2108.3,-89.42 2129.6,-89.33"/>
<polygon fill="black" stroke="black" points="2129.68,-92.83 2139.67,-89.28 2129.65,-85.83 2129.68,-92.83"/>
<text text-anchor="middle" x="2097.5" y="-101.8" font-family="Helvetica,sans-Serif" font-size="9.00"> &#160;voice_out</text>
<text text-anchor="middle" x="2097.5" y="-91.8" font-family="Helvetica,sans-Serif" font-size="9.00"> &#160;[11:0] &#160;</text>
</g>
<!-- pwm -->
<g id="node12" class="node">
<title>pwm</title>
<polygon fill="#f5cba7" stroke="transparent" points="2346.5,-51 2346.5,-75 2441.5,-75 2441.5,-51 2346.5,-51"/>
<polygon fill="none" stroke="black" points="2346.5,-51 2346.5,-75 2441.5,-75 2441.5,-51 2346.5,-51"/>
<text text-anchor="start" x="2359.5" y="-61.2" font-family="Helvetica,sans-Serif" font-weight="bold" font-size="11.00">pwm_audio</text>
<polygon fill="none" stroke="black" points="2346.5,-12 2346.5,-51 2441.5,-51 2441.5,-12 2346.5,-12"/>
<text text-anchor="start" x="2373.5" y="-38.6" font-family="Helvetica,sans-Serif" font-size="8.00">8&#45;bit PWM</text>
<text text-anchor="start" x="2353" y="-29.6" font-family="Helvetica,sans-Serif" font-size="8.00">period = 255 clocks</text>
<text text-anchor="start" x="2352.5" y="-20.6" font-family="Helvetica,sans-Serif" font-size="8.00">~196 kHz @ 50 MHz</text>
</g>
<!-- mixer&#45;&gt;pwm -->
<g id="edge12" class="edge">
<title>mixer&#45;&gt;pwm</title>
<path fill="none" stroke="black" d="M2267.1,-74.02C2289.42,-68.67 2314.42,-62.69 2336.18,-57.48"/>
<polygon fill="black" stroke="black" points="2337.02,-60.88 2345.93,-55.15 2335.39,-54.07 2337.02,-60.88"/>
<text text-anchor="middle" x="2306.5" y="-81.8" font-family="Helvetica,sans-Serif" font-size="9.00"> &#160;mix_out</text>
<text text-anchor="middle" x="2306.5" y="-71.8" font-family="Helvetica,sans-Serif" font-size="9.00"> &#160;[7:0] &#160;</text>
</g>
<!-- pwm_out -->
<g id="node13" class="node">
<title>pwm_out</title>
<polygon fill="#fadbd8" stroke="black" points="2598,-56 2547,-56 2547,-32 2598,-32 2598,-26 2616,-44 2598,-62 2598,-56"/>
<text text-anchor="middle" x="2581.5" y="-47.2" font-family="Helvetica,sans-Serif" font-size="11.00">uo_out[0]</text>
<text text-anchor="middle" x="2581.5" y="-35.2" font-family="Helvetica,sans-Serif" font-size="11.00">pwm_out</text>
</g>
<!-- pwm&#45;&gt;pwm_out -->
<g id="edge13" class="edge">
<title>pwm&#45;&gt;pwm_out</title>
<path fill="none" stroke="black" d="M2441.44,-44C2470.67,-44 2508.03,-44 2536.66,-44"/>
<polygon fill="black" stroke="black" points="2536.78,-47.5 2546.78,-44 2536.78,-40.5 2536.78,-47.5"/>
<text text-anchor="middle" x="2494" y="-56.8" font-family="Helvetica,sans-Serif" font-size="9.00"> &#160;1&#45;bit PWM</text>
<text text-anchor="middle" x="2494" y="-46.8" font-family="Helvetica,sans-Serif" font-size="9.00"> &#160;@ ~196 kHz &#160;</text>
</g>
<!-- rc_filter -->
<g id="node14" class="node">
<title>rc_filter</title>
<polygon fill="#f5cba7" stroke="black" points="2784.47,-88 2687.53,-88 2653,0 2819,0 2784.47,-88"/>
<text text-anchor="middle" x="2736" y="-53.2" font-family="Helvetica,sans-Serif" font-size="11.00">RC low&#45;pass</text>
<text text-anchor="middle" x="2736" y="-41.2" font-family="Helvetica,sans-Serif" font-size="11.00">filter</text>
<text text-anchor="middle" x="2736" y="-29.2" font-family="Helvetica,sans-Serif" font-size="11.00">(off&#45;chip)</text>
</g>
<!-- pwm_out&#45;&gt;rc_filter -->
<g id="edge14" class="edge">
<title>pwm_out&#45;&gt;rc_filter</title>
<path fill="none" stroke="black" stroke-dasharray="1,5" d="M2616.34,-44C2629.37,-44 2644.82,-44 2660.2,-44"/>
<polygon fill="black" stroke="black" points="2660.26,-47.5 2670.26,-44 2660.26,-40.5 2660.26,-47.5"/>
</g>
<!-- audio_out -->
<g id="node15" class="node">
<title>audio_out</title>
<polygon fill="#d5f5e3" stroke="black" points="2964.13,-33.86 2964.13,-54.14 2933.62,-68.48 2890.47,-68.48 2859.96,-54.14 2859.96,-33.86 2890.47,-19.52 2933.62,-19.52 2964.13,-33.86"/>
<polygon fill="none" stroke="black" points="2968.13,-31.32 2968.13,-56.68 2934.51,-72.48 2889.58,-72.48 2855.96,-56.68 2855.96,-31.32 2889.58,-15.52 2934.51,-15.52 2968.13,-31.32"/>
<text text-anchor="middle" x="2912.04" y="-47.2" font-family="Helvetica,sans-Serif" font-size="11.00">Analog</text>
<text text-anchor="middle" x="2912.04" y="-35.2" font-family="Helvetica,sans-Serif" font-size="11.00">audio out</text>
</g>
<!-- rc_filter&#45;&gt;audio_out -->
<g id="edge15" class="edge">
<title>rc_filter&#45;&gt;audio_out</title>
<path fill="none" stroke="black" stroke-dasharray="1,5" d="M2801.81,-44C2816.12,-44 2831.29,-44 2845.62,-44"/>
<polygon fill="black" stroke="black" points="2845.89,-47.5 2855.89,-44 2845.89,-40.5 2845.89,-47.5"/>
</g>
<!-- clk_rst -->
<g id="node16" class="node">
<title>clk_rst</title>
<polygon fill="#d7bde2" stroke="black" points="86,-117 0,-85 86,-53 172,-85 86,-117"/>
<text text-anchor="middle" x="86" y="-88.2" font-family="Helvetica,sans-Serif" font-size="11.00">clk (50 MHz)</text>
<text text-anchor="middle" x="86" y="-76.2" font-family="Helvetica,sans-Serif" font-size="11.00">rst_n</text>
</g>
<!-- clk_rst&#45;&gt;we_edge -->
<g id="edge16" class="edge">
<title>clk_rst&#45;&gt;we_edge</title>
<path fill="none" stroke="#9b59b6" stroke-dasharray="5,2" d="M133.09,-99.51C150.86,-105.05 171.35,-111.39 190,-117 210.2,-123.08 232.31,-129.58 252.17,-135.35"/>
<ellipse fill="#9b59b6" stroke="#9b59b6" cx="256.1" cy="-136.5" rx="4" ry="4"/>
</g>
<!-- clk_rst&#45;&gt;regs -->
<g id="edge17" class="edge">
<title>clk_rst&#45;&gt;regs</title>
<path fill="none" stroke="#9b59b6" stroke-dasharray="5,2" d="M153.37,-92.05C226.12,-99.78 347.12,-112.63 456.71,-124.27"/>
<ellipse fill="#9b59b6" stroke="#9b59b6" cx="460.93" cy="-124.72" rx="4" ry="4"/>
</g>
<!-- clk_rst&#45;&gt;vidx -->
<g id="edge18" class="edge">
<title>clk_rst&#45;&gt;vidx</title>
<path fill="none" stroke="#9b59b6" stroke-dasharray="5,2" d="M154.08,-78.27C298.17,-65.34 647.5,-42.14 935,-88 962.46,-92.38 991.73,-100.88 1017.15,-109.59"/>
<ellipse fill="#9b59b6" stroke="#9b59b6" cx="1021.13" cy="-110.98" rx="4" ry="4"/>
</g>
<!-- clk_rst&#45;&gt;pwm -->
<g id="edge19" class="edge">
<title>clk_rst&#45;&gt;pwm</title>
<path fill="none" stroke="#9b59b6" stroke-dasharray="5,2" d="M127.56,-68.36C172.29,-51.54 246.8,-28 313.5,-28 313.5,-28 313.5,-28 2204.5,-28 2249.42,-28 2300.16,-32.59 2337.59,-36.85"/>
<ellipse fill="#9b59b6" stroke="#9b59b6" cx="2341.88" cy="-37.35" rx="4" ry="4"/>
</g>
</g>
</svg>
