<?xml version="1.0" encoding="UTF-8" standalone="no"?>
<!DOCTYPE svg PUBLIC "-//W3C//DTD SVG 1.1//EN"
 "http://www.w3.org/Graphics/SVG/1.1/DTD/svg11.dtd">
<!-- Generated by graphviz version 2.43.0 (0)
 -->
<!-- Title: architecture Pages: 1 -->
<svg width="2728pt" height="261pt"
 viewBox="0.00 0.00 2728.09 261.00" xmlns="http://www.w3.org/2000/svg" xmlns:xlink="http://www.w3.org/1999/xlink">
<g id="graph0" class="graph" transform="scale(1 1) rotate(0) translate(4 257)">
<title>architecture</title>
<polygon fill="white" stroke="transparent" points="-4,4 -4,-257 2724.09,-257 2724.09,4 -4,4"/>
<g id="clust1" class="cluster">
<title>cluster_inputs</title>
<polygon fill="white" stroke="#888888" stroke-dasharray="5,2" points="23,-174 23,-245 345.5,-245 345.5,-174 23,-174"/>
<text text-anchor="middle" x="184.25" y="-233" font-family="Helvetica,sans-Serif" font-size="10.00" fill="#888888">Input Pins</text>
</g>
<g id="clust2" class="cluster">
<title>cluster_pipeline</title>
<path fill="#eafaf1" stroke="#27ae60" d="M1015,-27C1015,-27 1801,-27 1801,-27 1807,-27 1813,-33 1813,-39 1813,-39 1813,-208 1813,-208 1813,-214 1807,-220 1801,-220 1801,-220 1015,-220 1015,-220 1009,-220 1003,-214 1003,-208 1003,-208 1003,-39 1003,-39 1003,-33 1009,-27 1015,-27"/>
<text text-anchor="start" x="1228" y="-206.5" font-family="Helvetica,sans-Serif" font-weight="bold" font-size="10.00">Shared Voice Pipeline</text>
<text text-anchor="start" x="1354" y="-206.5" font-family="Helvetica,sans-Serif" font-size="10.00"> (time&#45;multiplexed, 3 voices @ 1.667 MHz each)</text>
</g>
<g id="clust3" class="cluster">
<title>cluster_outputs</title>
<polygon fill="white" stroke="#888888" stroke-dasharray="5,2" points="2291,-18 2291,-89 2376,-89 2376,-18 2291,-18"/>
<text text-anchor="middle" x="2333.5" y="-77" font-family="Helvetica,sans-Serif" font-size="10.00" fill="#888888">Output Pins</text>
</g>
<!-- ui_in -->
<g id="node1" class="node">
<title>ui_in</title>
<polygon fill="#d4e6f1" stroke="black" points="109,-212 31,-212 31,-188 109,-188 109,-182 127,-200 109,-218 109,-212"/>
<text text-anchor="middle" x="79" y="-203.2" font-family="Helvetica,sans-Serif" font-size="11.00">ui_in[7:0]</text>
<text text-anchor="middle" x="79" y="-191.2" font-family="Helvetica,sans-Serif" font-size="11.00">addr/voice/WE</text>
</g>
<!-- we_edge -->
<g id="node3" class="node">
<title>we_edge</title>
<polygon fill="#d6dbdf" stroke="transparent" points="246.5,-141 246.5,-163 355.5,-163 355.5,-141 246.5,-141"/>
<polygon fill="none" stroke="black" points="246.5,-141 246.5,-163 355.5,-163 355.5,-141 246.5,-141"/>
<text text-anchor="start" x="251.5" y="-150.2" font-family="Helvetica,sans-Serif" font-weight="bold" font-size="11.00">WE Edge Detect</text>
<polygon fill="none" stroke="black" points="246.5,-122 246.5,-141 355.5,-141 355.5,-122 246.5,-122"/>
<text text-anchor="start" x="261.5" y="-129.6" font-family="Helvetica,sans-Serif" font-size="8.00">ui_in[7] rising edge</text>
</g>
<!-- ui_in&#45;&gt;we_edge -->
<g id="edge1" class="edge">
<title>ui_in&#45;&gt;we_edge</title>
<path fill="none" stroke="black" d="M127.09,-187.77C158.85,-179.52 201.13,-168.54 235.88,-159.52"/>
<polygon fill="black" stroke="black" points="237.13,-162.81 245.93,-156.91 235.37,-156.04 237.13,-162.81"/>
<text text-anchor="middle" x="202" y="-186.8" font-family="Helvetica,sans-Serif" font-size="9.00"> &#160;WE, addr,</text>
<text text-anchor="middle" x="202" y="-176.8" font-family="Helvetica,sans-Serif" font-size="9.00"> &#160;voice_sel</text>
</g>
<!-- uio_in -->
<g id="node2" class="node">
<title>uio_in</title>
<polygon fill="#d4e6f1" stroke="black" points="319.5,-212 263.5,-212 263.5,-188 319.5,-188 319.5,-182 337.5,-200 319.5,-218 319.5,-212"/>
<text text-anchor="middle" x="300.5" y="-203.2" font-family="Helvetica,sans-Serif" font-size="11.00">uio_in[7:0]</text>
<text text-anchor="middle" x="300.5" y="-191.2" font-family="Helvetica,sans-Serif" font-size="11.00">write data</text>
</g>
<!-- regs -->
<g id="node4" class="node">
<title>regs</title>
<polygon fill="#aed6f1" stroke="transparent" points="451,-172 451,-196 921,-196 921,-172 451,-172"/>
<polygon fill="none" stroke="black" points="451,-172 451,-196 921,-196 921,-172 451,-172"/>
<text text-anchor="start" x="639" y="-182.2" font-family="Helvetica,sans-Serif" font-weight="bold" font-size="11.00">Register Banks</text>
<polygon fill="none" stroke="black" points="451,-111 451,-172 687,-172 687,-111 451,-111"/>
<text text-anchor="start" x="524" y="-158.2" font-family="Helvetica,sans-Serif" font-weight="bold" font-size="11.00">Per&#45;Voice (×3)</text>
<text text-anchor="start" x="478" y="-147.2" font-family="Helvetica,sans-Serif" font-size="11.00"> &#160;&#160;&#160;&#160;&#160;&#160;&#160;&#160;&#160;&#160;&#160;&#160;&#160;&#160;&#160;&#160;&#160;&#160;&#160;</text>
<text text-anchor="start" x="554" y="-147.2" font-family="Helvetica,sans-Serif" font-size="8.00"> &#160;&#160;&#160;&#160;&#160;&#160;&#160;&#160;&#160;&#160;&#160;&#160;&#160;&#160;&#160;&#160;&#160;&#160;&#160;0: freq_lo [7:0]</text>
<text text-anchor="start" x="513.5" y="-138.6" font-family="Helvetica,sans-Serif" font-size="8.00"> &#160;&#160;&#160;&#160;&#160;&#160;&#160;&#160;&#160;&#160;&#160;&#160;&#160;&#160;&#160;&#160;&#160;&#160;&#160;1: freq_hi [15:8]</text>
<text text-anchor="start" x="505.5" y="-130.6" font-family="Helvetica,sans-Serif" font-size="8.00"> &#160;&#160;&#160;&#160;&#160;&#160;&#160;&#160;&#160;&#160;&#160;&#160;&#160;&#160;&#160;&#160;&#160;&#160;&#160;2: pulse_width [7:0]</text>
<text text-anchor="start" x="457" y="-120.2" font-family="Helvetica,sans-Serif" font-size="8.00"> &#160;&#160;&#160;&#160;&#160;&#160;&#160;&#160;&#160;&#160;&#160;&#160;&#160;&#160;&#160;&#160;&#160;&#160;&#160;6: waveform [7:0] &#160;&#160;&#160;&#160;&#160;&#160;&#160;&#160;&#160;&#160;&#160;&#160;&#160;&#160;&#160;&#160;&#160;&#160;&#160;</text>
<text text-anchor="start" x="620" y="-120.2" font-family="Helvetica,sans-Serif" font-size="11.00"> &#160;&#160;&#160;&#160;&#160;&#160;&#160;&#160;&#160;&#160;&#160;&#160;&#160;&#160;&#160;</text>
<polygon fill="none" stroke="black" points="687,-111 687,-172 921,-172 921,-111 687,-111"/>
<text text-anchor="start" x="782" y="-158.2" font-family="Helvetica,sans-Serif" font-weight="bold" font-size="11.00">Shared</text>
<text text-anchor="start" x="714.5" y="-147.2" font-family="Helvetica,sans-Serif" font-size="11.00"> &#160;&#160;&#160;&#160;&#160;&#160;&#160;&#160;&#160;&#160;&#160;&#160;&#160;&#160;&#160;&#160;&#160;&#160;&#160;</text>
<text text-anchor="start" x="790.5" y="-147.2" font-family="Helvetica,sans-Serif" font-size="8.00"> &#160;&#160;&#160;&#160;&#160;&#160;&#160;&#160;&#160;&#160;&#160;&#160;&#160;&#160;&#160;&#160;&#160;&#160;&#160;4: attack [7:0]</text>
<text text-anchor="start" x="744.5" y="-138.6" font-family="Helvetica,sans-Serif" font-size="8.00"> &#160;&#160;&#160;&#160;&#160;&#160;&#160;&#160;&#160;&#160;&#160;&#160;&#160;&#160;&#160;&#160;&#160;&#160;&#160;&#160;&#160;&#160;(lo=atk, hi=dec)</text>
<text text-anchor="start" x="750" y="-130.6" font-family="Helvetica,sans-Serif" font-size="8.00"> &#160;&#160;&#160;&#160;&#160;&#160;&#160;&#160;&#160;&#160;&#160;&#160;&#160;&#160;&#160;&#160;&#160;&#160;&#160;5: sustain [7:0]</text>
<text text-anchor="start" x="693" y="-120.2" font-family="Helvetica,sans-Serif" font-size="8.00"> &#160;&#160;&#160;&#160;&#160;&#160;&#160;&#160;&#160;&#160;&#160;&#160;&#160;&#160;&#160;&#160;&#160;&#160;&#160;&#160;&#160;&#160;(lo=sus, hi=rel) &#160;&#160;&#160;&#160;&#160;&#160;&#160;&#160;&#160;&#160;&#160;&#160;&#160;&#160;&#160;&#160;&#160;&#160;&#160;</text>
<text text-anchor="start" x="854" y="-120.2" font-family="Helvetica,sans-Serif" font-size="11.00"> &#160;&#160;&#160;&#160;&#160;&#160;&#160;&#160;&#160;&#160;&#160;&#160;&#160;&#160;&#160;</text>
<polygon fill="none" stroke="black" points="451,-90 451,-111 921,-111 921,-90 451,-90"/>
<text text-anchor="start" x="631" y="-98.6" font-family="Helvetica,sans-Serif" font-size="8.00">voice_sel = ui_in[4:3] (0–2)</text>
</g>
<!-- uio_in&#45;&gt;regs -->
<g id="edge2" class="edge">
<title>uio_in&#45;&gt;regs</title>
<path fill="none" stroke="black" d="M337.58,-194.64C363.24,-190.82 400.22,-185.33 440.57,-179.33"/>
<polygon fill="black" stroke="black" points="441.24,-182.77 450.62,-177.84 440.21,-175.84 441.24,-182.77"/>
<text text-anchor="middle" x="403" y="-191.8" font-family="Helvetica,sans-Serif" font-size="9.00"> &#160;8&#45;bit data &#160;</text>
</g>
<!-- we_edge&#45;&gt;regs -->
<g id="edge3" class="edge">
<title>we_edge&#45;&gt;regs</title>
<path fill="none" stroke="black" d="M355.23,-143C378.94,-143 408.65,-143 440.46,-143"/>
<polygon fill="black" stroke="black" points="440.86,-146.5 450.86,-143 440.86,-139.5 440.86,-146.5"/>
<text text-anchor="middle" x="403" y="-145.8" font-family="Helvetica,sans-Serif" font-size="9.00"> &#160;wr_en_rise &#160;</text>
</g>
<!-- vidx -->
<g id="node5" class="node">
<title>vidx</title>
<polygon fill="#a9dfbf" stroke="transparent" points="1011.5,-146 1011.5,-168 1136.5,-168 1136.5,-146 1011.5,-146"/>
<polygon fill="none" stroke="black" points="1011.5,-146 1011.5,-168 1136.5,-168 1136.5,-146 1011.5,-146"/>
<text text-anchor="start" x="1016.5" y="-155.2" font-family="Helvetica,sans-Serif" font-weight="bold" font-size="11.00">Voice Round&#45;Robin</text>
<polygon fill="none" stroke="black" points="1011.5,-118 1011.5,-146 1136.5,-146 1136.5,-118 1011.5,-118"/>
<text text-anchor="start" x="1034.5" y="-134.6" font-family="Helvetica,sans-Serif" font-size="8.00">vidx: 0→1→2→0→…</text>
<text text-anchor="start" x="1056" y="-125.6" font-family="Helvetica,sans-Serif" font-size="8.00">@ 5 MHz</text>
</g>
<!-- regs&#45;&gt;vidx -->
<g id="edge4" class="edge">
<title>regs&#45;&gt;vidx</title>
<path fill="none" stroke="black" d="M921.25,-143C949.95,-143 977.37,-143 1000.78,-143"/>
<polygon fill="black" stroke="black" points="993,-146.5 1003,-143 993,-139.5 993,-146.5"/>
<text text-anchor="middle" x="966" y="-165.8" font-family="Helvetica,sans-Serif" font-size="9.00"> &#160;freq, PW,</text>
<text text-anchor="middle" x="966" y="-155.8" font-family="Helvetica,sans-Serif" font-size="9.00"> &#160;waveform,</text>
<text text-anchor="middle" x="966" y="-145.8" font-family="Helvetica,sans-Serif" font-size="9.00"> &#160;atk/sus &#160;</text>
</g>
<!-- phase_acc -->
<g id="node6" class="node">
<title>phase_acc</title>
<polygon fill="#a9dfbf" stroke="transparent" points="1173.5,-157 1173.5,-179 1302.5,-179 1302.5,-157 1173.5,-157"/>
<polygon fill="none" stroke="black" points="1173.5,-157 1173.5,-179 1302.5,-179 1302.5,-157 1173.5,-157"/>
<text text-anchor="start" x="1178.5" y="-166.2" font-family="Helvetica,sans-Serif" font-weight="bold" font-size="11.00">Phase Accumulator</text>
<polygon fill="none" stroke="black" points="1173.5,-120 1173.5,-157 1302.5,-157 1302.5,-120 1173.5,-120"/>
<text text-anchor="start" x="1195.5" y="-145.6" font-family="Helvetica,sans-Serif" font-size="8.00">16&#45;bit per voice (×3)</text>
<text text-anchor="start" x="1189.5" y="-136.6" font-family="Helvetica,sans-Serif" font-size="8.00">acc += freq every cycle</text>
<text text-anchor="start" x="1197" y="-127.6" font-family="Helvetica,sans-Serif" font-size="8.00">~25.4 Hz resolution</text>
</g>
<!-- vidx&#45;&gt;phase_acc -->
<g id="edge5" class="edge">
<title>vidx&#45;&gt;phase_acc</title>
<path fill="none" stroke="black" d="M1136.21,-145.67C1144.82,-146.04 1153.74,-146.42 1162.55,-146.8"/>
<polygon fill="black" stroke="black" points="1162.67,-150.31 1172.81,-147.25 1162.97,-143.32 1162.67,-150.31"/>
</g>
<!-- waveform -->
<g id="node7" class="node">
<title>waveform</title>
<polygon fill="#a9dfbf" stroke="transparent" points="1386,-167 1386,-189 1560,-189 1560,-167 1386,-167"/>
<polygon fill="none" stroke="black" points="1386,-167 1386,-189 1560,-189 1560,-167 1386,-167"/>
<text text-anchor="start" x="1408" y="-176.2" font-family="Helvetica,sans-Serif" font-weight="bold" font-size="11.00">Waveform Generator</text>
<polygon fill="none" stroke="black" points="1386,-121 1386,-167 1500,-167 1500,-121 1386,-121"/>
<text text-anchor="start" x="1401" y="-155.6" font-family="Helvetica,sans-Serif" font-size="8.00">Sawtooth: acc[15:8]</text>
<text text-anchor="start" x="1391" y="-146.6" font-family="Helvetica,sans-Serif" font-size="8.00">Triangle: acc[14:7] ^ fold</text>
<text text-anchor="start" x="1397.5" y="-137.6" font-family="Helvetica,sans-Serif" font-size="8.00">Pulse: acc[15:8] &gt; PW</text>
<text text-anchor="start" x="1393" y="-128.6" font-family="Helvetica,sans-Serif" font-size="8.00">Noise: shared 8&#45;bit LFSR</text>
<polygon fill="none" stroke="black" points="1500,-121 1500,-167 1560,-167 1560,-121 1500,-121"/>
<text text-anchor="start" x="1505" y="-155.6" font-family="Helvetica,sans-Serif" font-size="8.00">OR&#45;combine</text>
<text text-anchor="start" x="1513" y="-146.6" font-family="Helvetica,sans-Serif" font-size="8.00">enabled</text>
<text text-anchor="start" x="1507" y="-137.6" font-family="Helvetica,sans-Serif" font-size="8.00">waveforms</text>
<text text-anchor="start" x="1506" y="-128.6" font-family="Helvetica,sans-Serif" font-size="8.00">→ 8&#45;bit mux</text>
</g>
<!-- phase_acc&#45;&gt;waveform -->
<g id="edge6" class="edge">
<title>phase_acc&#45;&gt;waveform</title>
<path fill="none" stroke="black" d="M1302.3,-151.37C1324.97,-151.85 1351.02,-152.41 1375.79,-152.94"/>
<polygon fill="black" stroke="black" points="1375.87,-156.44 1385.94,-153.16 1376.02,-149.44 1375.87,-156.44"/>
<text text-anchor="middle" x="1344" y="-154.8" font-family="Helvetica,sans-Serif" font-size="9.00"> &#160;cur_acc &#160;</text>
</g>
<!-- scale -->
<g id="node9" class="node">
<title>scale</title>
<polygon fill="#a9dfbf" stroke="transparent" points="1653,-67 1653,-89 1805,-89 1805,-67 1653,-67"/>
<polygon fill="none" stroke="black" points="1653,-67 1653,-89 1805,-89 1805,-67 1653,-67"/>
<text text-anchor="start" x="1676" y="-76.2" font-family="Helvetica,sans-Serif" font-weight="bold" font-size="11.00">Envelope Scaling</text>
<polygon fill="none" stroke="black" points="1653,-48 1653,-67 1805,-67 1805,-48 1653,-48"/>
<text text-anchor="start" x="1658" y="-55.6" font-family="Helvetica,sans-Serif" font-size="8.00">voice_out[11:0] = waveform × env</text>
</g>
<!-- waveform&#45;&gt;scale -->
<g id="edge7" class="edge">
<title>waveform&#45;&gt;scale</title>
<path fill="none" stroke="black" d="M1560.35,-125.76C1592.01,-115.04 1627.45,-103.05 1657.55,-92.85"/>
<polygon fill="black" stroke="black" points="1658.78,-96.13 1667.13,-89.61 1656.53,-89.5 1658.78,-96.13"/>
<text text-anchor="middle" x="1606.5" y="-121.8" font-family="Helvetica,sans-Serif" font-size="9.00"> &#160;8&#45;bit mux &#160;</text>
</g>
<!-- adsr -->
<g id="node8" class="node">
<title>adsr</title>
<polygon fill="#a9dfbf" stroke="transparent" points="1403,-81 1403,-103 1543,-103 1543,-81 1403,-81"/>
<polygon fill="none" stroke="black" points="1403,-81 1403,-103 1543,-103 1543,-81 1403,-81"/>
<text text-anchor="start" x="1426" y="-90.2" font-family="Helvetica,sans-Serif" font-weight="bold" font-size="11.00">ADSR Envelope</text>
<polygon fill="none" stroke="black" points="1403,-35 1403,-81 1543,-81 1543,-35 1403,-35"/>
<text text-anchor="start" x="1408" y="-69.6" font-family="Helvetica,sans-Serif" font-size="8.00">4&#45;bit env counter per voice (×3)</text>
<text text-anchor="start" x="1425" y="-60.6" font-family="Helvetica,sans-Serif" font-size="8.00">18&#45;bit shared prescaler</text>
<text text-anchor="start" x="1408" y="-51.6" font-family="Helvetica,sans-Serif" font-size="8.00">16 rate levels (6–17 bit periods)</text>
<text text-anchor="start" x="1414.5" y="-42.6" font-family="Helvetica,sans-Serif" font-size="8.00">States: IDLE→ATK→DEC→REL</text>
</g>
<!-- adsr&#45;&gt;scale -->
<g id="edge8" class="edge">
<title>adsr&#45;&gt;scale</title>
<path fill="none" stroke="black" d="M1543.07,-69C1573.69,-69 1610.03,-69 1642.36,-69"/>
<polygon fill="black" stroke="black" points="1642.7,-72.5 1652.7,-69 1642.7,-65.5 1642.7,-72.5"/>
<text text-anchor="middle" x="1606.5" y="-71.8" font-family="Helvetica,sans-Serif" font-size="9.00"> &#160;4&#45;bit env &#160;</text>
</g>
<!-- mixer -->
<g id="node10" class="node">
<title>mixer</title>
<polygon fill="#f9e79f" stroke="transparent" points="1890.5,-75 1890.5,-99 2017.5,-99 2017.5,-75 1890.5,-75"/>
<polygon fill="none" stroke="black" points="1890.5,-75 1890.5,-99 2017.5,-99 2017.5,-75 1890.5,-75"/>
<text text-anchor="start" x="1912" y="-85.2" font-family="Helvetica,sans-Serif" font-weight="bold" font-size="11.00">3&#45;Voice Mixer</text>
<polygon fill="none" stroke="black" points="1890.5,-36 1890.5,-75 2017.5,-75 2017.5,-36 1890.5,-36"/>
<text text-anchor="start" x="1896.5" y="-62.6" font-family="Helvetica,sans-Serif" font-size="8.00">Accumulate voice_out[11:4]</text>
<text text-anchor="start" x="1905.5" y="-53.6" font-family="Helvetica,sans-Serif" font-size="8.00">over 3 cycles, shift &gt;&gt;2</text>
<text text-anchor="start" x="1923" y="-44.6" font-family="Helvetica,sans-Serif" font-size="8.00">→ 8&#45;bit mix_out</text>
</g>
<!-- scale&#45;&gt;mixer -->
<g id="edge9" class="edge">
<title>scale&#45;&gt;mixer</title>
<path fill="none" stroke="black" d="M1813,-68.63C1834.87,-68.53 1858.3,-68.42 1879.6,-68.33"/>
<polygon fill="black" stroke="black" points="1879.68,-71.83 1889.67,-68.28 1879.65,-64.83 1879.68,-71.83"/>
<text text-anchor="middle" x="1847.5" y="-80.8" font-family="Helvetica,sans-Serif" font-size="9.00"> &#160;voice_out</text>
<text text-anchor="middle" x="1847.5" y="-70.8" font-family="Helvetica,sans-Serif" font-size="9.00"> &#160;[11:0] &#160;</text>
</g>
<!-- pwm -->
<g id="node11" class="node">
<title>pwm</title>
<polygon fill="#f5cba7" stroke="transparent" points="2096,-51 2096,-75 2190,-75 2190,-51 2096,-51"/>
<polygon fill="none" stroke="black" points="2096,-51 2096,-75 2190,-75 2190,-51 2096,-51"/>
<text text-anchor="start" x="2108.5" y="-61.2" font-family="Helvetica,sans-Serif" font-weight="bold" font-size="11.00">pwm_audio</text>
<polygon fill="none" stroke="black" points="2096,-12 2096,-51 2190,-51 2190,-12 2096,-12"/>
<text text-anchor="start" x="2122.5" y="-38.6" font-family="Helvetica,sans-Serif" font-size="8.00">8&#45;bit PWM</text>
<text text-anchor="start" x="2102" y="-29.6" font-family="Helvetica,sans-Serif" font-size="8.00">period = 255 clocks</text>
<text text-anchor="start" x="2103" y="-20.6" font-family="Helvetica,sans-Serif" font-size="8.00">~19.6 kHz @ 5 MHz</text>
</g>
<!-- mixer&#45;&gt;pwm -->
<g id="edge10" class="edge">
<title>mixer&#45;&gt;pwm</title>
<path fill="none" stroke="black" d="M2017.2,-59.97C2039.44,-57.13 2064.31,-53.94 2085.96,-51.17"/>
<polygon fill="black" stroke="black" points="2086.5,-54.63 2095.98,-49.89 2085.61,-47.69 2086.5,-54.63"/>
<text text-anchor="middle" x="2056.5" y="-69.8" font-family="Helvetica,sans-Serif" font-size="9.00"> &#160;mix_out</text>
<text text-anchor="middle" x="2056.5" y="-59.8" font-family="Helvetica,sans-Serif" font-size="9.00"> &#160;[7:0] &#160;</text>
</g>
<!-- pwm_out -->
<g id="node12" class="node">
<title>pwm_out</title>
<polygon fill="#fadbd8" stroke="black" points="2350,-56 2299,-56 2299,-32 2350,-32 2350,-26 2368,-44 2350,-62 2350,-56"/>
<text text-anchor="middle" x="2333.5" y="-47.2" font-family="Helvetica,sans-Serif" font-size="11.00">uo_out[0]</text>
<text text-anchor="middle" x="2333.5" y="-35.2" font-family="Helvetica,sans-Serif" font-size="11.00">pwm_out</text>
</g>
<!-- pwm&#45;&gt;pwm_out -->
<g id="edge11" class="edge">
<title>pwm&#45;&gt;pwm_out</title>
<path fill="none" stroke="black" d="M2190.11,-44C2220.24,-44 2259.34,-44 2288.94,-44"/>
<polygon fill="black" stroke="black" points="2288.98,-47.5 2298.98,-44 2288.98,-40.5 2288.98,-47.5"/>
<text text-anchor="middle" x="2244.5" y="-56.8" font-family="Helvetica,sans-Serif" font-size="9.00"> &#160;1&#45;bit PWM</text>
<text text-anchor="middle" x="2244.5" y="-46.8" font-family="Helvetica,sans-Serif" font-size="9.00"> &#160;@ ~19.6 kHz &#160;</text>
</g>
<!-- rc_filter -->
<g id="node13" class="node">
<title>rc_filter</title>
<polygon fill="#f5cba7" stroke="black" points="2536.47,-88 2439.53,-88 2405,0 2571,0 2536.47,-88"/>
<text text-anchor="middle" x="2488" y="-53.2" font-family="Helvetica,sans-Serif" font-size="11.00">RC low&#45;pass</text>
<text text-anchor="middle" x="2488" y="-41.2" font-family="Helvetica,sans-Serif" font-size="11.00">filter</text>
<text text-anchor="middle" x="2488" y="-29.2" font-family="Helvetica,sans-Serif" font-size="11.00">(off&#45;chip)</text>
</g>
<!-- pwm_out&#45;&gt;rc_filter -->
<g id="edge12" class="edge">
<title>pwm_out&#45;&gt;rc_filter</title>
<path fill="none" stroke="black" stroke-dasharray="1,5" d="M2368.34,-44C2381.37,-44 2396.82,-44 2412.2,-44"/>
<polygon fill="black" stroke="black" points="2412.26,-47.5 2422.26,-44 2412.26,-40.5 2412.26,-47.5"/>
</g>
<!-- audio_out -->
<g id="node14" class="node">
<title>audio_out</title>
<polygon fill="#d5f5e3" stroke="black" points="2716.13,-33.86 2716.13,-54.14 2685.62,-68.48 2642.47,-68.48 2611.96,-54.14 2611.96,-33.86 2642.47,-19.52 2685.62,-19.52 2716.13,-33.86"/>
<polygon fill="none" stroke="black" points="2720.13,-31.32 2720.13,-56.68 2686.51,-72.48 2641.58,-72.48 2607.96,-56.68 2607.96,-31.32 2641.58,-15.52 2686.51,-15.52 2720.13,-31.32"/>
<text text-anchor="middle" x="2664.04" y="-47.2" font-family="Helvetica,sans-Serif" font-size="11.00">Analog</text>
<text text-anchor="middle" x="2664.04" y="-35.2" font-family="Helvetica,sans-Serif" font-size="11.00">audio out</text>
</g>
<!-- rc_filter&#45;&gt;audio_out -->
<g id="edge13" class="edge">
<title>rc_filter&#45;&gt;audio_out</title>
<path fill="none" stroke="black" stroke-dasharray="1,5" d="M2553.81,-44C2568.12,-44 2583.29,-44 2597.62,-44"/>
<polygon fill="black" stroke="black" points="2597.89,-47.5 2607.89,-44 2597.89,-40.5 2597.89,-47.5"/>
</g>
<!-- clk_rst -->
<g id="node15" class="node">
<title>clk_rst</title>
<polygon fill="#d7bde2" stroke="black" points="79,-107 0,-75 79,-43 158,-75 79,-107"/>
<text text-anchor="middle" x="79" y="-78.2" font-family="Helvetica,sans-Serif" font-size="11.00">clk (5 MHz)</text>
<text text-anchor="middle" x="79" y="-66.2" font-family="Helvetica,sans-Serif" font-size="11.00">rst_n</text>
</g>
<!-- clk_rst&#45;&gt;we_edge -->
<g id="edge14" class="edge">
<title>clk_rst&#45;&gt;we_edge</title>
<path fill="none" stroke="#9b59b6" stroke-dasharray="5,2" d="M122.42,-89.53C139.08,-95.13 158.39,-101.5 176,-107 196.14,-113.29 218.23,-119.84 238.09,-125.6"/>
<ellipse fill="#9b59b6" stroke="#9b59b6" cx="242.03" cy="-126.74" rx="4" ry="4"/>
</g>
<!-- clk_rst&#45;&gt;regs -->
<g id="edge15" class="edge">
<title>clk_rst&#45;&gt;regs</title>
<path fill="none" stroke="#9b59b6" stroke-dasharray="5,2" d="M141.06,-81.86C211.82,-89.82 332.81,-103.41 442.74,-115.77"/>
<ellipse fill="#9b59b6" stroke="#9b59b6" cx="446.99" cy="-116.25" rx="4" ry="4"/>
</g>
<!-- clk_rst&#45;&gt;vidx -->
<g id="edge16" class="edge">
<title>clk_rst&#45;&gt;vidx</title>
<path fill="none" stroke="#9b59b6" stroke-dasharray="5,2" d="M140.19,-67.7C279.34,-52.48 633.42,-23.37 921,-81 954.13,-87.64 989.15,-101.48 1017.18,-114.41"/>
<ellipse fill="#9b59b6" stroke="#9b59b6" cx="1020.89" cy="-116.15" rx="4" ry="4"/>
</g>
<!-- clk_rst&#45;&gt;pwm -->
<g id="edge17" class="edge">
<title>clk_rst&#45;&gt;pwm</title>
<path fill="none" stroke="#9b59b6" stroke-dasharray="5,2" d="M114.34,-57.31C156.7,-37.16 231.48,-7 299.5,-7 299.5,-7 299.5,-7 1954.5,-7 2000.19,-7 2050.98,-17.71 2088.16,-27.6"/>
<ellipse fill="#9b59b6" stroke="#9b59b6" cx="2092.02" cy="-28.65" rx="4" ry="4"/>
</g>
</g>
</svg>
