<?xml version="1.0" encoding="UTF-8" standalone="no"?>
<!DOCTYPE svg PUBLIC "-//W3C//DTD SVG 1.1//EN"
 "http://www.w3.org/Graphics/SVG/1.1/DTD/svg11.dtd">
<!-- Generated by graphviz version 2.43.0 (0)
 -->
<!-- Title: architecture Pages: 1 -->
<svg width="2561pt" height="255pt"
 viewBox="0.00 0.00 2561.09 255.00" xmlns="http://www.w3.org/2000/svg" xmlns:xlink="http://www.w3.org/1999/xlink">
<g id="graph0" class="graph" transform="scale(1 1) rotate(0) translate(4 251)">
<title>architecture</title>
<polygon fill="white" stroke="transparent" points="-4,4 -4,-251 2557.09,-251 2557.09,4 -4,4"/>
<g id="clust1" class="cluster">
<title>cluster_inputs</title>
<polygon fill="white" stroke="#888888" stroke-dasharray="5,2" points="23,-165 23,-236 345.5,-236 345.5,-165 23,-165"/>
<text text-anchor="middle" x="184.25" y="-224" font-family="Helvetica,sans-Serif" font-size="10.00" fill="#888888">Input Pins</text>
</g>
<g id="clust2" class="cluster">
<title>cluster_pipeline</title>
<path fill="#eafaf1" stroke="#27ae60" d="M781,-27C781,-27 1630,-27 1630,-27 1636,-27 1642,-33 1642,-39 1642,-39 1642,-227 1642,-227 1642,-233 1636,-239 1630,-239 1630,-239 781,-239 781,-239 775,-239 769,-233 769,-227 769,-227 769,-39 769,-39 769,-33 775,-27 781,-27"/>
<text text-anchor="start" x="1067.5" y="-225.5" font-family="Helvetica,sans-Serif" font-weight="bold" font-size="10.00">Pipelined Voice Datapath</text>
<text text-anchor="start" x="1212.5" y="-225.5" font-family="Helvetica,sans-Serif" font-size="10.00"> (mod&#45;5 slots, 1 MHz each)</text>
</g>
<g id="clust3" class="cluster">
<title>cluster_outputs</title>
<polygon fill="white" stroke="#888888" stroke-dasharray="5,2" points="2102,-18 2102,-89 2187,-89 2187,-18 2102,-18"/>
<text text-anchor="middle" x="2144.5" y="-77" font-family="Helvetica,sans-Serif" font-size="10.00" fill="#888888">Output Pins</text>
</g>
<!-- ui_in -->
<g id="node1" class="node">
<title>ui_in</title>
<polygon fill="#d4e6f1" stroke="black" points="109,-203 31,-203 31,-179 109,-179 109,-173 127,-191 109,-209 109,-203"/>
<text text-anchor="middle" x="79" y="-194.2" font-family="Helvetica,sans-Serif" font-size="11.00">ui_in[7:0]</text>
<text text-anchor="middle" x="79" y="-182.2" font-family="Helvetica,sans-Serif" font-size="11.00">addr/voice/WE</text>
</g>
<!-- we_edge -->
<g id="node3" class="node">
<title>we_edge</title>
<polygon fill="#d6dbdf" stroke="transparent" points="246.5,-132 246.5,-154 355.5,-154 355.5,-132 246.5,-132"/>
<polygon fill="none" stroke="black" points="246.5,-132 246.5,-154 355.5,-154 355.5,-132 246.5,-132"/>
<text text-anchor="start" x="251.5" y="-141.2" font-family="Helvetica,sans-Serif" font-weight="bold" font-size="11.00">WE Edge Detect</text>
<polygon fill="none" stroke="black" points="246.5,-113 246.5,-132 355.5,-132 355.5,-113 246.5,-113"/>
<text text-anchor="start" x="261.5" y="-120.6" font-family="Helvetica,sans-Serif" font-size="8.00">ui_in[7] rising edge</text>
</g>
<!-- ui_in&#45;&gt;we_edge -->
<g id="edge1" class="edge">
<title>ui_in&#45;&gt;we_edge</title>
<path fill="none" stroke="black" d="M127.09,-178.77C158.85,-170.52 201.13,-159.54 235.88,-150.52"/>
<polygon fill="black" stroke="black" points="237.13,-153.81 245.93,-147.91 235.37,-147.04 237.13,-153.81"/>
<text text-anchor="middle" x="202" y="-177.8" font-family="Helvetica,sans-Serif" font-size="9.00"> &#160;WE, addr,</text>
<text text-anchor="middle" x="202" y="-167.8" font-family="Helvetica,sans-Serif" font-size="9.00"> &#160;voice_sel</text>
</g>
<!-- uio_in -->
<g id="node2" class="node">
<title>uio_in</title>
<polygon fill="#d4e6f1" stroke="black" points="319.5,-203 263.5,-203 263.5,-179 319.5,-179 319.5,-173 337.5,-191 319.5,-209 319.5,-203"/>
<text text-anchor="middle" x="300.5" y="-194.2" font-family="Helvetica,sans-Serif" font-size="11.00">uio_in[7:0]</text>
<text text-anchor="middle" x="300.5" y="-182.2" font-family="Helvetica,sans-Serif" font-size="11.00">write data</text>
</g>
<!-- regs -->
<g id="node4" class="node">
<title>regs</title>
<polygon fill="#aed6f1" stroke="transparent" points="451,-160 451,-184 687,-184 687,-160 451,-160"/>
<polygon fill="none" stroke="black" points="451,-160 451,-184 687,-184 687,-160 451,-160"/>
<text text-anchor="start" x="466.5" y="-170.2" font-family="Helvetica,sans-Serif" font-weight="bold" font-size="11.00">Register Banks (all per&#45;voice ×3)</text>
<polygon fill="none" stroke="black" points="451,-105 451,-160 687,-160 687,-105 451,-105"/>
<text text-anchor="start" x="522" y="-148.6" font-family="Helvetica,sans-Serif" font-size="8.00"> &#160;&#160;&#160;&#160;&#160;&#160;&#160;&#160;&#160;&#160;&#160;&#160;&#160;&#160;&#160;&#160;&#160;&#160;&#160;0: freq [7:0]</text>
<text text-anchor="start" x="505.5" y="-140.6" font-family="Helvetica,sans-Serif" font-size="8.00"> &#160;&#160;&#160;&#160;&#160;&#160;&#160;&#160;&#160;&#160;&#160;&#160;&#160;&#160;&#160;&#160;&#160;&#160;&#160;2: pulse_width [7:0]</text>
<text text-anchor="start" x="490.5" y="-132.6" font-family="Helvetica,sans-Serif" font-size="8.00"> &#160;&#160;&#160;&#160;&#160;&#160;&#160;&#160;&#160;&#160;&#160;&#160;&#160;&#160;&#160;&#160;&#160;&#160;&#160;4: attack [3:0] / decay [7:4]</text>
<text text-anchor="start" x="485" y="-124.6" font-family="Helvetica,sans-Serif" font-size="8.00"> &#160;&#160;&#160;&#160;&#160;&#160;&#160;&#160;&#160;&#160;&#160;&#160;&#160;&#160;&#160;&#160;&#160;&#160;&#160;5: sustain [3:0] / release [7:4]</text>
<text text-anchor="start" x="457" y="-114.2" font-family="Helvetica,sans-Serif" font-size="8.00"> &#160;&#160;&#160;&#160;&#160;&#160;&#160;&#160;&#160;&#160;&#160;&#160;&#160;&#160;&#160;&#160;&#160;&#160;&#160;6: waveform [7:0] &#160;&#160;&#160;&#160;&#160;&#160;&#160;&#160;&#160;&#160;&#160;&#160;&#160;&#160;&#160;&#160;&#160;&#160;&#160;</text>
<text text-anchor="start" x="620" y="-114.2" font-family="Helvetica,sans-Serif" font-size="11.00"> &#160;&#160;&#160;&#160;&#160;&#160;&#160;&#160;&#160;&#160;&#160;&#160;&#160;&#160;&#160;</text>
<polygon fill="none" stroke="black" points="451,-84 451,-105 687,-105 687,-84 451,-84"/>
<text text-anchor="start" x="514" y="-92.6" font-family="Helvetica,sans-Serif" font-size="8.00">voice_sel = ui_in[4:3] (0–2)</text>
</g>
<!-- uio_in&#45;&gt;regs -->
<g id="edge2" class="edge">
<title>uio_in&#45;&gt;regs</title>
<path fill="none" stroke="black" d="M337.72,-183.25C364.63,-177.5 403.08,-169.27 440.87,-161.19"/>
<polygon fill="black" stroke="black" points="441.92,-164.54 450.97,-159.03 440.46,-157.7 441.92,-164.54"/>
<text text-anchor="middle" x="403" y="-176.8" font-family="Helvetica,sans-Serif" font-size="9.00"> &#160;8&#45;bit data &#160;</text>
</g>
<!-- we_edge&#45;&gt;regs -->
<g id="edge3" class="edge">
<title>we_edge&#45;&gt;regs</title>
<path fill="none" stroke="black" d="M355.11,-134C379.9,-134 410.49,-134 440.67,-134"/>
<polygon fill="black" stroke="black" points="440.89,-137.5 450.89,-134 440.89,-130.5 440.89,-137.5"/>
<text text-anchor="middle" x="403" y="-136.8" font-family="Helvetica,sans-Serif" font-size="9.00"> &#160;wr_en_rise &#160;</text>
</g>
<!-- vidx -->
<g id="node5" class="node">
<title>vidx</title>
<polygon fill="#a9dfbf" stroke="transparent" points="777,-146 777,-168 907,-168 907,-146 777,-146"/>
<polygon fill="none" stroke="black" points="777,-146 777,-168 907,-168 907,-146 777,-146"/>
<text text-anchor="start" x="782" y="-155.2" font-family="Helvetica,sans-Serif" font-weight="bold" font-size="11.00">Mod&#45;5 Slot Counter</text>
<polygon fill="none" stroke="black" points="777,-100 777,-146 907,-146 907,-100 777,-100"/>
<text text-anchor="start" x="783" y="-134.6" font-family="Helvetica,sans-Serif" font-size="8.00">slots 0–2: compute V0/V1/V2</text>
<text text-anchor="start" x="792" y="-125.6" font-family="Helvetica,sans-Serif" font-size="8.00">slot 3: latch mix, load V0</text>
<text text-anchor="start" x="803" y="-116.6" font-family="Helvetica,sans-Serif" font-size="8.00">slot 4: idle/preload</text>
<text text-anchor="start" x="790.5" y="-107.6" font-family="Helvetica,sans-Serif" font-size="8.00">1 MHz effective per voice</text>
</g>
<!-- regs&#45;&gt;vidx -->
<g id="edge4" class="edge">
<title>regs&#45;&gt;vidx</title>
<path fill="none" stroke="black" d="M687.29,-134C714.2,-134 742.09,-134 766.6,-134"/>
<polygon fill="black" stroke="black" points="759,-137.5 769,-134 759,-130.5 759,-137.5"/>
<text text-anchor="middle" x="732" y="-156.8" font-family="Helvetica,sans-Serif" font-size="9.00"> &#160;freq, PW,</text>
<text text-anchor="middle" x="732" y="-146.8" font-family="Helvetica,sans-Serif" font-size="9.00"> &#160;waveform,</text>
<text text-anchor="middle" x="732" y="-136.8" font-family="Helvetica,sans-Serif" font-size="9.00"> &#160;atk/sus &#160;</text>
</g>
<!-- phase_acc -->
<g id="node6" class="node">
<title>phase_acc</title>
<polygon fill="#a9dfbf" stroke="transparent" points="944.5,-167 944.5,-189 1093.5,-189 1093.5,-167 944.5,-167"/>
<polygon fill="none" stroke="black" points="944.5,-167 944.5,-189 1093.5,-189 1093.5,-167 944.5,-167"/>
<text text-anchor="start" x="959.5" y="-176.2" font-family="Helvetica,sans-Serif" font-weight="bold" font-size="11.00">Phase Accumulator</text>
<polygon fill="none" stroke="black" points="944.5,-121 944.5,-167 1093.5,-167 1093.5,-121 944.5,-121"/>
<text text-anchor="start" x="976.5" y="-155.6" font-family="Helvetica,sans-Serif" font-size="8.00">16&#45;bit per voice (×3)</text>
<text text-anchor="start" x="968" y="-146.6" font-family="Helvetica,sans-Serif" font-size="8.00">acc += {8&#39;b0, freq[7:0]}</text>
<text text-anchor="start" x="978" y="-137.6" font-family="Helvetica,sans-Serif" font-size="8.00">~15.3 Hz resolution</text>
<text text-anchor="start" x="949.5" y="-128.6" font-family="Helvetica,sans-Serif" font-size="8.00">Hard sync: V0←V2, V1←V0, V2←V1</text>
</g>
<!-- vidx&#45;&gt;phase_acc -->
<g id="edge5" class="edge">
<title>vidx&#45;&gt;phase_acc</title>
<path fill="none" stroke="black" d="M907.48,-141.76C916.09,-142.8 925.01,-143.87 933.88,-144.94"/>
<polygon fill="black" stroke="black" points="933.52,-148.42 943.86,-146.14 934.35,-141.47 933.52,-148.42"/>
</g>
<!-- waveform -->
<g id="node7" class="node">
<title>waveform</title>
<polygon fill="#a9dfbf" stroke="transparent" points="1177.5,-185 1177.5,-207 1398.5,-207 1398.5,-185 1177.5,-185"/>
<polygon fill="none" stroke="black" points="1177.5,-185 1177.5,-207 1398.5,-207 1398.5,-185 1177.5,-185"/>
<text text-anchor="start" x="1223" y="-194.2" font-family="Helvetica,sans-Serif" font-weight="bold" font-size="11.00">Waveform Generator</text>
<polygon fill="none" stroke="black" points="1177.5,-130 1177.5,-185 1332.5,-185 1332.5,-130 1177.5,-130"/>
<text text-anchor="start" x="1213" y="-173.6" font-family="Helvetica,sans-Serif" font-size="8.00">Sawtooth: acc[15:8]</text>
<text text-anchor="start" x="1182.5" y="-164.6" font-family="Helvetica,sans-Serif" font-size="8.00">Triangle: acc[14:8]^fold (ring&#45;mod)</text>
<text text-anchor="start" x="1209.5" y="-155.6" font-family="Helvetica,sans-Serif" font-size="8.00">Pulse: acc[15:8] ≥ PW</text>
<text text-anchor="start" x="1204" y="-146.6" font-family="Helvetica,sans-Serif" font-size="8.00">Noise: 15&#45;bit LFSR [14:7]</text>
<text text-anchor="start" x="1210.5" y="-137.6" font-family="Helvetica,sans-Serif" font-size="8.00">(acc&#45;clocked from V0)</text>
<polygon fill="none" stroke="black" points="1332.5,-130 1332.5,-185 1398.5,-185 1398.5,-130 1332.5,-130"/>
<text text-anchor="start" x="1337.5" y="-169.1" font-family="Helvetica,sans-Serif" font-size="8.00">AND&#45;combine</text>
<text text-anchor="start" x="1348.5" y="-160.1" font-family="Helvetica,sans-Serif" font-size="8.00">enabled</text>
<text text-anchor="start" x="1342.5" y="-151.1" font-family="Helvetica,sans-Serif" font-size="8.00">waveforms</text>
<text text-anchor="start" x="1343.5" y="-142.1" font-family="Helvetica,sans-Serif" font-size="8.00">→ 8&#45;bit out</text>
</g>
<!-- phase_acc&#45;&gt;waveform -->
<g id="edge6" class="edge">
<title>phase_acc&#45;&gt;waveform</title>
<path fill="none" stroke="black" d="M1093.17,-158.86C1115.89,-160.05 1141.53,-161.4 1166.53,-162.71"/>
<polygon fill="black" stroke="black" points="1166.65,-166.22 1176.82,-163.25 1167.02,-159.23 1166.65,-166.22"/>
<text text-anchor="middle" x="1135" y="-164.8" font-family="Helvetica,sans-Serif" font-size="9.00"> &#160;cur_acc &#160;</text>
</g>
<!-- scale -->
<g id="node9" class="node">
<title>scale</title>
<polygon fill="#a9dfbf" stroke="transparent" points="1494,-77 1494,-99 1634,-99 1634,-77 1494,-77"/>
<polygon fill="none" stroke="black" points="1494,-77 1494,-99 1634,-99 1634,-77 1494,-77"/>
<text text-anchor="start" x="1511" y="-86.2" font-family="Helvetica,sans-Serif" font-weight="bold" font-size="11.00">Envelope Scaling</text>
<polygon fill="none" stroke="black" points="1494,-49 1494,-77 1634,-77 1634,-49 1494,-49"/>
<text text-anchor="start" x="1499" y="-65.6" font-family="Helvetica,sans-Serif" font-size="8.00">voice_out = (wave × env)[15:8]</text>
<text text-anchor="start" x="1525" y="-56.6" font-family="Helvetica,sans-Serif" font-size="8.00">8×8 → upper 8 bits</text>
</g>
<!-- waveform&#45;&gt;scale -->
<g id="edge7" class="edge">
<title>waveform&#45;&gt;scale</title>
<path fill="none" stroke="black" d="M1398.17,-131.04C1426.9,-121.1 1457.31,-110.58 1484.08,-101.31"/>
<polygon fill="black" stroke="black" points="1485.47,-104.54 1493.77,-97.96 1483.18,-97.92 1485.47,-104.54"/>
<text text-anchor="middle" x="1446" y="-126.8" font-family="Helvetica,sans-Serif" font-size="9.00"> &#160;8&#45;bit wave &#160;</text>
</g>
<!-- adsr -->
<g id="node8" class="node">
<title>adsr</title>
<polygon fill="#a9dfbf" stroke="transparent" points="1214.5,-90 1214.5,-112 1360.5,-112 1360.5,-90 1214.5,-90"/>
<polygon fill="none" stroke="black" points="1214.5,-90 1214.5,-112 1360.5,-112 1360.5,-90 1214.5,-90"/>
<text text-anchor="start" x="1240.5" y="-99.2" font-family="Helvetica,sans-Serif" font-weight="bold" font-size="11.00">ADSR Envelope</text>
<polygon fill="none" stroke="black" points="1214.5,-35 1214.5,-90 1360.5,-90 1360.5,-35 1214.5,-35"/>
<text text-anchor="start" x="1222.5" y="-78.6" font-family="Helvetica,sans-Serif" font-size="8.00">8&#45;bit env counter per voice (×3)</text>
<text text-anchor="start" x="1239.5" y="-69.6" font-family="Helvetica,sans-Serif" font-size="8.00">14&#45;bit shared prescaler</text>
<text text-anchor="start" x="1219.5" y="-60.6" font-family="Helvetica,sans-Serif" font-size="8.00">9 rate levels (4–8192 clk periods)</text>
<text text-anchor="start" x="1223" y="-51.6" font-family="Helvetica,sans-Serif" font-size="8.00">4&#45;state FSM: IDLE/ATK/DEC/SUS</text>
<text text-anchor="start" x="1225" y="-42.6" font-family="Helvetica,sans-Serif" font-size="8.00">Exponential decay adjustment</text>
</g>
<!-- adsr&#45;&gt;scale -->
<g id="edge8" class="edge">
<title>adsr&#45;&gt;scale</title>
<path fill="none" stroke="black" d="M1360.62,-74C1398.39,-74 1444.72,-74 1483.52,-74"/>
<polygon fill="black" stroke="black" points="1483.73,-77.5 1493.73,-74 1483.73,-70.5 1483.73,-77.5"/>
<text text-anchor="middle" x="1446" y="-76.8" font-family="Helvetica,sans-Serif" font-size="9.00"> &#160;8&#45;bit env &#160;</text>
</g>
<!-- mixer -->
<g id="node10" class="node">
<title>mixer</title>
<polygon fill="#f9e79f" stroke="transparent" points="1719.5,-76 1719.5,-100 1828.5,-100 1828.5,-76 1719.5,-76"/>
<polygon fill="none" stroke="black" points="1719.5,-76 1719.5,-100 1828.5,-100 1828.5,-76 1719.5,-76"/>
<text text-anchor="start" x="1732" y="-86.2" font-family="Helvetica,sans-Serif" font-weight="bold" font-size="11.00">3&#45;Voice Mixer</text>
<polygon fill="none" stroke="black" points="1719.5,-37 1719.5,-76 1828.5,-76 1828.5,-37 1719.5,-37"/>
<text text-anchor="start" x="1735" y="-63.6" font-family="Helvetica,sans-Serif" font-size="8.00">10&#45;bit accumulator</text>
<text text-anchor="start" x="1726.5" y="-54.6" font-family="Helvetica,sans-Serif" font-size="8.00">sum 3 × voice_out[7:0]</text>
<text text-anchor="start" x="1725.5" y="-45.6" font-family="Helvetica,sans-Serif" font-size="8.00">mix_out = acc[9:2] (÷4)</text>
</g>
<!-- scale&#45;&gt;mixer -->
<g id="edge9" class="edge">
<title>scale&#45;&gt;mixer</title>
<path fill="none" stroke="black" d="M1642,-72.14C1663.9,-71.62 1687.52,-71.05 1708.55,-70.54"/>
<polygon fill="black" stroke="black" points="1708.89,-74.03 1718.8,-70.29 1708.72,-67.04 1708.89,-74.03"/>
<text text-anchor="middle" x="1676.5" y="-83.8" font-family="Helvetica,sans-Serif" font-size="9.00"> &#160;voice_out</text>
<text text-anchor="middle" x="1676.5" y="-73.8" font-family="Helvetica,sans-Serif" font-size="9.00"> &#160;[7:0] &#160;</text>
</g>
<!-- pwm -->
<g id="node11" class="node">
<title>pwm</title>
<polygon fill="#f5cba7" stroke="transparent" points="1907,-51 1907,-75 2001,-75 2001,-51 1907,-51"/>
<polygon fill="none" stroke="black" points="1907,-51 1907,-75 2001,-75 2001,-51 1907,-51"/>
<text text-anchor="start" x="1919.5" y="-61.2" font-family="Helvetica,sans-Serif" font-weight="bold" font-size="11.00">pwm_audio</text>
<polygon fill="none" stroke="black" points="1907,-12 1907,-51 2001,-51 2001,-12 1907,-12"/>
<text text-anchor="start" x="1933.5" y="-38.6" font-family="Helvetica,sans-Serif" font-size="8.00">8&#45;bit PWM</text>
<text text-anchor="start" x="1913" y="-29.6" font-family="Helvetica,sans-Serif" font-size="8.00">period = 255 clocks</text>
<text text-anchor="start" x="1914" y="-20.6" font-family="Helvetica,sans-Serif" font-size="8.00">~19.6 kHz @ 5 MHz</text>
</g>
<!-- mixer&#45;&gt;pwm -->
<g id="edge10" class="edge">
<title>mixer&#45;&gt;pwm</title>
<path fill="none" stroke="black" d="M1828.06,-61.5C1849.69,-58.47 1874.67,-54.97 1896.58,-51.9"/>
<polygon fill="black" stroke="black" points="1897.32,-55.33 1906.73,-50.48 1896.35,-48.4 1897.32,-55.33"/>
<text text-anchor="middle" x="1867.5" y="-70.8" font-family="Helvetica,sans-Serif" font-size="9.00"> &#160;mix_out</text>
<text text-anchor="middle" x="1867.5" y="-60.8" font-family="Helvetica,sans-Serif" font-size="9.00"> &#160;[7:0] &#160;</text>
</g>
<!-- pwm_out -->
<g id="node12" class="node">
<title>pwm_out</title>
<polygon fill="#fadbd8" stroke="black" points="2161,-56 2110,-56 2110,-32 2161,-32 2161,-26 2179,-44 2161,-62 2161,-56"/>
<text text-anchor="middle" x="2144.5" y="-47.2" font-family="Helvetica,sans-Serif" font-size="11.00">uo_out[0]</text>
<text text-anchor="middle" x="2144.5" y="-35.2" font-family="Helvetica,sans-Serif" font-size="11.00">pwm_out</text>
</g>
<!-- pwm&#45;&gt;pwm_out -->
<g id="edge11" class="edge">
<title>pwm&#45;&gt;pwm_out</title>
<path fill="none" stroke="black" d="M2001.11,-44C2031.24,-44 2070.34,-44 2099.94,-44"/>
<polygon fill="black" stroke="black" points="2099.98,-47.5 2109.98,-44 2099.98,-40.5 2099.98,-47.5"/>
<text text-anchor="middle" x="2055.5" y="-56.8" font-family="Helvetica,sans-Serif" font-size="9.00"> &#160;1&#45;bit PWM</text>
<text text-anchor="middle" x="2055.5" y="-46.8" font-family="Helvetica,sans-Serif" font-size="9.00"> &#160;@ ~19.6 kHz &#160;</text>
</g>
<!-- rc_filter -->
<g id="node13" class="node">
<title>rc_filter</title>
<polygon fill="#f5cba7" stroke="black" points="2364.9,-88 2255.1,-88 2216,0 2404,0 2364.9,-88"/>
<text text-anchor="middle" x="2310" y="-53.2" font-family="Helvetica,sans-Serif" font-size="11.00">3rd&#45;order RC</text>
<text text-anchor="middle" x="2310" y="-41.2" font-family="Helvetica,sans-Serif" font-size="11.00">low&#45;pass filter</text>
<text text-anchor="middle" x="2310" y="-29.2" font-family="Helvetica,sans-Serif" font-size="11.00">(off&#45;chip)</text>
</g>
<!-- pwm_out&#45;&gt;rc_filter -->
<g id="edge12" class="edge">
<title>pwm_out&#45;&gt;rc_filter</title>
<path fill="none" stroke="black" stroke-dasharray="1,5" d="M2179.38,-44C2192.86,-44 2209.01,-44 2225.28,-44"/>
<polygon fill="black" stroke="black" points="2225.39,-47.5 2235.39,-44 2225.39,-40.5 2225.39,-47.5"/>
</g>
<!-- audio_out -->
<g id="node14" class="node">
<title>audio_out</title>
<polygon fill="#d5f5e3" stroke="black" points="2549.13,-33.86 2549.13,-54.14 2518.62,-68.48 2475.47,-68.48 2444.96,-54.14 2444.96,-33.86 2475.47,-19.52 2518.62,-19.52 2549.13,-33.86"/>
<polygon fill="none" stroke="black" points="2553.13,-31.32 2553.13,-56.68 2519.51,-72.48 2474.58,-72.48 2440.96,-56.68 2440.96,-31.32 2474.58,-15.52 2519.51,-15.52 2553.13,-31.32"/>
<text text-anchor="middle" x="2497.04" y="-47.2" font-family="Helvetica,sans-Serif" font-size="11.00">Analog</text>
<text text-anchor="middle" x="2497.04" y="-35.2" font-family="Helvetica,sans-Serif" font-size="11.00">audio out</text>
</g>
<!-- rc_filter&#45;&gt;audio_out -->
<g id="edge13" class="edge">
<title>rc_filter&#45;&gt;audio_out</title>
<path fill="none" stroke="black" stroke-dasharray="1,5" d="M2384.67,-44C2399.9,-44 2415.84,-44 2430.75,-44"/>
<polygon fill="black" stroke="black" points="2430.88,-47.5 2440.88,-44 2430.88,-40.5 2430.88,-47.5"/>
</g>
<!-- clk_rst -->
<g id="node15" class="node">
<title>clk_rst</title>
<polygon fill="#d7bde2" stroke="black" points="79,-98 0,-66 79,-34 158,-66 79,-98"/>
<text text-anchor="middle" x="79" y="-69.2" font-family="Helvetica,sans-Serif" font-size="11.00">clk (5 MHz)</text>
<text text-anchor="middle" x="79" y="-57.2" font-family="Helvetica,sans-Serif" font-size="11.00">rst_n</text>
</g>
<!-- clk_rst&#45;&gt;we_edge -->
<g id="edge14" class="edge">
<title>clk_rst&#45;&gt;we_edge</title>
<path fill="none" stroke="#9b59b6" stroke-dasharray="5,2" d="M122.42,-80.53C139.08,-86.13 158.39,-92.5 176,-98 196.14,-104.29 218.23,-110.84 238.09,-116.6"/>
<ellipse fill="#9b59b6" stroke="#9b59b6" cx="242.03" cy="-117.74" rx="4" ry="4"/>
</g>
<!-- clk_rst&#45;&gt;regs -->
<g id="edge15" class="edge">
<title>clk_rst&#45;&gt;regs</title>
<path fill="none" stroke="#9b59b6" stroke-dasharray="5,2" d="M138.38,-74.13C213.19,-84.56 344.88,-102.91 442.8,-116.55"/>
<ellipse fill="#9b59b6" stroke="#9b59b6" cx="447.01" cy="-117.14" rx="4" ry="4"/>
</g>
<!-- clk_rst&#45;&gt;vidx -->
<g id="edge16" class="edge">
<title>clk_rst&#45;&gt;vidx</title>
<path fill="none" stroke="#9b59b6" stroke-dasharray="5,2" d="M142.78,-59.78C253.77,-50.37 491.4,-37.31 687,-75 714.76,-80.35 744.02,-90.35 769.49,-100.62"/>
<ellipse fill="#9b59b6" stroke="#9b59b6" cx="773.22" cy="-102.15" rx="4" ry="4"/>
</g>
<!-- clk_rst&#45;&gt;pwm -->
<g id="edge17" class="edge">
<title>clk_rst&#45;&gt;pwm</title>
<path fill="none" stroke="#9b59b6" stroke-dasharray="5,2" d="M117.64,-49.41C160.71,-31.96 233.8,-7 299.5,-7 299.5,-7 299.5,-7 1774.5,-7 1817.02,-7 1864.07,-17.19 1899.18,-26.87"/>
<ellipse fill="#9b59b6" stroke="#9b59b6" cx="1903.09" cy="-27.97" rx="4" ry="4"/>
</g>
</g>
</svg>
