<?xml version="1.0" encoding="UTF-8" standalone="no"?>
<!DOCTYPE svg PUBLIC "-//W3C//DTD SVG 1.1//EN"
 "http://www.w3.org/Graphics/SVG/1.1/DTD/svg11.dtd">
<!-- Generated by graphviz version 2.43.0 (0)
 -->
<!-- Title: rc_filter Pages: 1 -->
<svg width="549pt" height="228pt"
 viewBox="0.00 0.00 549.20 228.20" xmlns="http://www.w3.org/2000/svg" xmlns:xlink="http://www.w3.org/1999/xlink">
<g id="graph0" class="graph" transform="scale(1 1) rotate(0) translate(21.6 206.6)">
<title>rc_filter</title>
<polygon fill="white" stroke="transparent" points="-21.6,21.6 -21.6,-206.6 527.6,-206.6 527.6,21.6 -21.6,21.6"/>
<!-- pdm -->
<g id="node1" class="node">
<title>pdm</title>
<text text-anchor="start" x="133" y="-171.5" font-family="Helvetica,sans-Serif" font-weight="bold" font-size="10.00">uo_out[1]</text>
<text text-anchor="start" x="133.5" y="-157.9" font-family="Helvetica,sans-Serif" font-size="7.00" fill="#666666">PDM 1&#45;bit</text>
<text text-anchor="start" x="133" y="-149.9" font-family="Helvetica,sans-Serif" font-size="7.00" fill="#666666">@ 50 MHz</text>
</g>
<!-- w1 -->
<g id="node2" class="node">
<title>w1</title>
<ellipse fill="#222222" stroke="#222222" cx="189" cy="-163.5" rx="0" ry="0"/>
</g>
<!-- pdm&#45;&gt;w1 -->
<g id="edge1" class="edge">
<title>pdm&#45;&gt;w1</title>
<path fill="none" stroke="#222222" stroke-width="1.5" d="M187.59,-163.5C187.95,-163.5 188.3,-163.5 188.65,-163.5"/>
</g>
<!-- resistor -->
<g id="node3" class="node">
<title>resistor</title>
<text text-anchor="start" x="215" y="-172.3" font-family="Helvetica,sans-Serif" font-size="9.00">R1</text>
<text text-anchor="start" x="191" y="-160.7" font-family="Courier,monospace" font-size="11.00">─╬─╬─╬─╬─</text>
<text text-anchor="start" x="206" y="-150.3" font-family="Helvetica,sans-Serif" font-size="9.00">1.0 kΩ</text>
</g>
<!-- w1&#45;&gt;resistor -->
<g id="edge2" class="edge">
<title>w1&#45;&gt;resistor</title>
<path fill="none" stroke="#222222" stroke-width="1.5" d="M189.5,-163.5C189.83,-163.5 190.16,-163.5 190.48,-163.5"/>
</g>
<!-- junction -->
<g id="node4" class="node">
<title>junction</title>
<ellipse fill="#222222" stroke="#222222" cx="253" cy="-163.5" rx="0" ry="0"/>
</g>
<!-- resistor&#45;&gt;junction -->
<g id="edge3" class="edge">
<title>resistor&#45;&gt;junction</title>
<path fill="none" stroke="#222222" stroke-width="1.5" d="M252,-163.5C252.17,-163.5 252.33,-163.5 252.5,-163.5"/>
</g>
<!-- w2 -->
<g id="node5" class="node">
<title>w2</title>
<ellipse fill="#222222" stroke="#222222" cx="254" cy="-163.5" rx="0" ry="0"/>
</g>
<!-- junction&#45;&gt;w2 -->
<g id="edge4" class="edge">
<title>junction&#45;&gt;w2</title>
<path fill="none" stroke="#222222" stroke-width="1.5" d="M253.5,-163.5C253.58,-163.5 253.67,-163.5 253.75,-163.5"/>
</g>
<!-- cap_shunt -->
<g id="node9" class="node">
<title>cap_shunt</title>
<text text-anchor="start" x="236" y="-126.8" font-family="Helvetica,sans-Serif" font-size="9.00">C1 &#160;&#160;&#160;&#160;&#160;&#160;</text>
<text text-anchor="start" x="246" y="-115.2" font-family="Courier,monospace" font-size="11.00">──</text>
<text text-anchor="start" x="246" y="-103.2" font-family="Courier,monospace" font-size="11.00">──</text>
<text text-anchor="start" x="238" y="-92.8" font-family="Helvetica,sans-Serif" font-size="9.00">4.7 nF</text>
</g>
<!-- junction&#45;&gt;cap_shunt -->
<g id="edge8" class="edge">
<title>junction&#45;&gt;cap_shunt</title>
<path fill="none" stroke="#222222" stroke-width="1.5" d="M253,-162.36C253,-160.8 253,-146.78 253,-134.07"/>
</g>
<!-- cap_ac -->
<g id="node6" class="node">
<title>cap_ac</title>
<text text-anchor="start" x="283.5" y="-177.3" font-family="Helvetica,sans-Serif" font-size="9.00">C2</text>
<text text-anchor="start" x="273" y="-163.3" font-family="Courier,monospace" font-size="14.00">─││─</text>
<text text-anchor="start" x="279.5" y="-152.3" font-family="Helvetica,sans-Serif" font-size="9.00">1 μF</text>
<text text-anchor="start" x="255" y="-143.9" font-family="Helvetica,sans-Serif" font-size="7.00" fill="#888888">(optional DC block)</text>
</g>
<!-- w2&#45;&gt;cap_ac -->
<g id="edge5" class="edge">
<title>w2&#45;&gt;cap_ac</title>
<path fill="none" stroke="#222222" stroke-width="1.5" d="M254.28,-163.5C254.47,-163.5 254.65,-163.5 254.84,-163.5"/>
</g>
<!-- w3 -->
<g id="node7" class="node">
<title>w3</title>
<ellipse fill="#222222" stroke="#222222" cx="326" cy="-163.5" rx="0" ry="0"/>
</g>
<!-- cap_ac&#45;&gt;w3 -->
<g id="edge6" class="edge">
<title>cap_ac&#45;&gt;w3</title>
<path fill="none" stroke="#222222" stroke-width="1.5" d="M325.16,-163.5C325.3,-163.5 325.44,-163.5 325.58,-163.5"/>
</g>
<!-- audio_out -->
<g id="node8" class="node">
<title>audio_out</title>
<text text-anchor="start" x="329" y="-171.5" font-family="Helvetica,sans-Serif" font-weight="bold" font-size="10.00">Audio Out</text>
<text text-anchor="start" x="330" y="-157.9" font-family="Helvetica,sans-Serif" font-size="7.00" fill="#666666">to headphones</text>
<text text-anchor="start" x="336" y="-149.9" font-family="Helvetica,sans-Serif" font-size="7.00" fill="#666666">or amplifier</text>
</g>
<!-- w3&#45;&gt;audio_out -->
<g id="edge7" class="edge">
<title>w3&#45;&gt;audio_out</title>
<path fill="none" stroke="#222222" stroke-width="1.5" d="M326.48,-163.5C326.64,-163.5 326.8,-163.5 326.96,-163.5"/>
</g>
<!-- gnd -->
<g id="node10" class="node">
<title>gnd</title>
<text text-anchor="start" x="235" y="-74" font-family="Courier,monospace" font-size="10.00">──────</text>
<text text-anchor="start" x="235" y="-63" font-family="Courier,monospace" font-size="10.00"> ──── </text>
<text text-anchor="start" x="235" y="-52" font-family="Courier,monospace" font-size="10.00"> &#160;── &#160;</text>
<text text-anchor="start" x="244" y="-42.6" font-family="Helvetica,sans-Serif" font-size="8.00">GND</text>
</g>
<!-- cap_shunt&#45;&gt;gnd -->
<g id="edge9" class="edge">
<title>cap_shunt&#45;&gt;gnd</title>
<path fill="none" stroke="#222222" stroke-width="1.5" d="M253,-89.94C253,-87.34 253,-84.7 253,-82.12"/>
</g>
<!-- note -->
<g id="node11" class="node">
<title>note</title>
<path fill="#fafafa" stroke="transparent" d="M10.67,0C10.67,0 495.33,0 495.33,0 500.67,0 506,-5.33 506,-10.67 506,-10.67 506,-21.33 506,-21.33 506,-26.67 500.67,-32 495.33,-32 495.33,-32 10.67,-32 10.67,-32 5.33,-32 0,-26.67 0,-21.33 0,-21.33 0,-10.67 0,-10.67 0,-5.33 5.33,0 10.67,0"/>
<text text-anchor="start" x="80" y="-19" font-family="Helvetica,sans-Serif" font-size="10.00"> &#160;&#160;&#160;&#160;&#160;&#160;&#160;&#160;&#160;&#160;&#160;&#160;&#160;&#160;&#160;</text>
<text text-anchor="start" x="129" y="-19" font-family="Helvetica,sans-Serif" font-size="9.00"> &#160;&#160;&#160;&#160;&#160;&#160;&#160;&#160;&#160;&#160;&#160;&#160;&#160;&#160;&#160;&#160;&#160;&#160;&#160;f</text>
<text text-anchor="start" x="193" y="-19" font-family="Helvetica,sans-Serif" baseline-shift="sub" font-size="9.00">c</text>
<text text-anchor="start" x="197" y="-19" font-family="Helvetica,sans-Serif" font-size="9.00"> = 1/(2πR1·C1) ≈ 34 kHz with R1=1kΩ, C1=4.7nF</text>
<text text-anchor="start" x="6" y="-9" font-family="Helvetica,sans-Serif" font-size="9.00"> &#160;&#160;&#160;&#160;&#160;&#160;&#160;&#160;&#160;&#160;&#160;&#160;&#160;&#160;&#160;&#160;&#160;&#160;&#160;C2 is optional — blocks DC offset when driving an AC&#45;coupled amplifier input &#160;&#160;&#160;&#160;&#160;&#160;&#160;&#160;&#160;&#160;&#160;&#160;&#160;&#160;&#160;</text>
<text text-anchor="start" x="463" y="-9" font-family="Helvetica,sans-Serif" font-size="10.00"> &#160;&#160;&#160;&#160;&#160;&#160;&#160;&#160;&#160;&#160;&#160;</text>
<path fill="none" stroke="#bbbbbb" d="M10.67,0C10.67,0 495.33,0 495.33,0 500.67,0 506,-5.33 506,-10.67 506,-10.67 506,-21.33 506,-21.33 506,-26.67 500.67,-32 495.33,-32 495.33,-32 10.67,-32 10.67,-32 5.33,-32 0,-26.67 0,-21.33 0,-21.33 0,-10.67 0,-10.67 0,-5.33 5.33,0 10.67,0"/>
</g>
<!-- gnd&#45;&gt;note -->
</g>
</svg>
