<?xml version="1.0" encoding="utf-8" standalone="no"?>
<!DOCTYPE svg PUBLIC "-//W3C//DTD SVG 1.1//EN"
  "http://www.w3.org/Graphics/SVG/1.1/DTD/svg11.dtd">
<svg xmlns:xlink="http://www.w3.org/1999/xlink" width="816.530625pt" height="279.36pt" viewBox="0 0 816.530625 279.36" xmlns="http://www.w3.org/2000/svg" version="1.1">
 <metadata>
  <rdf:RDF xmlns:dc="http://purl.org/dc/elements/1.1/" xmlns:cc="http://creativecommons.org/ns#" xmlns:rdf="http://www.w3.org/1999/02/22-rdf-syntax-ns#">
   <cc:Work>
    <dc:type rdf:resource="http://purl.org/dc/dcmitype/StillImage"/>
    <dc:date>2026-03-01T17:04:29.742879</dc:date>
    <dc:format>image/svg+xml</dc:format>
    <dc:creator>
     <cc:Agent>
      <dc:title>Matplotlib v3.10.0, https://matplotlib.org/</dc:title>
     </cc:Agent>
    </dc:creator>
   </cc:Work>
  </rdf:RDF>
 </metadata>
 <defs>
  <style type="text/css">*{stroke-linejoin: round; stroke-linecap: butt}</style>
 </defs>
 <g id="figure_1">
  <g id="patch_1">
   <path d="M 0 279.36 
L 816.530625 279.36 
L 816.530625 0 
L 0 0 
L 0 279.36 
z
" style="fill: none"/>
  </g>
  <g id="axes_1">
   <g id="patch_2">
    <path d="M 127.474126 9.166871 
C 141.106853 187.239981 145.130625 256.68 199.130625 256.68 
" clip-path="url(#pd6a06f7c10)" style="fill: none; stroke: #000000; stroke-width: 2; stroke-linejoin: miter; stroke-linecap: round"/>
   </g>
   <g id="patch_3">
    <path d="M 124.22813 13.928542 
L 127.130625 4.68 
L 131.407123 13.37894 
z
" clip-path="url(#pd6a06f7c10)"/>
   </g>
   <g id="patch_4">
    <path d="M 127.512032 34.363807 
C 141.106853 194.183983 145.130625 256.68 199.130625 256.68 
" clip-path="url(#pd6a06f7c10)" style="fill: none; stroke: #808080; stroke-width: 2; stroke-linejoin: miter; stroke-linecap: round"/>
   </g>
   <g id="patch_5">
    <path d="M 124.306393 39.15274 
L 127.130625 29.88 
L 131.480485 38.542489 
z
" clip-path="url(#pd6a06f7c10)" style="fill: #808080"/>
   </g>
   <g id="patch_6">
    <path d="M 234.609898 178.34977 
C 228.142511 233.863994 226.130625 256.68 199.130625 256.68 
" clip-path="url(#pd6a06f7c10)" style="fill: none; stroke: #0000ff; stroke-width: 2; stroke-linejoin: miter; stroke-linecap: round"/>
   </g>
   <g id="patch_7">
    <path d="M 230.513356 182.402959 
L 235.130625 173.88 
L 237.664988 183.236121 
z
" clip-path="url(#pd6a06f7c10)" style="fill: #0000ff"/>
   </g>
   <g id="patch_8">
    <path d="M 501.964275 177.077535 
C 445.731654 233.863994 428.630625 256.68 199.130625 256.68 
" clip-path="url(#pd6a06f7c10)" style="fill: none; stroke: #0000ff; stroke-width: 2; stroke-linejoin: miter; stroke-linecap: round"/>
   </g>
   <g id="patch_9">
    <path d="M 496.239898 177.74199 
L 505.130625 173.88 
L 501.355954 182.80815 
z
" clip-path="url(#pd6a06f7c10)" style="fill: #0000ff"/>
   </g>
   <g id="patch_10">
    <path d="M 735.69501 137.186295 
C 634.308912 222.951991 604.130625 256.68 199.130625 256.68 
" clip-path="url(#pd6a06f7c10)" style="fill: none; stroke: #0000ff; stroke-width: 2; stroke-linejoin: miter; stroke-linecap: round"/>
   </g>
   <g id="patch_11">
    <path d="M 729.934359 137.344098 
L 739.130625 134.28 
L 734.584431 142.841082 
z
" clip-path="url(#pd6a06f7c10)" style="fill: #0000ff"/>
   </g>
   <g id="patch_12">
    <path d="M 216.533078 225.14015 
C 213.636568 246.759997 212.630625 256.68 199.130625 256.68 
" clip-path="url(#pd6a06f7c10)" style="fill: none; stroke: #808080; stroke-width: 2; stroke-linejoin: miter; stroke-linecap: round"/>
   </g>
   <g id="patch_13">
    <path d="M 212.367411 229.122263 
L 217.130625 220.68 
L 219.503651 230.078337 
z
" clip-path="url(#pd6a06f7c10)" style="fill: #808080"/>
   </g>
   <g id="patch_14">
    <path d="M 626.684065 273.98855 
C 547.273254 261.640001 523.130625 256.68 199.130625 256.68 
" clip-path="url(#pd6a06f7c10)" style="fill: none; stroke: #0000ff; stroke-width: 2; stroke-linejoin: miter; stroke-linecap: round"/>
   </g>
   <g id="patch_15">
    <path d="M 622.790664 269.739853 
L 631.130625 274.68 
L 621.684345 276.854349 
z
" clip-path="url(#pd6a06f7c10)" style="fill: #0000ff"/>
   </g>
   <g id="line2d_1">
    <path d="M 163.130625 148.68 
L 181.130625 148.68 
L 199.130625 148.68 
" clip-path="url(#pd6a06f7c10)" style="fill: none; stroke: #000000; stroke-width: 2; stroke-linecap: round"/>
   </g>
   <g id="line2d_2">
    <path d="M 199.130625 148.68 
L 231.890625 148.68 
M 231.890625 139.68 
L 231.890625 157.68 
M 238.370625 139.68 
L 238.370625 157.68 
M 238.370625 148.68 
L 271.130625 148.68 
" clip-path="url(#pd6a06f7c10)" style="fill: none; stroke: #000000; stroke-width: 2; stroke-linecap: round"/>
   </g>
   <g id="line2d_3">
    <path d="M 271.130625 148.68 
L 289.130625 148.68 
L 307.130625 148.68 
" clip-path="url(#pd6a06f7c10)" style="fill: none; stroke: #000000; stroke-width: 2; stroke-linecap: round"/>
   </g>
   <g id="line2d_4">
    <path d="M 307.130625 171.18 
L 307.130625 126.18 
L 385.072911 171.18 
L 307.130625 216.18 
L 307.130625 171.18 
M 385.072911 171.18 
" clip-path="url(#pd6a06f7c10)" style="fill: none; stroke: #000000; stroke-width: 2; stroke-linecap: round"/>
   </g>
   <g id="line2d_5">
    <path d="M 313.273411 148.68 
L 320.473411 148.68 
" clip-path="url(#pd6a06f7c10)" style="fill: none; stroke: #000000; stroke-width: 2; stroke-linecap: round"/>
   </g>
   <g id="line2d_6">
    <path d="M 313.273411 193.68 
L 320.473411 193.68 
" clip-path="url(#pd6a06f7c10)" style="fill: none; stroke: #000000; stroke-width: 2; stroke-linecap: round"/>
   </g>
   <g id="line2d_7">
    <path d="M 316.873411 197.28 
L 316.873411 190.08 
" clip-path="url(#pd6a06f7c10)" style="fill: none; stroke: #000000; stroke-width: 2; stroke-linecap: round"/>
   </g>
   <g id="line2d_8">
    <path d="M 289.130625 148.68 
L 289.130625 121.68 
L 289.130625 94.68 
" clip-path="url(#pd6a06f7c10)" style="fill: none; stroke: #000000; stroke-width: 2; stroke-linecap: round"/>
   </g>
   <g id="line2d_9">
    <path d="M 289.130625 94.68 
L 348.890625 94.68 
M 348.890625 85.68 
L 348.890625 103.68 
M 355.370625 85.68 
L 355.370625 103.68 
M 355.370625 94.68 
L 415.130625 94.68 
" clip-path="url(#pd6a06f7c10)" style="fill: none; stroke: #000000; stroke-width: 2; stroke-linecap: round"/>
   </g>
   <g id="line2d_10">
    <path d="M 415.130625 94.68 
L 415.130625 121.68 
L 415.130625 148.68 
" clip-path="url(#pd6a06f7c10)" style="fill: none; stroke: #000000; stroke-width: 2; stroke-linecap: round"/>
   </g>
   <g id="line2d_11">
    <path d="M 433.130625 148.68 
L 451.130625 148.68 
L 469.130625 148.68 
" clip-path="url(#pd6a06f7c10)" style="fill: none; stroke: #000000; stroke-width: 2; stroke-linecap: round"/>
   </g>
   <g id="line2d_12">
    <path d="M 469.130625 148.68 
L 501.890625 148.68 
M 501.890625 139.68 
L 501.890625 157.68 
M 508.370625 139.68 
L 508.370625 157.68 
M 508.370625 148.68 
L 541.130625 148.68 
" clip-path="url(#pd6a06f7c10)" style="fill: none; stroke: #000000; stroke-width: 2; stroke-linecap: round"/>
   </g>
   <g id="line2d_13">
    <path d="M 541.130625 148.68 
L 559.130625 148.68 
L 577.130625 148.68 
" clip-path="url(#pd6a06f7c10)" style="fill: none; stroke: #000000; stroke-width: 2; stroke-linecap: round"/>
   </g>
   <g id="line2d_14">
    <path d="M 577.130625 171.18 
L 577.130625 126.18 
L 655.072911 171.18 
L 577.130625 216.18 
L 577.130625 171.18 
M 655.072911 171.18 
" clip-path="url(#pd6a06f7c10)" style="fill: none; stroke: #000000; stroke-width: 2; stroke-linecap: round"/>
   </g>
   <g id="line2d_15">
    <path d="M 583.273411 148.68 
L 590.473411 148.68 
" clip-path="url(#pd6a06f7c10)" style="fill: none; stroke: #000000; stroke-width: 2; stroke-linecap: round"/>
   </g>
   <g id="line2d_16">
    <path d="M 583.273411 193.68 
L 590.473411 193.68 
" clip-path="url(#pd6a06f7c10)" style="fill: none; stroke: #000000; stroke-width: 2; stroke-linecap: round"/>
   </g>
   <g id="line2d_17">
    <path d="M 586.873411 197.28 
L 586.873411 190.08 
" clip-path="url(#pd6a06f7c10)" style="fill: none; stroke: #000000; stroke-width: 2; stroke-linecap: round"/>
   </g>
   <g id="line2d_18">
    <path d="M 559.130625 148.68 
L 559.130625 121.68 
L 559.130625 94.68 
" clip-path="url(#pd6a06f7c10)" style="fill: none; stroke: #000000; stroke-width: 2; stroke-linecap: round"/>
   </g>
   <g id="line2d_19">
    <path d="M 559.130625 94.68 
L 609.890625 94.68 
M 609.890625 85.68 
L 609.890625 103.68 
M 616.370625 85.68 
L 616.370625 103.68 
M 616.370625 94.68 
L 667.130625 94.68 
" clip-path="url(#pd6a06f7c10)" style="fill: none; stroke: #000000; stroke-width: 2; stroke-linecap: round"/>
   </g>
   <g id="line2d_20">
    <path d="M 667.130625 94.68 
L 667.130625 121.68 
L 667.130625 148.68 
" clip-path="url(#pd6a06f7c10)" style="fill: none; stroke: #000000; stroke-width: 2; stroke-linecap: round"/>
   </g>
   <g id="line2d_21">
    <path d="M 703.130625 148.68 
L 721.130625 148.68 
L 739.130625 148.68 
" clip-path="url(#pd6a06f7c10)" style="fill: none; stroke: #000000; stroke-width: 2; stroke-linecap: round"/>
   </g>
   <g id="line2d_22">
    <path d="M 199.130625 256.68 
L 226.130625 256.68 
L 253.130625 256.68 
" clip-path="url(#pd6a06f7c10)" style="fill: none; stroke: #000000; stroke-width: 2; stroke-linecap: round"/>
   </g>
   <g id="line2d_23">
    <path d="M 793.130625 148.68 
L 793.130625 202.68 
L 793.130625 256.68 
" clip-path="url(#pd6a06f7c10)" style="fill: none; stroke: #000000; stroke-width: 2; stroke-linecap: round"/>
   </g>
   <g id="line2d_24">
    <path d="M 793.130625 256.68 
L 532.130625 256.68 
L 271.130625 256.68 
" clip-path="url(#pd6a06f7c10)" style="fill: none; stroke: #000000; stroke-width: 2; stroke-linecap: round"/>
   </g>
   <g id="line2d_25">
    <path d="M 271.130625 256.68 
L 271.130625 223.92 
M 262.130625 223.92 
L 280.130625 223.92 
M 262.130625 217.44 
L 280.130625 217.44 
M 271.130625 217.44 
L 271.130625 184.68 
" clip-path="url(#pd6a06f7c10)" style="fill: none; stroke: #000000; stroke-width: 2; stroke-linecap: round"/>
   </g>
   <g id="line2d_26">
    <path d="M 271.130625 184.68 
L 271.130625 166.68 
L 271.130625 148.68 
" clip-path="url(#pd6a06f7c10)" style="fill: none; stroke: #000000; stroke-width: 2; stroke-linecap: round"/>
   </g>
   <g id="line2d_27">
    <path d="M 433.130625 148.68 
L 433.130625 175.68 
L 433.130625 202.68 
" clip-path="url(#pd6a06f7c10)" style="fill: none; stroke: #000000; stroke-width: 2; stroke-linecap: round"/>
   </g>
   <g id="line2d_28">
    <path d="M 433.130625 202.68 
L 352.130625 202.68 
L 271.130625 202.68 
" clip-path="url(#pd6a06f7c10)" style="fill: none; stroke: #000000; stroke-width: 2; stroke-linecap: round"/>
   </g>
   <g id="line2d_29">
    <path d="M 271.130625 202.68 
L 271.130625 178.92 
M 262.130625 178.92 
L 280.130625 178.92 
M 262.130625 172.44 
L 280.130625 172.44 
M 271.130625 172.44 
L 271.130625 148.68 
" clip-path="url(#pd6a06f7c10)" style="fill: none; stroke: #000000; stroke-width: 2; stroke-linecap: round"/>
   </g>
   <g id="text_1">
    <!-- SC State Variable Filter (Tow-Thomas Biquad) -->
    <g transform="translate(202.730625 260.543125) scale(0.14 -0.14)">
     <defs>
      <path id="DejaVuSans-53" d="M 3425 4513 
L 3425 3897 
Q 3066 4069 2747 4153 
Q 2428 4238 2131 4238 
Q 1616 4238 1336 4038 
Q 1056 3838 1056 3469 
Q 1056 3159 1242 3001 
Q 1428 2844 1947 2747 
L 2328 2669 
Q 3034 2534 3370 2195 
Q 3706 1856 3706 1288 
Q 3706 609 3251 259 
Q 2797 -91 1919 -91 
Q 1588 -91 1214 -16 
Q 841 59 441 206 
L 441 856 
Q 825 641 1194 531 
Q 1563 422 1919 422 
Q 2459 422 2753 634 
Q 3047 847 3047 1241 
Q 3047 1584 2836 1778 
Q 2625 1972 2144 2069 
L 1759 2144 
Q 1053 2284 737 2584 
Q 422 2884 422 3419 
Q 422 4038 858 4394 
Q 1294 4750 2059 4750 
Q 2388 4750 2728 4690 
Q 3069 4631 3425 4513 
z
" transform="scale(0.015625)"/>
      <path id="DejaVuSans-43" d="M 4122 4306 
L 4122 3641 
Q 3803 3938 3442 4084 
Q 3081 4231 2675 4231 
Q 1875 4231 1450 3742 
Q 1025 3253 1025 2328 
Q 1025 1406 1450 917 
Q 1875 428 2675 428 
Q 3081 428 3442 575 
Q 3803 722 4122 1019 
L 4122 359 
Q 3791 134 3420 21 
Q 3050 -91 2638 -91 
Q 1578 -91 968 557 
Q 359 1206 359 2328 
Q 359 3453 968 4101 
Q 1578 4750 2638 4750 
Q 3056 4750 3426 4639 
Q 3797 4528 4122 4306 
z
" transform="scale(0.015625)"/>
      <path id="DejaVuSans-20" transform="scale(0.015625)"/>
      <path id="DejaVuSans-74" d="M 1172 4494 
L 1172 3500 
L 2356 3500 
L 2356 3053 
L 1172 3053 
L 1172 1153 
Q 1172 725 1289 603 
Q 1406 481 1766 481 
L 2356 481 
L 2356 0 
L 1766 0 
Q 1100 0 847 248 
Q 594 497 594 1153 
L 594 3053 
L 172 3053 
L 172 3500 
L 594 3500 
L 594 4494 
L 1172 4494 
z
" transform="scale(0.015625)"/>
      <path id="DejaVuSans-61" d="M 2194 1759 
Q 1497 1759 1228 1600 
Q 959 1441 959 1056 
Q 959 750 1161 570 
Q 1363 391 1709 391 
Q 2188 391 2477 730 
Q 2766 1069 2766 1631 
L 2766 1759 
L 2194 1759 
z
M 3341 1997 
L 3341 0 
L 2766 0 
L 2766 531 
Q 2569 213 2275 61 
Q 1981 -91 1556 -91 
Q 1019 -91 701 211 
Q 384 513 384 1019 
Q 384 1609 779 1909 
Q 1175 2209 1959 2209 
L 2766 2209 
L 2766 2266 
Q 2766 2663 2505 2880 
Q 2244 3097 1772 3097 
Q 1472 3097 1187 3025 
Q 903 2953 641 2809 
L 641 3341 
Q 956 3463 1253 3523 
Q 1550 3584 1831 3584 
Q 2591 3584 2966 3190 
Q 3341 2797 3341 1997 
z
" transform="scale(0.015625)"/>
      <path id="DejaVuSans-65" d="M 3597 1894 
L 3597 1613 
L 953 1613 
Q 991 1019 1311 708 
Q 1631 397 2203 397 
Q 2534 397 2845 478 
Q 3156 559 3463 722 
L 3463 178 
Q 3153 47 2828 -22 
Q 2503 -91 2169 -91 
Q 1331 -91 842 396 
Q 353 884 353 1716 
Q 353 2575 817 3079 
Q 1281 3584 2069 3584 
Q 2775 3584 3186 3129 
Q 3597 2675 3597 1894 
z
M 3022 2063 
Q 3016 2534 2758 2815 
Q 2500 3097 2075 3097 
Q 1594 3097 1305 2825 
Q 1016 2553 972 2059 
L 3022 2063 
z
" transform="scale(0.015625)"/>
      <path id="DejaVuSans-56" d="M 1831 0 
L 50 4666 
L 709 4666 
L 2188 738 
L 3669 4666 
L 4325 4666 
L 2547 0 
L 1831 0 
z
" transform="scale(0.015625)"/>
      <path id="DejaVuSans-72" d="M 2631 2963 
Q 2534 3019 2420 3045 
Q 2306 3072 2169 3072 
Q 1681 3072 1420 2755 
Q 1159 2438 1159 1844 
L 1159 0 
L 581 0 
L 581 3500 
L 1159 3500 
L 1159 2956 
Q 1341 3275 1631 3429 
Q 1922 3584 2338 3584 
Q 2397 3584 2469 3576 
Q 2541 3569 2628 3553 
L 2631 2963 
z
" transform="scale(0.015625)"/>
      <path id="DejaVuSans-69" d="M 603 3500 
L 1178 3500 
L 1178 0 
L 603 0 
L 603 3500 
z
M 603 4863 
L 1178 4863 
L 1178 4134 
L 603 4134 
L 603 4863 
z
" transform="scale(0.015625)"/>
      <path id="DejaVuSans-62" d="M 3116 1747 
Q 3116 2381 2855 2742 
Q 2594 3103 2138 3103 
Q 1681 3103 1420 2742 
Q 1159 2381 1159 1747 
Q 1159 1113 1420 752 
Q 1681 391 2138 391 
Q 2594 391 2855 752 
Q 3116 1113 3116 1747 
z
M 1159 2969 
Q 1341 3281 1617 3432 
Q 1894 3584 2278 3584 
Q 2916 3584 3314 3078 
Q 3713 2572 3713 1747 
Q 3713 922 3314 415 
Q 2916 -91 2278 -91 
Q 1894 -91 1617 61 
Q 1341 213 1159 525 
L 1159 0 
L 581 0 
L 581 4863 
L 1159 4863 
L 1159 2969 
z
" transform="scale(0.015625)"/>
      <path id="DejaVuSans-6c" d="M 603 4863 
L 1178 4863 
L 1178 0 
L 603 0 
L 603 4863 
z
" transform="scale(0.015625)"/>
      <path id="DejaVuSans-46" d="M 628 4666 
L 3309 4666 
L 3309 4134 
L 1259 4134 
L 1259 2759 
L 3109 2759 
L 3109 2228 
L 1259 2228 
L 1259 0 
L 628 0 
L 628 4666 
z
" transform="scale(0.015625)"/>
      <path id="DejaVuSans-28" d="M 1984 4856 
Q 1566 4138 1362 3434 
Q 1159 2731 1159 2009 
Q 1159 1288 1364 580 
Q 1569 -128 1984 -844 
L 1484 -844 
Q 1016 -109 783 600 
Q 550 1309 550 2009 
Q 550 2706 781 3412 
Q 1013 4119 1484 4856 
L 1984 4856 
z
" transform="scale(0.015625)"/>
      <path id="DejaVuSans-54" d="M -19 4666 
L 3928 4666 
L 3928 4134 
L 2272 4134 
L 2272 0 
L 1638 0 
L 1638 4134 
L -19 4134 
L -19 4666 
z
" transform="scale(0.015625)"/>
      <path id="DejaVuSans-6f" d="M 1959 3097 
Q 1497 3097 1228 2736 
Q 959 2375 959 1747 
Q 959 1119 1226 758 
Q 1494 397 1959 397 
Q 2419 397 2687 759 
Q 2956 1122 2956 1747 
Q 2956 2369 2687 2733 
Q 2419 3097 1959 3097 
z
M 1959 3584 
Q 2709 3584 3137 3096 
Q 3566 2609 3566 1747 
Q 3566 888 3137 398 
Q 2709 -91 1959 -91 
Q 1206 -91 779 398 
Q 353 888 353 1747 
Q 353 2609 779 3096 
Q 1206 3584 1959 3584 
z
" transform="scale(0.015625)"/>
      <path id="DejaVuSans-77" d="M 269 3500 
L 844 3500 
L 1563 769 
L 2278 3500 
L 2956 3500 
L 3675 769 
L 4391 3500 
L 4966 3500 
L 4050 0 
L 3372 0 
L 2619 2869 
L 1863 0 
L 1184 0 
L 269 3500 
z
" transform="scale(0.015625)"/>
      <path id="DejaVuSans-2d" d="M 313 2009 
L 1997 2009 
L 1997 1497 
L 313 1497 
L 313 2009 
z
" transform="scale(0.015625)"/>
      <path id="DejaVuSans-68" d="M 3513 2113 
L 3513 0 
L 2938 0 
L 2938 2094 
Q 2938 2591 2744 2837 
Q 2550 3084 2163 3084 
Q 1697 3084 1428 2787 
Q 1159 2491 1159 1978 
L 1159 0 
L 581 0 
L 581 4863 
L 1159 4863 
L 1159 2956 
Q 1366 3272 1645 3428 
Q 1925 3584 2291 3584 
Q 2894 3584 3203 3211 
Q 3513 2838 3513 2113 
z
" transform="scale(0.015625)"/>
      <path id="DejaVuSans-6d" d="M 3328 2828 
Q 3544 3216 3844 3400 
Q 4144 3584 4550 3584 
Q 5097 3584 5394 3201 
Q 5691 2819 5691 2113 
L 5691 0 
L 5113 0 
L 5113 2094 
Q 5113 2597 4934 2840 
Q 4756 3084 4391 3084 
Q 3944 3084 3684 2787 
Q 3425 2491 3425 1978 
L 3425 0 
L 2847 0 
L 2847 2094 
Q 2847 2600 2669 2842 
Q 2491 3084 2119 3084 
Q 1678 3084 1418 2786 
Q 1159 2488 1159 1978 
L 1159 0 
L 581 0 
L 581 3500 
L 1159 3500 
L 1159 2956 
Q 1356 3278 1631 3431 
Q 1906 3584 2284 3584 
Q 2666 3584 2933 3390 
Q 3200 3197 3328 2828 
z
" transform="scale(0.015625)"/>
      <path id="DejaVuSans-73" d="M 2834 3397 
L 2834 2853 
Q 2591 2978 2328 3040 
Q 2066 3103 1784 3103 
Q 1356 3103 1142 2972 
Q 928 2841 928 2578 
Q 928 2378 1081 2264 
Q 1234 2150 1697 2047 
L 1894 2003 
Q 2506 1872 2764 1633 
Q 3022 1394 3022 966 
Q 3022 478 2636 193 
Q 2250 -91 1575 -91 
Q 1294 -91 989 -36 
Q 684 19 347 128 
L 347 722 
Q 666 556 975 473 
Q 1284 391 1588 391 
Q 1994 391 2212 530 
Q 2431 669 2431 922 
Q 2431 1156 2273 1281 
Q 2116 1406 1581 1522 
L 1381 1569 
Q 847 1681 609 1914 
Q 372 2147 372 2553 
Q 372 3047 722 3315 
Q 1072 3584 1716 3584 
Q 2034 3584 2315 3537 
Q 2597 3491 2834 3397 
z
" transform="scale(0.015625)"/>
      <path id="DejaVuSans-42" d="M 1259 2228 
L 1259 519 
L 2272 519 
Q 2781 519 3026 730 
Q 3272 941 3272 1375 
Q 3272 1813 3026 2020 
Q 2781 2228 2272 2228 
L 1259 2228 
z
M 1259 4147 
L 1259 2741 
L 2194 2741 
Q 2656 2741 2882 2914 
Q 3109 3088 3109 3444 
Q 3109 3797 2882 3972 
Q 2656 4147 2194 4147 
L 1259 4147 
z
M 628 4666 
L 2241 4666 
Q 2963 4666 3353 4366 
Q 3744 4066 3744 3513 
Q 3744 3084 3544 2831 
Q 3344 2578 2956 2516 
Q 3422 2416 3680 2098 
Q 3938 1781 3938 1306 
Q 3938 681 3513 340 
Q 3088 0 2303 0 
L 628 0 
L 628 4666 
z
" transform="scale(0.015625)"/>
      <path id="DejaVuSans-71" d="M 947 1747 
Q 947 1113 1208 752 
Q 1469 391 1925 391 
Q 2381 391 2643 752 
Q 2906 1113 2906 1747 
Q 2906 2381 2643 2742 
Q 2381 3103 1925 3103 
Q 1469 3103 1208 2742 
Q 947 2381 947 1747 
z
M 2906 525 
Q 2725 213 2448 61 
Q 2172 -91 1784 -91 
Q 1150 -91 751 415 
Q 353 922 353 1747 
Q 353 2572 751 3078 
Q 1150 3584 1784 3584 
Q 2172 3584 2448 3432 
Q 2725 3281 2906 2969 
L 2906 3500 
L 3481 3500 
L 3481 -1331 
L 2906 -1331 
L 2906 525 
z
" transform="scale(0.015625)"/>
      <path id="DejaVuSans-75" d="M 544 1381 
L 544 3500 
L 1119 3500 
L 1119 1403 
Q 1119 906 1312 657 
Q 1506 409 1894 409 
Q 2359 409 2629 706 
Q 2900 1003 2900 1516 
L 2900 3500 
L 3475 3500 
L 3475 0 
L 2900 0 
L 2900 538 
Q 2691 219 2414 64 
Q 2138 -91 1772 -91 
Q 1169 -91 856 284 
Q 544 659 544 1381 
z
M 1991 3584 
L 1991 3584 
z
" transform="scale(0.015625)"/>
      <path id="DejaVuSans-64" d="M 2906 2969 
L 2906 4863 
L 3481 4863 
L 3481 0 
L 2906 0 
L 2906 525 
Q 2725 213 2448 61 
Q 2172 -91 1784 -91 
Q 1150 -91 751 415 
Q 353 922 353 1747 
Q 353 2572 751 3078 
Q 1150 3584 1784 3584 
Q 2172 3584 2448 3432 
Q 2725 3281 2906 2969 
z
M 947 1747 
Q 947 1113 1208 752 
Q 1469 391 1925 391 
Q 2381 391 2643 752 
Q 2906 1113 2906 1747 
Q 2906 2381 2643 2742 
Q 2381 3103 1925 3103 
Q 1469 3103 1208 2742 
Q 947 2381 947 1747 
z
" transform="scale(0.015625)"/>
      <path id="DejaVuSans-29" d="M 513 4856 
L 1013 4856 
Q 1481 4119 1714 3412 
Q 1947 2706 1947 2009 
Q 1947 1309 1714 600 
Q 1481 -109 1013 -844 
L 513 -844 
Q 928 -128 1133 580 
Q 1338 1288 1338 2009 
Q 1338 2731 1133 3434 
Q 928 4138 513 4856 
z
" transform="scale(0.015625)"/>
     </defs>
     <use xlink:href="#DejaVuSans-53"/>
     <use xlink:href="#DejaVuSans-43" transform="translate(63.476562 0)"/>
     <use xlink:href="#DejaVuSans-20" transform="translate(133.300781 0)"/>
     <use xlink:href="#DejaVuSans-53" transform="translate(165.087891 0)"/>
     <use xlink:href="#DejaVuSans-74" transform="translate(228.564453 0)"/>
     <use xlink:href="#DejaVuSans-61" transform="translate(267.773438 0)"/>
     <use xlink:href="#DejaVuSans-74" transform="translate(329.052734 0)"/>
     <use xlink:href="#DejaVuSans-65" transform="translate(368.261719 0)"/>
     <use xlink:href="#DejaVuSans-20" transform="translate(429.785156 0)"/>
     <use xlink:href="#DejaVuSans-56" transform="translate(461.572266 0)"/>
     <use xlink:href="#DejaVuSans-61" transform="translate(522.230469 0)"/>
     <use xlink:href="#DejaVuSans-72" transform="translate(583.509766 0)"/>
     <use xlink:href="#DejaVuSans-69" transform="translate(624.623047 0)"/>
     <use xlink:href="#DejaVuSans-61" transform="translate(652.40625 0)"/>
     <use xlink:href="#DejaVuSans-62" transform="translate(713.685547 0)"/>
     <use xlink:href="#DejaVuSans-6c" transform="translate(777.162109 0)"/>
     <use xlink:href="#DejaVuSans-65" transform="translate(804.945312 0)"/>
     <use xlink:href="#DejaVuSans-20" transform="translate(866.46875 0)"/>
     <use xlink:href="#DejaVuSans-46" transform="translate(898.255859 0)"/>
     <use xlink:href="#DejaVuSans-69" transform="translate(948.525391 0)"/>
     <use xlink:href="#DejaVuSans-6c" transform="translate(976.308594 0)"/>
     <use xlink:href="#DejaVuSans-74" transform="translate(1004.091797 0)"/>
     <use xlink:href="#DejaVuSans-65" transform="translate(1043.300781 0)"/>
     <use xlink:href="#DejaVuSans-72" transform="translate(1104.824219 0)"/>
     <use xlink:href="#DejaVuSans-20" transform="translate(1145.9375 0)"/>
     <use xlink:href="#DejaVuSans-28" transform="translate(1177.724609 0)"/>
     <use xlink:href="#DejaVuSans-54" transform="translate(1216.738281 0)"/>
     <use xlink:href="#DejaVuSans-6f" transform="translate(1260.822266 0)"/>
     <use xlink:href="#DejaVuSans-77" transform="translate(1322.003906 0)"/>
     <use xlink:href="#DejaVuSans-2d" transform="translate(1403.791016 0)"/>
     <use xlink:href="#DejaVuSans-54" transform="translate(1430.75 0)"/>
     <use xlink:href="#DejaVuSans-68" transform="translate(1491.833984 0)"/>
     <use xlink:href="#DejaVuSans-6f" transform="translate(1555.212891 0)"/>
     <use xlink:href="#DejaVuSans-6d" transform="translate(1616.394531 0)"/>
     <use xlink:href="#DejaVuSans-61" transform="translate(1713.806641 0)"/>
     <use xlink:href="#DejaVuSans-73" transform="translate(1775.085938 0)"/>
     <use xlink:href="#DejaVuSans-20" transform="translate(1827.185547 0)"/>
     <use xlink:href="#DejaVuSans-42" transform="translate(1858.972656 0)"/>
     <use xlink:href="#DejaVuSans-69" transform="translate(1927.576172 0)"/>
     <use xlink:href="#DejaVuSans-71" transform="translate(1955.359375 0)"/>
     <use xlink:href="#DejaVuSans-75" transform="translate(2018.835938 0)"/>
     <use xlink:href="#DejaVuSans-61" transform="translate(2082.214844 0)"/>
     <use xlink:href="#DejaVuSans-64" transform="translate(2143.494141 0)"/>
     <use xlink:href="#DejaVuSans-29" transform="translate(2206.970703 0)"/>
    </g>
   </g>
   <g id="text_2">
    <!-- IHP SG13G2 130nm — C_int=1.1pF, C_sw=73.5fF, VDD=1.2V -->
    <g style="fill: #808080" transform="translate(202.730625 259.038281) scale(0.09 -0.09)">
     <defs>
      <path id="DejaVuSans-49" d="M 628 4666 
L 1259 4666 
L 1259 0 
L 628 0 
L 628 4666 
z
" transform="scale(0.015625)"/>
      <path id="DejaVuSans-48" d="M 628 4666 
L 1259 4666 
L 1259 2753 
L 3553 2753 
L 3553 4666 
L 4184 4666 
L 4184 0 
L 3553 0 
L 3553 2222 
L 1259 2222 
L 1259 0 
L 628 0 
L 628 4666 
z
" transform="scale(0.015625)"/>
      <path id="DejaVuSans-50" d="M 1259 4147 
L 1259 2394 
L 2053 2394 
Q 2494 2394 2734 2622 
Q 2975 2850 2975 3272 
Q 2975 3691 2734 3919 
Q 2494 4147 2053 4147 
L 1259 4147 
z
M 628 4666 
L 2053 4666 
Q 2838 4666 3239 4311 
Q 3641 3956 3641 3272 
Q 3641 2581 3239 2228 
Q 2838 1875 2053 1875 
L 1259 1875 
L 1259 0 
L 628 0 
L 628 4666 
z
" transform="scale(0.015625)"/>
      <path id="DejaVuSans-47" d="M 3809 666 
L 3809 1919 
L 2778 1919 
L 2778 2438 
L 4434 2438 
L 4434 434 
Q 4069 175 3628 42 
Q 3188 -91 2688 -91 
Q 1594 -91 976 548 
Q 359 1188 359 2328 
Q 359 3472 976 4111 
Q 1594 4750 2688 4750 
Q 3144 4750 3555 4637 
Q 3966 4525 4313 4306 
L 4313 3634 
Q 3963 3931 3569 4081 
Q 3175 4231 2741 4231 
Q 1884 4231 1454 3753 
Q 1025 3275 1025 2328 
Q 1025 1384 1454 906 
Q 1884 428 2741 428 
Q 3075 428 3337 486 
Q 3600 544 3809 666 
z
" transform="scale(0.015625)"/>
      <path id="DejaVuSans-31" d="M 794 531 
L 1825 531 
L 1825 4091 
L 703 3866 
L 703 4441 
L 1819 4666 
L 2450 4666 
L 2450 531 
L 3481 531 
L 3481 0 
L 794 0 
L 794 531 
z
" transform="scale(0.015625)"/>
      <path id="DejaVuSans-33" d="M 2597 2516 
Q 3050 2419 3304 2112 
Q 3559 1806 3559 1356 
Q 3559 666 3084 287 
Q 2609 -91 1734 -91 
Q 1441 -91 1130 -33 
Q 819 25 488 141 
L 488 750 
Q 750 597 1062 519 
Q 1375 441 1716 441 
Q 2309 441 2620 675 
Q 2931 909 2931 1356 
Q 2931 1769 2642 2001 
Q 2353 2234 1838 2234 
L 1294 2234 
L 1294 2753 
L 1863 2753 
Q 2328 2753 2575 2939 
Q 2822 3125 2822 3475 
Q 2822 3834 2567 4026 
Q 2313 4219 1838 4219 
Q 1578 4219 1281 4162 
Q 984 4106 628 3988 
L 628 4550 
Q 988 4650 1302 4700 
Q 1616 4750 1894 4750 
Q 2613 4750 3031 4423 
Q 3450 4097 3450 3541 
Q 3450 3153 3228 2886 
Q 3006 2619 2597 2516 
z
" transform="scale(0.015625)"/>
      <path id="DejaVuSans-32" d="M 1228 531 
L 3431 531 
L 3431 0 
L 469 0 
L 469 531 
Q 828 903 1448 1529 
Q 2069 2156 2228 2338 
Q 2531 2678 2651 2914 
Q 2772 3150 2772 3378 
Q 2772 3750 2511 3984 
Q 2250 4219 1831 4219 
Q 1534 4219 1204 4116 
Q 875 4013 500 3803 
L 500 4441 
Q 881 4594 1212 4672 
Q 1544 4750 1819 4750 
Q 2544 4750 2975 4387 
Q 3406 4025 3406 3419 
Q 3406 3131 3298 2873 
Q 3191 2616 2906 2266 
Q 2828 2175 2409 1742 
Q 1991 1309 1228 531 
z
" transform="scale(0.015625)"/>
      <path id="DejaVuSans-30" d="M 2034 4250 
Q 1547 4250 1301 3770 
Q 1056 3291 1056 2328 
Q 1056 1369 1301 889 
Q 1547 409 2034 409 
Q 2525 409 2770 889 
Q 3016 1369 3016 2328 
Q 3016 3291 2770 3770 
Q 2525 4250 2034 4250 
z
M 2034 4750 
Q 2819 4750 3233 4129 
Q 3647 3509 3647 2328 
Q 3647 1150 3233 529 
Q 2819 -91 2034 -91 
Q 1250 -91 836 529 
Q 422 1150 422 2328 
Q 422 3509 836 4129 
Q 1250 4750 2034 4750 
z
" transform="scale(0.015625)"/>
      <path id="DejaVuSans-6e" d="M 3513 2113 
L 3513 0 
L 2938 0 
L 2938 2094 
Q 2938 2591 2744 2837 
Q 2550 3084 2163 3084 
Q 1697 3084 1428 2787 
Q 1159 2491 1159 1978 
L 1159 0 
L 581 0 
L 581 3500 
L 1159 3500 
L 1159 2956 
Q 1366 3272 1645 3428 
Q 1925 3584 2291 3584 
Q 2894 3584 3203 3211 
Q 3513 2838 3513 2113 
z
" transform="scale(0.015625)"/>
      <path id="DejaVuSans-2014" d="M 313 1978 
L 6088 1978 
L 6088 1528 
L 313 1528 
L 313 1978 
z
" transform="scale(0.015625)"/>
      <path id="DejaVuSans-5f" d="M 3263 -1063 
L 3263 -1509 
L -63 -1509 
L -63 -1063 
L 3263 -1063 
z
" transform="scale(0.015625)"/>
      <path id="DejaVuSans-3d" d="M 678 2906 
L 4684 2906 
L 4684 2381 
L 678 2381 
L 678 2906 
z
M 678 1631 
L 4684 1631 
L 4684 1100 
L 678 1100 
L 678 1631 
z
" transform="scale(0.015625)"/>
      <path id="DejaVuSans-2e" d="M 684 794 
L 1344 794 
L 1344 0 
L 684 0 
L 684 794 
z
" transform="scale(0.015625)"/>
      <path id="DejaVuSans-70" d="M 1159 525 
L 1159 -1331 
L 581 -1331 
L 581 3500 
L 1159 3500 
L 1159 2969 
Q 1341 3281 1617 3432 
Q 1894 3584 2278 3584 
Q 2916 3584 3314 3078 
Q 3713 2572 3713 1747 
Q 3713 922 3314 415 
Q 2916 -91 2278 -91 
Q 1894 -91 1617 61 
Q 1341 213 1159 525 
z
M 3116 1747 
Q 3116 2381 2855 2742 
Q 2594 3103 2138 3103 
Q 1681 3103 1420 2742 
Q 1159 2381 1159 1747 
Q 1159 1113 1420 752 
Q 1681 391 2138 391 
Q 2594 391 2855 752 
Q 3116 1113 3116 1747 
z
" transform="scale(0.015625)"/>
      <path id="DejaVuSans-2c" d="M 750 794 
L 1409 794 
L 1409 256 
L 897 -744 
L 494 -744 
L 750 256 
L 750 794 
z
" transform="scale(0.015625)"/>
      <path id="DejaVuSans-37" d="M 525 4666 
L 3525 4666 
L 3525 4397 
L 1831 0 
L 1172 0 
L 2766 4134 
L 525 4134 
L 525 4666 
z
" transform="scale(0.015625)"/>
      <path id="DejaVuSans-35" d="M 691 4666 
L 3169 4666 
L 3169 4134 
L 1269 4134 
L 1269 2991 
Q 1406 3038 1543 3061 
Q 1681 3084 1819 3084 
Q 2600 3084 3056 2656 
Q 3513 2228 3513 1497 
Q 3513 744 3044 326 
Q 2575 -91 1722 -91 
Q 1428 -91 1123 -41 
Q 819 9 494 109 
L 494 744 
Q 775 591 1075 516 
Q 1375 441 1709 441 
Q 2250 441 2565 725 
Q 2881 1009 2881 1497 
Q 2881 1984 2565 2268 
Q 2250 2553 1709 2553 
Q 1456 2553 1204 2497 
Q 953 2441 691 2322 
L 691 4666 
z
" transform="scale(0.015625)"/>
      <path id="DejaVuSans-66" d="M 2375 4863 
L 2375 4384 
L 1825 4384 
Q 1516 4384 1395 4259 
Q 1275 4134 1275 3809 
L 1275 3500 
L 2222 3500 
L 2222 3053 
L 1275 3053 
L 1275 0 
L 697 0 
L 697 3053 
L 147 3053 
L 147 3500 
L 697 3500 
L 697 3744 
Q 697 4328 969 4595 
Q 1241 4863 1831 4863 
L 2375 4863 
z
" transform="scale(0.015625)"/>
      <path id="DejaVuSans-44" d="M 1259 4147 
L 1259 519 
L 2022 519 
Q 2988 519 3436 956 
Q 3884 1394 3884 2338 
Q 3884 3275 3436 3711 
Q 2988 4147 2022 4147 
L 1259 4147 
z
M 628 4666 
L 1925 4666 
Q 3281 4666 3915 4102 
Q 4550 3538 4550 2338 
Q 4550 1131 3912 565 
Q 3275 0 1925 0 
L 628 0 
L 628 4666 
z
" transform="scale(0.015625)"/>
     </defs>
     <use xlink:href="#DejaVuSans-49"/>
     <use xlink:href="#DejaVuSans-48" transform="translate(29.492188 0)"/>
     <use xlink:href="#DejaVuSans-50" transform="translate(104.6875 0)"/>
     <use xlink:href="#DejaVuSans-20" transform="translate(164.990234 0)"/>
     <use xlink:href="#DejaVuSans-53" transform="translate(196.777344 0)"/>
     <use xlink:href="#DejaVuSans-47" transform="translate(260.253906 0)"/>
     <use xlink:href="#DejaVuSans-31" transform="translate(337.744141 0)"/>
     <use xlink:href="#DejaVuSans-33" transform="translate(401.367188 0)"/>
     <use xlink:href="#DejaVuSans-47" transform="translate(464.990234 0)"/>
     <use xlink:href="#DejaVuSans-32" transform="translate(542.480469 0)"/>
     <use xlink:href="#DejaVuSans-20" transform="translate(606.103516 0)"/>
     <use xlink:href="#DejaVuSans-31" transform="translate(637.890625 0)"/>
     <use xlink:href="#DejaVuSans-33" transform="translate(701.513672 0)"/>
     <use xlink:href="#DejaVuSans-30" transform="translate(765.136719 0)"/>
     <use xlink:href="#DejaVuSans-6e" transform="translate(828.759766 0)"/>
     <use xlink:href="#DejaVuSans-6d" transform="translate(892.138672 0)"/>
     <use xlink:href="#DejaVuSans-20" transform="translate(989.550781 0)"/>
     <use xlink:href="#DejaVuSans-2014" transform="translate(1021.337891 0)"/>
     <use xlink:href="#DejaVuSans-20" transform="translate(1121.337891 0)"/>
     <use xlink:href="#DejaVuSans-43" transform="translate(1153.125 0)"/>
     <use xlink:href="#DejaVuSans-5f" transform="translate(1222.949219 0)"/>
     <use xlink:href="#DejaVuSans-69" transform="translate(1272.949219 0)"/>
     <use xlink:href="#DejaVuSans-6e" transform="translate(1300.732422 0)"/>
     <use xlink:href="#DejaVuSans-74" transform="translate(1364.111328 0)"/>
     <use xlink:href="#DejaVuSans-3d" transform="translate(1403.320312 0)"/>
     <use xlink:href="#DejaVuSans-31" transform="translate(1487.109375 0)"/>
     <use xlink:href="#DejaVuSans-2e" transform="translate(1550.732422 0)"/>
     <use xlink:href="#DejaVuSans-31" transform="translate(1582.519531 0)"/>
     <use xlink:href="#DejaVuSans-70" transform="translate(1646.142578 0)"/>
     <use xlink:href="#DejaVuSans-46" transform="translate(1709.619141 0)"/>
     <use xlink:href="#DejaVuSans-2c" transform="translate(1767.138672 0)"/>
     <use xlink:href="#DejaVuSans-20" transform="translate(1798.925781 0)"/>
     <use xlink:href="#DejaVuSans-43" transform="translate(1830.712891 0)"/>
     <use xlink:href="#DejaVuSans-5f" transform="translate(1900.537109 0)"/>
     <use xlink:href="#DejaVuSans-73" transform="translate(1950.537109 0)"/>
     <use xlink:href="#DejaVuSans-77" transform="translate(2002.636719 0)"/>
     <use xlink:href="#DejaVuSans-3d" transform="translate(2084.423828 0)"/>
     <use xlink:href="#DejaVuSans-37" transform="translate(2168.212891 0)"/>
     <use xlink:href="#DejaVuSans-33" transform="translate(2231.835938 0)"/>
     <use xlink:href="#DejaVuSans-2e" transform="translate(2295.458984 0)"/>
     <use xlink:href="#DejaVuSans-35" transform="translate(2327.246094 0)"/>
     <use xlink:href="#DejaVuSans-66" transform="translate(2390.869141 0)"/>
     <use xlink:href="#DejaVuSans-46" transform="translate(2426.074219 0)"/>
     <use xlink:href="#DejaVuSans-2c" transform="translate(2483.59375 0)"/>
     <use xlink:href="#DejaVuSans-20" transform="translate(2515.380859 0)"/>
     <use xlink:href="#DejaVuSans-56" transform="translate(2547.167969 0)"/>
     <use xlink:href="#DejaVuSans-44" transform="translate(2615.576172 0)"/>
     <use xlink:href="#DejaVuSans-44" transform="translate(2692.578125 0)"/>
     <use xlink:href="#DejaVuSans-3d" transform="translate(2769.580078 0)"/>
     <use xlink:href="#DejaVuSans-31" transform="translate(2853.369141 0)"/>
     <use xlink:href="#DejaVuSans-2e" transform="translate(2916.992188 0)"/>
     <use xlink:href="#DejaVuSans-32" transform="translate(2948.779297 0)"/>
     <use xlink:href="#DejaVuSans-56" transform="translate(3012.402344 0)"/>
    </g>
   </g>
   <g id="text_3">
    <!-- C_sw -->
    <g transform="translate(222.445469 124.044063) scale(0.1 -0.1)">
     <use xlink:href="#DejaVuSans-43"/>
     <use xlink:href="#DejaVuSans-5f" transform="translate(69.824219 0)"/>
     <use xlink:href="#DejaVuSans-73" transform="translate(119.824219 0)"/>
     <use xlink:href="#DejaVuSans-77" transform="translate(171.923828 0)"/>
    </g>
    <!-- 73.5fF -->
    <g transform="translate(219.361875 134.000313) scale(0.1 -0.1)">
     <use xlink:href="#DejaVuSans-37"/>
     <use xlink:href="#DejaVuSans-33" transform="translate(63.623047 0)"/>
     <use xlink:href="#DejaVuSans-2e" transform="translate(127.246094 0)"/>
     <use xlink:href="#DejaVuSans-35" transform="translate(159.033203 0)"/>
     <use xlink:href="#DejaVuSans-66" transform="translate(222.65625 0)"/>
     <use xlink:href="#DejaVuSans-46" transform="translate(257.861328 0)"/>
    </g>
   </g>
   <g id="text_4">
    <!-- SC_R1 -->
    <g style="fill: #0000ff" transform="translate(170.216875 258.705625) scale(0.08 -0.08)">
     <defs>
      <path id="DejaVuSans-52" d="M 2841 2188 
Q 3044 2119 3236 1894 
Q 3428 1669 3622 1275 
L 4263 0 
L 3584 0 
L 2988 1197 
Q 2756 1666 2539 1819 
Q 2322 1972 1947 1972 
L 1259 1972 
L 1259 0 
L 628 0 
L 628 4666 
L 2053 4666 
Q 2853 4666 3247 4331 
Q 3641 3997 3641 3322 
Q 3641 2881 3436 2590 
Q 3231 2300 2841 2188 
z
M 1259 4147 
L 1259 2491 
L 2053 2491 
Q 2509 2491 2742 2702 
Q 2975 2913 2975 3322 
Q 2975 3731 2742 3939 
Q 2509 4147 2053 4147 
L 1259 4147 
z
" transform="scale(0.015625)"/>
     </defs>
     <use xlink:href="#DejaVuSans-53"/>
     <use xlink:href="#DejaVuSans-43" transform="translate(63.476562 0)"/>
     <use xlink:href="#DejaVuSans-5f" transform="translate(133.300781 0)"/>
     <use xlink:href="#DejaVuSans-52" transform="translate(183.300781 0)"/>
     <use xlink:href="#DejaVuSans-31" transform="translate(252.783203 0)"/>
    </g>
   </g>
   <g id="text_5">
    <!-- OTA1 -->
    <g transform="translate(332.897862 173.939375) scale(0.1 -0.1)">
     <defs>
      <path id="DejaVuSans-4f" d="M 2522 4238 
Q 1834 4238 1429 3725 
Q 1025 3213 1025 2328 
Q 1025 1447 1429 934 
Q 1834 422 2522 422 
Q 3209 422 3611 934 
Q 4013 1447 4013 2328 
Q 4013 3213 3611 3725 
Q 3209 4238 2522 4238 
z
M 2522 4750 
Q 3503 4750 4090 4092 
Q 4678 3434 4678 2328 
Q 4678 1225 4090 567 
Q 3503 -91 2522 -91 
Q 1538 -91 948 565 
Q 359 1222 359 2328 
Q 359 3434 948 4092 
Q 1538 4750 2522 4750 
z
" transform="scale(0.015625)"/>
      <path id="DejaVuSans-41" d="M 2188 4044 
L 1331 1722 
L 3047 1722 
L 2188 4044 
z
M 1831 4666 
L 2547 4666 
L 4325 0 
L 3669 0 
L 3244 1197 
L 1141 1197 
L 716 0 
L 50 0 
L 1831 4666 
z
" transform="scale(0.015625)"/>
     </defs>
     <use xlink:href="#DejaVuSans-4f"/>
     <use xlink:href="#DejaVuSans-54" transform="translate(78.710938 0)"/>
     <use xlink:href="#DejaVuSans-41" transform="translate(132.044922 0)"/>
     <use xlink:href="#DejaVuSans-31" transform="translate(200.453125 0)"/>
    </g>
   </g>
   <g id="text_6">
    <!-- C_int1 -->
    <g transform="translate(336.44 70.044063) scale(0.1 -0.1)">
     <use xlink:href="#DejaVuSans-43"/>
     <use xlink:href="#DejaVuSans-5f" transform="translate(69.824219 0)"/>
     <use xlink:href="#DejaVuSans-69" transform="translate(119.824219 0)"/>
     <use xlink:href="#DejaVuSans-6e" transform="translate(147.607422 0)"/>
     <use xlink:href="#DejaVuSans-74" transform="translate(210.986328 0)"/>
     <use xlink:href="#DejaVuSans-31" transform="translate(250.195312 0)"/>
    </g>
    <!-- 1.1pF -->
    <g transform="translate(338.129063 80.000313) scale(0.1 -0.1)">
     <use xlink:href="#DejaVuSans-31"/>
     <use xlink:href="#DejaVuSans-2e" transform="translate(63.623047 0)"/>
     <use xlink:href="#DejaVuSans-31" transform="translate(95.410156 0)"/>
     <use xlink:href="#DejaVuSans-70" transform="translate(159.033203 0)"/>
     <use xlink:href="#DejaVuSans-46" transform="translate(222.509766 0)"/>
    </g>
   </g>
   <g id="text_7">
    <!-- C_sw -->
    <g transform="translate(492.445469 124.044063) scale(0.1 -0.1)">
     <use xlink:href="#DejaVuSans-43"/>
     <use xlink:href="#DejaVuSans-5f" transform="translate(69.824219 0)"/>
     <use xlink:href="#DejaVuSans-73" transform="translate(119.824219 0)"/>
     <use xlink:href="#DejaVuSans-77" transform="translate(171.923828 0)"/>
    </g>
    <!-- 73.5fF -->
    <g transform="translate(489.361875 134.000313) scale(0.1 -0.1)">
     <use xlink:href="#DejaVuSans-37"/>
     <use xlink:href="#DejaVuSans-33" transform="translate(63.623047 0)"/>
     <use xlink:href="#DejaVuSans-2e" transform="translate(127.246094 0)"/>
     <use xlink:href="#DejaVuSans-35" transform="translate(159.033203 0)"/>
     <use xlink:href="#DejaVuSans-66" transform="translate(222.65625 0)"/>
     <use xlink:href="#DejaVuSans-46" transform="translate(257.861328 0)"/>
    </g>
   </g>
   <g id="text_8">
    <!-- SC_R2→int -->
    <g style="fill: #0000ff" transform="translate(153.084375 258.77625) scale(0.08 -0.08)">
     <defs>
      <path id="DejaVuSans-2192" d="M 5050 2147 
L 5050 1866 
L 3822 638 
L 3447 1013 
L 4175 1741 
L 366 1741 
L 366 2272 
L 4175 2272 
L 3447 3000 
L 3822 3375 
L 5050 2147 
z
" transform="scale(0.015625)"/>
     </defs>
     <use xlink:href="#DejaVuSans-53"/>
     <use xlink:href="#DejaVuSans-43" transform="translate(63.476562 0)"/>
     <use xlink:href="#DejaVuSans-5f" transform="translate(133.300781 0)"/>
     <use xlink:href="#DejaVuSans-52" transform="translate(183.300781 0)"/>
     <use xlink:href="#DejaVuSans-32" transform="translate(252.783203 0)"/>
     <use xlink:href="#DejaVuSans-2192" transform="translate(316.40625 0)"/>
     <use xlink:href="#DejaVuSans-69" transform="translate(400.195312 0)"/>
     <use xlink:href="#DejaVuSans-6e" transform="translate(427.978516 0)"/>
     <use xlink:href="#DejaVuSans-74" transform="translate(491.357422 0)"/>
    </g>
   </g>
   <g id="text_9">
    <!-- OTA2 -->
    <g transform="translate(602.897862 173.939375) scale(0.1 -0.1)">
     <use xlink:href="#DejaVuSans-4f"/>
     <use xlink:href="#DejaVuSans-54" transform="translate(78.710938 0)"/>
     <use xlink:href="#DejaVuSans-41" transform="translate(132.044922 0)"/>
     <use xlink:href="#DejaVuSans-32" transform="translate(200.453125 0)"/>
    </g>
   </g>
   <g id="text_10">
    <!-- C_int2 -->
    <g transform="translate(597.44 70.044063) scale(0.1 -0.1)">
     <use xlink:href="#DejaVuSans-43"/>
     <use xlink:href="#DejaVuSans-5f" transform="translate(69.824219 0)"/>
     <use xlink:href="#DejaVuSans-69" transform="translate(119.824219 0)"/>
     <use xlink:href="#DejaVuSans-6e" transform="translate(147.607422 0)"/>
     <use xlink:href="#DejaVuSans-74" transform="translate(210.986328 0)"/>
     <use xlink:href="#DejaVuSans-32" transform="translate(250.195312 0)"/>
    </g>
    <!-- 1.1pF -->
    <g transform="translate(599.129063 80.000313) scale(0.1 -0.1)">
     <use xlink:href="#DejaVuSans-31"/>
     <use xlink:href="#DejaVuSans-2e" transform="translate(63.623047 0)"/>
     <use xlink:href="#DejaVuSans-31" transform="translate(95.410156 0)"/>
     <use xlink:href="#DejaVuSans-70" transform="translate(159.033203 0)"/>
     <use xlink:href="#DejaVuSans-46" transform="translate(222.509766 0)"/>
    </g>
   </g>
   <g id="text_11">
    <!-- −1 -->
    <g style="fill: #0000ff" transform="translate(177.84 259.99125) scale(0.12 -0.12)">
     <defs>
      <path id="DejaVuSans-2212" d="M 678 2272 
L 4684 2272 
L 4684 1741 
L 678 1741 
L 678 2272 
z
" transform="scale(0.015625)"/>
     </defs>
     <use xlink:href="#DejaVuSans-2212"/>
     <use xlink:href="#DejaVuSans-31" transform="translate(83.789062 0)"/>
    </g>
   </g>
   <g id="text_12">
    <!-- C_sw -->
    <g transform="translate(258.445469 169.044062) scale(0.1 -0.1)">
     <use xlink:href="#DejaVuSans-43"/>
     <use xlink:href="#DejaVuSans-5f" transform="translate(69.824219 0)"/>
     <use xlink:href="#DejaVuSans-73" transform="translate(119.824219 0)"/>
     <use xlink:href="#DejaVuSans-77" transform="translate(171.923828 0)"/>
    </g>
    <!-- (feedback) -->
    <g transform="translate(244.25875 179.000312) scale(0.1 -0.1)">
     <defs>
      <path id="DejaVuSans-63" d="M 3122 3366 
L 3122 2828 
Q 2878 2963 2633 3030 
Q 2388 3097 2138 3097 
Q 1578 3097 1268 2742 
Q 959 2388 959 1747 
Q 959 1106 1268 751 
Q 1578 397 2138 397 
Q 2388 397 2633 464 
Q 2878 531 3122 666 
L 3122 134 
Q 2881 22 2623 -34 
Q 2366 -91 2075 -91 
Q 1284 -91 818 406 
Q 353 903 353 1747 
Q 353 2603 823 3093 
Q 1294 3584 2113 3584 
Q 2378 3584 2631 3529 
Q 2884 3475 3122 3366 
z
" transform="scale(0.015625)"/>
      <path id="DejaVuSans-6b" d="M 581 4863 
L 1159 4863 
L 1159 1991 
L 2875 3500 
L 3609 3500 
L 1753 1863 
L 3688 0 
L 2938 0 
L 1159 1709 
L 1159 0 
L 581 0 
L 581 4863 
z
" transform="scale(0.015625)"/>
     </defs>
     <use xlink:href="#DejaVuSans-28"/>
     <use xlink:href="#DejaVuSans-66" transform="translate(39.013672 0)"/>
     <use xlink:href="#DejaVuSans-65" transform="translate(74.21875 0)"/>
     <use xlink:href="#DejaVuSans-65" transform="translate(135.742188 0)"/>
     <use xlink:href="#DejaVuSans-64" transform="translate(197.265625 0)"/>
     <use xlink:href="#DejaVuSans-62" transform="translate(260.742188 0)"/>
     <use xlink:href="#DejaVuSans-61" transform="translate(324.21875 0)"/>
     <use xlink:href="#DejaVuSans-63" transform="translate(385.498047 0)"/>
     <use xlink:href="#DejaVuSans-6b" transform="translate(440.478516 0)"/>
     <use xlink:href="#DejaVuSans-29" transform="translate(498.388672 0)"/>
    </g>
   </g>
   <g id="text_13">
    <!-- C_Q -->
    <g transform="translate(261.203281 133.044062) scale(0.1 -0.1)">
     <defs>
      <path id="DejaVuSans-51" d="M 2522 4238 
Q 1834 4238 1429 3725 
Q 1025 3213 1025 2328 
Q 1025 1447 1429 934 
Q 1834 422 2522 422 
Q 3209 422 3611 934 
Q 4013 1447 4013 2328 
Q 4013 3213 3611 3725 
Q 3209 4238 2522 4238 
z
M 3406 84 
L 4238 -825 
L 3475 -825 
L 2784 -78 
Q 2681 -84 2626 -87 
Q 2572 -91 2522 -91 
Q 1538 -91 948 567 
Q 359 1225 359 2328 
Q 359 3434 948 4092 
Q 1538 4750 2522 4750 
Q 3503 4750 4090 4092 
Q 4678 3434 4678 2328 
Q 4678 1516 4351 937 
Q 4025 359 3406 84 
z
" transform="scale(0.015625)"/>
     </defs>
     <use xlink:href="#DejaVuSans-43"/>
     <use xlink:href="#DejaVuSans-5f" transform="translate(69.824219 0)"/>
     <use xlink:href="#DejaVuSans-51" transform="translate(119.824219 0)"/>
    </g>
    <!-- (4-bit) -->
    <g transform="translate(255.720469 143.000312) scale(0.1 -0.1)">
     <defs>
      <path id="DejaVuSans-34" d="M 2419 4116 
L 825 1625 
L 2419 1625 
L 2419 4116 
z
M 2253 4666 
L 3047 4666 
L 3047 1625 
L 3713 1625 
L 3713 1100 
L 3047 1100 
L 3047 0 
L 2419 0 
L 2419 1100 
L 313 1100 
L 313 1709 
L 2253 4666 
z
" transform="scale(0.015625)"/>
     </defs>
     <use xlink:href="#DejaVuSans-28"/>
     <use xlink:href="#DejaVuSans-34" transform="translate(39.013672 0)"/>
     <use xlink:href="#DejaVuSans-2d" transform="translate(102.636719 0)"/>
     <use xlink:href="#DejaVuSans-62" transform="translate(138.720703 0)"/>
     <use xlink:href="#DejaVuSans-69" transform="translate(202.197266 0)"/>
     <use xlink:href="#DejaVuSans-74" transform="translate(229.980469 0)"/>
     <use xlink:href="#DejaVuSans-29" transform="translate(269.189453 0)"/>
    </g>
   </g>
   <g id="text_14">
    <!-- φ1/φ2: Non-overlapping clocks from sc_clk -->
    <g style="fill: #808080" transform="translate(25.606875 258.77625) scale(0.08 -0.08)">
     <defs>
      <path id="DejaVuSans-3c6" d="M 2591 3034 
Q 2388 3034 2388 2581 
L 2388 438 
Q 2684 438 2981 763 
Q 3247 1053 3247 1750 
Q 3247 2400 2978 2750 
Q 2759 3034 2591 3034 
z
M 2591 3525 
Q 3028 3525 3425 3113 
Q 3853 2672 3853 1750 
Q 3853 903 3425 400 
Q 3022 -75 2388 -75 
L 2388 -1331 
L 1816 -1331 
L 1816 -78 
Q 1194 -78 775 400 
Q 350 888 350 1747 
Q 350 2641 775 3097 
Q 1094 3438 1613 3525 
L 1613 3016 
Q 1406 2944 1225 2700 
Q 956 2341 956 1747 
Q 956 1116 1225 756 
Q 1466 434 1816 434 
L 1816 2581 
Q 1816 3525 2591 3525 
z
" transform="scale(0.015625)"/>
      <path id="DejaVuSans-2f" d="M 1625 4666 
L 2156 4666 
L 531 -594 
L 0 -594 
L 1625 4666 
z
" transform="scale(0.015625)"/>
      <path id="DejaVuSans-3a" d="M 750 794 
L 1409 794 
L 1409 0 
L 750 0 
L 750 794 
z
M 750 3309 
L 1409 3309 
L 1409 2516 
L 750 2516 
L 750 3309 
z
" transform="scale(0.015625)"/>
      <path id="DejaVuSans-4e" d="M 628 4666 
L 1478 4666 
L 3547 763 
L 3547 4666 
L 4159 4666 
L 4159 0 
L 3309 0 
L 1241 3903 
L 1241 0 
L 628 0 
L 628 4666 
z
" transform="scale(0.015625)"/>
      <path id="DejaVuSans-76" d="M 191 3500 
L 800 3500 
L 1894 563 
L 2988 3500 
L 3597 3500 
L 2284 0 
L 1503 0 
L 191 3500 
z
" transform="scale(0.015625)"/>
      <path id="DejaVuSans-67" d="M 2906 1791 
Q 2906 2416 2648 2759 
Q 2391 3103 1925 3103 
Q 1463 3103 1205 2759 
Q 947 2416 947 1791 
Q 947 1169 1205 825 
Q 1463 481 1925 481 
Q 2391 481 2648 825 
Q 2906 1169 2906 1791 
z
M 3481 434 
Q 3481 -459 3084 -895 
Q 2688 -1331 1869 -1331 
Q 1566 -1331 1297 -1286 
Q 1028 -1241 775 -1147 
L 775 -588 
Q 1028 -725 1275 -790 
Q 1522 -856 1778 -856 
Q 2344 -856 2625 -561 
Q 2906 -266 2906 331 
L 2906 616 
Q 2728 306 2450 153 
Q 2172 0 1784 0 
Q 1141 0 747 490 
Q 353 981 353 1791 
Q 353 2603 747 3093 
Q 1141 3584 1784 3584 
Q 2172 3584 2450 3431 
Q 2728 3278 2906 2969 
L 2906 3500 
L 3481 3500 
L 3481 434 
z
" transform="scale(0.015625)"/>
     </defs>
     <use xlink:href="#DejaVuSans-3c6"/>
     <use xlink:href="#DejaVuSans-31" transform="translate(65.966797 0)"/>
     <use xlink:href="#DejaVuSans-2f" transform="translate(129.589844 0)"/>
     <use xlink:href="#DejaVuSans-3c6" transform="translate(163.28125 0)"/>
     <use xlink:href="#DejaVuSans-32" transform="translate(229.248047 0)"/>
     <use xlink:href="#DejaVuSans-3a" transform="translate(292.871094 0)"/>
     <use xlink:href="#DejaVuSans-20" transform="translate(326.5625 0)"/>
     <use xlink:href="#DejaVuSans-4e" transform="translate(358.349609 0)"/>
     <use xlink:href="#DejaVuSans-6f" transform="translate(433.154297 0)"/>
     <use xlink:href="#DejaVuSans-6e" transform="translate(494.335938 0)"/>
     <use xlink:href="#DejaVuSans-2d" transform="translate(557.714844 0)"/>
     <use xlink:href="#DejaVuSans-6f" transform="translate(595.673828 0)"/>
     <use xlink:href="#DejaVuSans-76" transform="translate(656.855469 0)"/>
     <use xlink:href="#DejaVuSans-65" transform="translate(716.035156 0)"/>
     <use xlink:href="#DejaVuSans-72" transform="translate(777.558594 0)"/>
     <use xlink:href="#DejaVuSans-6c" transform="translate(818.671875 0)"/>
     <use xlink:href="#DejaVuSans-61" transform="translate(846.455078 0)"/>
     <use xlink:href="#DejaVuSans-70" transform="translate(907.734375 0)"/>
     <use xlink:href="#DejaVuSans-70" transform="translate(971.210938 0)"/>
     <use xlink:href="#DejaVuSans-69" transform="translate(1034.6875 0)"/>
     <use xlink:href="#DejaVuSans-6e" transform="translate(1062.470703 0)"/>
     <use xlink:href="#DejaVuSans-67" transform="translate(1125.849609 0)"/>
     <use xlink:href="#DejaVuSans-20" transform="translate(1189.326172 0)"/>
     <use xlink:href="#DejaVuSans-63" transform="translate(1221.113281 0)"/>
     <use xlink:href="#DejaVuSans-6c" transform="translate(1276.09375 0)"/>
     <use xlink:href="#DejaVuSans-6f" transform="translate(1303.876953 0)"/>
     <use xlink:href="#DejaVuSans-63" transform="translate(1365.058594 0)"/>
     <use xlink:href="#DejaVuSans-6b" transform="translate(1420.039062 0)"/>
     <use xlink:href="#DejaVuSans-73" transform="translate(1477.949219 0)"/>
     <use xlink:href="#DejaVuSans-20" transform="translate(1530.048828 0)"/>
     <use xlink:href="#DejaVuSans-66" transform="translate(1561.835938 0)"/>
     <use xlink:href="#DejaVuSans-72" transform="translate(1597.041016 0)"/>
     <use xlink:href="#DejaVuSans-6f" transform="translate(1635.904297 0)"/>
     <use xlink:href="#DejaVuSans-6d" transform="translate(1697.085938 0)"/>
     <use xlink:href="#DejaVuSans-20" transform="translate(1794.498047 0)"/>
     <use xlink:href="#DejaVuSans-73" transform="translate(1826.285156 0)"/>
     <use xlink:href="#DejaVuSans-63" transform="translate(1878.384766 0)"/>
     <use xlink:href="#DejaVuSans-5f" transform="translate(1933.365234 0)"/>
     <use xlink:href="#DejaVuSans-63" transform="translate(1983.365234 0)"/>
     <use xlink:href="#DejaVuSans-6c" transform="translate(2038.345703 0)"/>
     <use xlink:href="#DejaVuSans-6b" transform="translate(2066.128906 0)"/>
    </g>
   </g>
   <g id="text_15">
    <!-- Output Mux (sel[1:0]): HP | BP | LP | Bypass -->
    <g style="fill: #0000ff" transform="translate(0 259.057969) scale(0.09 -0.09)">
     <defs>
      <path id="DejaVuSans-4d" d="M 628 4666 
L 1569 4666 
L 2759 1491 
L 3956 4666 
L 4897 4666 
L 4897 0 
L 4281 0 
L 4281 4097 
L 3078 897 
L 2444 897 
L 1241 4097 
L 1241 0 
L 628 0 
L 628 4666 
z
" transform="scale(0.015625)"/>
      <path id="DejaVuSans-78" d="M 3513 3500 
L 2247 1797 
L 3578 0 
L 2900 0 
L 1881 1375 
L 863 0 
L 184 0 
L 1544 1831 
L 300 3500 
L 978 3500 
L 1906 2253 
L 2834 3500 
L 3513 3500 
z
" transform="scale(0.015625)"/>
      <path id="DejaVuSans-5b" d="M 550 4863 
L 1875 4863 
L 1875 4416 
L 1125 4416 
L 1125 -397 
L 1875 -397 
L 1875 -844 
L 550 -844 
L 550 4863 
z
" transform="scale(0.015625)"/>
      <path id="DejaVuSans-5d" d="M 1947 4863 
L 1947 -844 
L 622 -844 
L 622 -397 
L 1369 -397 
L 1369 4416 
L 622 4416 
L 622 4863 
L 1947 4863 
z
" transform="scale(0.015625)"/>
      <path id="DejaVuSans-7c" d="M 1344 4891 
L 1344 -1509 
L 813 -1509 
L 813 4891 
L 1344 4891 
z
" transform="scale(0.015625)"/>
      <path id="DejaVuSans-4c" d="M 628 4666 
L 1259 4666 
L 1259 531 
L 3531 531 
L 3531 0 
L 628 0 
L 628 4666 
z
" transform="scale(0.015625)"/>
      <path id="DejaVuSans-79" d="M 2059 -325 
Q 1816 -950 1584 -1140 
Q 1353 -1331 966 -1331 
L 506 -1331 
L 506 -850 
L 844 -850 
Q 1081 -850 1212 -737 
Q 1344 -625 1503 -206 
L 1606 56 
L 191 3500 
L 800 3500 
L 1894 763 
L 2988 3500 
L 3597 3500 
L 2059 -325 
z
" transform="scale(0.015625)"/>
     </defs>
     <use xlink:href="#DejaVuSans-4f"/>
     <use xlink:href="#DejaVuSans-75" transform="translate(78.710938 0)"/>
     <use xlink:href="#DejaVuSans-74" transform="translate(142.089844 0)"/>
     <use xlink:href="#DejaVuSans-70" transform="translate(181.298828 0)"/>
     <use xlink:href="#DejaVuSans-75" transform="translate(244.775391 0)"/>
     <use xlink:href="#DejaVuSans-74" transform="translate(308.154297 0)"/>
     <use xlink:href="#DejaVuSans-20" transform="translate(347.363281 0)"/>
     <use xlink:href="#DejaVuSans-4d" transform="translate(379.150391 0)"/>
     <use xlink:href="#DejaVuSans-75" transform="translate(465.429688 0)"/>
     <use xlink:href="#DejaVuSans-78" transform="translate(528.808594 0)"/>
     <use xlink:href="#DejaVuSans-20" transform="translate(587.988281 0)"/>
     <use xlink:href="#DejaVuSans-28" transform="translate(619.775391 0)"/>
     <use xlink:href="#DejaVuSans-73" transform="translate(658.789062 0)"/>
     <use xlink:href="#DejaVuSans-65" transform="translate(710.888672 0)"/>
     <use xlink:href="#DejaVuSans-6c" transform="translate(772.412109 0)"/>
     <use xlink:href="#DejaVuSans-5b" transform="translate(800.195312 0)"/>
     <use xlink:href="#DejaVuSans-31" transform="translate(839.208984 0)"/>
     <use xlink:href="#DejaVuSans-3a" transform="translate(902.832031 0)"/>
     <use xlink:href="#DejaVuSans-30" transform="translate(936.523438 0)"/>
     <use xlink:href="#DejaVuSans-5d" transform="translate(1000.146484 0)"/>
     <use xlink:href="#DejaVuSans-29" transform="translate(1039.160156 0)"/>
     <use xlink:href="#DejaVuSans-3a" transform="translate(1078.173828 0)"/>
     <use xlink:href="#DejaVuSans-20" transform="translate(1111.865234 0)"/>
     <use xlink:href="#DejaVuSans-48" transform="translate(1143.652344 0)"/>
     <use xlink:href="#DejaVuSans-50" transform="translate(1218.847656 0)"/>
     <use xlink:href="#DejaVuSans-20" transform="translate(1279.150391 0)"/>
     <use xlink:href="#DejaVuSans-7c" transform="translate(1310.9375 0)"/>
     <use xlink:href="#DejaVuSans-20" transform="translate(1344.628906 0)"/>
     <use xlink:href="#DejaVuSans-42" transform="translate(1376.416016 0)"/>
     <use xlink:href="#DejaVuSans-50" transform="translate(1445.019531 0)"/>
     <use xlink:href="#DejaVuSans-20" transform="translate(1505.322266 0)"/>
     <use xlink:href="#DejaVuSans-7c" transform="translate(1537.109375 0)"/>
     <use xlink:href="#DejaVuSans-20" transform="translate(1570.800781 0)"/>
     <use xlink:href="#DejaVuSans-4c" transform="translate(1602.587891 0)"/>
     <use xlink:href="#DejaVuSans-50" transform="translate(1658.300781 0)"/>
     <use xlink:href="#DejaVuSans-20" transform="translate(1718.603516 0)"/>
     <use xlink:href="#DejaVuSans-7c" transform="translate(1750.390625 0)"/>
     <use xlink:href="#DejaVuSans-20" transform="translate(1784.082031 0)"/>
     <use xlink:href="#DejaVuSans-42" transform="translate(1815.869141 0)"/>
     <use xlink:href="#DejaVuSans-79" transform="translate(1884.472656 0)"/>
     <use xlink:href="#DejaVuSans-70" transform="translate(1943.652344 0)"/>
     <use xlink:href="#DejaVuSans-61" transform="translate(2007.128906 0)"/>
     <use xlink:href="#DejaVuSans-73" transform="translate(2068.408203 0)"/>
     <use xlink:href="#DejaVuSans-73" transform="translate(2120.507812 0)"/>
    </g>
   </g>
   <g id="patch_16">
    <path d="M 163.130625 151.38 
C 163.846673 151.38 164.533491 151.095511 165.039813 150.589188 
C 165.546136 150.082866 165.830625 149.396048 165.830625 148.68 
C 165.830625 147.963952 165.546136 147.277134 165.039813 146.770812 
C 164.533491 146.264489 163.846673 145.98 163.130625 145.98 
C 162.414577 145.98 161.727759 146.264489 161.221437 146.770812 
C 160.715114 147.277134 160.430625 147.963952 160.430625 148.68 
C 160.430625 149.396048 160.715114 150.082866 161.221437 150.589188 
C 161.727759 151.095511 162.414577 151.38 163.130625 151.38 
z
" clip-path="url(#pd6a06f7c10)" style="stroke: #000000; stroke-width: 2; stroke-linejoin: miter"/>
   </g>
   <g id="text_16">
    <!-- Vin -->
    <g transform="translate(141.099375 151.439375) scale(0.1 -0.1)">
     <use xlink:href="#DejaVuSans-56"/>
     <use xlink:href="#DejaVuSans-69" transform="translate(66.158203 0)"/>
     <use xlink:href="#DejaVuSans-6e" transform="translate(93.941406 0)"/>
    </g>
   </g>
   <g id="patch_17">
    <path d="M 271.130625 151.38 
C 271.846673 151.38 272.533491 151.095511 273.039813 150.589188 
C 273.546136 150.082866 273.830625 149.396048 273.830625 148.68 
C 273.830625 147.963952 273.546136 147.277134 273.039813 146.770812 
C 272.533491 146.264489 271.846673 145.98 271.130625 145.98 
C 270.414577 145.98 269.727759 146.264489 269.221437 146.770812 
C 268.715114 147.277134 268.430625 147.963952 268.430625 148.68 
C 268.430625 149.396048 268.715114 150.082866 269.221437 150.589188 
C 269.727759 151.095511 270.414577 151.38 271.130625 151.38 
z
" clip-path="url(#pd6a06f7c10)" style="stroke: #000000; stroke-width: 2; stroke-linejoin: miter"/>
   </g>
   <g id="text_17">
    <!-- Σ -->
    <g transform="translate(267.97125 140.300313) scale(0.1 -0.1)">
     <defs>
      <path id="DejaVuSans-3a3" d="M 1353 531 
L 3634 531 
L 3634 0 
L 628 0 
L 628 531 
L 2125 2481 
L 628 4134 
L 628 4666 
L 3578 4666 
L 3578 4134 
L 1353 4134 
L 2850 2494 
L 1353 531 
z
" transform="scale(0.015625)"/>
     </defs>
     <use xlink:href="#DejaVuSans-3a3"/>
    </g>
   </g>
   <g id="patch_18">
    <path d="M 433.130625 151.38 
C 433.846673 151.38 434.533491 151.095511 435.039813 150.589188 
C 435.546136 150.082866 435.830625 149.396048 435.830625 148.68 
C 435.830625 147.963952 435.546136 147.277134 435.039813 146.770812 
C 434.533491 146.264489 433.846673 145.98 433.130625 145.98 
C 432.414577 145.98 431.727759 146.264489 431.221437 146.770812 
C 430.715114 147.277134 430.430625 147.963952 430.430625 148.68 
C 430.430625 149.396048 430.715114 150.082866 431.221437 150.589188 
C 431.727759 151.095511 432.414577 151.38 433.130625 151.38 
z
" clip-path="url(#pd6a06f7c10)" style="stroke: #000000; stroke-width: 2; stroke-linejoin: miter"/>
   </g>
   <g id="text_18">
    <!-- BP -->
    <g transform="translate(426.685313 140.300313) scale(0.1 -0.1)">
     <use xlink:href="#DejaVuSans-42"/>
     <use xlink:href="#DejaVuSans-50" transform="translate(68.603516 0)"/>
    </g>
   </g>
   <g id="patch_19">
    <path d="M 541.130625 151.38 
C 541.846673 151.38 542.533491 151.095511 543.039813 150.589188 
C 543.546136 150.082866 543.830625 149.396048 543.830625 148.68 
C 543.830625 147.963952 543.546136 147.277134 543.039813 146.770812 
C 542.533491 146.264489 541.846673 145.98 541.130625 145.98 
C 540.414577 145.98 539.727759 146.264489 539.221437 146.770812 
C 538.715114 147.277134 538.430625 147.963952 538.430625 148.68 
C 538.430625 149.396048 538.715114 150.082866 539.221437 150.589188 
C 539.727759 151.095511 540.414577 151.38 541.130625 151.38 
z
" clip-path="url(#pd6a06f7c10)" style="stroke: #000000; stroke-width: 2; stroke-linejoin: miter"/>
   </g>
   <g id="patch_20">
    <path d="M 703.130625 151.38 
C 703.846673 151.38 704.533491 151.095511 705.039813 150.589188 
C 705.546136 150.082866 705.830625 149.396048 705.830625 148.68 
C 705.830625 147.963952 705.546136 147.277134 705.039813 146.770812 
C 704.533491 146.264489 703.846673 145.98 703.130625 145.98 
C 702.414577 145.98 701.727759 146.264489 701.221437 146.770812 
C 700.715114 147.277134 700.430625 147.963952 700.430625 148.68 
C 700.430625 149.396048 700.715114 150.082866 701.221437 150.589188 
C 701.727759 151.095511 702.414577 151.38 703.130625 151.38 
z
" clip-path="url(#pd6a06f7c10)" style="stroke: #000000; stroke-width: 2; stroke-linejoin: miter"/>
   </g>
   <g id="text_19">
    <!-- LP_bar -->
    <g transform="translate(709.430625 151.300313) scale(0.1 -0.1)">
     <use xlink:href="#DejaVuSans-4c"/>
     <use xlink:href="#DejaVuSans-50" transform="translate(55.712891 0)"/>
     <use xlink:href="#DejaVuSans-5f" transform="translate(116.015625 0)"/>
     <use xlink:href="#DejaVuSans-62" transform="translate(166.015625 0)"/>
     <use xlink:href="#DejaVuSans-61" transform="translate(229.492188 0)"/>
     <use xlink:href="#DejaVuSans-72" transform="translate(290.771484 0)"/>
    </g>
   </g>
   <g id="patch_21">
    <path d="M 793.130625 151.38 
C 793.846673 151.38 794.533491 151.095511 795.039813 150.589188 
C 795.546136 150.082866 795.830625 149.396048 795.830625 148.68 
C 795.830625 147.963952 795.546136 147.277134 795.039813 146.770812 
C 794.533491 146.264489 793.846673 145.98 793.130625 145.98 
C 792.414577 145.98 791.727759 146.264489 791.221437 146.770812 
C 790.715114 147.277134 790.430625 147.963952 790.430625 148.68 
C 790.430625 149.396048 790.715114 150.082866 791.221437 150.589188 
C 791.727759 151.095511 792.414577 151.38 793.130625 151.38 
z
" clip-path="url(#pd6a06f7c10)" style="stroke: #000000; stroke-width: 2; stroke-linejoin: miter"/>
   </g>
   <g id="text_20">
    <!-- LP -->
    <g transform="translate(799.430625 151.439375) scale(0.1 -0.1)">
     <use xlink:href="#DejaVuSans-4c"/>
     <use xlink:href="#DejaVuSans-50" transform="translate(55.712891 0)"/>
    </g>
   </g>
  </g>
 </g>
 <defs>
  <clipPath id="pd6a06f7c10">
   <rect x="16.538625" y="0" width="799.992" height="279.36"/>
  </clipPath>
 </defs>
</svg>
