<?xml version="1.0" encoding="utf-8" standalone="no"?>
<!DOCTYPE svg PUBLIC "-//W3C//DTD SVG 1.1//EN"
  "http://www.w3.org/Graphics/SVG/1.1/DTD/svg11.dtd">
<svg xmlns:xlink="http://www.w3.org/1999/xlink" width="984.792pt" height="372.66pt" viewBox="0 0 984.792 372.66" xmlns="http://www.w3.org/2000/svg" version="1.1">
 <metadata>
  <rdf:RDF xmlns:dc="http://purl.org/dc/elements/1.1/" xmlns:cc="http://creativecommons.org/ns#" xmlns:rdf="http://www.w3.org/1999/02/22-rdf-syntax-ns#">
   <cc:Work>
    <dc:type rdf:resource="http://purl.org/dc/dcmitype/StillImage"/>
    <dc:date>2026-03-02T23:18:11.743717</dc:date>
    <dc:format>image/svg+xml</dc:format>
    <dc:creator>
     <cc:Agent>
      <dc:title>Matplotlib v3.10.0, https://matplotlib.org/</dc:title>
     </cc:Agent>
    </dc:creator>
   </cc:Work>
  </rdf:RDF>
 </metadata>
 <defs>
  <style type="text/css">*{stroke-linejoin: round; stroke-linecap: butt}</style>
 </defs>
 <g id="figure_1">
  <g id="patch_1">
   <path d="M 0 372.66 
L 984.792 372.66 
L 984.792 0 
L 0 0 
L 0 372.66 
z
" style="fill: none"/>
  </g>
  <g id="axes_1">
   <g id="line2d_1">
    <path d="M 32.58 105.28 
L 68.58 105.28 
L 71.58 96.28 
L 77.58 114.28 
L 83.58 96.28 
L 89.58 114.28 
L 95.58 96.28 
L 101.58 114.28 
L 104.58 105.28 
L 140.58 105.28 
" clip-path="url(#p8b75bc4f35)" style="fill: none; stroke: #000000; stroke-width: 2; stroke-linecap: round"/>
   </g>
   <g id="line2d_2">
    <path d="M 140.58 105.28 
L 140.58 150.28 
L 149.58 153.28 
L 131.58 159.28 
L 149.58 165.28 
L 131.58 171.28 
L 149.58 177.28 
L 131.58 183.28 
L 140.58 186.28 
L 140.58 231.28 
" clip-path="url(#p8b75bc4f35)" style="fill: none; stroke: #000000; stroke-width: 2; stroke-linecap: round"/>
   </g>
   <g id="line2d_3">
    <path d="M 140.58 231.28 
L 140.58 249.28 
M 144.18 257.92 
L 156.78 278.08 
M 140.58 285.28 
L 140.58 303.28 
" clip-path="url(#p8b75bc4f35)" style="fill: none; stroke: #000000; stroke-width: 2; stroke-linecap: round"/>
   </g>
   <g id="line2d_4">
    <path d="M 140.58 303.28 
L 140.58 317.68 
L 131.58 317.68 
L 149.58 317.68 
M 134.28 322 
L 146.88 322 
M 138.78 326.32 
L 142.38 326.32 
" clip-path="url(#p8b75bc4f35)" style="fill: none; stroke: #000000; stroke-width: 2; stroke-linecap: round"/>
   </g>
   <g id="line2d_5">
    <path d="M 140.58 105.28 
L 176.58 105.28 
L 179.58 96.28 
L 185.58 114.28 
L 191.58 96.28 
L 197.58 114.28 
L 203.58 96.28 
L 209.58 114.28 
L 212.58 105.28 
L 248.58 105.28 
" clip-path="url(#p8b75bc4f35)" style="fill: none; stroke: #000000; stroke-width: 2; stroke-linecap: round"/>
   </g>
   <g id="line2d_6">
    <path d="M 248.58 105.28 
L 248.58 150.28 
L 257.58 153.28 
L 239.58 159.28 
L 257.58 165.28 
L 239.58 171.28 
L 257.58 177.28 
L 239.58 183.28 
L 248.58 186.28 
L 248.58 231.28 
" clip-path="url(#p8b75bc4f35)" style="fill: none; stroke: #000000; stroke-width: 2; stroke-linecap: round"/>
   </g>
   <g id="line2d_7">
    <path d="M 248.58 231.28 
L 248.58 249.28 
M 252.18 257.92 
L 264.78 278.08 
M 248.58 285.28 
L 248.58 303.28 
" clip-path="url(#p8b75bc4f35)" style="fill: none; stroke: #000000; stroke-width: 2; stroke-linecap: round"/>
   </g>
   <g id="line2d_8">
    <path d="M 248.58 303.28 
L 248.58 317.68 
L 239.58 317.68 
L 257.58 317.68 
M 242.28 322 
L 254.88 322 
M 246.78 326.32 
L 250.38 326.32 
" clip-path="url(#p8b75bc4f35)" style="fill: none; stroke: #000000; stroke-width: 2; stroke-linecap: round"/>
   </g>
   <g id="line2d_9">
    <path d="M 248.58 105.28 
L 284.58 105.28 
L 287.58 96.28 
L 293.58 114.28 
L 299.58 96.28 
L 305.58 114.28 
L 311.58 96.28 
L 317.58 114.28 
L 320.58 105.28 
L 356.58 105.28 
" clip-path="url(#p8b75bc4f35)" style="fill: none; stroke: #000000; stroke-width: 2; stroke-linecap: round"/>
   </g>
   <g id="line2d_10">
    <path d="M 356.58 105.28 
L 356.58 150.28 
L 365.58 153.28 
L 347.58 159.28 
L 365.58 165.28 
L 347.58 171.28 
L 365.58 177.28 
L 347.58 183.28 
L 356.58 186.28 
L 356.58 231.28 
" clip-path="url(#p8b75bc4f35)" style="fill: none; stroke: #000000; stroke-width: 2; stroke-linecap: round"/>
   </g>
   <g id="line2d_11">
    <path d="M 356.58 231.28 
L 356.58 249.28 
M 360.18 257.92 
L 372.78 278.08 
M 356.58 285.28 
L 356.58 303.28 
" clip-path="url(#p8b75bc4f35)" style="fill: none; stroke: #000000; stroke-width: 2; stroke-linecap: round"/>
   </g>
   <g id="line2d_12">
    <path d="M 356.58 303.28 
L 356.58 317.68 
L 347.58 317.68 
L 365.58 317.68 
M 350.28 322 
L 362.88 322 
M 354.78 326.32 
L 358.38 326.32 
" clip-path="url(#p8b75bc4f35)" style="fill: none; stroke: #000000; stroke-width: 2; stroke-linecap: round"/>
   </g>
   <g id="line2d_13">
    <path d="M 356.58 105.28 
L 392.58 105.28 
L 395.58 96.28 
L 401.58 114.28 
L 407.58 96.28 
L 413.58 114.28 
L 419.58 96.28 
L 425.58 114.28 
L 428.58 105.28 
L 464.58 105.28 
" clip-path="url(#p8b75bc4f35)" style="fill: none; stroke: #000000; stroke-width: 2; stroke-linecap: round"/>
   </g>
   <g id="line2d_14">
    <path d="M 464.58 105.28 
L 464.58 150.28 
L 473.58 153.28 
L 455.58 159.28 
L 473.58 165.28 
L 455.58 171.28 
L 473.58 177.28 
L 455.58 183.28 
L 464.58 186.28 
L 464.58 231.28 
" clip-path="url(#p8b75bc4f35)" style="fill: none; stroke: #000000; stroke-width: 2; stroke-linecap: round"/>
   </g>
   <g id="line2d_15">
    <path d="M 464.58 231.28 
L 464.58 249.28 
M 468.18 257.92 
L 480.78 278.08 
M 464.58 285.28 
L 464.58 303.28 
" clip-path="url(#p8b75bc4f35)" style="fill: none; stroke: #000000; stroke-width: 2; stroke-linecap: round"/>
   </g>
   <g id="line2d_16">
    <path d="M 464.58 303.28 
L 464.58 317.68 
L 455.58 317.68 
L 473.58 317.68 
M 458.28 322 
L 470.88 322 
M 462.78 326.32 
L 466.38 326.32 
" clip-path="url(#p8b75bc4f35)" style="fill: none; stroke: #000000; stroke-width: 2; stroke-linecap: round"/>
   </g>
   <g id="line2d_17">
    <path d="M 464.58 105.28 
L 500.58 105.28 
L 503.58 96.28 
L 509.58 114.28 
L 515.58 96.28 
L 521.58 114.28 
L 527.58 96.28 
L 533.58 114.28 
L 536.58 105.28 
L 572.58 105.28 
" clip-path="url(#p8b75bc4f35)" style="fill: none; stroke: #000000; stroke-width: 2; stroke-linecap: round"/>
   </g>
   <g id="line2d_18">
    <path d="M 572.58 105.28 
L 572.58 150.28 
L 581.58 153.28 
L 563.58 159.28 
L 581.58 165.28 
L 563.58 171.28 
L 581.58 177.28 
L 563.58 183.28 
L 572.58 186.28 
L 572.58 231.28 
" clip-path="url(#p8b75bc4f35)" style="fill: none; stroke: #000000; stroke-width: 2; stroke-linecap: round"/>
   </g>
   <g id="line2d_19">
    <path d="M 572.58 231.28 
L 572.58 249.28 
M 576.18 257.92 
L 588.78 278.08 
M 572.58 285.28 
L 572.58 303.28 
" clip-path="url(#p8b75bc4f35)" style="fill: none; stroke: #000000; stroke-width: 2; stroke-linecap: round"/>
   </g>
   <g id="line2d_20">
    <path d="M 572.58 303.28 
L 572.58 317.68 
L 563.58 317.68 
L 581.58 317.68 
M 566.28 322 
L 578.88 322 
M 570.78 326.32 
L 574.38 326.32 
" clip-path="url(#p8b75bc4f35)" style="fill: none; stroke: #000000; stroke-width: 2; stroke-linecap: round"/>
   </g>
   <g id="line2d_21">
    <path d="M 572.58 105.28 
L 608.58 105.28 
L 611.58 96.28 
L 617.58 114.28 
L 623.58 96.28 
L 629.58 114.28 
L 635.58 96.28 
L 641.58 114.28 
L 644.58 105.28 
L 680.58 105.28 
" clip-path="url(#p8b75bc4f35)" style="fill: none; stroke: #000000; stroke-width: 2; stroke-linecap: round"/>
   </g>
   <g id="line2d_22">
    <path d="M 680.58 105.28 
L 680.58 150.28 
L 689.58 153.28 
L 671.58 159.28 
L 689.58 165.28 
L 671.58 171.28 
L 689.58 177.28 
L 671.58 183.28 
L 680.58 186.28 
L 680.58 231.28 
" clip-path="url(#p8b75bc4f35)" style="fill: none; stroke: #000000; stroke-width: 2; stroke-linecap: round"/>
   </g>
   <g id="line2d_23">
    <path d="M 680.58 231.28 
L 680.58 249.28 
M 684.18 257.92 
L 696.78 278.08 
M 680.58 285.28 
L 680.58 303.28 
" clip-path="url(#p8b75bc4f35)" style="fill: none; stroke: #000000; stroke-width: 2; stroke-linecap: round"/>
   </g>
   <g id="line2d_24">
    <path d="M 680.58 303.28 
L 680.58 317.68 
L 671.58 317.68 
L 689.58 317.68 
M 674.28 322 
L 686.88 322 
M 678.78 326.32 
L 682.38 326.32 
" clip-path="url(#p8b75bc4f35)" style="fill: none; stroke: #000000; stroke-width: 2; stroke-linecap: round"/>
   </g>
   <g id="line2d_25">
    <path d="M 680.58 105.28 
L 716.58 105.28 
L 719.58 96.28 
L 725.58 114.28 
L 731.58 96.28 
L 737.58 114.28 
L 743.58 96.28 
L 749.58 114.28 
L 752.58 105.28 
L 788.58 105.28 
" clip-path="url(#p8b75bc4f35)" style="fill: none; stroke: #000000; stroke-width: 2; stroke-linecap: round"/>
   </g>
   <g id="line2d_26">
    <path d="M 788.58 105.28 
L 788.58 150.28 
L 797.58 153.28 
L 779.58 159.28 
L 797.58 165.28 
L 779.58 171.28 
L 797.58 177.28 
L 779.58 183.28 
L 788.58 186.28 
L 788.58 231.28 
" clip-path="url(#p8b75bc4f35)" style="fill: none; stroke: #000000; stroke-width: 2; stroke-linecap: round"/>
   </g>
   <g id="line2d_27">
    <path d="M 788.58 231.28 
L 788.58 249.28 
M 792.18 257.92 
L 804.78 278.08 
M 788.58 285.28 
L 788.58 303.28 
" clip-path="url(#p8b75bc4f35)" style="fill: none; stroke: #000000; stroke-width: 2; stroke-linecap: round"/>
   </g>
   <g id="line2d_28">
    <path d="M 788.58 303.28 
L 788.58 317.68 
L 779.58 317.68 
L 797.58 317.68 
M 782.28 322 
L 794.88 322 
M 786.78 326.32 
L 790.38 326.32 
" clip-path="url(#p8b75bc4f35)" style="fill: none; stroke: #000000; stroke-width: 2; stroke-linecap: round"/>
   </g>
   <g id="line2d_29">
    <path d="M 788.58 105.28 
L 824.58 105.28 
L 827.58 96.28 
L 833.58 114.28 
L 839.58 96.28 
L 845.58 114.28 
L 851.58 96.28 
L 857.58 114.28 
L 860.58 105.28 
L 896.58 105.28 
" clip-path="url(#p8b75bc4f35)" style="fill: none; stroke: #000000; stroke-width: 2; stroke-linecap: round"/>
   </g>
   <g id="line2d_30">
    <path d="M 896.58 105.28 
L 896.58 150.28 
L 905.58 153.28 
L 887.58 159.28 
L 905.58 165.28 
L 887.58 171.28 
L 905.58 177.28 
L 887.58 183.28 
L 896.58 186.28 
L 896.58 231.28 
" clip-path="url(#p8b75bc4f35)" style="fill: none; stroke: #000000; stroke-width: 2; stroke-linecap: round"/>
   </g>
   <g id="line2d_31">
    <path d="M 896.58 231.28 
L 896.58 249.28 
M 900.18 257.92 
L 912.78 278.08 
M 896.58 285.28 
L 896.58 303.28 
" clip-path="url(#p8b75bc4f35)" style="fill: none; stroke: #000000; stroke-width: 2; stroke-linecap: round"/>
   </g>
   <g id="line2d_32">
    <path d="M 896.58 303.28 
L 896.58 317.68 
L 887.58 317.68 
L 905.58 317.68 
M 890.28 322 
L 902.88 322 
M 894.78 326.32 
L 898.38 326.32 
" clip-path="url(#p8b75bc4f35)" style="fill: none; stroke: #000000; stroke-width: 2; stroke-linecap: round"/>
   </g>
   <g id="line2d_33">
    <path d="M 896.58 105.28 
L 923.58 105.28 
L 950.58 105.28 
" clip-path="url(#p8b75bc4f35)" style="fill: none; stroke: #000000; stroke-width: 2; stroke-linecap: round"/>
   </g>
   <g id="text_1">
    <!-- 8-bit R-2R DAC -->
    <g transform="translate(416.370156 15.543125) scale(0.14 -0.14)">
     <defs>
      <path id="DejaVuSans-38" d="M 2034 2216 
Q 1584 2216 1326 1975 
Q 1069 1734 1069 1313 
Q 1069 891 1326 650 
Q 1584 409 2034 409 
Q 2484 409 2743 651 
Q 3003 894 3003 1313 
Q 3003 1734 2745 1975 
Q 2488 2216 2034 2216 
z
M 1403 2484 
Q 997 2584 770 2862 
Q 544 3141 544 3541 
Q 544 4100 942 4425 
Q 1341 4750 2034 4750 
Q 2731 4750 3128 4425 
Q 3525 4100 3525 3541 
Q 3525 3141 3298 2862 
Q 3072 2584 2669 2484 
Q 3125 2378 3379 2068 
Q 3634 1759 3634 1313 
Q 3634 634 3220 271 
Q 2806 -91 2034 -91 
Q 1263 -91 848 271 
Q 434 634 434 1313 
Q 434 1759 690 2068 
Q 947 2378 1403 2484 
z
M 1172 3481 
Q 1172 3119 1398 2916 
Q 1625 2713 2034 2713 
Q 2441 2713 2670 2916 
Q 2900 3119 2900 3481 
Q 2900 3844 2670 4047 
Q 2441 4250 2034 4250 
Q 1625 4250 1398 4047 
Q 1172 3844 1172 3481 
z
" transform="scale(0.015625)"/>
      <path id="DejaVuSans-2d" d="M 313 2009 
L 1997 2009 
L 1997 1497 
L 313 1497 
L 313 2009 
z
" transform="scale(0.015625)"/>
      <path id="DejaVuSans-62" d="M 3116 1747 
Q 3116 2381 2855 2742 
Q 2594 3103 2138 3103 
Q 1681 3103 1420 2742 
Q 1159 2381 1159 1747 
Q 1159 1113 1420 752 
Q 1681 391 2138 391 
Q 2594 391 2855 752 
Q 3116 1113 3116 1747 
z
M 1159 2969 
Q 1341 3281 1617 3432 
Q 1894 3584 2278 3584 
Q 2916 3584 3314 3078 
Q 3713 2572 3713 1747 
Q 3713 922 3314 415 
Q 2916 -91 2278 -91 
Q 1894 -91 1617 61 
Q 1341 213 1159 525 
L 1159 0 
L 581 0 
L 581 4863 
L 1159 4863 
L 1159 2969 
z
" transform="scale(0.015625)"/>
      <path id="DejaVuSans-69" d="M 603 3500 
L 1178 3500 
L 1178 0 
L 603 0 
L 603 3500 
z
M 603 4863 
L 1178 4863 
L 1178 4134 
L 603 4134 
L 603 4863 
z
" transform="scale(0.015625)"/>
      <path id="DejaVuSans-74" d="M 1172 4494 
L 1172 3500 
L 2356 3500 
L 2356 3053 
L 1172 3053 
L 1172 1153 
Q 1172 725 1289 603 
Q 1406 481 1766 481 
L 2356 481 
L 2356 0 
L 1766 0 
Q 1100 0 847 248 
Q 594 497 594 1153 
L 594 3053 
L 172 3053 
L 172 3500 
L 594 3500 
L 594 4494 
L 1172 4494 
z
" transform="scale(0.015625)"/>
      <path id="DejaVuSans-20" transform="scale(0.015625)"/>
      <path id="DejaVuSans-52" d="M 2841 2188 
Q 3044 2119 3236 1894 
Q 3428 1669 3622 1275 
L 4263 0 
L 3584 0 
L 2988 1197 
Q 2756 1666 2539 1819 
Q 2322 1972 1947 1972 
L 1259 1972 
L 1259 0 
L 628 0 
L 628 4666 
L 2053 4666 
Q 2853 4666 3247 4331 
Q 3641 3997 3641 3322 
Q 3641 2881 3436 2590 
Q 3231 2300 2841 2188 
z
M 1259 4147 
L 1259 2491 
L 2053 2491 
Q 2509 2491 2742 2702 
Q 2975 2913 2975 3322 
Q 2975 3731 2742 3939 
Q 2509 4147 2053 4147 
L 1259 4147 
z
" transform="scale(0.015625)"/>
      <path id="DejaVuSans-32" d="M 1228 531 
L 3431 531 
L 3431 0 
L 469 0 
L 469 531 
Q 828 903 1448 1529 
Q 2069 2156 2228 2338 
Q 2531 2678 2651 2914 
Q 2772 3150 2772 3378 
Q 2772 3750 2511 3984 
Q 2250 4219 1831 4219 
Q 1534 4219 1204 4116 
Q 875 4013 500 3803 
L 500 4441 
Q 881 4594 1212 4672 
Q 1544 4750 1819 4750 
Q 2544 4750 2975 4387 
Q 3406 4025 3406 3419 
Q 3406 3131 3298 2873 
Q 3191 2616 2906 2266 
Q 2828 2175 2409 1742 
Q 1991 1309 1228 531 
z
" transform="scale(0.015625)"/>
      <path id="DejaVuSans-44" d="M 1259 4147 
L 1259 519 
L 2022 519 
Q 2988 519 3436 956 
Q 3884 1394 3884 2338 
Q 3884 3275 3436 3711 
Q 2988 4147 2022 4147 
L 1259 4147 
z
M 628 4666 
L 1925 4666 
Q 3281 4666 3915 4102 
Q 4550 3538 4550 2338 
Q 4550 1131 3912 565 
Q 3275 0 1925 0 
L 628 0 
L 628 4666 
z
" transform="scale(0.015625)"/>
      <path id="DejaVuSans-41" d="M 2188 4044 
L 1331 1722 
L 3047 1722 
L 2188 4044 
z
M 1831 4666 
L 2547 4666 
L 4325 0 
L 3669 0 
L 3244 1197 
L 1141 1197 
L 716 0 
L 50 0 
L 1831 4666 
z
" transform="scale(0.015625)"/>
      <path id="DejaVuSans-43" d="M 4122 4306 
L 4122 3641 
Q 3803 3938 3442 4084 
Q 3081 4231 2675 4231 
Q 1875 4231 1450 3742 
Q 1025 3253 1025 2328 
Q 1025 1406 1450 917 
Q 1875 428 2675 428 
Q 3081 428 3442 575 
Q 3803 722 4122 1019 
L 4122 359 
Q 3791 134 3420 21 
Q 3050 -91 2638 -91 
Q 1578 -91 968 557 
Q 359 1206 359 2328 
Q 359 3453 968 4101 
Q 1578 4750 2638 4750 
Q 3056 4750 3426 4639 
Q 3797 4528 4122 4306 
z
" transform="scale(0.015625)"/>
     </defs>
     <use xlink:href="#DejaVuSans-38"/>
     <use xlink:href="#DejaVuSans-2d" transform="translate(63.623047 0)"/>
     <use xlink:href="#DejaVuSans-62" transform="translate(99.707031 0)"/>
     <use xlink:href="#DejaVuSans-69" transform="translate(163.183594 0)"/>
     <use xlink:href="#DejaVuSans-74" transform="translate(190.966797 0)"/>
     <use xlink:href="#DejaVuSans-20" transform="translate(230.175781 0)"/>
     <use xlink:href="#DejaVuSans-52" transform="translate(261.962891 0)"/>
     <use xlink:href="#DejaVuSans-2d" transform="translate(327.445312 0)"/>
     <use xlink:href="#DejaVuSans-32" transform="translate(363.529297 0)"/>
     <use xlink:href="#DejaVuSans-52" transform="translate(427.152344 0)"/>
     <use xlink:href="#DejaVuSans-20" transform="translate(496.634766 0)"/>
     <use xlink:href="#DejaVuSans-44" transform="translate(528.421875 0)"/>
     <use xlink:href="#DejaVuSans-41" transform="translate(603.673828 0)"/>
     <use xlink:href="#DejaVuSans-43" transform="translate(670.332031 0)"/>
    </g>
   </g>
   <g id="text_2">
    <!-- IHP SG13G2 130nm  |  R = 2 kΩ (rhigh)  |  2R = 4 kΩ  |  VDD = 1.2 V -->
    <g style="fill: #808080" transform="translate(331.1825 38.99375) scale(0.08 -0.08)">
     <defs>
      <path id="DejaVuSans-49" d="M 628 4666 
L 1259 4666 
L 1259 0 
L 628 0 
L 628 4666 
z
" transform="scale(0.015625)"/>
      <path id="DejaVuSans-48" d="M 628 4666 
L 1259 4666 
L 1259 2753 
L 3553 2753 
L 3553 4666 
L 4184 4666 
L 4184 0 
L 3553 0 
L 3553 2222 
L 1259 2222 
L 1259 0 
L 628 0 
L 628 4666 
z
" transform="scale(0.015625)"/>
      <path id="DejaVuSans-50" d="M 1259 4147 
L 1259 2394 
L 2053 2394 
Q 2494 2394 2734 2622 
Q 2975 2850 2975 3272 
Q 2975 3691 2734 3919 
Q 2494 4147 2053 4147 
L 1259 4147 
z
M 628 4666 
L 2053 4666 
Q 2838 4666 3239 4311 
Q 3641 3956 3641 3272 
Q 3641 2581 3239 2228 
Q 2838 1875 2053 1875 
L 1259 1875 
L 1259 0 
L 628 0 
L 628 4666 
z
" transform="scale(0.015625)"/>
      <path id="DejaVuSans-53" d="M 3425 4513 
L 3425 3897 
Q 3066 4069 2747 4153 
Q 2428 4238 2131 4238 
Q 1616 4238 1336 4038 
Q 1056 3838 1056 3469 
Q 1056 3159 1242 3001 
Q 1428 2844 1947 2747 
L 2328 2669 
Q 3034 2534 3370 2195 
Q 3706 1856 3706 1288 
Q 3706 609 3251 259 
Q 2797 -91 1919 -91 
Q 1588 -91 1214 -16 
Q 841 59 441 206 
L 441 856 
Q 825 641 1194 531 
Q 1563 422 1919 422 
Q 2459 422 2753 634 
Q 3047 847 3047 1241 
Q 3047 1584 2836 1778 
Q 2625 1972 2144 2069 
L 1759 2144 
Q 1053 2284 737 2584 
Q 422 2884 422 3419 
Q 422 4038 858 4394 
Q 1294 4750 2059 4750 
Q 2388 4750 2728 4690 
Q 3069 4631 3425 4513 
z
" transform="scale(0.015625)"/>
      <path id="DejaVuSans-47" d="M 3809 666 
L 3809 1919 
L 2778 1919 
L 2778 2438 
L 4434 2438 
L 4434 434 
Q 4069 175 3628 42 
Q 3188 -91 2688 -91 
Q 1594 -91 976 548 
Q 359 1188 359 2328 
Q 359 3472 976 4111 
Q 1594 4750 2688 4750 
Q 3144 4750 3555 4637 
Q 3966 4525 4313 4306 
L 4313 3634 
Q 3963 3931 3569 4081 
Q 3175 4231 2741 4231 
Q 1884 4231 1454 3753 
Q 1025 3275 1025 2328 
Q 1025 1384 1454 906 
Q 1884 428 2741 428 
Q 3075 428 3337 486 
Q 3600 544 3809 666 
z
" transform="scale(0.015625)"/>
      <path id="DejaVuSans-31" d="M 794 531 
L 1825 531 
L 1825 4091 
L 703 3866 
L 703 4441 
L 1819 4666 
L 2450 4666 
L 2450 531 
L 3481 531 
L 3481 0 
L 794 0 
L 794 531 
z
" transform="scale(0.015625)"/>
      <path id="DejaVuSans-33" d="M 2597 2516 
Q 3050 2419 3304 2112 
Q 3559 1806 3559 1356 
Q 3559 666 3084 287 
Q 2609 -91 1734 -91 
Q 1441 -91 1130 -33 
Q 819 25 488 141 
L 488 750 
Q 750 597 1062 519 
Q 1375 441 1716 441 
Q 2309 441 2620 675 
Q 2931 909 2931 1356 
Q 2931 1769 2642 2001 
Q 2353 2234 1838 2234 
L 1294 2234 
L 1294 2753 
L 1863 2753 
Q 2328 2753 2575 2939 
Q 2822 3125 2822 3475 
Q 2822 3834 2567 4026 
Q 2313 4219 1838 4219 
Q 1578 4219 1281 4162 
Q 984 4106 628 3988 
L 628 4550 
Q 988 4650 1302 4700 
Q 1616 4750 1894 4750 
Q 2613 4750 3031 4423 
Q 3450 4097 3450 3541 
Q 3450 3153 3228 2886 
Q 3006 2619 2597 2516 
z
" transform="scale(0.015625)"/>
      <path id="DejaVuSans-30" d="M 2034 4250 
Q 1547 4250 1301 3770 
Q 1056 3291 1056 2328 
Q 1056 1369 1301 889 
Q 1547 409 2034 409 
Q 2525 409 2770 889 
Q 3016 1369 3016 2328 
Q 3016 3291 2770 3770 
Q 2525 4250 2034 4250 
z
M 2034 4750 
Q 2819 4750 3233 4129 
Q 3647 3509 3647 2328 
Q 3647 1150 3233 529 
Q 2819 -91 2034 -91 
Q 1250 -91 836 529 
Q 422 1150 422 2328 
Q 422 3509 836 4129 
Q 1250 4750 2034 4750 
z
" transform="scale(0.015625)"/>
      <path id="DejaVuSans-6e" d="M 3513 2113 
L 3513 0 
L 2938 0 
L 2938 2094 
Q 2938 2591 2744 2837 
Q 2550 3084 2163 3084 
Q 1697 3084 1428 2787 
Q 1159 2491 1159 1978 
L 1159 0 
L 581 0 
L 581 3500 
L 1159 3500 
L 1159 2956 
Q 1366 3272 1645 3428 
Q 1925 3584 2291 3584 
Q 2894 3584 3203 3211 
Q 3513 2838 3513 2113 
z
" transform="scale(0.015625)"/>
      <path id="DejaVuSans-6d" d="M 3328 2828 
Q 3544 3216 3844 3400 
Q 4144 3584 4550 3584 
Q 5097 3584 5394 3201 
Q 5691 2819 5691 2113 
L 5691 0 
L 5113 0 
L 5113 2094 
Q 5113 2597 4934 2840 
Q 4756 3084 4391 3084 
Q 3944 3084 3684 2787 
Q 3425 2491 3425 1978 
L 3425 0 
L 2847 0 
L 2847 2094 
Q 2847 2600 2669 2842 
Q 2491 3084 2119 3084 
Q 1678 3084 1418 2786 
Q 1159 2488 1159 1978 
L 1159 0 
L 581 0 
L 581 3500 
L 1159 3500 
L 1159 2956 
Q 1356 3278 1631 3431 
Q 1906 3584 2284 3584 
Q 2666 3584 2933 3390 
Q 3200 3197 3328 2828 
z
" transform="scale(0.015625)"/>
      <path id="DejaVuSans-7c" d="M 1344 4891 
L 1344 -1509 
L 813 -1509 
L 813 4891 
L 1344 4891 
z
" transform="scale(0.015625)"/>
      <path id="DejaVuSans-3d" d="M 678 2906 
L 4684 2906 
L 4684 2381 
L 678 2381 
L 678 2906 
z
M 678 1631 
L 4684 1631 
L 4684 1100 
L 678 1100 
L 678 1631 
z
" transform="scale(0.015625)"/>
      <path id="DejaVuSans-6b" d="M 581 4863 
L 1159 4863 
L 1159 1991 
L 2875 3500 
L 3609 3500 
L 1753 1863 
L 3688 0 
L 2938 0 
L 1159 1709 
L 1159 0 
L 581 0 
L 581 4863 
z
" transform="scale(0.015625)"/>
      <path id="DejaVuSans-3a9" d="M 4647 556 
L 4647 0 
L 2772 0 
L 2772 556 
Q 3325 859 3634 1378 
Q 3944 1897 3944 2528 
Q 3944 3278 3531 3731 
Q 3119 4184 2444 4184 
Q 1769 4184 1355 3729 
Q 941 3275 941 2528 
Q 941 1897 1250 1378 
Q 1563 859 2119 556 
L 2119 0 
L 244 0 
L 244 556 
L 1241 556 
Q 747 991 519 1456 
Q 294 1922 294 2497 
Q 294 3491 894 4106 
Q 1491 4722 2444 4722 
Q 3391 4722 3994 4106 
Q 4594 3494 4594 2528 
Q 4594 1922 4372 1459 
Q 4150 997 3647 556 
L 4647 556 
z
" transform="scale(0.015625)"/>
      <path id="DejaVuSans-28" d="M 1984 4856 
Q 1566 4138 1362 3434 
Q 1159 2731 1159 2009 
Q 1159 1288 1364 580 
Q 1569 -128 1984 -844 
L 1484 -844 
Q 1016 -109 783 600 
Q 550 1309 550 2009 
Q 550 2706 781 3412 
Q 1013 4119 1484 4856 
L 1984 4856 
z
" transform="scale(0.015625)"/>
      <path id="DejaVuSans-72" d="M 2631 2963 
Q 2534 3019 2420 3045 
Q 2306 3072 2169 3072 
Q 1681 3072 1420 2755 
Q 1159 2438 1159 1844 
L 1159 0 
L 581 0 
L 581 3500 
L 1159 3500 
L 1159 2956 
Q 1341 3275 1631 3429 
Q 1922 3584 2338 3584 
Q 2397 3584 2469 3576 
Q 2541 3569 2628 3553 
L 2631 2963 
z
" transform="scale(0.015625)"/>
      <path id="DejaVuSans-68" d="M 3513 2113 
L 3513 0 
L 2938 0 
L 2938 2094 
Q 2938 2591 2744 2837 
Q 2550 3084 2163 3084 
Q 1697 3084 1428 2787 
Q 1159 2491 1159 1978 
L 1159 0 
L 581 0 
L 581 4863 
L 1159 4863 
L 1159 2956 
Q 1366 3272 1645 3428 
Q 1925 3584 2291 3584 
Q 2894 3584 3203 3211 
Q 3513 2838 3513 2113 
z
" transform="scale(0.015625)"/>
      <path id="DejaVuSans-67" d="M 2906 1791 
Q 2906 2416 2648 2759 
Q 2391 3103 1925 3103 
Q 1463 3103 1205 2759 
Q 947 2416 947 1791 
Q 947 1169 1205 825 
Q 1463 481 1925 481 
Q 2391 481 2648 825 
Q 2906 1169 2906 1791 
z
M 3481 434 
Q 3481 -459 3084 -895 
Q 2688 -1331 1869 -1331 
Q 1566 -1331 1297 -1286 
Q 1028 -1241 775 -1147 
L 775 -588 
Q 1028 -725 1275 -790 
Q 1522 -856 1778 -856 
Q 2344 -856 2625 -561 
Q 2906 -266 2906 331 
L 2906 616 
Q 2728 306 2450 153 
Q 2172 0 1784 0 
Q 1141 0 747 490 
Q 353 981 353 1791 
Q 353 2603 747 3093 
Q 1141 3584 1784 3584 
Q 2172 3584 2450 3431 
Q 2728 3278 2906 2969 
L 2906 3500 
L 3481 3500 
L 3481 434 
z
" transform="scale(0.015625)"/>
      <path id="DejaVuSans-29" d="M 513 4856 
L 1013 4856 
Q 1481 4119 1714 3412 
Q 1947 2706 1947 2009 
Q 1947 1309 1714 600 
Q 1481 -109 1013 -844 
L 513 -844 
Q 928 -128 1133 580 
Q 1338 1288 1338 2009 
Q 1338 2731 1133 3434 
Q 928 4138 513 4856 
z
" transform="scale(0.015625)"/>
      <path id="DejaVuSans-34" d="M 2419 4116 
L 825 1625 
L 2419 1625 
L 2419 4116 
z
M 2253 4666 
L 3047 4666 
L 3047 1625 
L 3713 1625 
L 3713 1100 
L 3047 1100 
L 3047 0 
L 2419 0 
L 2419 1100 
L 313 1100 
L 313 1709 
L 2253 4666 
z
" transform="scale(0.015625)"/>
      <path id="DejaVuSans-56" d="M 1831 0 
L 50 4666 
L 709 4666 
L 2188 738 
L 3669 4666 
L 4325 4666 
L 2547 0 
L 1831 0 
z
" transform="scale(0.015625)"/>
      <path id="DejaVuSans-2e" d="M 684 794 
L 1344 794 
L 1344 0 
L 684 0 
L 684 794 
z
" transform="scale(0.015625)"/>
     </defs>
     <use xlink:href="#DejaVuSans-49"/>
     <use xlink:href="#DejaVuSans-48" transform="translate(29.492188 0)"/>
     <use xlink:href="#DejaVuSans-50" transform="translate(104.6875 0)"/>
     <use xlink:href="#DejaVuSans-20" transform="translate(164.990234 0)"/>
     <use xlink:href="#DejaVuSans-53" transform="translate(196.777344 0)"/>
     <use xlink:href="#DejaVuSans-47" transform="translate(260.253906 0)"/>
     <use xlink:href="#DejaVuSans-31" transform="translate(337.744141 0)"/>
     <use xlink:href="#DejaVuSans-33" transform="translate(401.367188 0)"/>
     <use xlink:href="#DejaVuSans-47" transform="translate(464.990234 0)"/>
     <use xlink:href="#DejaVuSans-32" transform="translate(542.480469 0)"/>
     <use xlink:href="#DejaVuSans-20" transform="translate(606.103516 0)"/>
     <use xlink:href="#DejaVuSans-31" transform="translate(637.890625 0)"/>
     <use xlink:href="#DejaVuSans-33" transform="translate(701.513672 0)"/>
     <use xlink:href="#DejaVuSans-30" transform="translate(765.136719 0)"/>
     <use xlink:href="#DejaVuSans-6e" transform="translate(828.759766 0)"/>
     <use xlink:href="#DejaVuSans-6d" transform="translate(892.138672 0)"/>
     <use xlink:href="#DejaVuSans-20" transform="translate(989.550781 0)"/>
     <use xlink:href="#DejaVuSans-20" transform="translate(1021.337891 0)"/>
     <use xlink:href="#DejaVuSans-7c" transform="translate(1053.125 0)"/>
     <use xlink:href="#DejaVuSans-20" transform="translate(1086.816406 0)"/>
     <use xlink:href="#DejaVuSans-20" transform="translate(1118.603516 0)"/>
     <use xlink:href="#DejaVuSans-52" transform="translate(1150.390625 0)"/>
     <use xlink:href="#DejaVuSans-20" transform="translate(1219.873047 0)"/>
     <use xlink:href="#DejaVuSans-3d" transform="translate(1251.660156 0)"/>
     <use xlink:href="#DejaVuSans-20" transform="translate(1335.449219 0)"/>
     <use xlink:href="#DejaVuSans-32" transform="translate(1367.236328 0)"/>
     <use xlink:href="#DejaVuSans-20" transform="translate(1430.859375 0)"/>
     <use xlink:href="#DejaVuSans-6b" transform="translate(1462.646484 0)"/>
     <use xlink:href="#DejaVuSans-3a9" transform="translate(1520.556641 0)"/>
     <use xlink:href="#DejaVuSans-20" transform="translate(1596.972656 0)"/>
     <use xlink:href="#DejaVuSans-28" transform="translate(1628.759766 0)"/>
     <use xlink:href="#DejaVuSans-72" transform="translate(1667.773438 0)"/>
     <use xlink:href="#DejaVuSans-68" transform="translate(1707.136719 0)"/>
     <use xlink:href="#DejaVuSans-69" transform="translate(1770.515625 0)"/>
     <use xlink:href="#DejaVuSans-67" transform="translate(1798.298828 0)"/>
     <use xlink:href="#DejaVuSans-68" transform="translate(1861.775391 0)"/>
     <use xlink:href="#DejaVuSans-29" transform="translate(1925.154297 0)"/>
     <use xlink:href="#DejaVuSans-20" transform="translate(1964.167969 0)"/>
     <use xlink:href="#DejaVuSans-20" transform="translate(1995.955078 0)"/>
     <use xlink:href="#DejaVuSans-7c" transform="translate(2027.742188 0)"/>
     <use xlink:href="#DejaVuSans-20" transform="translate(2061.433594 0)"/>
     <use xlink:href="#DejaVuSans-20" transform="translate(2093.220703 0)"/>
     <use xlink:href="#DejaVuSans-32" transform="translate(2125.007812 0)"/>
     <use xlink:href="#DejaVuSans-52" transform="translate(2188.630859 0)"/>
     <use xlink:href="#DejaVuSans-20" transform="translate(2258.113281 0)"/>
     <use xlink:href="#DejaVuSans-3d" transform="translate(2289.900391 0)"/>
     <use xlink:href="#DejaVuSans-20" transform="translate(2373.689453 0)"/>
     <use xlink:href="#DejaVuSans-34" transform="translate(2405.476562 0)"/>
     <use xlink:href="#DejaVuSans-20" transform="translate(2469.099609 0)"/>
     <use xlink:href="#DejaVuSans-6b" transform="translate(2500.886719 0)"/>
     <use xlink:href="#DejaVuSans-3a9" transform="translate(2558.796875 0)"/>
     <use xlink:href="#DejaVuSans-20" transform="translate(2635.212891 0)"/>
     <use xlink:href="#DejaVuSans-20" transform="translate(2667 0)"/>
     <use xlink:href="#DejaVuSans-7c" transform="translate(2698.787109 0)"/>
     <use xlink:href="#DejaVuSans-20" transform="translate(2732.478516 0)"/>
     <use xlink:href="#DejaVuSans-20" transform="translate(2764.265625 0)"/>
     <use xlink:href="#DejaVuSans-56" transform="translate(2796.052734 0)"/>
     <use xlink:href="#DejaVuSans-44" transform="translate(2864.460938 0)"/>
     <use xlink:href="#DejaVuSans-44" transform="translate(2941.462891 0)"/>
     <use xlink:href="#DejaVuSans-20" transform="translate(3018.464844 0)"/>
     <use xlink:href="#DejaVuSans-3d" transform="translate(3050.251953 0)"/>
     <use xlink:href="#DejaVuSans-20" transform="translate(3134.041016 0)"/>
     <use xlink:href="#DejaVuSans-31" transform="translate(3165.828125 0)"/>
     <use xlink:href="#DejaVuSans-2e" transform="translate(3229.451172 0)"/>
     <use xlink:href="#DejaVuSans-32" transform="translate(3261.238281 0)"/>
     <use xlink:href="#DejaVuSans-20" transform="translate(3324.861328 0)"/>
     <use xlink:href="#DejaVuSans-56" transform="translate(3356.648438 0)"/>
    </g>
   </g>
   <g id="text_3">
    <!-- Vref (VDD) -->
    <g style="fill: #ff0000" transform="translate(2.169062 82.839375) scale(0.1 -0.1)">
     <defs>
      <path id="DejaVuSans-65" d="M 3597 1894 
L 3597 1613 
L 953 1613 
Q 991 1019 1311 708 
Q 1631 397 2203 397 
Q 2534 397 2845 478 
Q 3156 559 3463 722 
L 3463 178 
Q 3153 47 2828 -22 
Q 2503 -91 2169 -91 
Q 1331 -91 842 396 
Q 353 884 353 1716 
Q 353 2575 817 3079 
Q 1281 3584 2069 3584 
Q 2775 3584 3186 3129 
Q 3597 2675 3597 1894 
z
M 3022 2063 
Q 3016 2534 2758 2815 
Q 2500 3097 2075 3097 
Q 1594 3097 1305 2825 
Q 1016 2553 972 2059 
L 3022 2063 
z
" transform="scale(0.015625)"/>
      <path id="DejaVuSans-66" d="M 2375 4863 
L 2375 4384 
L 1825 4384 
Q 1516 4384 1395 4259 
Q 1275 4134 1275 3809 
L 1275 3500 
L 2222 3500 
L 2222 3053 
L 1275 3053 
L 1275 0 
L 697 0 
L 697 3053 
L 147 3053 
L 147 3500 
L 697 3500 
L 697 3744 
Q 697 4328 969 4595 
Q 1241 4863 1831 4863 
L 2375 4863 
z
" transform="scale(0.015625)"/>
     </defs>
     <use xlink:href="#DejaVuSans-56"/>
     <use xlink:href="#DejaVuSans-72" transform="translate(68.408203 0)"/>
     <use xlink:href="#DejaVuSans-65" transform="translate(107.271484 0)"/>
     <use xlink:href="#DejaVuSans-66" transform="translate(168.794922 0)"/>
     <use xlink:href="#DejaVuSans-20" transform="translate(204 0)"/>
     <use xlink:href="#DejaVuSans-28" transform="translate(235.787109 0)"/>
     <use xlink:href="#DejaVuSans-56" transform="translate(274.800781 0)"/>
     <use xlink:href="#DejaVuSans-44" transform="translate(343.208984 0)"/>
     <use xlink:href="#DejaVuSans-44" transform="translate(420.210938 0)"/>
     <use xlink:href="#DejaVuSans-29" transform="translate(497.212891 0)"/>
    </g>
   </g>
   <g id="text_4">
    <!-- R -->
    <g transform="translate(82.758359 90.392344) scale(0.11 -0.11)">
     <use xlink:href="#DejaVuSans-52"/>
    </g>
   </g>
   <g id="text_5">
    <!-- 2R -->
    <g transform="translate(133.258984 243.238281) scale(0.11 -0.11)">
     <use xlink:href="#DejaVuSans-32"/>
     <use xlink:href="#DejaVuSans-52" transform="translate(63.623047 0)"/>
    </g>
   </g>
   <g id="patch_2">
    <path d="M 140.58 257.92 
C 141.725677 257.92 142.824585 257.464818 143.634701 256.654701 
C 144.444818 255.844585 144.9 254.745677 144.9 253.6 
C 144.9 252.454323 144.444818 251.355415 143.634701 250.545299 
C 142.824585 249.735182 141.725677 249.28 140.58 249.28 
C 139.434323 249.28 138.335415 249.735182 137.525299 250.545299 
C 136.715182 251.355415 136.26 252.454323 136.26 253.6 
C 136.26 254.745677 136.715182 255.844585 137.525299 256.654701 
C 138.335415 257.464818 139.434323 257.92 140.58 257.92 
z
" clip-path="url(#p8b75bc4f35)" style="fill: #ffffff; stroke: #000000; stroke-width: 2; stroke-linejoin: miter"/>
   </g>
   <g id="patch_3">
    <path d="M 140.58 285.28 
C 141.725677 285.28 142.824585 284.824818 143.634701 284.014701 
C 144.444818 283.204585 144.9 282.105677 144.9 280.96 
C 144.9 279.814323 144.444818 278.715415 143.634701 277.905299 
C 142.824585 277.095182 141.725677 276.64 140.58 276.64 
C 139.434323 276.64 138.335415 277.095182 137.525299 277.905299 
C 136.715182 278.715415 136.26 279.814323 136.26 280.96 
C 136.26 282.105677 136.715182 283.204585 137.525299 284.014701 
C 138.335415 284.824818 139.434323 285.28 140.58 285.28 
z
" clip-path="url(#p8b75bc4f35)" style="fill: #ffffff; stroke: #000000; stroke-width: 2; stroke-linejoin: miter"/>
   </g>
   <g id="text_6">
    <!-- d[7] -->
    <g transform="translate(135.237266 214.746406) scale(0.11 -0.11)">
     <defs>
      <path id="DejaVuSans-64" d="M 2906 2969 
L 2906 4863 
L 3481 4863 
L 3481 0 
L 2906 0 
L 2906 525 
Q 2725 213 2448 61 
Q 2172 -91 1784 -91 
Q 1150 -91 751 415 
Q 353 922 353 1747 
Q 353 2572 751 3078 
Q 1150 3584 1784 3584 
Q 2172 3584 2448 3432 
Q 2725 3281 2906 2969 
z
M 947 1747 
Q 947 1113 1208 752 
Q 1469 391 1925 391 
Q 2381 391 2643 752 
Q 2906 1113 2906 1747 
Q 2906 2381 2643 2742 
Q 2381 3103 1925 3103 
Q 1469 3103 1208 2742 
Q 947 2381 947 1747 
z
" transform="scale(0.015625)"/>
      <path id="DejaVuSans-5b" d="M 550 4863 
L 1875 4863 
L 1875 4416 
L 1125 4416 
L 1125 -397 
L 1875 -397 
L 1875 -844 
L 550 -844 
L 550 4863 
z
" transform="scale(0.015625)"/>
      <path id="DejaVuSans-37" d="M 525 4666 
L 3525 4666 
L 3525 4397 
L 1831 0 
L 1172 0 
L 2766 4134 
L 525 4134 
L 525 4666 
z
" transform="scale(0.015625)"/>
      <path id="DejaVuSans-5d" d="M 1947 4863 
L 1947 -844 
L 622 -844 
L 622 -397 
L 1369 -397 
L 1369 4416 
L 622 4416 
L 622 4863 
L 1947 4863 
z
" transform="scale(0.015625)"/>
     </defs>
     <use xlink:href="#DejaVuSans-64"/>
     <use xlink:href="#DejaVuSans-5b" transform="translate(63.476562 0)"/>
     <use xlink:href="#DejaVuSans-37" transform="translate(102.490234 0)"/>
     <use xlink:href="#DejaVuSans-5d" transform="translate(166.113281 0)"/>
    </g>
    <!-- (MSB) -->
    <g transform="translate(130.217656 225.392344) scale(0.11 -0.11)">
     <defs>
      <path id="DejaVuSans-4d" d="M 628 4666 
L 1569 4666 
L 2759 1491 
L 3956 4666 
L 4897 4666 
L 4897 0 
L 4281 0 
L 4281 4097 
L 3078 897 
L 2444 897 
L 1241 4097 
L 1241 0 
L 628 0 
L 628 4666 
z
" transform="scale(0.015625)"/>
      <path id="DejaVuSans-42" d="M 1259 2228 
L 1259 519 
L 2272 519 
Q 2781 519 3026 730 
Q 3272 941 3272 1375 
Q 3272 1813 3026 2020 
Q 2781 2228 2272 2228 
L 1259 2228 
z
M 1259 4147 
L 1259 2741 
L 2194 2741 
Q 2656 2741 2882 2914 
Q 3109 3088 3109 3444 
Q 3109 3797 2882 3972 
Q 2656 4147 2194 4147 
L 1259 4147 
z
M 628 4666 
L 2241 4666 
Q 2963 4666 3353 4366 
Q 3744 4066 3744 3513 
Q 3744 3084 3544 2831 
Q 3344 2578 2956 2516 
Q 3422 2416 3680 2098 
Q 3938 1781 3938 1306 
Q 3938 681 3513 340 
Q 3088 0 2303 0 
L 628 0 
L 628 4666 
z
" transform="scale(0.015625)"/>
     </defs>
     <use xlink:href="#DejaVuSans-28"/>
     <use xlink:href="#DejaVuSans-4d" transform="translate(39.013672 0)"/>
     <use xlink:href="#DejaVuSans-53" transform="translate(125.292969 0)"/>
     <use xlink:href="#DejaVuSans-42" transform="translate(188.769531 0)"/>
     <use xlink:href="#DejaVuSans-29" transform="translate(257.373047 0)"/>
    </g>
   </g>
   <g id="text_7">
    <!-- R -->
    <g transform="translate(190.758359 90.392344) scale(0.11 -0.11)">
     <use xlink:href="#DejaVuSans-52"/>
    </g>
   </g>
   <g id="text_8">
    <!-- 2R -->
    <g transform="translate(241.258984 243.238281) scale(0.11 -0.11)">
     <use xlink:href="#DejaVuSans-32"/>
     <use xlink:href="#DejaVuSans-52" transform="translate(63.623047 0)"/>
    </g>
   </g>
   <g id="patch_4">
    <path d="M 248.58 257.92 
C 249.725677 257.92 250.824585 257.464818 251.634701 256.654701 
C 252.444818 255.844585 252.9 254.745677 252.9 253.6 
C 252.9 252.454323 252.444818 251.355415 251.634701 250.545299 
C 250.824585 249.735182 249.725677 249.28 248.58 249.28 
C 247.434323 249.28 246.335415 249.735182 245.525299 250.545299 
C 244.715182 251.355415 244.26 252.454323 244.26 253.6 
C 244.26 254.745677 244.715182 255.844585 245.525299 256.654701 
C 246.335415 257.464818 247.434323 257.92 248.58 257.92 
z
" clip-path="url(#p8b75bc4f35)" style="fill: #ffffff; stroke: #000000; stroke-width: 2; stroke-linejoin: miter"/>
   </g>
   <g id="patch_5">
    <path d="M 248.58 285.28 
C 249.725677 285.28 250.824585 284.824818 251.634701 284.014701 
C 252.444818 283.204585 252.9 282.105677 252.9 280.96 
C 252.9 279.814323 252.444818 278.715415 251.634701 277.905299 
C 250.824585 277.095182 249.725677 276.64 248.58 276.64 
C 247.434323 276.64 246.335415 277.095182 245.525299 277.905299 
C 244.715182 278.715415 244.26 279.814323 244.26 280.96 
C 244.26 282.105677 244.715182 283.204585 245.525299 284.014701 
C 246.335415 284.824818 247.434323 285.28 248.58 285.28 
z
" clip-path="url(#p8b75bc4f35)" style="fill: #ffffff; stroke: #000000; stroke-width: 2; stroke-linejoin: miter"/>
   </g>
   <g id="text_9">
    <!-- d[6] -->
    <g transform="translate(243.237266 225.392344) scale(0.11 -0.11)">
     <defs>
      <path id="DejaVuSans-36" d="M 2113 2584 
Q 1688 2584 1439 2293 
Q 1191 2003 1191 1497 
Q 1191 994 1439 701 
Q 1688 409 2113 409 
Q 2538 409 2786 701 
Q 3034 994 3034 1497 
Q 3034 2003 2786 2293 
Q 2538 2584 2113 2584 
z
M 3366 4563 
L 3366 3988 
Q 3128 4100 2886 4159 
Q 2644 4219 2406 4219 
Q 1781 4219 1451 3797 
Q 1122 3375 1075 2522 
Q 1259 2794 1537 2939 
Q 1816 3084 2150 3084 
Q 2853 3084 3261 2657 
Q 3669 2231 3669 1497 
Q 3669 778 3244 343 
Q 2819 -91 2113 -91 
Q 1303 -91 875 529 
Q 447 1150 447 2328 
Q 447 3434 972 4092 
Q 1497 4750 2381 4750 
Q 2619 4750 2861 4703 
Q 3103 4656 3366 4563 
z
" transform="scale(0.015625)"/>
     </defs>
     <use xlink:href="#DejaVuSans-64"/>
     <use xlink:href="#DejaVuSans-5b" transform="translate(63.476562 0)"/>
     <use xlink:href="#DejaVuSans-36" transform="translate(102.490234 0)"/>
     <use xlink:href="#DejaVuSans-5d" transform="translate(166.113281 0)"/>
    </g>
   </g>
   <g id="text_10">
    <!-- R -->
    <g transform="translate(298.758359 90.392344) scale(0.11 -0.11)">
     <use xlink:href="#DejaVuSans-52"/>
    </g>
   </g>
   <g id="text_11">
    <!-- 2R -->
    <g transform="translate(349.258984 243.238281) scale(0.11 -0.11)">
     <use xlink:href="#DejaVuSans-32"/>
     <use xlink:href="#DejaVuSans-52" transform="translate(63.623047 0)"/>
    </g>
   </g>
   <g id="patch_6">
    <path d="M 356.58 257.92 
C 357.725677 257.92 358.824585 257.464818 359.634701 256.654701 
C 360.444818 255.844585 360.9 254.745677 360.9 253.6 
C 360.9 252.454323 360.444818 251.355415 359.634701 250.545299 
C 358.824585 249.735182 357.725677 249.28 356.58 249.28 
C 355.434323 249.28 354.335415 249.735182 353.525299 250.545299 
C 352.715182 251.355415 352.26 252.454323 352.26 253.6 
C 352.26 254.745677 352.715182 255.844585 353.525299 256.654701 
C 354.335415 257.464818 355.434323 257.92 356.58 257.92 
z
" clip-path="url(#p8b75bc4f35)" style="fill: #ffffff; stroke: #000000; stroke-width: 2; stroke-linejoin: miter"/>
   </g>
   <g id="patch_7">
    <path d="M 356.58 285.28 
C 357.725677 285.28 358.824585 284.824818 359.634701 284.014701 
C 360.444818 283.204585 360.9 282.105677 360.9 280.96 
C 360.9 279.814323 360.444818 278.715415 359.634701 277.905299 
C 358.824585 277.095182 357.725677 276.64 356.58 276.64 
C 355.434323 276.64 354.335415 277.095182 353.525299 277.905299 
C 352.715182 278.715415 352.26 279.814323 352.26 280.96 
C 352.26 282.105677 352.715182 283.204585 353.525299 284.014701 
C 354.335415 284.824818 355.434323 285.28 356.58 285.28 
z
" clip-path="url(#p8b75bc4f35)" style="fill: #ffffff; stroke: #000000; stroke-width: 2; stroke-linejoin: miter"/>
   </g>
   <g id="text_12">
    <!-- d[5] -->
    <g transform="translate(351.237266 225.392344) scale(0.11 -0.11)">
     <defs>
      <path id="DejaVuSans-35" d="M 691 4666 
L 3169 4666 
L 3169 4134 
L 1269 4134 
L 1269 2991 
Q 1406 3038 1543 3061 
Q 1681 3084 1819 3084 
Q 2600 3084 3056 2656 
Q 3513 2228 3513 1497 
Q 3513 744 3044 326 
Q 2575 -91 1722 -91 
Q 1428 -91 1123 -41 
Q 819 9 494 109 
L 494 744 
Q 775 591 1075 516 
Q 1375 441 1709 441 
Q 2250 441 2565 725 
Q 2881 1009 2881 1497 
Q 2881 1984 2565 2268 
Q 2250 2553 1709 2553 
Q 1456 2553 1204 2497 
Q 953 2441 691 2322 
L 691 4666 
z
" transform="scale(0.015625)"/>
     </defs>
     <use xlink:href="#DejaVuSans-64"/>
     <use xlink:href="#DejaVuSans-5b" transform="translate(63.476562 0)"/>
     <use xlink:href="#DejaVuSans-35" transform="translate(102.490234 0)"/>
     <use xlink:href="#DejaVuSans-5d" transform="translate(166.113281 0)"/>
    </g>
   </g>
   <g id="text_13">
    <!-- R -->
    <g transform="translate(406.758359 90.392344) scale(0.11 -0.11)">
     <use xlink:href="#DejaVuSans-52"/>
    </g>
   </g>
   <g id="text_14">
    <!-- 2R -->
    <g transform="translate(457.258984 243.238281) scale(0.11 -0.11)">
     <use xlink:href="#DejaVuSans-32"/>
     <use xlink:href="#DejaVuSans-52" transform="translate(63.623047 0)"/>
    </g>
   </g>
   <g id="patch_8">
    <path d="M 464.58 257.92 
C 465.725677 257.92 466.824585 257.464818 467.634701 256.654701 
C 468.444818 255.844585 468.9 254.745677 468.9 253.6 
C 468.9 252.454323 468.444818 251.355415 467.634701 250.545299 
C 466.824585 249.735182 465.725677 249.28 464.58 249.28 
C 463.434323 249.28 462.335415 249.735182 461.525299 250.545299 
C 460.715182 251.355415 460.26 252.454323 460.26 253.6 
C 460.26 254.745677 460.715182 255.844585 461.525299 256.654701 
C 462.335415 257.464818 463.434323 257.92 464.58 257.92 
z
" clip-path="url(#p8b75bc4f35)" style="fill: #ffffff; stroke: #000000; stroke-width: 2; stroke-linejoin: miter"/>
   </g>
   <g id="patch_9">
    <path d="M 464.58 285.28 
C 465.725677 285.28 466.824585 284.824818 467.634701 284.014701 
C 468.444818 283.204585 468.9 282.105677 468.9 280.96 
C 468.9 279.814323 468.444818 278.715415 467.634701 277.905299 
C 466.824585 277.095182 465.725677 276.64 464.58 276.64 
C 463.434323 276.64 462.335415 277.095182 461.525299 277.905299 
C 460.715182 278.715415 460.26 279.814323 460.26 280.96 
C 460.26 282.105677 460.715182 283.204585 461.525299 284.014701 
C 462.335415 284.824818 463.434323 285.28 464.58 285.28 
z
" clip-path="url(#p8b75bc4f35)" style="fill: #ffffff; stroke: #000000; stroke-width: 2; stroke-linejoin: miter"/>
   </g>
   <g id="text_15">
    <!-- d[4] -->
    <g transform="translate(459.237266 225.392344) scale(0.11 -0.11)">
     <use xlink:href="#DejaVuSans-64"/>
     <use xlink:href="#DejaVuSans-5b" transform="translate(63.476562 0)"/>
     <use xlink:href="#DejaVuSans-34" transform="translate(102.490234 0)"/>
     <use xlink:href="#DejaVuSans-5d" transform="translate(166.113281 0)"/>
    </g>
   </g>
   <g id="text_16">
    <!-- R -->
    <g transform="translate(514.758359 90.392344) scale(0.11 -0.11)">
     <use xlink:href="#DejaVuSans-52"/>
    </g>
   </g>
   <g id="text_17">
    <!-- 2R -->
    <g transform="translate(565.258984 243.238281) scale(0.11 -0.11)">
     <use xlink:href="#DejaVuSans-32"/>
     <use xlink:href="#DejaVuSans-52" transform="translate(63.623047 0)"/>
    </g>
   </g>
   <g id="patch_10">
    <path d="M 572.58 257.92 
C 573.725677 257.92 574.824585 257.464818 575.634701 256.654701 
C 576.444818 255.844585 576.9 254.745677 576.9 253.6 
C 576.9 252.454323 576.444818 251.355415 575.634701 250.545299 
C 574.824585 249.735182 573.725677 249.28 572.58 249.28 
C 571.434323 249.28 570.335415 249.735182 569.525299 250.545299 
C 568.715182 251.355415 568.26 252.454323 568.26 253.6 
C 568.26 254.745677 568.715182 255.844585 569.525299 256.654701 
C 570.335415 257.464818 571.434323 257.92 572.58 257.92 
z
" clip-path="url(#p8b75bc4f35)" style="fill: #ffffff; stroke: #000000; stroke-width: 2; stroke-linejoin: miter"/>
   </g>
   <g id="patch_11">
    <path d="M 572.58 285.28 
C 573.725677 285.28 574.824585 284.824818 575.634701 284.014701 
C 576.444818 283.204585 576.9 282.105677 576.9 280.96 
C 576.9 279.814323 576.444818 278.715415 575.634701 277.905299 
C 574.824585 277.095182 573.725677 276.64 572.58 276.64 
C 571.434323 276.64 570.335415 277.095182 569.525299 277.905299 
C 568.715182 278.715415 568.26 279.814323 568.26 280.96 
C 568.26 282.105677 568.715182 283.204585 569.525299 284.014701 
C 570.335415 284.824818 571.434323 285.28 572.58 285.28 
z
" clip-path="url(#p8b75bc4f35)" style="fill: #ffffff; stroke: #000000; stroke-width: 2; stroke-linejoin: miter"/>
   </g>
   <g id="text_18">
    <!-- d[3] -->
    <g transform="translate(567.237266 225.392344) scale(0.11 -0.11)">
     <use xlink:href="#DejaVuSans-64"/>
     <use xlink:href="#DejaVuSans-5b" transform="translate(63.476562 0)"/>
     <use xlink:href="#DejaVuSans-33" transform="translate(102.490234 0)"/>
     <use xlink:href="#DejaVuSans-5d" transform="translate(166.113281 0)"/>
    </g>
   </g>
   <g id="text_19">
    <!-- R -->
    <g transform="translate(622.758359 90.392344) scale(0.11 -0.11)">
     <use xlink:href="#DejaVuSans-52"/>
    </g>
   </g>
   <g id="text_20">
    <!-- 2R -->
    <g transform="translate(673.258984 243.238281) scale(0.11 -0.11)">
     <use xlink:href="#DejaVuSans-32"/>
     <use xlink:href="#DejaVuSans-52" transform="translate(63.623047 0)"/>
    </g>
   </g>
   <g id="patch_12">
    <path d="M 680.58 257.92 
C 681.725677 257.92 682.824585 257.464818 683.634701 256.654701 
C 684.444818 255.844585 684.9 254.745677 684.9 253.6 
C 684.9 252.454323 684.444818 251.355415 683.634701 250.545299 
C 682.824585 249.735182 681.725677 249.28 680.58 249.28 
C 679.434323 249.28 678.335415 249.735182 677.525299 250.545299 
C 676.715182 251.355415 676.26 252.454323 676.26 253.6 
C 676.26 254.745677 676.715182 255.844585 677.525299 256.654701 
C 678.335415 257.464818 679.434323 257.92 680.58 257.92 
z
" clip-path="url(#p8b75bc4f35)" style="fill: #ffffff; stroke: #000000; stroke-width: 2; stroke-linejoin: miter"/>
   </g>
   <g id="patch_13">
    <path d="M 680.58 285.28 
C 681.725677 285.28 682.824585 284.824818 683.634701 284.014701 
C 684.444818 283.204585 684.9 282.105677 684.9 280.96 
C 684.9 279.814323 684.444818 278.715415 683.634701 277.905299 
C 682.824585 277.095182 681.725677 276.64 680.58 276.64 
C 679.434323 276.64 678.335415 277.095182 677.525299 277.905299 
C 676.715182 278.715415 676.26 279.814323 676.26 280.96 
C 676.26 282.105677 676.715182 283.204585 677.525299 284.014701 
C 678.335415 284.824818 679.434323 285.28 680.58 285.28 
z
" clip-path="url(#p8b75bc4f35)" style="fill: #ffffff; stroke: #000000; stroke-width: 2; stroke-linejoin: miter"/>
   </g>
   <g id="text_21">
    <!-- d[2] -->
    <g transform="translate(675.237266 225.392344) scale(0.11 -0.11)">
     <use xlink:href="#DejaVuSans-64"/>
     <use xlink:href="#DejaVuSans-5b" transform="translate(63.476562 0)"/>
     <use xlink:href="#DejaVuSans-32" transform="translate(102.490234 0)"/>
     <use xlink:href="#DejaVuSans-5d" transform="translate(166.113281 0)"/>
    </g>
   </g>
   <g id="text_22">
    <!-- R -->
    <g transform="translate(730.758359 90.392344) scale(0.11 -0.11)">
     <use xlink:href="#DejaVuSans-52"/>
    </g>
   </g>
   <g id="text_23">
    <!-- 2R -->
    <g transform="translate(781.258984 243.238281) scale(0.11 -0.11)">
     <use xlink:href="#DejaVuSans-32"/>
     <use xlink:href="#DejaVuSans-52" transform="translate(63.623047 0)"/>
    </g>
   </g>
   <g id="patch_14">
    <path d="M 788.58 257.92 
C 789.725677 257.92 790.824585 257.464818 791.634701 256.654701 
C 792.444818 255.844585 792.9 254.745677 792.9 253.6 
C 792.9 252.454323 792.444818 251.355415 791.634701 250.545299 
C 790.824585 249.735182 789.725677 249.28 788.58 249.28 
C 787.434323 249.28 786.335415 249.735182 785.525299 250.545299 
C 784.715182 251.355415 784.26 252.454323 784.26 253.6 
C 784.26 254.745677 784.715182 255.844585 785.525299 256.654701 
C 786.335415 257.464818 787.434323 257.92 788.58 257.92 
z
" clip-path="url(#p8b75bc4f35)" style="fill: #ffffff; stroke: #000000; stroke-width: 2; stroke-linejoin: miter"/>
   </g>
   <g id="patch_15">
    <path d="M 788.58 285.28 
C 789.725677 285.28 790.824585 284.824818 791.634701 284.014701 
C 792.444818 283.204585 792.9 282.105677 792.9 280.96 
C 792.9 279.814323 792.444818 278.715415 791.634701 277.905299 
C 790.824585 277.095182 789.725677 276.64 788.58 276.64 
C 787.434323 276.64 786.335415 277.095182 785.525299 277.905299 
C 784.715182 278.715415 784.26 279.814323 784.26 280.96 
C 784.26 282.105677 784.715182 283.204585 785.525299 284.014701 
C 786.335415 284.824818 787.434323 285.28 788.58 285.28 
z
" clip-path="url(#p8b75bc4f35)" style="fill: #ffffff; stroke: #000000; stroke-width: 2; stroke-linejoin: miter"/>
   </g>
   <g id="text_24">
    <!-- d[1] -->
    <g transform="translate(783.237266 225.392344) scale(0.11 -0.11)">
     <use xlink:href="#DejaVuSans-64"/>
     <use xlink:href="#DejaVuSans-5b" transform="translate(63.476562 0)"/>
     <use xlink:href="#DejaVuSans-31" transform="translate(102.490234 0)"/>
     <use xlink:href="#DejaVuSans-5d" transform="translate(166.113281 0)"/>
    </g>
   </g>
   <g id="text_25">
    <!-- R -->
    <g transform="translate(838.758359 90.392344) scale(0.11 -0.11)">
     <use xlink:href="#DejaVuSans-52"/>
    </g>
   </g>
   <g id="text_26">
    <!-- 2R -->
    <g transform="translate(889.258984 243.238281) scale(0.11 -0.11)">
     <use xlink:href="#DejaVuSans-32"/>
     <use xlink:href="#DejaVuSans-52" transform="translate(63.623047 0)"/>
    </g>
   </g>
   <g id="patch_16">
    <path d="M 896.58 257.92 
C 897.725677 257.92 898.824585 257.464818 899.634701 256.654701 
C 900.444818 255.844585 900.9 254.745677 900.9 253.6 
C 900.9 252.454323 900.444818 251.355415 899.634701 250.545299 
C 898.824585 249.735182 897.725677 249.28 896.58 249.28 
C 895.434323 249.28 894.335415 249.735182 893.525299 250.545299 
C 892.715182 251.355415 892.26 252.454323 892.26 253.6 
C 892.26 254.745677 892.715182 255.844585 893.525299 256.654701 
C 894.335415 257.464818 895.434323 257.92 896.58 257.92 
z
" clip-path="url(#p8b75bc4f35)" style="fill: #ffffff; stroke: #000000; stroke-width: 2; stroke-linejoin: miter"/>
   </g>
   <g id="patch_17">
    <path d="M 896.58 285.28 
C 897.725677 285.28 898.824585 284.824818 899.634701 284.014701 
C 900.444818 283.204585 900.9 282.105677 900.9 280.96 
C 900.9 279.814323 900.444818 278.715415 899.634701 277.905299 
C 898.824585 277.095182 897.725677 276.64 896.58 276.64 
C 895.434323 276.64 894.335415 277.095182 893.525299 277.905299 
C 892.715182 278.715415 892.26 279.814323 892.26 280.96 
C 892.26 282.105677 892.715182 283.204585 893.525299 284.014701 
C 894.335415 284.824818 895.434323 285.28 896.58 285.28 
z
" clip-path="url(#p8b75bc4f35)" style="fill: #ffffff; stroke: #000000; stroke-width: 2; stroke-linejoin: miter"/>
   </g>
   <g id="text_27">
    <!-- d[0] -->
    <g transform="translate(891.237266 214.746406) scale(0.11 -0.11)">
     <use xlink:href="#DejaVuSans-64"/>
     <use xlink:href="#DejaVuSans-5b" transform="translate(63.476562 0)"/>
     <use xlink:href="#DejaVuSans-30" transform="translate(102.490234 0)"/>
     <use xlink:href="#DejaVuSans-5d" transform="translate(166.113281 0)"/>
    </g>
    <!-- (LSB) -->
    <g transform="translate(887.898594 225.392344) scale(0.11 -0.11)">
     <defs>
      <path id="DejaVuSans-4c" d="M 628 4666 
L 1259 4666 
L 1259 531 
L 3531 531 
L 3531 0 
L 628 0 
L 628 4666 
z
" transform="scale(0.015625)"/>
     </defs>
     <use xlink:href="#DejaVuSans-28"/>
     <use xlink:href="#DejaVuSans-4c" transform="translate(39.013672 0)"/>
     <use xlink:href="#DejaVuSans-53" transform="translate(94.726562 0)"/>
     <use xlink:href="#DejaVuSans-42" transform="translate(158.203125 0)"/>
     <use xlink:href="#DejaVuSans-29" transform="translate(226.806641 0)"/>
    </g>
   </g>
   <g id="text_28">
    <!-- NMOS switches: d[n]=1 → gate HIGH → ON → shunt leg to VSS -->
    <g style="fill: #0000ff" transform="translate(358.934062 344.811562) scale(0.07 -0.07)">
     <defs>
      <path id="DejaVuSans-4e" d="M 628 4666 
L 1478 4666 
L 3547 763 
L 3547 4666 
L 4159 4666 
L 4159 0 
L 3309 0 
L 1241 3903 
L 1241 0 
L 628 0 
L 628 4666 
z
" transform="scale(0.015625)"/>
      <path id="DejaVuSans-4f" d="M 2522 4238 
Q 1834 4238 1429 3725 
Q 1025 3213 1025 2328 
Q 1025 1447 1429 934 
Q 1834 422 2522 422 
Q 3209 422 3611 934 
Q 4013 1447 4013 2328 
Q 4013 3213 3611 3725 
Q 3209 4238 2522 4238 
z
M 2522 4750 
Q 3503 4750 4090 4092 
Q 4678 3434 4678 2328 
Q 4678 1225 4090 567 
Q 3503 -91 2522 -91 
Q 1538 -91 948 565 
Q 359 1222 359 2328 
Q 359 3434 948 4092 
Q 1538 4750 2522 4750 
z
" transform="scale(0.015625)"/>
      <path id="DejaVuSans-73" d="M 2834 3397 
L 2834 2853 
Q 2591 2978 2328 3040 
Q 2066 3103 1784 3103 
Q 1356 3103 1142 2972 
Q 928 2841 928 2578 
Q 928 2378 1081 2264 
Q 1234 2150 1697 2047 
L 1894 2003 
Q 2506 1872 2764 1633 
Q 3022 1394 3022 966 
Q 3022 478 2636 193 
Q 2250 -91 1575 -91 
Q 1294 -91 989 -36 
Q 684 19 347 128 
L 347 722 
Q 666 556 975 473 
Q 1284 391 1588 391 
Q 1994 391 2212 530 
Q 2431 669 2431 922 
Q 2431 1156 2273 1281 
Q 2116 1406 1581 1522 
L 1381 1569 
Q 847 1681 609 1914 
Q 372 2147 372 2553 
Q 372 3047 722 3315 
Q 1072 3584 1716 3584 
Q 2034 3584 2315 3537 
Q 2597 3491 2834 3397 
z
" transform="scale(0.015625)"/>
      <path id="DejaVuSans-77" d="M 269 3500 
L 844 3500 
L 1563 769 
L 2278 3500 
L 2956 3500 
L 3675 769 
L 4391 3500 
L 4966 3500 
L 4050 0 
L 3372 0 
L 2619 2869 
L 1863 0 
L 1184 0 
L 269 3500 
z
" transform="scale(0.015625)"/>
      <path id="DejaVuSans-63" d="M 3122 3366 
L 3122 2828 
Q 2878 2963 2633 3030 
Q 2388 3097 2138 3097 
Q 1578 3097 1268 2742 
Q 959 2388 959 1747 
Q 959 1106 1268 751 
Q 1578 397 2138 397 
Q 2388 397 2633 464 
Q 2878 531 3122 666 
L 3122 134 
Q 2881 22 2623 -34 
Q 2366 -91 2075 -91 
Q 1284 -91 818 406 
Q 353 903 353 1747 
Q 353 2603 823 3093 
Q 1294 3584 2113 3584 
Q 2378 3584 2631 3529 
Q 2884 3475 3122 3366 
z
" transform="scale(0.015625)"/>
      <path id="DejaVuSans-3a" d="M 750 794 
L 1409 794 
L 1409 0 
L 750 0 
L 750 794 
z
M 750 3309 
L 1409 3309 
L 1409 2516 
L 750 2516 
L 750 3309 
z
" transform="scale(0.015625)"/>
      <path id="DejaVuSans-2192" d="M 5050 2147 
L 5050 1866 
L 3822 638 
L 3447 1013 
L 4175 1741 
L 366 1741 
L 366 2272 
L 4175 2272 
L 3447 3000 
L 3822 3375 
L 5050 2147 
z
" transform="scale(0.015625)"/>
      <path id="DejaVuSans-61" d="M 2194 1759 
Q 1497 1759 1228 1600 
Q 959 1441 959 1056 
Q 959 750 1161 570 
Q 1363 391 1709 391 
Q 2188 391 2477 730 
Q 2766 1069 2766 1631 
L 2766 1759 
L 2194 1759 
z
M 3341 1997 
L 3341 0 
L 2766 0 
L 2766 531 
Q 2569 213 2275 61 
Q 1981 -91 1556 -91 
Q 1019 -91 701 211 
Q 384 513 384 1019 
Q 384 1609 779 1909 
Q 1175 2209 1959 2209 
L 2766 2209 
L 2766 2266 
Q 2766 2663 2505 2880 
Q 2244 3097 1772 3097 
Q 1472 3097 1187 3025 
Q 903 2953 641 2809 
L 641 3341 
Q 956 3463 1253 3523 
Q 1550 3584 1831 3584 
Q 2591 3584 2966 3190 
Q 3341 2797 3341 1997 
z
" transform="scale(0.015625)"/>
      <path id="DejaVuSans-75" d="M 544 1381 
L 544 3500 
L 1119 3500 
L 1119 1403 
Q 1119 906 1312 657 
Q 1506 409 1894 409 
Q 2359 409 2629 706 
Q 2900 1003 2900 1516 
L 2900 3500 
L 3475 3500 
L 3475 0 
L 2900 0 
L 2900 538 
Q 2691 219 2414 64 
Q 2138 -91 1772 -91 
Q 1169 -91 856 284 
Q 544 659 544 1381 
z
M 1991 3584 
L 1991 3584 
z
" transform="scale(0.015625)"/>
      <path id="DejaVuSans-6c" d="M 603 4863 
L 1178 4863 
L 1178 0 
L 603 0 
L 603 4863 
z
" transform="scale(0.015625)"/>
      <path id="DejaVuSans-6f" d="M 1959 3097 
Q 1497 3097 1228 2736 
Q 959 2375 959 1747 
Q 959 1119 1226 758 
Q 1494 397 1959 397 
Q 2419 397 2687 759 
Q 2956 1122 2956 1747 
Q 2956 2369 2687 2733 
Q 2419 3097 1959 3097 
z
M 1959 3584 
Q 2709 3584 3137 3096 
Q 3566 2609 3566 1747 
Q 3566 888 3137 398 
Q 2709 -91 1959 -91 
Q 1206 -91 779 398 
Q 353 888 353 1747 
Q 353 2609 779 3096 
Q 1206 3584 1959 3584 
z
" transform="scale(0.015625)"/>
     </defs>
     <use xlink:href="#DejaVuSans-4e"/>
     <use xlink:href="#DejaVuSans-4d" transform="translate(74.804688 0)"/>
     <use xlink:href="#DejaVuSans-4f" transform="translate(161.083984 0)"/>
     <use xlink:href="#DejaVuSans-53" transform="translate(239.794922 0)"/>
     <use xlink:href="#DejaVuSans-20" transform="translate(303.271484 0)"/>
     <use xlink:href="#DejaVuSans-73" transform="translate(335.058594 0)"/>
     <use xlink:href="#DejaVuSans-77" transform="translate(387.158203 0)"/>
     <use xlink:href="#DejaVuSans-69" transform="translate(468.945312 0)"/>
     <use xlink:href="#DejaVuSans-74" transform="translate(496.728516 0)"/>
     <use xlink:href="#DejaVuSans-63" transform="translate(535.9375 0)"/>
     <use xlink:href="#DejaVuSans-68" transform="translate(590.917969 0)"/>
     <use xlink:href="#DejaVuSans-65" transform="translate(654.296875 0)"/>
     <use xlink:href="#DejaVuSans-73" transform="translate(715.820312 0)"/>
     <use xlink:href="#DejaVuSans-3a" transform="translate(767.919922 0)"/>
     <use xlink:href="#DejaVuSans-20" transform="translate(801.611328 0)"/>
     <use xlink:href="#DejaVuSans-64" transform="translate(833.398438 0)"/>
     <use xlink:href="#DejaVuSans-5b" transform="translate(896.875 0)"/>
     <use xlink:href="#DejaVuSans-6e" transform="translate(935.888672 0)"/>
     <use xlink:href="#DejaVuSans-5d" transform="translate(999.267578 0)"/>
     <use xlink:href="#DejaVuSans-3d" transform="translate(1038.28125 0)"/>
     <use xlink:href="#DejaVuSans-31" transform="translate(1122.070312 0)"/>
     <use xlink:href="#DejaVuSans-20" transform="translate(1185.693359 0)"/>
     <use xlink:href="#DejaVuSans-2192" transform="translate(1217.480469 0)"/>
     <use xlink:href="#DejaVuSans-20" transform="translate(1301.269531 0)"/>
     <use xlink:href="#DejaVuSans-67" transform="translate(1333.056641 0)"/>
     <use xlink:href="#DejaVuSans-61" transform="translate(1396.533203 0)"/>
     <use xlink:href="#DejaVuSans-74" transform="translate(1457.8125 0)"/>
     <use xlink:href="#DejaVuSans-65" transform="translate(1497.021484 0)"/>
     <use xlink:href="#DejaVuSans-20" transform="translate(1558.544922 0)"/>
     <use xlink:href="#DejaVuSans-48" transform="translate(1590.332031 0)"/>
     <use xlink:href="#DejaVuSans-49" transform="translate(1665.527344 0)"/>
     <use xlink:href="#DejaVuSans-47" transform="translate(1695.019531 0)"/>
     <use xlink:href="#DejaVuSans-48" transform="translate(1772.509766 0)"/>
     <use xlink:href="#DejaVuSans-20" transform="translate(1847.705078 0)"/>
     <use xlink:href="#DejaVuSans-2192" transform="translate(1879.492188 0)"/>
     <use xlink:href="#DejaVuSans-20" transform="translate(1963.28125 0)"/>
     <use xlink:href="#DejaVuSans-4f" transform="translate(1995.068359 0)"/>
     <use xlink:href="#DejaVuSans-4e" transform="translate(2073.779297 0)"/>
     <use xlink:href="#DejaVuSans-20" transform="translate(2148.583984 0)"/>
     <use xlink:href="#DejaVuSans-2192" transform="translate(2180.371094 0)"/>
     <use xlink:href="#DejaVuSans-20" transform="translate(2264.160156 0)"/>
     <use xlink:href="#DejaVuSans-73" transform="translate(2295.947266 0)"/>
     <use xlink:href="#DejaVuSans-68" transform="translate(2348.046875 0)"/>
     <use xlink:href="#DejaVuSans-75" transform="translate(2411.425781 0)"/>
     <use xlink:href="#DejaVuSans-6e" transform="translate(2474.804688 0)"/>
     <use xlink:href="#DejaVuSans-74" transform="translate(2538.183594 0)"/>
     <use xlink:href="#DejaVuSans-20" transform="translate(2577.392578 0)"/>
     <use xlink:href="#DejaVuSans-6c" transform="translate(2609.179688 0)"/>
     <use xlink:href="#DejaVuSans-65" transform="translate(2636.962891 0)"/>
     <use xlink:href="#DejaVuSans-67" transform="translate(2698.486328 0)"/>
     <use xlink:href="#DejaVuSans-20" transform="translate(2761.962891 0)"/>
     <use xlink:href="#DejaVuSans-74" transform="translate(2793.75 0)"/>
     <use xlink:href="#DejaVuSans-6f" transform="translate(2832.958984 0)"/>
     <use xlink:href="#DejaVuSans-20" transform="translate(2894.140625 0)"/>
     <use xlink:href="#DejaVuSans-56" transform="translate(2925.927734 0)"/>
     <use xlink:href="#DejaVuSans-53" transform="translate(2994.335938 0)"/>
     <use xlink:href="#DejaVuSans-53" transform="translate(3057.8125 0)"/>
    </g>
   </g>
   <g id="text_29">
    <!-- Gate contact: GatPoly ext → Cont → M1 → Via1 → M2 digital input -->
    <g style="fill: #0000ff" transform="translate(354.185547 366.411562) scale(0.07 -0.07)">
     <defs>
      <path id="DejaVuSans-79" d="M 2059 -325 
Q 1816 -950 1584 -1140 
Q 1353 -1331 966 -1331 
L 506 -1331 
L 506 -850 
L 844 -850 
Q 1081 -850 1212 -737 
Q 1344 -625 1503 -206 
L 1606 56 
L 191 3500 
L 800 3500 
L 1894 763 
L 2988 3500 
L 3597 3500 
L 2059 -325 
z
" transform="scale(0.015625)"/>
      <path id="DejaVuSans-78" d="M 3513 3500 
L 2247 1797 
L 3578 0 
L 2900 0 
L 1881 1375 
L 863 0 
L 184 0 
L 1544 1831 
L 300 3500 
L 978 3500 
L 1906 2253 
L 2834 3500 
L 3513 3500 
z
" transform="scale(0.015625)"/>
      <path id="DejaVuSans-70" d="M 1159 525 
L 1159 -1331 
L 581 -1331 
L 581 3500 
L 1159 3500 
L 1159 2969 
Q 1341 3281 1617 3432 
Q 1894 3584 2278 3584 
Q 2916 3584 3314 3078 
Q 3713 2572 3713 1747 
Q 3713 922 3314 415 
Q 2916 -91 2278 -91 
Q 1894 -91 1617 61 
Q 1341 213 1159 525 
z
M 3116 1747 
Q 3116 2381 2855 2742 
Q 2594 3103 2138 3103 
Q 1681 3103 1420 2742 
Q 1159 2381 1159 1747 
Q 1159 1113 1420 752 
Q 1681 391 2138 391 
Q 2594 391 2855 752 
Q 3116 1113 3116 1747 
z
" transform="scale(0.015625)"/>
     </defs>
     <use xlink:href="#DejaVuSans-47"/>
     <use xlink:href="#DejaVuSans-61" transform="translate(77.490234 0)"/>
     <use xlink:href="#DejaVuSans-74" transform="translate(138.769531 0)"/>
     <use xlink:href="#DejaVuSans-65" transform="translate(177.978516 0)"/>
     <use xlink:href="#DejaVuSans-20" transform="translate(239.501953 0)"/>
     <use xlink:href="#DejaVuSans-63" transform="translate(271.289062 0)"/>
     <use xlink:href="#DejaVuSans-6f" transform="translate(326.269531 0)"/>
     <use xlink:href="#DejaVuSans-6e" transform="translate(387.451172 0)"/>
     <use xlink:href="#DejaVuSans-74" transform="translate(450.830078 0)"/>
     <use xlink:href="#DejaVuSans-61" transform="translate(490.039062 0)"/>
     <use xlink:href="#DejaVuSans-63" transform="translate(551.318359 0)"/>
     <use xlink:href="#DejaVuSans-74" transform="translate(606.298828 0)"/>
     <use xlink:href="#DejaVuSans-3a" transform="translate(645.507812 0)"/>
     <use xlink:href="#DejaVuSans-20" transform="translate(679.199219 0)"/>
     <use xlink:href="#DejaVuSans-47" transform="translate(710.986328 0)"/>
     <use xlink:href="#DejaVuSans-61" transform="translate(788.476562 0)"/>
     <use xlink:href="#DejaVuSans-74" transform="translate(849.755859 0)"/>
     <use xlink:href="#DejaVuSans-50" transform="translate(888.964844 0)"/>
     <use xlink:href="#DejaVuSans-6f" transform="translate(945.642578 0)"/>
     <use xlink:href="#DejaVuSans-6c" transform="translate(1006.824219 0)"/>
     <use xlink:href="#DejaVuSans-79" transform="translate(1034.607422 0)"/>
     <use xlink:href="#DejaVuSans-20" transform="translate(1093.787109 0)"/>
     <use xlink:href="#DejaVuSans-65" transform="translate(1125.574219 0)"/>
     <use xlink:href="#DejaVuSans-78" transform="translate(1185.347656 0)"/>
     <use xlink:href="#DejaVuSans-74" transform="translate(1244.527344 0)"/>
     <use xlink:href="#DejaVuSans-20" transform="translate(1283.736328 0)"/>
     <use xlink:href="#DejaVuSans-2192" transform="translate(1315.523438 0)"/>
     <use xlink:href="#DejaVuSans-20" transform="translate(1399.3125 0)"/>
     <use xlink:href="#DejaVuSans-43" transform="translate(1431.099609 0)"/>
     <use xlink:href="#DejaVuSans-6f" transform="translate(1500.923828 0)"/>
     <use xlink:href="#DejaVuSans-6e" transform="translate(1562.105469 0)"/>
     <use xlink:href="#DejaVuSans-74" transform="translate(1625.484375 0)"/>
     <use xlink:href="#DejaVuSans-20" transform="translate(1664.693359 0)"/>
     <use xlink:href="#DejaVuSans-2192" transform="translate(1696.480469 0)"/>
     <use xlink:href="#DejaVuSans-20" transform="translate(1780.269531 0)"/>
     <use xlink:href="#DejaVuSans-4d" transform="translate(1812.056641 0)"/>
     <use xlink:href="#DejaVuSans-31" transform="translate(1898.335938 0)"/>
     <use xlink:href="#DejaVuSans-20" transform="translate(1961.958984 0)"/>
     <use xlink:href="#DejaVuSans-2192" transform="translate(1993.746094 0)"/>
     <use xlink:href="#DejaVuSans-20" transform="translate(2077.535156 0)"/>
     <use xlink:href="#DejaVuSans-56" transform="translate(2109.322266 0)"/>
     <use xlink:href="#DejaVuSans-69" transform="translate(2175.480469 0)"/>
     <use xlink:href="#DejaVuSans-61" transform="translate(2203.263672 0)"/>
     <use xlink:href="#DejaVuSans-31" transform="translate(2264.542969 0)"/>
     <use xlink:href="#DejaVuSans-20" transform="translate(2328.166016 0)"/>
     <use xlink:href="#DejaVuSans-2192" transform="translate(2359.953125 0)"/>
     <use xlink:href="#DejaVuSans-20" transform="translate(2443.742188 0)"/>
     <use xlink:href="#DejaVuSans-4d" transform="translate(2475.529297 0)"/>
     <use xlink:href="#DejaVuSans-32" transform="translate(2561.808594 0)"/>
     <use xlink:href="#DejaVuSans-20" transform="translate(2625.431641 0)"/>
     <use xlink:href="#DejaVuSans-64" transform="translate(2657.21875 0)"/>
     <use xlink:href="#DejaVuSans-69" transform="translate(2720.695312 0)"/>
     <use xlink:href="#DejaVuSans-67" transform="translate(2748.478516 0)"/>
     <use xlink:href="#DejaVuSans-69" transform="translate(2811.955078 0)"/>
     <use xlink:href="#DejaVuSans-74" transform="translate(2839.738281 0)"/>
     <use xlink:href="#DejaVuSans-61" transform="translate(2878.947266 0)"/>
     <use xlink:href="#DejaVuSans-6c" transform="translate(2940.226562 0)"/>
     <use xlink:href="#DejaVuSans-20" transform="translate(2968.009766 0)"/>
     <use xlink:href="#DejaVuSans-69" transform="translate(2999.796875 0)"/>
     <use xlink:href="#DejaVuSans-6e" transform="translate(3027.580078 0)"/>
     <use xlink:href="#DejaVuSans-70" transform="translate(3090.958984 0)"/>
     <use xlink:href="#DejaVuSans-75" transform="translate(3154.435547 0)"/>
     <use xlink:href="#DejaVuSans-74" transform="translate(3217.814453 0)"/>
    </g>
   </g>
   <g id="patch_18">
    <path d="M 32.58 107.98 
C 33.296048 107.98 33.982866 107.695511 34.489188 107.189188 
C 34.995511 106.682866 35.28 105.996048 35.28 105.28 
C 35.28 104.563952 34.995511 103.877134 34.489188 103.370812 
C 33.982866 102.864489 33.296048 102.58 32.58 102.58 
C 31.863952 102.58 31.177134 102.864489 30.670812 103.370812 
C 30.164489 103.877134 29.88 104.563952 29.88 105.28 
C 29.88 105.996048 30.164489 106.682866 30.670812 107.189188 
C 31.177134 107.695511 31.863952 107.98 32.58 107.98 
z
" clip-path="url(#p8b75bc4f35)" style="stroke: #000000; stroke-width: 2; stroke-linejoin: miter"/>
   </g>
   <g id="patch_19">
    <path d="M 140.58 107.98 
C 141.296048 107.98 141.982866 107.695511 142.489188 107.189188 
C 142.995511 106.682866 143.28 105.996048 143.28 105.28 
C 143.28 104.563952 142.995511 103.877134 142.489188 103.370812 
C 141.982866 102.864489 141.296048 102.58 140.58 102.58 
C 139.863952 102.58 139.177134 102.864489 138.670812 103.370812 
C 138.164489 103.877134 137.88 104.563952 137.88 105.28 
C 137.88 105.996048 138.164489 106.682866 138.670812 107.189188 
C 139.177134 107.695511 139.863952 107.98 140.58 107.98 
z
" clip-path="url(#p8b75bc4f35)" style="stroke: #000000; stroke-width: 2; stroke-linejoin: miter"/>
   </g>
   <g id="patch_20">
    <path d="M 248.58 107.98 
C 249.296048 107.98 249.982866 107.695511 250.489188 107.189188 
C 250.995511 106.682866 251.28 105.996048 251.28 105.28 
C 251.28 104.563952 250.995511 103.877134 250.489188 103.370812 
C 249.982866 102.864489 249.296048 102.58 248.58 102.58 
C 247.863952 102.58 247.177134 102.864489 246.670812 103.370812 
C 246.164489 103.877134 245.88 104.563952 245.88 105.28 
C 245.88 105.996048 246.164489 106.682866 246.670812 107.189188 
C 247.177134 107.695511 247.863952 107.98 248.58 107.98 
z
" clip-path="url(#p8b75bc4f35)" style="stroke: #000000; stroke-width: 2; stroke-linejoin: miter"/>
   </g>
   <g id="patch_21">
    <path d="M 356.58 107.98 
C 357.296048 107.98 357.982866 107.695511 358.489188 107.189188 
C 358.995511 106.682866 359.28 105.996048 359.28 105.28 
C 359.28 104.563952 358.995511 103.877134 358.489188 103.370812 
C 357.982866 102.864489 357.296048 102.58 356.58 102.58 
C 355.863952 102.58 355.177134 102.864489 354.670812 103.370812 
C 354.164489 103.877134 353.88 104.563952 353.88 105.28 
C 353.88 105.996048 354.164489 106.682866 354.670812 107.189188 
C 355.177134 107.695511 355.863952 107.98 356.58 107.98 
z
" clip-path="url(#p8b75bc4f35)" style="stroke: #000000; stroke-width: 2; stroke-linejoin: miter"/>
   </g>
   <g id="patch_22">
    <path d="M 464.58 107.98 
C 465.296048 107.98 465.982866 107.695511 466.489188 107.189188 
C 466.995511 106.682866 467.28 105.996048 467.28 105.28 
C 467.28 104.563952 466.995511 103.877134 466.489188 103.370812 
C 465.982866 102.864489 465.296048 102.58 464.58 102.58 
C 463.863952 102.58 463.177134 102.864489 462.670812 103.370812 
C 462.164489 103.877134 461.88 104.563952 461.88 105.28 
C 461.88 105.996048 462.164489 106.682866 462.670812 107.189188 
C 463.177134 107.695511 463.863952 107.98 464.58 107.98 
z
" clip-path="url(#p8b75bc4f35)" style="stroke: #000000; stroke-width: 2; stroke-linejoin: miter"/>
   </g>
   <g id="patch_23">
    <path d="M 572.58 107.98 
C 573.296048 107.98 573.982866 107.695511 574.489188 107.189188 
C 574.995511 106.682866 575.28 105.996048 575.28 105.28 
C 575.28 104.563952 574.995511 103.877134 574.489188 103.370812 
C 573.982866 102.864489 573.296048 102.58 572.58 102.58 
C 571.863952 102.58 571.177134 102.864489 570.670812 103.370812 
C 570.164489 103.877134 569.88 104.563952 569.88 105.28 
C 569.88 105.996048 570.164489 106.682866 570.670812 107.189188 
C 571.177134 107.695511 571.863952 107.98 572.58 107.98 
z
" clip-path="url(#p8b75bc4f35)" style="stroke: #000000; stroke-width: 2; stroke-linejoin: miter"/>
   </g>
   <g id="patch_24">
    <path d="M 680.58 107.98 
C 681.296048 107.98 681.982866 107.695511 682.489188 107.189188 
C 682.995511 106.682866 683.28 105.996048 683.28 105.28 
C 683.28 104.563952 682.995511 103.877134 682.489188 103.370812 
C 681.982866 102.864489 681.296048 102.58 680.58 102.58 
C 679.863952 102.58 679.177134 102.864489 678.670812 103.370812 
C 678.164489 103.877134 677.88 104.563952 677.88 105.28 
C 677.88 105.996048 678.164489 106.682866 678.670812 107.189188 
C 679.177134 107.695511 679.863952 107.98 680.58 107.98 
z
" clip-path="url(#p8b75bc4f35)" style="stroke: #000000; stroke-width: 2; stroke-linejoin: miter"/>
   </g>
   <g id="patch_25">
    <path d="M 788.58 107.98 
C 789.296048 107.98 789.982866 107.695511 790.489188 107.189188 
C 790.995511 106.682866 791.28 105.996048 791.28 105.28 
C 791.28 104.563952 790.995511 103.877134 790.489188 103.370812 
C 789.982866 102.864489 789.296048 102.58 788.58 102.58 
C 787.863952 102.58 787.177134 102.864489 786.670812 103.370812 
C 786.164489 103.877134 785.88 104.563952 785.88 105.28 
C 785.88 105.996048 786.164489 106.682866 786.670812 107.189188 
C 787.177134 107.695511 787.863952 107.98 788.58 107.98 
z
" clip-path="url(#p8b75bc4f35)" style="stroke: #000000; stroke-width: 2; stroke-linejoin: miter"/>
   </g>
   <g id="patch_26">
    <path d="M 896.58 107.98 
C 897.296048 107.98 897.982866 107.695511 898.489188 107.189188 
C 898.995511 106.682866 899.28 105.996048 899.28 105.28 
C 899.28 104.563952 898.995511 103.877134 898.489188 103.370812 
C 897.982866 102.864489 897.296048 102.58 896.58 102.58 
C 895.863952 102.58 895.177134 102.864489 894.670812 103.370812 
C 894.164489 103.877134 893.88 104.563952 893.88 105.28 
C 893.88 105.996048 894.164489 106.682866 894.670812 107.189188 
C 895.177134 107.695511 895.863952 107.98 896.58 107.98 
z
" clip-path="url(#p8b75bc4f35)" style="stroke: #000000; stroke-width: 2; stroke-linejoin: miter"/>
   </g>
   <g id="patch_27">
    <path d="M 950.58 107.98 
C 951.296048 107.98 951.982866 107.695511 952.489188 107.189188 
C 952.995511 106.682866 953.28 105.996048 953.28 105.28 
C 953.28 104.563952 952.995511 103.877134 952.489188 103.370812 
C 951.982866 102.864489 951.296048 102.58 950.58 102.58 
C 949.863952 102.58 949.177134 102.864489 948.670812 103.370812 
C 948.164489 103.877134 947.88 104.563952 947.88 105.28 
C 947.88 105.996048 948.164489 106.682866 948.670812 107.189188 
C 949.177134 107.695511 949.863952 107.98 950.58 107.98 
z
" clip-path="url(#p8b75bc4f35)" style="stroke: #000000; stroke-width: 2; stroke-linejoin: miter"/>
   </g>
   <g id="text_30">
    <!-- Vout -->
    <g transform="translate(956.88 108.315312) scale(0.11 -0.11)">
     <use xlink:href="#DejaVuSans-56"/>
     <use xlink:href="#DejaVuSans-6f" transform="translate(60.658203 0)"/>
     <use xlink:href="#DejaVuSans-75" transform="translate(121.839844 0)"/>
     <use xlink:href="#DejaVuSans-74" transform="translate(185.21875 0)"/>
    </g>
   </g>
  </g>
 </g>
 <defs>
  <clipPath id="p8b75bc4f35">
   <rect x="0" y="-0" width="984.792" height="372.66"/>
  </clipPath>
 </defs>
</svg>
