<?xml version="1.0" encoding="utf-8" standalone="no"?>
<!DOCTYPE svg PUBLIC "-//W3C//DTD SVG 1.1//EN"
  "http://www.w3.org/Graphics/SVG/1.1/DTD/svg11.dtd">
<svg xmlns:xlink="http://www.w3.org/1999/xlink" width="628.571875pt" height="376.56pt" viewBox="0 0 628.571875 376.56" xmlns="http://www.w3.org/2000/svg" version="1.1">
 <metadata>
  <rdf:RDF xmlns:dc="http://purl.org/dc/elements/1.1/" xmlns:cc="http://creativecommons.org/ns#" xmlns:rdf="http://www.w3.org/1999/02/22-rdf-syntax-ns#">
   <cc:Work>
    <dc:type rdf:resource="http://purl.org/dc/dcmitype/StillImage"/>
    <dc:date>2026-03-01T17:04:30.017477</dc:date>
    <dc:format>image/svg+xml</dc:format>
    <dc:creator>
     <cc:Agent>
      <dc:title>Matplotlib v3.10.0, https://matplotlib.org/</dc:title>
     </cc:Agent>
    </dc:creator>
   </cc:Work>
  </rdf:RDF>
 </metadata>
 <defs>
  <style type="text/css">*{stroke-linejoin: round; stroke-linecap: butt}</style>
 </defs>
 <g id="figure_1">
  <g id="patch_1">
   <path d="M -0 376.56 
L 628.571875 376.56 
L 628.571875 0 
L -0 0 
L -0 376.56 
z
" style="fill: none"/>
  </g>
  <g id="axes_1">
   <g id="patch_2">
    <path d="M 89.917475 9.172044 
C 103.626228 239.399976 107.65 328.68 161.65 328.68 
" clip-path="url(#p4d9c637eb7)" style="fill: none; stroke: #000000; stroke-width: 2; stroke-linejoin: miter; stroke-linecap: round"/>
   </g>
   <g id="patch_3">
    <path d="M 86.591316 13.878068 
L 89.65 4.68 
L 93.778586 13.450107 
z
" clip-path="url(#p4d9c637eb7)"/>
   </g>
   <g id="patch_4">
    <path d="M 89.939944 34.370649 
C 103.626228 246.343978 107.65 328.68 161.65 328.68 
" clip-path="url(#p4d9c637eb7)" style="fill: none; stroke: #808080; stroke-width: 2; stroke-linejoin: miter; stroke-linecap: round"/>
   </g>
   <g id="patch_5">
    <path d="M 86.637368 39.093254 
L 89.65 29.88 
L 93.822407 38.629344 
z
" clip-path="url(#p4d9c637eb7)" style="fill: #808080"/>
   </g>
   <g id="patch_6">
    <path d="M 197.306499 207.166871 
C 190.661886 293.959991 188.65 328.68 161.65 328.68 
" clip-path="url(#p4d9c637eb7)" style="fill: none; stroke: #0000ff; stroke-width: 2; stroke-linejoin: miter; stroke-linecap: round"/>
   </g>
   <g id="patch_7">
    <path d="M 193.373502 211.37894 
L 197.65 202.68 
L 200.552495 211.928542 
z
" clip-path="url(#p4d9c637eb7)" style="fill: #0000ff"/>
   </g>
   <g id="patch_8">
    <path d="M 430.105629 134.906691 
C 379.239143 274.119985 364.15 328.68 161.65 328.68 
" clip-path="url(#p4d9c637eb7)" style="fill: none; stroke: #000000; stroke-width: 2; stroke-linejoin: miter; stroke-linecap: round"/>
   </g>
   <g id="patch_9">
    <path d="M 425.179906 137.897886 
L 431.65 130.68 
L 431.942612 140.368879 
z
" clip-path="url(#p4d9c637eb7)"/>
   </g>
   <g id="patch_10">
    <path d="M 429.912146 160.030887 
C 379.239143 281.063987 364.15 328.68 161.65 328.68 
" clip-path="url(#p4d9c637eb7)" style="fill: none; stroke: #000000; stroke-width: 2; stroke-linejoin: miter; stroke-linecap: round"/>
   </g>
   <g id="patch_11">
    <path d="M 424.853582 162.79149 
L 431.65 155.88 
L 431.495001 165.572057 
z
" clip-path="url(#p4d9c637eb7)"/>
   </g>
   <g id="patch_12">
    <path d="M 429.66944 185.120715 
C 379.239143 288.007989 364.15 328.68 161.65 328.68 
" clip-path="url(#p4d9c637eb7)" style="fill: none; stroke: #808080; stroke-width: 2; stroke-linejoin: miter; stroke-linecap: round"/>
   </g>
   <g id="patch_13">
    <path d="M 424.456307 187.576982 
L 431.65 181.08 
L 430.921451 190.745879 
z
" clip-path="url(#p4d9c637eb7)" style="fill: #808080"/>
   </g>
   <g id="patch_14">
    <path d="M 303.524436 260.646356 
C 277.697543 308.839995 269.65 328.68 161.65 328.68 
" clip-path="url(#p4d9c637eb7)" style="fill: none; stroke: #000000; stroke-width: 2; stroke-linejoin: miter; stroke-linecap: round"/>
   </g>
   <g id="patch_15">
    <path d="M 298.225788 262.912261 
L 305.65 256.68 
L 304.571957 266.313163 
z
" clip-path="url(#p4d9c637eb7)"/>
   </g>
   <g id="patch_16">
    <path d="M 151.564291 342.237052 
C 152.946434 333.640001 153.55 328.68 161.65 328.68 
" clip-path="url(#p4d9c637eb7)" style="fill: none; stroke: #0000ff; stroke-width: 2; stroke-linejoin: miter; stroke-linecap: round"/>
   </g>
   <g id="patch_17">
    <path d="M 155.83294 338.365536 
L 150.85 346.68 
L 148.724223 337.222671 
z
" clip-path="url(#p4d9c637eb7)" style="fill: #0000ff"/>
   </g>
   <g id="patch_18">
    <path d="M 198.964802 342.80342 
C 193.563074 333.640001 191.35 328.68 161.65 328.68 
" clip-path="url(#p4d9c637eb7)" style="fill: none; stroke: #0000ff; stroke-width: 2; stroke-linejoin: miter; stroke-linecap: round"/>
   </g>
   <g id="patch_19">
    <path d="M 199.780868 337.098682 
L 201.25 346.68 
L 193.57834 340.754999 
z
" clip-path="url(#p4d9c637eb7)" style="fill: #0000ff"/>
   </g>
   <g id="patch_20">
    <path d="M 248.043796 343.988292 
C 234.179714 333.640001 229.15 328.68 161.65 328.68 
" clip-path="url(#p4d9c637eb7)" style="fill: none; stroke: #0000ff; stroke-width: 2; stroke-linejoin: miter; stroke-linecap: round"/>
   </g>
   <g id="patch_21">
    <path d="M 246.590957 338.411621 
L 251.65 346.68 
L 242.284225 344.181548 
z
" clip-path="url(#p4d9c637eb7)" style="fill: #0000ff"/>
   </g>
   <g id="patch_22">
    <path d="M 297.990723 344.737766 
C 274.796355 333.640001 266.95 328.68 161.65 328.68 
" clip-path="url(#p4d9c637eb7)" style="fill: none; stroke: #0000ff; stroke-width: 2; stroke-linejoin: miter; stroke-linecap: round"/>
   </g>
   <g id="patch_23">
    <path d="M 295.485234 339.54811 
L 302.05 346.68 
L 292.377659 346.042953 
z
" clip-path="url(#p4d9c637eb7)" style="fill: #0000ff"/>
   </g>
   <g id="patch_24">
    <path d="M 348.205398 345.185559 
C 315.412995 333.640001 304.75 328.68 161.65 328.68 
" clip-path="url(#p4d9c637eb7)" style="fill: none; stroke: #0000ff; stroke-width: 2; stroke-linejoin: miter; stroke-linecap: round"/>
   </g>
   <g id="patch_25">
    <path d="M 345.156348 340.295437 
L 352.45 346.68 
L 342.765243 347.0868 
z
" clip-path="url(#p4d9c637eb7)" style="fill: #0000ff"/>
   </g>
   <g id="patch_26">
    <path d="M 398.51499 345.472651 
C 356.029635 333.640001 342.55 328.68 161.65 328.68 
" clip-path="url(#p4d9c637eb7)" style="fill: none; stroke: #0000ff; stroke-width: 2; stroke-linejoin: miter; stroke-linecap: round"/>
   </g>
   <g id="patch_27">
    <path d="M 395.14586 340.797294 
L 402.85 346.68 
L 393.214102 347.73331 
z
" clip-path="url(#p4d9c637eb7)" style="fill: #0000ff"/>
   </g>
   <g id="patch_28">
    <path d="M 448.86486 345.66978 
C 396.646275 333.640001 380.35 328.68 161.65 328.68 
" clip-path="url(#p4d9c637eb7)" style="fill: none; stroke: #0000ff; stroke-width: 2; stroke-linejoin: miter; stroke-linecap: round"/>
   </g>
   <g id="patch_29">
    <path d="M 445.287896 341.151447 
L 453.25 346.68 
L 443.671543 348.167672 
z
" clip-path="url(#p4d9c637eb7)" style="fill: #0000ff"/>
   </g>
   <g id="patch_30">
    <path d="M 499.234376 345.812667 
C 437.262915 333.640001 418.15 328.68 161.65 328.68 
" clip-path="url(#p4d9c637eb7)" style="fill: none; stroke: #0000ff; stroke-width: 2; stroke-linejoin: miter; stroke-linecap: round"/>
   </g>
   <g id="patch_31">
    <path d="M 495.512619 341.412834 
L 503.65 346.68 
L 494.124886 348.477832 
z
" clip-path="url(#p4d9c637eb7)" style="fill: #0000ff"/>
   </g>
   <g id="patch_32">
    <path d="M 549.614527 345.920669 
C 477.879555 333.640001 455.95 328.68 161.65 328.68 
" clip-path="url(#p4d9c637eb7)" style="fill: none; stroke: #0000ff; stroke-width: 2; stroke-linejoin: miter; stroke-linecap: round"/>
   </g>
   <g id="patch_33">
    <path d="M 545.786519 341.612961 
L 554.05 346.68 
L 544.57159 348.709717 
z
" clip-path="url(#p4d9c637eb7)" style="fill: #0000ff"/>
   </g>
   <g id="patch_34">
    <path d="M 161.65 367.38 
C 161.65 340.584003 161.65 328.68 161.65 328.68 
" clip-path="url(#p4d9c637eb7)" style="fill: none; stroke: #808080; stroke-width: 2; stroke-linejoin: miter; stroke-linecap: round"/>
   </g>
   <g id="patch_35">
    <path d="M 165.25 362.88 
L 161.65 371.88 
L 158.05 362.88 
z
" clip-path="url(#p4d9c637eb7)" style="fill: #808080"/>
   </g>
   <g id="line2d_1">
    <path d="M 125.65 130.68 
L 161.65 130.68 
L 197.65 130.68 
" clip-path="url(#p4d9c637eb7)" style="fill: none; stroke: #000000; stroke-width: 2; stroke-linecap: round"/>
   </g>
   <g id="line2d_2">
    <path d="M 197.65 153.18 
L 197.65 108.18 
L 275.592286 153.18 
L 197.65 198.18 
L 197.65 153.18 
M 275.592286 153.18 
" clip-path="url(#p4d9c637eb7)" style="fill: none; stroke: #000000; stroke-width: 2; stroke-linecap: round"/>
   </g>
   <g id="line2d_3">
    <path d="M 203.792786 130.68 
L 210.992786 130.68 
" clip-path="url(#p4d9c637eb7)" style="fill: none; stroke: #000000; stroke-width: 2; stroke-linecap: round"/>
   </g>
   <g id="line2d_4">
    <path d="M 203.792786 175.68 
L 210.992786 175.68 
" clip-path="url(#p4d9c637eb7)" style="fill: none; stroke: #000000; stroke-width: 2; stroke-linecap: round"/>
   </g>
   <g id="line2d_5">
    <path d="M 207.392786 179.28 
L 207.392786 172.08 
" clip-path="url(#p4d9c637eb7)" style="fill: none; stroke: #000000; stroke-width: 2; stroke-linecap: round"/>
   </g>
   <g id="line2d_6">
    <path d="M 341.65 148.68 
L 377.65 148.68 
L 413.65 148.68 
" clip-path="url(#p4d9c637eb7)" style="fill: none; stroke: #000000; stroke-width: 2; stroke-linecap: round"/>
   </g>
   <g id="line2d_7">
    <path d="M 503.65 148.68 
L 539.65 148.68 
L 575.65 148.68 
" clip-path="url(#p4d9c637eb7)" style="fill: none; stroke: #000000; stroke-width: 2; stroke-linecap: round"/>
   </g>
   <g id="line2d_8">
    <path d="M 503.65 184.68 
L 539.65 184.68 
L 575.65 184.68 
" clip-path="url(#p4d9c637eb7)" style="fill: none; stroke: #000000; stroke-width: 2; stroke-linecap: round"/>
   </g>
   <g id="line2d_9">
    <path d="M 431.65 202.68 
L 431.65 220.68 
L 431.65 238.68 
" clip-path="url(#p4d9c637eb7)" style="fill: none; stroke: #000000; stroke-width: 2; stroke-linecap: round"/>
   </g>
   <g id="line2d_10">
    <path d="M 143.65 274.68 
L 357.85 274.68 
L 572.05 274.68 
" clip-path="url(#p4d9c637eb7)" style="fill: none; stroke: #000000; stroke-width: 2; stroke-linecap: round"/>
   </g>
   <g id="line2d_11">
    <path d="M 161.65 274.68 
L 161.65 298.44 
M 170.65 298.44 
L 152.65 298.44 
M 170.65 304.92 
L 152.65 304.92 
M 161.65 304.92 
L 161.65 328.68 
" clip-path="url(#p4d9c637eb7)" style="fill: none; stroke: #000000; stroke-width: 2; stroke-linecap: round"/>
   </g>
   <g id="line2d_12">
    <path d="M 161.65 328.68 
M 165.25 337.32 
L 177.85 357.48 
M 161.65 364.68 
" clip-path="url(#p4d9c637eb7)" style="fill: none; stroke: #000000; stroke-width: 2; stroke-linecap: round"/>
   </g>
   <g id="line2d_13">
    <path d="M 212.05 274.68 
L 212.05 298.44 
M 221.05 298.44 
L 203.05 298.44 
M 221.05 304.92 
L 203.05 304.92 
M 212.05 304.92 
L 212.05 328.68 
" clip-path="url(#p4d9c637eb7)" style="fill: none; stroke: #000000; stroke-width: 2; stroke-linecap: round"/>
   </g>
   <g id="line2d_14">
    <path d="M 212.05 328.68 
M 215.65 337.32 
L 228.25 357.48 
M 212.05 364.68 
" clip-path="url(#p4d9c637eb7)" style="fill: none; stroke: #000000; stroke-width: 2; stroke-linecap: round"/>
   </g>
   <g id="line2d_15">
    <path d="M 262.45 274.68 
L 262.45 298.44 
M 271.45 298.44 
L 253.45 298.44 
M 271.45 304.92 
L 253.45 304.92 
M 262.45 304.92 
L 262.45 328.68 
" clip-path="url(#p4d9c637eb7)" style="fill: none; stroke: #000000; stroke-width: 2; stroke-linecap: round"/>
   </g>
   <g id="line2d_16">
    <path d="M 262.45 328.68 
M 266.05 337.32 
L 278.65 357.48 
M 262.45 364.68 
" clip-path="url(#p4d9c637eb7)" style="fill: none; stroke: #000000; stroke-width: 2; stroke-linecap: round"/>
   </g>
   <g id="line2d_17">
    <path d="M 312.85 274.68 
L 312.85 298.44 
M 321.85 298.44 
L 303.85 298.44 
M 321.85 304.92 
L 303.85 304.92 
M 312.85 304.92 
L 312.85 328.68 
" clip-path="url(#p4d9c637eb7)" style="fill: none; stroke: #000000; stroke-width: 2; stroke-linecap: round"/>
   </g>
   <g id="line2d_18">
    <path d="M 312.85 328.68 
M 316.45 337.32 
L 329.05 357.48 
M 312.85 364.68 
" clip-path="url(#p4d9c637eb7)" style="fill: none; stroke: #000000; stroke-width: 2; stroke-linecap: round"/>
   </g>
   <g id="line2d_19">
    <path d="M 363.25 274.68 
L 363.25 298.44 
M 372.25 298.44 
L 354.25 298.44 
M 372.25 304.92 
L 354.25 304.92 
M 363.25 304.92 
L 363.25 328.68 
" clip-path="url(#p4d9c637eb7)" style="fill: none; stroke: #000000; stroke-width: 2; stroke-linecap: round"/>
   </g>
   <g id="line2d_20">
    <path d="M 363.25 328.68 
M 366.85 337.32 
L 379.45 357.48 
M 363.25 364.68 
" clip-path="url(#p4d9c637eb7)" style="fill: none; stroke: #000000; stroke-width: 2; stroke-linecap: round"/>
   </g>
   <g id="line2d_21">
    <path d="M 413.65 274.68 
L 413.65 298.44 
M 422.65 298.44 
L 404.65 298.44 
M 422.65 304.92 
L 404.65 304.92 
M 413.65 304.92 
L 413.65 328.68 
" clip-path="url(#p4d9c637eb7)" style="fill: none; stroke: #000000; stroke-width: 2; stroke-linecap: round"/>
   </g>
   <g id="line2d_22">
    <path d="M 413.65 328.68 
M 417.25 337.32 
L 429.85 357.48 
M 413.65 364.68 
" clip-path="url(#p4d9c637eb7)" style="fill: none; stroke: #000000; stroke-width: 2; stroke-linecap: round"/>
   </g>
   <g id="line2d_23">
    <path d="M 464.05 274.68 
L 464.05 298.44 
M 473.05 298.44 
L 455.05 298.44 
M 473.05 304.92 
L 455.05 304.92 
M 464.05 304.92 
L 464.05 328.68 
" clip-path="url(#p4d9c637eb7)" style="fill: none; stroke: #000000; stroke-width: 2; stroke-linecap: round"/>
   </g>
   <g id="line2d_24">
    <path d="M 464.05 328.68 
M 467.65 337.32 
L 480.25 357.48 
M 464.05 364.68 
" clip-path="url(#p4d9c637eb7)" style="fill: none; stroke: #000000; stroke-width: 2; stroke-linecap: round"/>
   </g>
   <g id="line2d_25">
    <path d="M 514.45 274.68 
L 514.45 298.44 
M 523.45 298.44 
L 505.45 298.44 
M 523.45 304.92 
L 505.45 304.92 
M 514.45 304.92 
L 514.45 328.68 
" clip-path="url(#p4d9c637eb7)" style="fill: none; stroke: #000000; stroke-width: 2; stroke-linecap: round"/>
   </g>
   <g id="line2d_26">
    <path d="M 514.45 328.68 
M 518.05 337.32 
L 530.65 357.48 
M 514.45 364.68 
" clip-path="url(#p4d9c637eb7)" style="fill: none; stroke: #000000; stroke-width: 2; stroke-linecap: round"/>
   </g>
   <g id="line2d_27">
    <path d="M 564.85 274.68 
L 564.85 298.44 
M 573.85 298.44 
L 555.85 298.44 
M 573.85 304.92 
L 555.85 304.92 
M 564.85 304.92 
L 564.85 328.68 
" clip-path="url(#p4d9c637eb7)" style="fill: none; stroke: #000000; stroke-width: 2; stroke-linecap: round"/>
   </g>
   <g id="line2d_28">
    <path d="M 564.85 328.68 
L 564.85 343.08 
L 555.85 343.08 
L 573.85 343.08 
M 558.55 347.4 
L 571.15 347.4 
M 563.05 351.72 
L 566.65 351.72 
" clip-path="url(#p4d9c637eb7)" style="fill: none; stroke: #000000; stroke-width: 2; stroke-linecap: round"/>
   </g>
   <g id="text_1">
    <!-- 8-bit SAR ADC -->
    <g transform="translate(165.25 332.543125) scale(0.14 -0.14)">
     <defs>
      <path id="DejaVuSans-38" d="M 2034 2216 
Q 1584 2216 1326 1975 
Q 1069 1734 1069 1313 
Q 1069 891 1326 650 
Q 1584 409 2034 409 
Q 2484 409 2743 651 
Q 3003 894 3003 1313 
Q 3003 1734 2745 1975 
Q 2488 2216 2034 2216 
z
M 1403 2484 
Q 997 2584 770 2862 
Q 544 3141 544 3541 
Q 544 4100 942 4425 
Q 1341 4750 2034 4750 
Q 2731 4750 3128 4425 
Q 3525 4100 3525 3541 
Q 3525 3141 3298 2862 
Q 3072 2584 2669 2484 
Q 3125 2378 3379 2068 
Q 3634 1759 3634 1313 
Q 3634 634 3220 271 
Q 2806 -91 2034 -91 
Q 1263 -91 848 271 
Q 434 634 434 1313 
Q 434 1759 690 2068 
Q 947 2378 1403 2484 
z
M 1172 3481 
Q 1172 3119 1398 2916 
Q 1625 2713 2034 2713 
Q 2441 2713 2670 2916 
Q 2900 3119 2900 3481 
Q 2900 3844 2670 4047 
Q 2441 4250 2034 4250 
Q 1625 4250 1398 4047 
Q 1172 3844 1172 3481 
z
" transform="scale(0.015625)"/>
      <path id="DejaVuSans-2d" d="M 313 2009 
L 1997 2009 
L 1997 1497 
L 313 1497 
L 313 2009 
z
" transform="scale(0.015625)"/>
      <path id="DejaVuSans-62" d="M 3116 1747 
Q 3116 2381 2855 2742 
Q 2594 3103 2138 3103 
Q 1681 3103 1420 2742 
Q 1159 2381 1159 1747 
Q 1159 1113 1420 752 
Q 1681 391 2138 391 
Q 2594 391 2855 752 
Q 3116 1113 3116 1747 
z
M 1159 2969 
Q 1341 3281 1617 3432 
Q 1894 3584 2278 3584 
Q 2916 3584 3314 3078 
Q 3713 2572 3713 1747 
Q 3713 922 3314 415 
Q 2916 -91 2278 -91 
Q 1894 -91 1617 61 
Q 1341 213 1159 525 
L 1159 0 
L 581 0 
L 581 4863 
L 1159 4863 
L 1159 2969 
z
" transform="scale(0.015625)"/>
      <path id="DejaVuSans-69" d="M 603 3500 
L 1178 3500 
L 1178 0 
L 603 0 
L 603 3500 
z
M 603 4863 
L 1178 4863 
L 1178 4134 
L 603 4134 
L 603 4863 
z
" transform="scale(0.015625)"/>
      <path id="DejaVuSans-74" d="M 1172 4494 
L 1172 3500 
L 2356 3500 
L 2356 3053 
L 1172 3053 
L 1172 1153 
Q 1172 725 1289 603 
Q 1406 481 1766 481 
L 2356 481 
L 2356 0 
L 1766 0 
Q 1100 0 847 248 
Q 594 497 594 1153 
L 594 3053 
L 172 3053 
L 172 3500 
L 594 3500 
L 594 4494 
L 1172 4494 
z
" transform="scale(0.015625)"/>
      <path id="DejaVuSans-20" transform="scale(0.015625)"/>
      <path id="DejaVuSans-53" d="M 3425 4513 
L 3425 3897 
Q 3066 4069 2747 4153 
Q 2428 4238 2131 4238 
Q 1616 4238 1336 4038 
Q 1056 3838 1056 3469 
Q 1056 3159 1242 3001 
Q 1428 2844 1947 2747 
L 2328 2669 
Q 3034 2534 3370 2195 
Q 3706 1856 3706 1288 
Q 3706 609 3251 259 
Q 2797 -91 1919 -91 
Q 1588 -91 1214 -16 
Q 841 59 441 206 
L 441 856 
Q 825 641 1194 531 
Q 1563 422 1919 422 
Q 2459 422 2753 634 
Q 3047 847 3047 1241 
Q 3047 1584 2836 1778 
Q 2625 1972 2144 2069 
L 1759 2144 
Q 1053 2284 737 2584 
Q 422 2884 422 3419 
Q 422 4038 858 4394 
Q 1294 4750 2059 4750 
Q 2388 4750 2728 4690 
Q 3069 4631 3425 4513 
z
" transform="scale(0.015625)"/>
      <path id="DejaVuSans-41" d="M 2188 4044 
L 1331 1722 
L 3047 1722 
L 2188 4044 
z
M 1831 4666 
L 2547 4666 
L 4325 0 
L 3669 0 
L 3244 1197 
L 1141 1197 
L 716 0 
L 50 0 
L 1831 4666 
z
" transform="scale(0.015625)"/>
      <path id="DejaVuSans-52" d="M 2841 2188 
Q 3044 2119 3236 1894 
Q 3428 1669 3622 1275 
L 4263 0 
L 3584 0 
L 2988 1197 
Q 2756 1666 2539 1819 
Q 2322 1972 1947 1972 
L 1259 1972 
L 1259 0 
L 628 0 
L 628 4666 
L 2053 4666 
Q 2853 4666 3247 4331 
Q 3641 3997 3641 3322 
Q 3641 2881 3436 2590 
Q 3231 2300 2841 2188 
z
M 1259 4147 
L 1259 2491 
L 2053 2491 
Q 2509 2491 2742 2702 
Q 2975 2913 2975 3322 
Q 2975 3731 2742 3939 
Q 2509 4147 2053 4147 
L 1259 4147 
z
" transform="scale(0.015625)"/>
      <path id="DejaVuSans-44" d="M 1259 4147 
L 1259 519 
L 2022 519 
Q 2988 519 3436 956 
Q 3884 1394 3884 2338 
Q 3884 3275 3436 3711 
Q 2988 4147 2022 4147 
L 1259 4147 
z
M 628 4666 
L 1925 4666 
Q 3281 4666 3915 4102 
Q 4550 3538 4550 2338 
Q 4550 1131 3912 565 
Q 3275 0 1925 0 
L 628 0 
L 628 4666 
z
" transform="scale(0.015625)"/>
      <path id="DejaVuSans-43" d="M 4122 4306 
L 4122 3641 
Q 3803 3938 3442 4084 
Q 3081 4231 2675 4231 
Q 1875 4231 1450 3742 
Q 1025 3253 1025 2328 
Q 1025 1406 1450 917 
Q 1875 428 2675 428 
Q 3081 428 3442 575 
Q 3803 722 4122 1019 
L 4122 359 
Q 3791 134 3420 21 
Q 3050 -91 2638 -91 
Q 1578 -91 968 557 
Q 359 1206 359 2328 
Q 359 3453 968 4101 
Q 1578 4750 2638 4750 
Q 3056 4750 3426 4639 
Q 3797 4528 4122 4306 
z
" transform="scale(0.015625)"/>
     </defs>
     <use xlink:href="#DejaVuSans-38"/>
     <use xlink:href="#DejaVuSans-2d" transform="translate(63.623047 0)"/>
     <use xlink:href="#DejaVuSans-62" transform="translate(99.707031 0)"/>
     <use xlink:href="#DejaVuSans-69" transform="translate(163.183594 0)"/>
     <use xlink:href="#DejaVuSans-74" transform="translate(190.966797 0)"/>
     <use xlink:href="#DejaVuSans-20" transform="translate(230.175781 0)"/>
     <use xlink:href="#DejaVuSans-53" transform="translate(261.962891 0)"/>
     <use xlink:href="#DejaVuSans-41" transform="translate(327.314453 0)"/>
     <use xlink:href="#DejaVuSans-52" transform="translate(395.722656 0)"/>
     <use xlink:href="#DejaVuSans-20" transform="translate(465.205078 0)"/>
     <use xlink:href="#DejaVuSans-41" transform="translate(496.992188 0)"/>
     <use xlink:href="#DejaVuSans-44" transform="translate(565.400391 0)"/>
     <use xlink:href="#DejaVuSans-43" transform="translate(642.402344 0)"/>
    </g>
   </g>
   <g id="text_2">
    <!-- IHP SG13G2 130nm — StrongARM comparator + binary-weighted cap DAC -->
    <g style="fill: #808080" transform="translate(165.25 331.163437) scale(0.09 -0.09)">
     <defs>
      <path id="DejaVuSans-49" d="M 628 4666 
L 1259 4666 
L 1259 0 
L 628 0 
L 628 4666 
z
" transform="scale(0.015625)"/>
      <path id="DejaVuSans-48" d="M 628 4666 
L 1259 4666 
L 1259 2753 
L 3553 2753 
L 3553 4666 
L 4184 4666 
L 4184 0 
L 3553 0 
L 3553 2222 
L 1259 2222 
L 1259 0 
L 628 0 
L 628 4666 
z
" transform="scale(0.015625)"/>
      <path id="DejaVuSans-50" d="M 1259 4147 
L 1259 2394 
L 2053 2394 
Q 2494 2394 2734 2622 
Q 2975 2850 2975 3272 
Q 2975 3691 2734 3919 
Q 2494 4147 2053 4147 
L 1259 4147 
z
M 628 4666 
L 2053 4666 
Q 2838 4666 3239 4311 
Q 3641 3956 3641 3272 
Q 3641 2581 3239 2228 
Q 2838 1875 2053 1875 
L 1259 1875 
L 1259 0 
L 628 0 
L 628 4666 
z
" transform="scale(0.015625)"/>
      <path id="DejaVuSans-47" d="M 3809 666 
L 3809 1919 
L 2778 1919 
L 2778 2438 
L 4434 2438 
L 4434 434 
Q 4069 175 3628 42 
Q 3188 -91 2688 -91 
Q 1594 -91 976 548 
Q 359 1188 359 2328 
Q 359 3472 976 4111 
Q 1594 4750 2688 4750 
Q 3144 4750 3555 4637 
Q 3966 4525 4313 4306 
L 4313 3634 
Q 3963 3931 3569 4081 
Q 3175 4231 2741 4231 
Q 1884 4231 1454 3753 
Q 1025 3275 1025 2328 
Q 1025 1384 1454 906 
Q 1884 428 2741 428 
Q 3075 428 3337 486 
Q 3600 544 3809 666 
z
" transform="scale(0.015625)"/>
      <path id="DejaVuSans-31" d="M 794 531 
L 1825 531 
L 1825 4091 
L 703 3866 
L 703 4441 
L 1819 4666 
L 2450 4666 
L 2450 531 
L 3481 531 
L 3481 0 
L 794 0 
L 794 531 
z
" transform="scale(0.015625)"/>
      <path id="DejaVuSans-33" d="M 2597 2516 
Q 3050 2419 3304 2112 
Q 3559 1806 3559 1356 
Q 3559 666 3084 287 
Q 2609 -91 1734 -91 
Q 1441 -91 1130 -33 
Q 819 25 488 141 
L 488 750 
Q 750 597 1062 519 
Q 1375 441 1716 441 
Q 2309 441 2620 675 
Q 2931 909 2931 1356 
Q 2931 1769 2642 2001 
Q 2353 2234 1838 2234 
L 1294 2234 
L 1294 2753 
L 1863 2753 
Q 2328 2753 2575 2939 
Q 2822 3125 2822 3475 
Q 2822 3834 2567 4026 
Q 2313 4219 1838 4219 
Q 1578 4219 1281 4162 
Q 984 4106 628 3988 
L 628 4550 
Q 988 4650 1302 4700 
Q 1616 4750 1894 4750 
Q 2613 4750 3031 4423 
Q 3450 4097 3450 3541 
Q 3450 3153 3228 2886 
Q 3006 2619 2597 2516 
z
" transform="scale(0.015625)"/>
      <path id="DejaVuSans-32" d="M 1228 531 
L 3431 531 
L 3431 0 
L 469 0 
L 469 531 
Q 828 903 1448 1529 
Q 2069 2156 2228 2338 
Q 2531 2678 2651 2914 
Q 2772 3150 2772 3378 
Q 2772 3750 2511 3984 
Q 2250 4219 1831 4219 
Q 1534 4219 1204 4116 
Q 875 4013 500 3803 
L 500 4441 
Q 881 4594 1212 4672 
Q 1544 4750 1819 4750 
Q 2544 4750 2975 4387 
Q 3406 4025 3406 3419 
Q 3406 3131 3298 2873 
Q 3191 2616 2906 2266 
Q 2828 2175 2409 1742 
Q 1991 1309 1228 531 
z
" transform="scale(0.015625)"/>
      <path id="DejaVuSans-30" d="M 2034 4250 
Q 1547 4250 1301 3770 
Q 1056 3291 1056 2328 
Q 1056 1369 1301 889 
Q 1547 409 2034 409 
Q 2525 409 2770 889 
Q 3016 1369 3016 2328 
Q 3016 3291 2770 3770 
Q 2525 4250 2034 4250 
z
M 2034 4750 
Q 2819 4750 3233 4129 
Q 3647 3509 3647 2328 
Q 3647 1150 3233 529 
Q 2819 -91 2034 -91 
Q 1250 -91 836 529 
Q 422 1150 422 2328 
Q 422 3509 836 4129 
Q 1250 4750 2034 4750 
z
" transform="scale(0.015625)"/>
      <path id="DejaVuSans-6e" d="M 3513 2113 
L 3513 0 
L 2938 0 
L 2938 2094 
Q 2938 2591 2744 2837 
Q 2550 3084 2163 3084 
Q 1697 3084 1428 2787 
Q 1159 2491 1159 1978 
L 1159 0 
L 581 0 
L 581 3500 
L 1159 3500 
L 1159 2956 
Q 1366 3272 1645 3428 
Q 1925 3584 2291 3584 
Q 2894 3584 3203 3211 
Q 3513 2838 3513 2113 
z
" transform="scale(0.015625)"/>
      <path id="DejaVuSans-6d" d="M 3328 2828 
Q 3544 3216 3844 3400 
Q 4144 3584 4550 3584 
Q 5097 3584 5394 3201 
Q 5691 2819 5691 2113 
L 5691 0 
L 5113 0 
L 5113 2094 
Q 5113 2597 4934 2840 
Q 4756 3084 4391 3084 
Q 3944 3084 3684 2787 
Q 3425 2491 3425 1978 
L 3425 0 
L 2847 0 
L 2847 2094 
Q 2847 2600 2669 2842 
Q 2491 3084 2119 3084 
Q 1678 3084 1418 2786 
Q 1159 2488 1159 1978 
L 1159 0 
L 581 0 
L 581 3500 
L 1159 3500 
L 1159 2956 
Q 1356 3278 1631 3431 
Q 1906 3584 2284 3584 
Q 2666 3584 2933 3390 
Q 3200 3197 3328 2828 
z
" transform="scale(0.015625)"/>
      <path id="DejaVuSans-2014" d="M 313 1978 
L 6088 1978 
L 6088 1528 
L 313 1528 
L 313 1978 
z
" transform="scale(0.015625)"/>
      <path id="DejaVuSans-72" d="M 2631 2963 
Q 2534 3019 2420 3045 
Q 2306 3072 2169 3072 
Q 1681 3072 1420 2755 
Q 1159 2438 1159 1844 
L 1159 0 
L 581 0 
L 581 3500 
L 1159 3500 
L 1159 2956 
Q 1341 3275 1631 3429 
Q 1922 3584 2338 3584 
Q 2397 3584 2469 3576 
Q 2541 3569 2628 3553 
L 2631 2963 
z
" transform="scale(0.015625)"/>
      <path id="DejaVuSans-6f" d="M 1959 3097 
Q 1497 3097 1228 2736 
Q 959 2375 959 1747 
Q 959 1119 1226 758 
Q 1494 397 1959 397 
Q 2419 397 2687 759 
Q 2956 1122 2956 1747 
Q 2956 2369 2687 2733 
Q 2419 3097 1959 3097 
z
M 1959 3584 
Q 2709 3584 3137 3096 
Q 3566 2609 3566 1747 
Q 3566 888 3137 398 
Q 2709 -91 1959 -91 
Q 1206 -91 779 398 
Q 353 888 353 1747 
Q 353 2609 779 3096 
Q 1206 3584 1959 3584 
z
" transform="scale(0.015625)"/>
      <path id="DejaVuSans-67" d="M 2906 1791 
Q 2906 2416 2648 2759 
Q 2391 3103 1925 3103 
Q 1463 3103 1205 2759 
Q 947 2416 947 1791 
Q 947 1169 1205 825 
Q 1463 481 1925 481 
Q 2391 481 2648 825 
Q 2906 1169 2906 1791 
z
M 3481 434 
Q 3481 -459 3084 -895 
Q 2688 -1331 1869 -1331 
Q 1566 -1331 1297 -1286 
Q 1028 -1241 775 -1147 
L 775 -588 
Q 1028 -725 1275 -790 
Q 1522 -856 1778 -856 
Q 2344 -856 2625 -561 
Q 2906 -266 2906 331 
L 2906 616 
Q 2728 306 2450 153 
Q 2172 0 1784 0 
Q 1141 0 747 490 
Q 353 981 353 1791 
Q 353 2603 747 3093 
Q 1141 3584 1784 3584 
Q 2172 3584 2450 3431 
Q 2728 3278 2906 2969 
L 2906 3500 
L 3481 3500 
L 3481 434 
z
" transform="scale(0.015625)"/>
      <path id="DejaVuSans-4d" d="M 628 4666 
L 1569 4666 
L 2759 1491 
L 3956 4666 
L 4897 4666 
L 4897 0 
L 4281 0 
L 4281 4097 
L 3078 897 
L 2444 897 
L 1241 4097 
L 1241 0 
L 628 0 
L 628 4666 
z
" transform="scale(0.015625)"/>
      <path id="DejaVuSans-63" d="M 3122 3366 
L 3122 2828 
Q 2878 2963 2633 3030 
Q 2388 3097 2138 3097 
Q 1578 3097 1268 2742 
Q 959 2388 959 1747 
Q 959 1106 1268 751 
Q 1578 397 2138 397 
Q 2388 397 2633 464 
Q 2878 531 3122 666 
L 3122 134 
Q 2881 22 2623 -34 
Q 2366 -91 2075 -91 
Q 1284 -91 818 406 
Q 353 903 353 1747 
Q 353 2603 823 3093 
Q 1294 3584 2113 3584 
Q 2378 3584 2631 3529 
Q 2884 3475 3122 3366 
z
" transform="scale(0.015625)"/>
      <path id="DejaVuSans-70" d="M 1159 525 
L 1159 -1331 
L 581 -1331 
L 581 3500 
L 1159 3500 
L 1159 2969 
Q 1341 3281 1617 3432 
Q 1894 3584 2278 3584 
Q 2916 3584 3314 3078 
Q 3713 2572 3713 1747 
Q 3713 922 3314 415 
Q 2916 -91 2278 -91 
Q 1894 -91 1617 61 
Q 1341 213 1159 525 
z
M 3116 1747 
Q 3116 2381 2855 2742 
Q 2594 3103 2138 3103 
Q 1681 3103 1420 2742 
Q 1159 2381 1159 1747 
Q 1159 1113 1420 752 
Q 1681 391 2138 391 
Q 2594 391 2855 752 
Q 3116 1113 3116 1747 
z
" transform="scale(0.015625)"/>
      <path id="DejaVuSans-61" d="M 2194 1759 
Q 1497 1759 1228 1600 
Q 959 1441 959 1056 
Q 959 750 1161 570 
Q 1363 391 1709 391 
Q 2188 391 2477 730 
Q 2766 1069 2766 1631 
L 2766 1759 
L 2194 1759 
z
M 3341 1997 
L 3341 0 
L 2766 0 
L 2766 531 
Q 2569 213 2275 61 
Q 1981 -91 1556 -91 
Q 1019 -91 701 211 
Q 384 513 384 1019 
Q 384 1609 779 1909 
Q 1175 2209 1959 2209 
L 2766 2209 
L 2766 2266 
Q 2766 2663 2505 2880 
Q 2244 3097 1772 3097 
Q 1472 3097 1187 3025 
Q 903 2953 641 2809 
L 641 3341 
Q 956 3463 1253 3523 
Q 1550 3584 1831 3584 
Q 2591 3584 2966 3190 
Q 3341 2797 3341 1997 
z
" transform="scale(0.015625)"/>
      <path id="DejaVuSans-2b" d="M 2944 4013 
L 2944 2272 
L 4684 2272 
L 4684 1741 
L 2944 1741 
L 2944 0 
L 2419 0 
L 2419 1741 
L 678 1741 
L 678 2272 
L 2419 2272 
L 2419 4013 
L 2944 4013 
z
" transform="scale(0.015625)"/>
      <path id="DejaVuSans-79" d="M 2059 -325 
Q 1816 -950 1584 -1140 
Q 1353 -1331 966 -1331 
L 506 -1331 
L 506 -850 
L 844 -850 
Q 1081 -850 1212 -737 
Q 1344 -625 1503 -206 
L 1606 56 
L 191 3500 
L 800 3500 
L 1894 763 
L 2988 3500 
L 3597 3500 
L 2059 -325 
z
" transform="scale(0.015625)"/>
      <path id="DejaVuSans-77" d="M 269 3500 
L 844 3500 
L 1563 769 
L 2278 3500 
L 2956 3500 
L 3675 769 
L 4391 3500 
L 4966 3500 
L 4050 0 
L 3372 0 
L 2619 2869 
L 1863 0 
L 1184 0 
L 269 3500 
z
" transform="scale(0.015625)"/>
      <path id="DejaVuSans-65" d="M 3597 1894 
L 3597 1613 
L 953 1613 
Q 991 1019 1311 708 
Q 1631 397 2203 397 
Q 2534 397 2845 478 
Q 3156 559 3463 722 
L 3463 178 
Q 3153 47 2828 -22 
Q 2503 -91 2169 -91 
Q 1331 -91 842 396 
Q 353 884 353 1716 
Q 353 2575 817 3079 
Q 1281 3584 2069 3584 
Q 2775 3584 3186 3129 
Q 3597 2675 3597 1894 
z
M 3022 2063 
Q 3016 2534 2758 2815 
Q 2500 3097 2075 3097 
Q 1594 3097 1305 2825 
Q 1016 2553 972 2059 
L 3022 2063 
z
" transform="scale(0.015625)"/>
      <path id="DejaVuSans-68" d="M 3513 2113 
L 3513 0 
L 2938 0 
L 2938 2094 
Q 2938 2591 2744 2837 
Q 2550 3084 2163 3084 
Q 1697 3084 1428 2787 
Q 1159 2491 1159 1978 
L 1159 0 
L 581 0 
L 581 4863 
L 1159 4863 
L 1159 2956 
Q 1366 3272 1645 3428 
Q 1925 3584 2291 3584 
Q 2894 3584 3203 3211 
Q 3513 2838 3513 2113 
z
" transform="scale(0.015625)"/>
      <path id="DejaVuSans-64" d="M 2906 2969 
L 2906 4863 
L 3481 4863 
L 3481 0 
L 2906 0 
L 2906 525 
Q 2725 213 2448 61 
Q 2172 -91 1784 -91 
Q 1150 -91 751 415 
Q 353 922 353 1747 
Q 353 2572 751 3078 
Q 1150 3584 1784 3584 
Q 2172 3584 2448 3432 
Q 2725 3281 2906 2969 
z
M 947 1747 
Q 947 1113 1208 752 
Q 1469 391 1925 391 
Q 2381 391 2643 752 
Q 2906 1113 2906 1747 
Q 2906 2381 2643 2742 
Q 2381 3103 1925 3103 
Q 1469 3103 1208 2742 
Q 947 2381 947 1747 
z
" transform="scale(0.015625)"/>
     </defs>
     <use xlink:href="#DejaVuSans-49"/>
     <use xlink:href="#DejaVuSans-48" transform="translate(29.492188 0)"/>
     <use xlink:href="#DejaVuSans-50" transform="translate(104.6875 0)"/>
     <use xlink:href="#DejaVuSans-20" transform="translate(164.990234 0)"/>
     <use xlink:href="#DejaVuSans-53" transform="translate(196.777344 0)"/>
     <use xlink:href="#DejaVuSans-47" transform="translate(260.253906 0)"/>
     <use xlink:href="#DejaVuSans-31" transform="translate(337.744141 0)"/>
     <use xlink:href="#DejaVuSans-33" transform="translate(401.367188 0)"/>
     <use xlink:href="#DejaVuSans-47" transform="translate(464.990234 0)"/>
     <use xlink:href="#DejaVuSans-32" transform="translate(542.480469 0)"/>
     <use xlink:href="#DejaVuSans-20" transform="translate(606.103516 0)"/>
     <use xlink:href="#DejaVuSans-31" transform="translate(637.890625 0)"/>
     <use xlink:href="#DejaVuSans-33" transform="translate(701.513672 0)"/>
     <use xlink:href="#DejaVuSans-30" transform="translate(765.136719 0)"/>
     <use xlink:href="#DejaVuSans-6e" transform="translate(828.759766 0)"/>
     <use xlink:href="#DejaVuSans-6d" transform="translate(892.138672 0)"/>
     <use xlink:href="#DejaVuSans-20" transform="translate(989.550781 0)"/>
     <use xlink:href="#DejaVuSans-2014" transform="translate(1021.337891 0)"/>
     <use xlink:href="#DejaVuSans-20" transform="translate(1121.337891 0)"/>
     <use xlink:href="#DejaVuSans-53" transform="translate(1153.125 0)"/>
     <use xlink:href="#DejaVuSans-74" transform="translate(1216.601562 0)"/>
     <use xlink:href="#DejaVuSans-72" transform="translate(1255.810547 0)"/>
     <use xlink:href="#DejaVuSans-6f" transform="translate(1294.673828 0)"/>
     <use xlink:href="#DejaVuSans-6e" transform="translate(1355.855469 0)"/>
     <use xlink:href="#DejaVuSans-67" transform="translate(1419.234375 0)"/>
     <use xlink:href="#DejaVuSans-41" transform="translate(1482.710938 0)"/>
     <use xlink:href="#DejaVuSans-52" transform="translate(1551.119141 0)"/>
     <use xlink:href="#DejaVuSans-4d" transform="translate(1620.601562 0)"/>
     <use xlink:href="#DejaVuSans-20" transform="translate(1706.880859 0)"/>
     <use xlink:href="#DejaVuSans-63" transform="translate(1738.667969 0)"/>
     <use xlink:href="#DejaVuSans-6f" transform="translate(1793.648438 0)"/>
     <use xlink:href="#DejaVuSans-6d" transform="translate(1854.830078 0)"/>
     <use xlink:href="#DejaVuSans-70" transform="translate(1952.242188 0)"/>
     <use xlink:href="#DejaVuSans-61" transform="translate(2015.71875 0)"/>
     <use xlink:href="#DejaVuSans-72" transform="translate(2076.998047 0)"/>
     <use xlink:href="#DejaVuSans-61" transform="translate(2118.111328 0)"/>
     <use xlink:href="#DejaVuSans-74" transform="translate(2179.390625 0)"/>
     <use xlink:href="#DejaVuSans-6f" transform="translate(2218.599609 0)"/>
     <use xlink:href="#DejaVuSans-72" transform="translate(2279.78125 0)"/>
     <use xlink:href="#DejaVuSans-20" transform="translate(2320.894531 0)"/>
     <use xlink:href="#DejaVuSans-2b" transform="translate(2352.681641 0)"/>
     <use xlink:href="#DejaVuSans-20" transform="translate(2436.470703 0)"/>
     <use xlink:href="#DejaVuSans-62" transform="translate(2468.257812 0)"/>
     <use xlink:href="#DejaVuSans-69" transform="translate(2531.734375 0)"/>
     <use xlink:href="#DejaVuSans-6e" transform="translate(2559.517578 0)"/>
     <use xlink:href="#DejaVuSans-61" transform="translate(2622.896484 0)"/>
     <use xlink:href="#DejaVuSans-72" transform="translate(2684.175781 0)"/>
     <use xlink:href="#DejaVuSans-79" transform="translate(2725.289062 0)"/>
     <use xlink:href="#DejaVuSans-2d" transform="translate(2782.71875 0)"/>
     <use xlink:href="#DejaVuSans-77" transform="translate(2818.802734 0)"/>
     <use xlink:href="#DejaVuSans-65" transform="translate(2900.589844 0)"/>
     <use xlink:href="#DejaVuSans-69" transform="translate(2962.113281 0)"/>
     <use xlink:href="#DejaVuSans-67" transform="translate(2989.896484 0)"/>
     <use xlink:href="#DejaVuSans-68" transform="translate(3053.373047 0)"/>
     <use xlink:href="#DejaVuSans-74" transform="translate(3116.751953 0)"/>
     <use xlink:href="#DejaVuSans-65" transform="translate(3155.960938 0)"/>
     <use xlink:href="#DejaVuSans-64" transform="translate(3217.484375 0)"/>
     <use xlink:href="#DejaVuSans-20" transform="translate(3280.960938 0)"/>
     <use xlink:href="#DejaVuSans-63" transform="translate(3312.748047 0)"/>
     <use xlink:href="#DejaVuSans-61" transform="translate(3367.728516 0)"/>
     <use xlink:href="#DejaVuSans-70" transform="translate(3429.007812 0)"/>
     <use xlink:href="#DejaVuSans-20" transform="translate(3492.484375 0)"/>
     <use xlink:href="#DejaVuSans-44" transform="translate(3524.271484 0)"/>
     <use xlink:href="#DejaVuSans-41" transform="translate(3599.523438 0)"/>
     <use xlink:href="#DejaVuSans-43" transform="translate(3666.181641 0)"/>
    </g>
   </g>
   <g id="text_3">
    <!-- StrongARM -->
    <g transform="translate(208.932862 151.100312) scale(0.1 -0.1)">
     <use xlink:href="#DejaVuSans-53"/>
     <use xlink:href="#DejaVuSans-74" transform="translate(63.476562 0)"/>
     <use xlink:href="#DejaVuSans-72" transform="translate(102.685547 0)"/>
     <use xlink:href="#DejaVuSans-6f" transform="translate(141.548828 0)"/>
     <use xlink:href="#DejaVuSans-6e" transform="translate(202.730469 0)"/>
     <use xlink:href="#DejaVuSans-67" transform="translate(266.109375 0)"/>
     <use xlink:href="#DejaVuSans-41" transform="translate(329.585938 0)"/>
     <use xlink:href="#DejaVuSans-52" transform="translate(397.994141 0)"/>
     <use xlink:href="#DejaVuSans-4d" transform="translate(467.476562 0)"/>
    </g>
    <!-- Comparator -->
    <g transform="translate(206.767237 160.778437) scale(0.1 -0.1)">
     <use xlink:href="#DejaVuSans-43"/>
     <use xlink:href="#DejaVuSans-6f" transform="translate(69.824219 0)"/>
     <use xlink:href="#DejaVuSans-6d" transform="translate(131.005859 0)"/>
     <use xlink:href="#DejaVuSans-70" transform="translate(228.417969 0)"/>
     <use xlink:href="#DejaVuSans-61" transform="translate(291.894531 0)"/>
     <use xlink:href="#DejaVuSans-72" transform="translate(353.173828 0)"/>
     <use xlink:href="#DejaVuSans-61" transform="translate(394.287109 0)"/>
     <use xlink:href="#DejaVuSans-74" transform="translate(455.566406 0)"/>
     <use xlink:href="#DejaVuSans-6f" transform="translate(494.775391 0)"/>
     <use xlink:href="#DejaVuSans-72" transform="translate(555.957031 0)"/>
    </g>
   </g>
   <g id="text_4">
    <!-- clk → -->
    <g style="fill: #0000ff" transform="translate(134.9875 331.163437) scale(0.09 -0.09)">
     <defs>
      <path id="DejaVuSans-6c" d="M 603 4863 
L 1178 4863 
L 1178 0 
L 603 0 
L 603 4863 
z
" transform="scale(0.015625)"/>
      <path id="DejaVuSans-6b" d="M 581 4863 
L 1159 4863 
L 1159 1991 
L 2875 3500 
L 3609 3500 
L 1753 1863 
L 3688 0 
L 2938 0 
L 1159 1709 
L 1159 0 
L 581 0 
L 581 4863 
z
" transform="scale(0.015625)"/>
      <path id="DejaVuSans-2192" d="M 5050 2147 
L 5050 1866 
L 3822 638 
L 3447 1013 
L 4175 1741 
L 366 1741 
L 366 2272 
L 4175 2272 
L 3447 3000 
L 3822 3375 
L 5050 2147 
z
" transform="scale(0.015625)"/>
     </defs>
     <use xlink:href="#DejaVuSans-63"/>
     <use xlink:href="#DejaVuSans-6c" transform="translate(54.980469 0)"/>
     <use xlink:href="#DejaVuSans-6b" transform="translate(82.763672 0)"/>
     <use xlink:href="#DejaVuSans-20" transform="translate(140.673828 0)"/>
     <use xlink:href="#DejaVuSans-2192" transform="translate(172.460938 0)"/>
    </g>
   </g>
   <g id="text_5">
    <!-- SAR -->
    <g transform="translate(133.66 331.99125) scale(0.12 -0.12)">
     <use xlink:href="#DejaVuSans-53"/>
     <use xlink:href="#DejaVuSans-41" transform="translate(65.351562 0)"/>
     <use xlink:href="#DejaVuSans-52" transform="translate(133.759766 0)"/>
    </g>
   </g>
   <g id="text_6">
    <!-- Logic -->
    <g transform="translate(126.68125 331.99125) scale(0.12 -0.12)">
     <defs>
      <path id="DejaVuSans-4c" d="M 628 4666 
L 1259 4666 
L 1259 531 
L 3531 531 
L 3531 0 
L 628 0 
L 628 4666 
z
" transform="scale(0.015625)"/>
     </defs>
     <use xlink:href="#DejaVuSans-4c"/>
     <use xlink:href="#DejaVuSans-6f" transform="translate(53.962891 0)"/>
     <use xlink:href="#DejaVuSans-67" transform="translate(115.144531 0)"/>
     <use xlink:href="#DejaVuSans-69" transform="translate(178.621094 0)"/>
     <use xlink:href="#DejaVuSans-63" transform="translate(206.404297 0)"/>
    </g>
   </g>
   <g id="text_7">
    <!-- (8-bit) -->
    <g style="fill: #808080" transform="translate(130.311719 331.163437) scale(0.09 -0.09)">
     <defs>
      <path id="DejaVuSans-28" d="M 1984 4856 
Q 1566 4138 1362 3434 
Q 1159 2731 1159 2009 
Q 1159 1288 1364 580 
Q 1569 -128 1984 -844 
L 1484 -844 
Q 1016 -109 783 600 
Q 550 1309 550 2009 
Q 550 2706 781 3412 
Q 1013 4119 1484 4856 
L 1984 4856 
z
" transform="scale(0.015625)"/>
      <path id="DejaVuSans-29" d="M 513 4856 
L 1013 4856 
Q 1481 4119 1714 3412 
Q 1947 2706 1947 2009 
Q 1947 1309 1714 600 
Q 1481 -109 1013 -844 
L 513 -844 
Q 928 -128 1133 580 
Q 1338 1288 1338 2009 
Q 1338 2731 1133 3434 
Q 928 4138 513 4856 
z
" transform="scale(0.015625)"/>
     </defs>
     <use xlink:href="#DejaVuSans-28"/>
     <use xlink:href="#DejaVuSans-38" transform="translate(39.013672 0)"/>
     <use xlink:href="#DejaVuSans-2d" transform="translate(102.636719 0)"/>
     <use xlink:href="#DejaVuSans-62" transform="translate(138.720703 0)"/>
     <use xlink:href="#DejaVuSans-69" transform="translate(202.197266 0)"/>
     <use xlink:href="#DejaVuSans-74" transform="translate(229.980469 0)"/>
     <use xlink:href="#DejaVuSans-29" transform="translate(269.189453 0)"/>
    </g>
   </g>
   <g id="text_8">
    <!-- Binary-Weighted Capacitor DAC -->
    <g transform="translate(0 331.439375) scale(0.1 -0.1)">
     <defs>
      <path id="DejaVuSans-42" d="M 1259 2228 
L 1259 519 
L 2272 519 
Q 2781 519 3026 730 
Q 3272 941 3272 1375 
Q 3272 1813 3026 2020 
Q 2781 2228 2272 2228 
L 1259 2228 
z
M 1259 4147 
L 1259 2741 
L 2194 2741 
Q 2656 2741 2882 2914 
Q 3109 3088 3109 3444 
Q 3109 3797 2882 3972 
Q 2656 4147 2194 4147 
L 1259 4147 
z
M 628 4666 
L 2241 4666 
Q 2963 4666 3353 4366 
Q 3744 4066 3744 3513 
Q 3744 3084 3544 2831 
Q 3344 2578 2956 2516 
Q 3422 2416 3680 2098 
Q 3938 1781 3938 1306 
Q 3938 681 3513 340 
Q 3088 0 2303 0 
L 628 0 
L 628 4666 
z
" transform="scale(0.015625)"/>
      <path id="DejaVuSans-57" d="M 213 4666 
L 850 4666 
L 1831 722 
L 2809 4666 
L 3519 4666 
L 4500 722 
L 5478 4666 
L 6119 4666 
L 4947 0 
L 4153 0 
L 3169 4050 
L 2175 0 
L 1381 0 
L 213 4666 
z
" transform="scale(0.015625)"/>
     </defs>
     <use xlink:href="#DejaVuSans-42"/>
     <use xlink:href="#DejaVuSans-69" transform="translate(68.603516 0)"/>
     <use xlink:href="#DejaVuSans-6e" transform="translate(96.386719 0)"/>
     <use xlink:href="#DejaVuSans-61" transform="translate(159.765625 0)"/>
     <use xlink:href="#DejaVuSans-72" transform="translate(221.044922 0)"/>
     <use xlink:href="#DejaVuSans-79" transform="translate(262.158203 0)"/>
     <use xlink:href="#DejaVuSans-2d" transform="translate(319.587891 0)"/>
     <use xlink:href="#DejaVuSans-57" transform="translate(351.671875 0)"/>
     <use xlink:href="#DejaVuSans-65" transform="translate(444.673828 0)"/>
     <use xlink:href="#DejaVuSans-69" transform="translate(506.197266 0)"/>
     <use xlink:href="#DejaVuSans-67" transform="translate(533.980469 0)"/>
     <use xlink:href="#DejaVuSans-68" transform="translate(597.457031 0)"/>
     <use xlink:href="#DejaVuSans-74" transform="translate(660.835938 0)"/>
     <use xlink:href="#DejaVuSans-65" transform="translate(700.044922 0)"/>
     <use xlink:href="#DejaVuSans-64" transform="translate(761.568359 0)"/>
     <use xlink:href="#DejaVuSans-20" transform="translate(825.044922 0)"/>
     <use xlink:href="#DejaVuSans-43" transform="translate(856.832031 0)"/>
     <use xlink:href="#DejaVuSans-61" transform="translate(926.65625 0)"/>
     <use xlink:href="#DejaVuSans-70" transform="translate(987.935547 0)"/>
     <use xlink:href="#DejaVuSans-61" transform="translate(1051.412109 0)"/>
     <use xlink:href="#DejaVuSans-63" transform="translate(1112.691406 0)"/>
     <use xlink:href="#DejaVuSans-69" transform="translate(1167.671875 0)"/>
     <use xlink:href="#DejaVuSans-74" transform="translate(1195.455078 0)"/>
     <use xlink:href="#DejaVuSans-6f" transform="translate(1234.664062 0)"/>
     <use xlink:href="#DejaVuSans-72" transform="translate(1295.845703 0)"/>
     <use xlink:href="#DejaVuSans-20" transform="translate(1336.958984 0)"/>
     <use xlink:href="#DejaVuSans-44" transform="translate(1368.746094 0)"/>
     <use xlink:href="#DejaVuSans-41" transform="translate(1443.998047 0)"/>
     <use xlink:href="#DejaVuSans-43" transform="translate(1510.65625 0)"/>
    </g>
   </g>
   <g id="text_9">
    <!-- 256fF -->
    <g transform="translate(151.724219 269.624219) scale(0.07 -0.07)">
     <defs>
      <path id="DejaVuSans-35" d="M 691 4666 
L 3169 4666 
L 3169 4134 
L 1269 4134 
L 1269 2991 
Q 1406 3038 1543 3061 
Q 1681 3084 1819 3084 
Q 2600 3084 3056 2656 
Q 3513 2228 3513 1497 
Q 3513 744 3044 326 
Q 2575 -91 1722 -91 
Q 1428 -91 1123 -41 
Q 819 9 494 109 
L 494 744 
Q 775 591 1075 516 
Q 1375 441 1709 441 
Q 2250 441 2565 725 
Q 2881 1009 2881 1497 
Q 2881 1984 2565 2268 
Q 2250 2553 1709 2553 
Q 1456 2553 1204 2497 
Q 953 2441 691 2322 
L 691 4666 
z
" transform="scale(0.015625)"/>
      <path id="DejaVuSans-36" d="M 2113 2584 
Q 1688 2584 1439 2293 
Q 1191 2003 1191 1497 
Q 1191 994 1439 701 
Q 1688 409 2113 409 
Q 2538 409 2786 701 
Q 3034 994 3034 1497 
Q 3034 2003 2786 2293 
Q 2538 2584 2113 2584 
z
M 3366 4563 
L 3366 3988 
Q 3128 4100 2886 4159 
Q 2644 4219 2406 4219 
Q 1781 4219 1451 3797 
Q 1122 3375 1075 2522 
Q 1259 2794 1537 2939 
Q 1816 3084 2150 3084 
Q 2853 3084 3261 2657 
Q 3669 2231 3669 1497 
Q 3669 778 3244 343 
Q 2819 -91 2113 -91 
Q 1303 -91 875 529 
Q 447 1150 447 2328 
Q 447 3434 972 4092 
Q 1497 4750 2381 4750 
Q 2619 4750 2861 4703 
Q 3103 4656 3366 4563 
z
" transform="scale(0.015625)"/>
      <path id="DejaVuSans-66" d="M 2375 4863 
L 2375 4384 
L 1825 4384 
Q 1516 4384 1395 4259 
Q 1275 4134 1275 3809 
L 1275 3500 
L 2222 3500 
L 2222 3053 
L 1275 3053 
L 1275 0 
L 697 0 
L 697 3053 
L 147 3053 
L 147 3500 
L 697 3500 
L 697 3744 
Q 697 4328 969 4595 
Q 1241 4863 1831 4863 
L 2375 4863 
z
" transform="scale(0.015625)"/>
      <path id="DejaVuSans-46" d="M 628 4666 
L 3309 4666 
L 3309 4134 
L 1259 4134 
L 1259 2759 
L 3109 2759 
L 3109 2228 
L 1259 2228 
L 1259 0 
L 628 0 
L 628 4666 
z
" transform="scale(0.015625)"/>
     </defs>
     <use xlink:href="#DejaVuSans-32"/>
     <use xlink:href="#DejaVuSans-35" transform="translate(63.623047 0)"/>
     <use xlink:href="#DejaVuSans-36" transform="translate(127.246094 0)"/>
     <use xlink:href="#DejaVuSans-66" transform="translate(190.869141 0)"/>
     <use xlink:href="#DejaVuSans-46" transform="translate(226.074219 0)"/>
    </g>
   </g>
   <g id="text_10">
    <!-- b7 -->
    <g style="fill: #0000ff" transform="translate(165.25 330.611562) scale(0.07 -0.07)">
     <defs>
      <path id="DejaVuSans-37" d="M 525 4666 
L 3525 4666 
L 3525 4397 
L 1831 0 
L 1172 0 
L 2766 4134 
L 525 4134 
L 525 4666 
z
" transform="scale(0.015625)"/>
     </defs>
     <use xlink:href="#DejaVuSans-62"/>
     <use xlink:href="#DejaVuSans-37" transform="translate(63.476562 0)"/>
    </g>
   </g>
   <g id="patch_36">
    <path d="M 161.65 337.32 
C 162.795677 337.32 163.894585 336.864818 164.704701 336.054701 
C 165.514818 335.244585 165.97 334.145677 165.97 333 
C 165.97 331.854323 165.514818 330.755415 164.704701 329.945299 
C 163.894585 329.135182 162.795677 328.68 161.65 328.68 
C 160.504323 328.68 159.405415 329.135182 158.595299 329.945299 
C 157.785182 330.755415 157.33 331.854323 157.33 333 
C 157.33 334.145677 157.785182 335.244585 158.595299 336.054701 
C 159.405415 336.864818 160.504323 337.32 161.65 337.32 
z
" clip-path="url(#p4d9c637eb7)" style="fill: #ffffff; stroke: #000000; stroke-width: 2; stroke-linejoin: miter"/>
   </g>
   <g id="patch_37">
    <path d="M 161.65 364.68 
C 162.795677 364.68 163.894585 364.224818 164.704701 363.414701 
C 165.514818 362.604585 165.97 361.505677 165.97 360.36 
C 165.97 359.214323 165.514818 358.115415 164.704701 357.305299 
C 163.894585 356.495182 162.795677 356.04 161.65 356.04 
C 160.504323 356.04 159.405415 356.495182 158.595299 357.305299 
C 157.785182 358.115415 157.33 359.214323 157.33 360.36 
C 157.33 361.505677 157.785182 362.604585 158.595299 363.414701 
C 159.405415 364.224818 160.504323 364.68 161.65 364.68 
z
" clip-path="url(#p4d9c637eb7)" style="fill: #ffffff; stroke: #000000; stroke-width: 2; stroke-linejoin: miter"/>
   </g>
   <g id="text_11">
    <!-- 128fF -->
    <g transform="translate(202.124219 269.624219) scale(0.07 -0.07)">
     <use xlink:href="#DejaVuSans-31"/>
     <use xlink:href="#DejaVuSans-32" transform="translate(63.623047 0)"/>
     <use xlink:href="#DejaVuSans-38" transform="translate(127.246094 0)"/>
     <use xlink:href="#DejaVuSans-66" transform="translate(190.869141 0)"/>
     <use xlink:href="#DejaVuSans-46" transform="translate(226.074219 0)"/>
    </g>
   </g>
   <g id="text_12">
    <!-- b6 -->
    <g style="fill: #0000ff" transform="translate(149.152344 330.611562) scale(0.07 -0.07)">
     <use xlink:href="#DejaVuSans-62"/>
     <use xlink:href="#DejaVuSans-36" transform="translate(63.476562 0)"/>
    </g>
   </g>
   <g id="patch_38">
    <path d="M 212.05 337.32 
C 213.195677 337.32 214.294585 336.864818 215.104701 336.054701 
C 215.914818 335.244585 216.37 334.145677 216.37 333 
C 216.37 331.854323 215.914818 330.755415 215.104701 329.945299 
C 214.294585 329.135182 213.195677 328.68 212.05 328.68 
C 210.904323 328.68 209.805415 329.135182 208.995299 329.945299 
C 208.185182 330.755415 207.73 331.854323 207.73 333 
C 207.73 334.145677 208.185182 335.244585 208.995299 336.054701 
C 209.805415 336.864818 210.904323 337.32 212.05 337.32 
z
" clip-path="url(#p4d9c637eb7)" style="fill: #ffffff; stroke: #000000; stroke-width: 2; stroke-linejoin: miter"/>
   </g>
   <g id="patch_39">
    <path d="M 212.05 364.68 
C 213.195677 364.68 214.294585 364.224818 215.104701 363.414701 
C 215.914818 362.604585 216.37 361.505677 216.37 360.36 
C 216.37 359.214323 215.914818 358.115415 215.104701 357.305299 
C 214.294585 356.495182 213.195677 356.04 212.05 356.04 
C 210.904323 356.04 209.805415 356.495182 208.995299 357.305299 
C 208.185182 358.115415 207.73 359.214323 207.73 360.36 
C 207.73 361.505677 208.185182 362.604585 208.995299 363.414701 
C 209.805415 364.224818 210.904323 364.68 212.05 364.68 
z
" clip-path="url(#p4d9c637eb7)" style="fill: #ffffff; stroke: #000000; stroke-width: 2; stroke-linejoin: miter"/>
   </g>
   <g id="text_13">
    <!-- 64fF -->
    <g transform="translate(254.751094 269.624219) scale(0.07 -0.07)">
     <defs>
      <path id="DejaVuSans-34" d="M 2419 4116 
L 825 1625 
L 2419 1625 
L 2419 4116 
z
M 2253 4666 
L 3047 4666 
L 3047 1625 
L 3713 1625 
L 3713 1100 
L 3047 1100 
L 3047 0 
L 2419 0 
L 2419 1100 
L 313 1100 
L 313 1709 
L 2253 4666 
z
" transform="scale(0.015625)"/>
     </defs>
     <use xlink:href="#DejaVuSans-36"/>
     <use xlink:href="#DejaVuSans-34" transform="translate(63.623047 0)"/>
     <use xlink:href="#DejaVuSans-66" transform="translate(127.246094 0)"/>
     <use xlink:href="#DejaVuSans-46" transform="translate(162.451172 0)"/>
    </g>
   </g>
   <g id="text_14">
    <!-- b5 -->
    <g style="fill: #0000ff" transform="translate(149.152344 330.611562) scale(0.07 -0.07)">
     <use xlink:href="#DejaVuSans-62"/>
     <use xlink:href="#DejaVuSans-35" transform="translate(63.476562 0)"/>
    </g>
   </g>
   <g id="patch_40">
    <path d="M 262.45 337.32 
C 263.595677 337.32 264.694585 336.864818 265.504701 336.054701 
C 266.314818 335.244585 266.77 334.145677 266.77 333 
C 266.77 331.854323 266.314818 330.755415 265.504701 329.945299 
C 264.694585 329.135182 263.595677 328.68 262.45 328.68 
C 261.304323 328.68 260.205415 329.135182 259.395299 329.945299 
C 258.585182 330.755415 258.13 331.854323 258.13 333 
C 258.13 334.145677 258.585182 335.244585 259.395299 336.054701 
C 260.205415 336.864818 261.304323 337.32 262.45 337.32 
z
" clip-path="url(#p4d9c637eb7)" style="fill: #ffffff; stroke: #000000; stroke-width: 2; stroke-linejoin: miter"/>
   </g>
   <g id="patch_41">
    <path d="M 262.45 364.68 
C 263.595677 364.68 264.694585 364.224818 265.504701 363.414701 
C 266.314818 362.604585 266.77 361.505677 266.77 360.36 
C 266.77 359.214323 266.314818 358.115415 265.504701 357.305299 
C 264.694585 356.495182 263.595677 356.04 262.45 356.04 
C 261.304323 356.04 260.205415 356.495182 259.395299 357.305299 
C 258.585182 358.115415 258.13 359.214323 258.13 360.36 
C 258.13 361.505677 258.585182 362.604585 259.395299 363.414701 
C 260.205415 364.224818 261.304323 364.68 262.45 364.68 
z
" clip-path="url(#p4d9c637eb7)" style="fill: #ffffff; stroke: #000000; stroke-width: 2; stroke-linejoin: miter"/>
   </g>
   <g id="text_15">
    <!-- 32fF -->
    <g transform="translate(305.151094 269.624219) scale(0.07 -0.07)">
     <use xlink:href="#DejaVuSans-33"/>
     <use xlink:href="#DejaVuSans-32" transform="translate(63.623047 0)"/>
     <use xlink:href="#DejaVuSans-66" transform="translate(127.246094 0)"/>
     <use xlink:href="#DejaVuSans-46" transform="translate(162.451172 0)"/>
    </g>
   </g>
   <g id="text_16">
    <!-- b4 -->
    <g style="fill: #0000ff" transform="translate(149.152344 330.611562) scale(0.07 -0.07)">
     <use xlink:href="#DejaVuSans-62"/>
     <use xlink:href="#DejaVuSans-34" transform="translate(63.476562 0)"/>
    </g>
   </g>
   <g id="patch_42">
    <path d="M 312.85 337.32 
C 313.995677 337.32 315.094585 336.864818 315.904701 336.054701 
C 316.714818 335.244585 317.17 334.145677 317.17 333 
C 317.17 331.854323 316.714818 330.755415 315.904701 329.945299 
C 315.094585 329.135182 313.995677 328.68 312.85 328.68 
C 311.704323 328.68 310.605415 329.135182 309.795299 329.945299 
C 308.985182 330.755415 308.53 331.854323 308.53 333 
C 308.53 334.145677 308.985182 335.244585 309.795299 336.054701 
C 310.605415 336.864818 311.704323 337.32 312.85 337.32 
z
" clip-path="url(#p4d9c637eb7)" style="fill: #ffffff; stroke: #000000; stroke-width: 2; stroke-linejoin: miter"/>
   </g>
   <g id="patch_43">
    <path d="M 312.85 364.68 
C 313.995677 364.68 315.094585 364.224818 315.904701 363.414701 
C 316.714818 362.604585 317.17 361.505677 317.17 360.36 
C 317.17 359.214323 316.714818 358.115415 315.904701 357.305299 
C 315.094585 356.495182 313.995677 356.04 312.85 356.04 
C 311.704323 356.04 310.605415 356.495182 309.795299 357.305299 
C 308.985182 358.115415 308.53 359.214323 308.53 360.36 
C 308.53 361.505677 308.985182 362.604585 309.795299 363.414701 
C 310.605415 364.224818 311.704323 364.68 312.85 364.68 
z
" clip-path="url(#p4d9c637eb7)" style="fill: #ffffff; stroke: #000000; stroke-width: 2; stroke-linejoin: miter"/>
   </g>
   <g id="text_17">
    <!-- 16fF -->
    <g transform="translate(355.551094 269.624219) scale(0.07 -0.07)">
     <use xlink:href="#DejaVuSans-31"/>
     <use xlink:href="#DejaVuSans-36" transform="translate(63.623047 0)"/>
     <use xlink:href="#DejaVuSans-66" transform="translate(127.246094 0)"/>
     <use xlink:href="#DejaVuSans-46" transform="translate(162.451172 0)"/>
    </g>
   </g>
   <g id="text_18">
    <!-- b3 -->
    <g style="fill: #0000ff" transform="translate(149.152344 330.611562) scale(0.07 -0.07)">
     <use xlink:href="#DejaVuSans-62"/>
     <use xlink:href="#DejaVuSans-33" transform="translate(63.476562 0)"/>
    </g>
   </g>
   <g id="patch_44">
    <path d="M 363.25 337.32 
C 364.395677 337.32 365.494585 336.864818 366.304701 336.054701 
C 367.114818 335.244585 367.57 334.145677 367.57 333 
C 367.57 331.854323 367.114818 330.755415 366.304701 329.945299 
C 365.494585 329.135182 364.395677 328.68 363.25 328.68 
C 362.104323 328.68 361.005415 329.135182 360.195299 329.945299 
C 359.385182 330.755415 358.93 331.854323 358.93 333 
C 358.93 334.145677 359.385182 335.244585 360.195299 336.054701 
C 361.005415 336.864818 362.104323 337.32 363.25 337.32 
z
" clip-path="url(#p4d9c637eb7)" style="fill: #ffffff; stroke: #000000; stroke-width: 2; stroke-linejoin: miter"/>
   </g>
   <g id="patch_45">
    <path d="M 363.25 364.68 
C 364.395677 364.68 365.494585 364.224818 366.304701 363.414701 
C 367.114818 362.604585 367.57 361.505677 367.57 360.36 
C 367.57 359.214323 367.114818 358.115415 366.304701 357.305299 
C 365.494585 356.495182 364.395677 356.04 363.25 356.04 
C 362.104323 356.04 361.005415 356.495182 360.195299 357.305299 
C 359.385182 358.115415 358.93 359.214323 358.93 360.36 
C 358.93 361.505677 359.385182 362.604585 360.195299 363.414701 
C 361.005415 364.224818 362.104323 364.68 363.25 364.68 
z
" clip-path="url(#p4d9c637eb7)" style="fill: #ffffff; stroke: #000000; stroke-width: 2; stroke-linejoin: miter"/>
   </g>
   <g id="text_19">
    <!-- 8fF -->
    <g transform="translate(408.177969 269.624219) scale(0.07 -0.07)">
     <use xlink:href="#DejaVuSans-38"/>
     <use xlink:href="#DejaVuSans-66" transform="translate(63.623047 0)"/>
     <use xlink:href="#DejaVuSans-46" transform="translate(98.828125 0)"/>
    </g>
   </g>
   <g id="text_20">
    <!-- b2 -->
    <g style="fill: #0000ff" transform="translate(149.152344 330.611562) scale(0.07 -0.07)">
     <use xlink:href="#DejaVuSans-62"/>
     <use xlink:href="#DejaVuSans-32" transform="translate(63.476562 0)"/>
    </g>
   </g>
   <g id="patch_46">
    <path d="M 413.65 337.32 
C 414.795677 337.32 415.894585 336.864818 416.704701 336.054701 
C 417.514818 335.244585 417.97 334.145677 417.97 333 
C 417.97 331.854323 417.514818 330.755415 416.704701 329.945299 
C 415.894585 329.135182 414.795677 328.68 413.65 328.68 
C 412.504323 328.68 411.405415 329.135182 410.595299 329.945299 
C 409.785182 330.755415 409.33 331.854323 409.33 333 
C 409.33 334.145677 409.785182 335.244585 410.595299 336.054701 
C 411.405415 336.864818 412.504323 337.32 413.65 337.32 
z
" clip-path="url(#p4d9c637eb7)" style="fill: #ffffff; stroke: #000000; stroke-width: 2; stroke-linejoin: miter"/>
   </g>
   <g id="patch_47">
    <path d="M 413.65 364.68 
C 414.795677 364.68 415.894585 364.224818 416.704701 363.414701 
C 417.514818 362.604585 417.97 361.505677 417.97 360.36 
C 417.97 359.214323 417.514818 358.115415 416.704701 357.305299 
C 415.894585 356.495182 414.795677 356.04 413.65 356.04 
C 412.504323 356.04 411.405415 356.495182 410.595299 357.305299 
C 409.785182 358.115415 409.33 359.214323 409.33 360.36 
C 409.33 361.505677 409.785182 362.604585 410.595299 363.414701 
C 411.405415 364.224818 412.504323 364.68 413.65 364.68 
z
" clip-path="url(#p4d9c637eb7)" style="fill: #ffffff; stroke: #000000; stroke-width: 2; stroke-linejoin: miter"/>
   </g>
   <g id="text_21">
    <!-- 4fF -->
    <g transform="translate(458.577969 269.624219) scale(0.07 -0.07)">
     <use xlink:href="#DejaVuSans-34"/>
     <use xlink:href="#DejaVuSans-66" transform="translate(63.623047 0)"/>
     <use xlink:href="#DejaVuSans-46" transform="translate(98.828125 0)"/>
    </g>
   </g>
   <g id="text_22">
    <!-- b1 -->
    <g style="fill: #0000ff" transform="translate(149.152344 330.611562) scale(0.07 -0.07)">
     <use xlink:href="#DejaVuSans-62"/>
     <use xlink:href="#DejaVuSans-31" transform="translate(63.476562 0)"/>
    </g>
   </g>
   <g id="patch_48">
    <path d="M 464.05 337.32 
C 465.195677 337.32 466.294585 336.864818 467.104701 336.054701 
C 467.914818 335.244585 468.37 334.145677 468.37 333 
C 468.37 331.854323 467.914818 330.755415 467.104701 329.945299 
C 466.294585 329.135182 465.195677 328.68 464.05 328.68 
C 462.904323 328.68 461.805415 329.135182 460.995299 329.945299 
C 460.185182 330.755415 459.73 331.854323 459.73 333 
C 459.73 334.145677 460.185182 335.244585 460.995299 336.054701 
C 461.805415 336.864818 462.904323 337.32 464.05 337.32 
z
" clip-path="url(#p4d9c637eb7)" style="fill: #ffffff; stroke: #000000; stroke-width: 2; stroke-linejoin: miter"/>
   </g>
   <g id="patch_49">
    <path d="M 464.05 364.68 
C 465.195677 364.68 466.294585 364.224818 467.104701 363.414701 
C 467.914818 362.604585 468.37 361.505677 468.37 360.36 
C 468.37 359.214323 467.914818 358.115415 467.104701 357.305299 
C 466.294585 356.495182 465.195677 356.04 464.05 356.04 
C 462.904323 356.04 461.805415 356.495182 460.995299 357.305299 
C 460.185182 358.115415 459.73 359.214323 459.73 360.36 
C 459.73 361.505677 460.185182 362.604585 460.995299 363.414701 
C 461.805415 364.224818 462.904323 364.68 464.05 364.68 
z
" clip-path="url(#p4d9c637eb7)" style="fill: #ffffff; stroke: #000000; stroke-width: 2; stroke-linejoin: miter"/>
   </g>
   <g id="text_23">
    <!-- 2fF -->
    <g transform="translate(508.977969 269.624219) scale(0.07 -0.07)">
     <use xlink:href="#DejaVuSans-32"/>
     <use xlink:href="#DejaVuSans-66" transform="translate(63.623047 0)"/>
     <use xlink:href="#DejaVuSans-46" transform="translate(98.828125 0)"/>
    </g>
   </g>
   <g id="text_24">
    <!-- b0 -->
    <g style="fill: #0000ff" transform="translate(149.152344 330.611562) scale(0.07 -0.07)">
     <use xlink:href="#DejaVuSans-62"/>
     <use xlink:href="#DejaVuSans-30" transform="translate(63.476562 0)"/>
    </g>
   </g>
   <g id="patch_50">
    <path d="M 514.45 337.32 
C 515.595677 337.32 516.694585 336.864818 517.504701 336.054701 
C 518.314818 335.244585 518.77 334.145677 518.77 333 
C 518.77 331.854323 518.314818 330.755415 517.504701 329.945299 
C 516.694585 329.135182 515.595677 328.68 514.45 328.68 
C 513.304323 328.68 512.205415 329.135182 511.395299 329.945299 
C 510.585182 330.755415 510.13 331.854323 510.13 333 
C 510.13 334.145677 510.585182 335.244585 511.395299 336.054701 
C 512.205415 336.864818 513.304323 337.32 514.45 337.32 
z
" clip-path="url(#p4d9c637eb7)" style="fill: #ffffff; stroke: #000000; stroke-width: 2; stroke-linejoin: miter"/>
   </g>
   <g id="patch_51">
    <path d="M 514.45 364.68 
C 515.595677 364.68 516.694585 364.224818 517.504701 363.414701 
C 518.314818 362.604585 518.77 361.505677 518.77 360.36 
C 518.77 359.214323 518.314818 358.115415 517.504701 357.305299 
C 516.694585 356.495182 515.595677 356.04 514.45 356.04 
C 513.304323 356.04 512.205415 356.495182 511.395299 357.305299 
C 510.585182 358.115415 510.13 359.214323 510.13 360.36 
C 510.13 361.505677 510.585182 362.604585 511.395299 363.414701 
C 512.205415 364.224818 513.304323 364.68 514.45 364.68 
z
" clip-path="url(#p4d9c637eb7)" style="fill: #ffffff; stroke: #000000; stroke-width: 2; stroke-linejoin: miter"/>
   </g>
   <g id="text_25">
    <!-- 2fF -->
    <g transform="translate(559.377969 269.624219) scale(0.07 -0.07)">
     <use xlink:href="#DejaVuSans-32"/>
     <use xlink:href="#DejaVuSans-66" transform="translate(63.623047 0)"/>
     <use xlink:href="#DejaVuSans-46" transform="translate(98.828125 0)"/>
    </g>
   </g>
   <g id="text_26">
    <!-- dum -->
    <g style="fill: #0000ff" transform="translate(142.351406 330.611562) scale(0.07 -0.07)">
     <defs>
      <path id="DejaVuSans-75" d="M 544 1381 
L 544 3500 
L 1119 3500 
L 1119 1403 
Q 1119 906 1312 657 
Q 1506 409 1894 409 
Q 2359 409 2629 706 
Q 2900 1003 2900 1516 
L 2900 3500 
L 3475 3500 
L 3475 0 
L 2900 0 
L 2900 538 
Q 2691 219 2414 64 
Q 2138 -91 1772 -91 
Q 1169 -91 856 284 
Q 544 659 544 1381 
z
M 1991 3584 
L 1991 3584 
z
" transform="scale(0.015625)"/>
     </defs>
     <use xlink:href="#DejaVuSans-64"/>
     <use xlink:href="#DejaVuSans-75" transform="translate(63.476562 0)"/>
     <use xlink:href="#DejaVuSans-6d" transform="translate(126.855469 0)"/>
    </g>
   </g>
   <g id="text_27">
    <!-- Switches connect to VDD (1.2V) or VSS based on SAR decision -->
    <g style="fill: #808080" transform="translate(36.50875 323.41625) scale(0.08 -0.08)">
     <defs>
      <path id="DejaVuSans-73" d="M 2834 3397 
L 2834 2853 
Q 2591 2978 2328 3040 
Q 2066 3103 1784 3103 
Q 1356 3103 1142 2972 
Q 928 2841 928 2578 
Q 928 2378 1081 2264 
Q 1234 2150 1697 2047 
L 1894 2003 
Q 2506 1872 2764 1633 
Q 3022 1394 3022 966 
Q 3022 478 2636 193 
Q 2250 -91 1575 -91 
Q 1294 -91 989 -36 
Q 684 19 347 128 
L 347 722 
Q 666 556 975 473 
Q 1284 391 1588 391 
Q 1994 391 2212 530 
Q 2431 669 2431 922 
Q 2431 1156 2273 1281 
Q 2116 1406 1581 1522 
L 1381 1569 
Q 847 1681 609 1914 
Q 372 2147 372 2553 
Q 372 3047 722 3315 
Q 1072 3584 1716 3584 
Q 2034 3584 2315 3537 
Q 2597 3491 2834 3397 
z
" transform="scale(0.015625)"/>
      <path id="DejaVuSans-56" d="M 1831 0 
L 50 4666 
L 709 4666 
L 2188 738 
L 3669 4666 
L 4325 4666 
L 2547 0 
L 1831 0 
z
" transform="scale(0.015625)"/>
      <path id="DejaVuSans-2e" d="M 684 794 
L 1344 794 
L 1344 0 
L 684 0 
L 684 794 
z
" transform="scale(0.015625)"/>
     </defs>
     <use xlink:href="#DejaVuSans-53"/>
     <use xlink:href="#DejaVuSans-77" transform="translate(63.476562 0)"/>
     <use xlink:href="#DejaVuSans-69" transform="translate(145.263672 0)"/>
     <use xlink:href="#DejaVuSans-74" transform="translate(173.046875 0)"/>
     <use xlink:href="#DejaVuSans-63" transform="translate(212.255859 0)"/>
     <use xlink:href="#DejaVuSans-68" transform="translate(267.236328 0)"/>
     <use xlink:href="#DejaVuSans-65" transform="translate(330.615234 0)"/>
     <use xlink:href="#DejaVuSans-73" transform="translate(392.138672 0)"/>
     <use xlink:href="#DejaVuSans-20" transform="translate(444.238281 0)"/>
     <use xlink:href="#DejaVuSans-63" transform="translate(476.025391 0)"/>
     <use xlink:href="#DejaVuSans-6f" transform="translate(531.005859 0)"/>
     <use xlink:href="#DejaVuSans-6e" transform="translate(592.1875 0)"/>
     <use xlink:href="#DejaVuSans-6e" transform="translate(655.566406 0)"/>
     <use xlink:href="#DejaVuSans-65" transform="translate(718.945312 0)"/>
     <use xlink:href="#DejaVuSans-63" transform="translate(780.46875 0)"/>
     <use xlink:href="#DejaVuSans-74" transform="translate(835.449219 0)"/>
     <use xlink:href="#DejaVuSans-20" transform="translate(874.658203 0)"/>
     <use xlink:href="#DejaVuSans-74" transform="translate(906.445312 0)"/>
     <use xlink:href="#DejaVuSans-6f" transform="translate(945.654297 0)"/>
     <use xlink:href="#DejaVuSans-20" transform="translate(1006.835938 0)"/>
     <use xlink:href="#DejaVuSans-56" transform="translate(1038.623047 0)"/>
     <use xlink:href="#DejaVuSans-44" transform="translate(1107.03125 0)"/>
     <use xlink:href="#DejaVuSans-44" transform="translate(1184.033203 0)"/>
     <use xlink:href="#DejaVuSans-20" transform="translate(1261.035156 0)"/>
     <use xlink:href="#DejaVuSans-28" transform="translate(1292.822266 0)"/>
     <use xlink:href="#DejaVuSans-31" transform="translate(1331.835938 0)"/>
     <use xlink:href="#DejaVuSans-2e" transform="translate(1395.458984 0)"/>
     <use xlink:href="#DejaVuSans-32" transform="translate(1427.246094 0)"/>
     <use xlink:href="#DejaVuSans-56" transform="translate(1490.869141 0)"/>
     <use xlink:href="#DejaVuSans-29" transform="translate(1559.277344 0)"/>
     <use xlink:href="#DejaVuSans-20" transform="translate(1598.291016 0)"/>
     <use xlink:href="#DejaVuSans-6f" transform="translate(1630.078125 0)"/>
     <use xlink:href="#DejaVuSans-72" transform="translate(1691.259766 0)"/>
     <use xlink:href="#DejaVuSans-20" transform="translate(1732.373047 0)"/>
     <use xlink:href="#DejaVuSans-56" transform="translate(1764.160156 0)"/>
     <use xlink:href="#DejaVuSans-53" transform="translate(1832.568359 0)"/>
     <use xlink:href="#DejaVuSans-53" transform="translate(1896.044922 0)"/>
     <use xlink:href="#DejaVuSans-20" transform="translate(1959.521484 0)"/>
     <use xlink:href="#DejaVuSans-62" transform="translate(1991.308594 0)"/>
     <use xlink:href="#DejaVuSans-61" transform="translate(2054.785156 0)"/>
     <use xlink:href="#DejaVuSans-73" transform="translate(2116.064453 0)"/>
     <use xlink:href="#DejaVuSans-65" transform="translate(2168.164062 0)"/>
     <use xlink:href="#DejaVuSans-64" transform="translate(2229.6875 0)"/>
     <use xlink:href="#DejaVuSans-20" transform="translate(2293.164062 0)"/>
     <use xlink:href="#DejaVuSans-6f" transform="translate(2324.951172 0)"/>
     <use xlink:href="#DejaVuSans-6e" transform="translate(2386.132812 0)"/>
     <use xlink:href="#DejaVuSans-20" transform="translate(2449.511719 0)"/>
     <use xlink:href="#DejaVuSans-53" transform="translate(2481.298828 0)"/>
     <use xlink:href="#DejaVuSans-41" transform="translate(2546.650391 0)"/>
     <use xlink:href="#DejaVuSans-52" transform="translate(2615.058594 0)"/>
     <use xlink:href="#DejaVuSans-20" transform="translate(2684.541016 0)"/>
     <use xlink:href="#DejaVuSans-64" transform="translate(2716.328125 0)"/>
     <use xlink:href="#DejaVuSans-65" transform="translate(2779.804688 0)"/>
     <use xlink:href="#DejaVuSans-63" transform="translate(2841.328125 0)"/>
     <use xlink:href="#DejaVuSans-69" transform="translate(2896.308594 0)"/>
     <use xlink:href="#DejaVuSans-73" transform="translate(2924.091797 0)"/>
     <use xlink:href="#DejaVuSans-69" transform="translate(2976.191406 0)"/>
     <use xlink:href="#DejaVuSans-6f" transform="translate(3003.974609 0)"/>
     <use xlink:href="#DejaVuSans-6e" transform="translate(3065.15625 0)"/>
    </g>
   </g>
   <g id="patch_52">
    <path d="M 125.65 133.38 
C 126.366048 133.38 127.052866 133.095511 127.559188 132.589188 
C 128.065511 132.082866 128.35 131.396048 128.35 130.68 
C 128.35 129.963952 128.065511 129.277134 127.559188 128.770812 
C 127.052866 128.264489 126.366048 127.98 125.65 127.98 
C 124.933952 127.98 124.247134 128.264489 123.740812 128.770812 
C 123.234489 129.277134 122.95 129.963952 122.95 130.68 
C 122.95 131.396048 123.234489 132.082866 123.740812 132.589188 
C 124.247134 133.095511 124.933952 133.38 125.65 133.38 
z
" clip-path="url(#p4d9c637eb7)" style="stroke: #000000; stroke-width: 2; stroke-linejoin: miter"/>
   </g>
   <g id="text_28">
    <!-- Vin -->
    <g transform="translate(103.61875 133.439375) scale(0.1 -0.1)">
     <use xlink:href="#DejaVuSans-56"/>
     <use xlink:href="#DejaVuSans-69" transform="translate(66.158203 0)"/>
     <use xlink:href="#DejaVuSans-6e" transform="translate(93.941406 0)"/>
    </g>
   </g>
   <g id="patch_53">
    <path d="M 341.65 151.38 
C 342.366048 151.38 343.052866 151.095511 343.559188 150.589188 
C 344.065511 150.082866 344.35 149.396048 344.35 148.68 
C 344.35 147.963952 344.065511 147.277134 343.559188 146.770812 
C 343.052866 146.264489 342.366048 145.98 341.65 145.98 
C 340.933952 145.98 340.247134 146.264489 339.740812 146.770812 
C 339.234489 147.277134 338.95 147.963952 338.95 148.68 
C 338.95 149.396048 339.234489 150.082866 339.740812 150.589188 
C 340.247134 151.095511 340.933952 151.38 341.65 151.38 
z
" clip-path="url(#p4d9c637eb7)" style="stroke: #000000; stroke-width: 2; stroke-linejoin: miter"/>
   </g>
   <g id="text_29">
    <!-- comp_out -->
    <g transform="translate(317.108594 140.022187) scale(0.1 -0.1)">
     <defs>
      <path id="DejaVuSans-5f" d="M 3263 -1063 
L 3263 -1509 
L -63 -1509 
L -63 -1063 
L 3263 -1063 
z
" transform="scale(0.015625)"/>
     </defs>
     <use xlink:href="#DejaVuSans-63"/>
     <use xlink:href="#DejaVuSans-6f" transform="translate(54.980469 0)"/>
     <use xlink:href="#DejaVuSans-6d" transform="translate(116.162109 0)"/>
     <use xlink:href="#DejaVuSans-70" transform="translate(213.574219 0)"/>
     <use xlink:href="#DejaVuSans-5f" transform="translate(277.050781 0)"/>
     <use xlink:href="#DejaVuSans-6f" transform="translate(327.050781 0)"/>
     <use xlink:href="#DejaVuSans-75" transform="translate(388.232422 0)"/>
     <use xlink:href="#DejaVuSans-74" transform="translate(451.611328 0)"/>
    </g>
   </g>
   <g id="patch_54">
    <path d="M 575.65 151.38 
C 576.366048 151.38 577.052866 151.095511 577.559188 150.589188 
C 578.065511 150.082866 578.35 149.396048 578.35 148.68 
C 578.35 147.963952 578.065511 147.277134 577.559188 146.770812 
C 577.052866 146.264489 576.366048 145.98 575.65 145.98 
C 574.933952 145.98 574.247134 146.264489 573.740812 146.770812 
C 573.234489 147.277134 572.95 147.963952 572.95 148.68 
C 572.95 149.396048 573.234489 150.082866 573.740812 150.589188 
C 574.247134 151.095511 574.933952 151.38 575.65 151.38 
z
" clip-path="url(#p4d9c637eb7)" style="stroke: #000000; stroke-width: 2; stroke-linejoin: miter"/>
   </g>
   <g id="text_30">
    <!-- dout[7:0] -->
    <g transform="translate(581.95 151.439375) scale(0.1 -0.1)">
     <defs>
      <path id="DejaVuSans-5b" d="M 550 4863 
L 1875 4863 
L 1875 4416 
L 1125 4416 
L 1125 -397 
L 1875 -397 
L 1875 -844 
L 550 -844 
L 550 4863 
z
" transform="scale(0.015625)"/>
      <path id="DejaVuSans-3a" d="M 750 794 
L 1409 794 
L 1409 0 
L 750 0 
L 750 794 
z
M 750 3309 
L 1409 3309 
L 1409 2516 
L 750 2516 
L 750 3309 
z
" transform="scale(0.015625)"/>
      <path id="DejaVuSans-5d" d="M 1947 4863 
L 1947 -844 
L 622 -844 
L 622 -397 
L 1369 -397 
L 1369 4416 
L 622 4416 
L 622 4863 
L 1947 4863 
z
" transform="scale(0.015625)"/>
     </defs>
     <use xlink:href="#DejaVuSans-64"/>
     <use xlink:href="#DejaVuSans-6f" transform="translate(63.476562 0)"/>
     <use xlink:href="#DejaVuSans-75" transform="translate(124.658203 0)"/>
     <use xlink:href="#DejaVuSans-74" transform="translate(188.037109 0)"/>
     <use xlink:href="#DejaVuSans-5b" transform="translate(227.246094 0)"/>
     <use xlink:href="#DejaVuSans-37" transform="translate(266.259766 0)"/>
     <use xlink:href="#DejaVuSans-3a" transform="translate(329.882812 0)"/>
     <use xlink:href="#DejaVuSans-30" transform="translate(363.574219 0)"/>
     <use xlink:href="#DejaVuSans-5d" transform="translate(427.197266 0)"/>
    </g>
   </g>
   <g id="patch_55">
    <path d="M 575.65 187.38 
C 576.366048 187.38 577.052866 187.095511 577.559188 186.589188 
C 578.065511 186.082866 578.35 185.396048 578.35 184.68 
C 578.35 183.963952 578.065511 183.277134 577.559188 182.770812 
C 577.052866 182.264489 576.366048 181.98 575.65 181.98 
C 574.933952 181.98 574.247134 182.264489 573.740812 182.770812 
C 573.234489 183.277134 572.95 183.963952 572.95 184.68 
C 572.95 185.396048 573.234489 186.082866 573.740812 186.589188 
C 574.247134 187.095511 574.933952 187.38 575.65 187.38 
z
" clip-path="url(#p4d9c637eb7)" style="stroke: #000000; stroke-width: 2; stroke-linejoin: miter"/>
   </g>
   <g id="text_31">
    <!-- eoc -->
    <g transform="translate(581.95 187.439375) scale(0.1 -0.1)">
     <use xlink:href="#DejaVuSans-65"/>
     <use xlink:href="#DejaVuSans-6f" transform="translate(61.523438 0)"/>
     <use xlink:href="#DejaVuSans-63" transform="translate(122.705078 0)"/>
    </g>
   </g>
   <g id="patch_56">
    <path d="M 143.65 277.38 
C 144.366048 277.38 145.052866 277.095511 145.559188 276.589188 
C 146.065511 276.082866 146.35 275.396048 146.35 274.68 
C 146.35 273.963952 146.065511 273.277134 145.559188 272.770812 
C 145.052866 272.264489 144.366048 271.98 143.65 271.98 
C 142.933952 271.98 142.247134 272.264489 141.740812 272.770812 
C 141.234489 273.277134 140.95 273.963952 140.95 274.68 
C 140.95 275.396048 141.234489 276.082866 141.740812 276.589188 
C 142.247134 277.095511 142.933952 277.38 143.65 277.38 
z
" clip-path="url(#p4d9c637eb7)" style="stroke: #000000; stroke-width: 2; stroke-linejoin: miter"/>
   </g>
   <g id="text_32">
    <!-- vtop → -->
    <g transform="translate(110.25875 273.01625) scale(0.08 -0.08)">
     <defs>
      <path id="DejaVuSans-76" d="M 191 3500 
L 800 3500 
L 1894 563 
L 2988 3500 
L 3597 3500 
L 2284 0 
L 1503 0 
L 191 3500 
z
" transform="scale(0.015625)"/>
     </defs>
     <use xlink:href="#DejaVuSans-76"/>
     <use xlink:href="#DejaVuSans-74" transform="translate(59.179688 0)"/>
     <use xlink:href="#DejaVuSans-6f" transform="translate(98.388672 0)"/>
     <use xlink:href="#DejaVuSans-70" transform="translate(159.570312 0)"/>
     <use xlink:href="#DejaVuSans-20" transform="translate(223.046875 0)"/>
     <use xlink:href="#DejaVuSans-2192" transform="translate(254.833984 0)"/>
    </g>
    <!-- comp+ -->
    <g transform="translate(108.48125 280.75875) scale(0.08 -0.08)">
     <use xlink:href="#DejaVuSans-63"/>
     <use xlink:href="#DejaVuSans-6f" transform="translate(54.980469 0)"/>
     <use xlink:href="#DejaVuSans-6d" transform="translate(116.162109 0)"/>
     <use xlink:href="#DejaVuSans-70" transform="translate(213.574219 0)"/>
     <use xlink:href="#DejaVuSans-2b" transform="translate(277.050781 0)"/>
    </g>
   </g>
  </g>
 </g>
 <defs>
  <clipPath id="p4d9c637eb7">
   <rect x="9.67" y="-0" width="617.46" height="376.56"/>
  </clipPath>
 </defs>
</svg>
