<?xml version="1.0" encoding="utf-8" standalone="no"?>
<!DOCTYPE svg PUBLIC "-//W3C//DTD SVG 1.1//EN"
  "http://www.w3.org/Graphics/SVG/1.1/DTD/svg11.dtd">
<svg xmlns:xlink="http://www.w3.org/1999/xlink" width="500.646pt" height="356.4pt" viewBox="0 0 500.646 356.4" xmlns="http://www.w3.org/2000/svg" version="1.1">
 <metadata>
  <rdf:RDF xmlns:dc="http://purl.org/dc/elements/1.1/" xmlns:cc="http://creativecommons.org/ns#" xmlns:rdf="http://www.w3.org/1999/02/22-rdf-syntax-ns#">
   <cc:Work>
    <dc:type rdf:resource="http://purl.org/dc/dcmitype/StillImage"/>
    <dc:date>2026-03-01T17:04:30.252022</dc:date>
    <dc:format>image/svg+xml</dc:format>
    <dc:creator>
     <cc:Agent>
      <dc:title>Matplotlib v3.10.0, https://matplotlib.org/</dc:title>
     </cc:Agent>
    </dc:creator>
   </cc:Work>
  </rdf:RDF>
 </metadata>
 <defs>
  <style type="text/css">*{stroke-linejoin: round; stroke-linecap: butt}</style>
 </defs>
 <g id="figure_1">
  <g id="patch_1">
   <path d="M 0 356.4 
L 500.646 356.4 
L 500.646 0 
L 0 0 
L 0 356.4 
z
" style="fill: none"/>
  </g>
  <g id="axes_1">
   <g id="patch_2">
    <path d="M 25.279915 9.178007 
C 32.134114 239.399976 34.146 328.68 61.146 328.68 
" clip-path="url(#p86993ab693)" style="fill: none; stroke: #000000; stroke-width: 2; stroke-linejoin: miter; stroke-linecap: round"/>
   </g>
   <g id="patch_3">
    <path d="M 21.815425 13.783146 
L 25.146 4.68 
L 29.012236 13.568882 
z
" clip-path="url(#p86993ab693)"/>
   </g>
   <g id="patch_4">
    <path d="M 25.291198 34.377657 
C 32.134114 246.343978 34.146 328.68 61.146 328.68 
" clip-path="url(#p86993ab693)" style="fill: none; stroke: #808080; stroke-width: 2; stroke-linejoin: miter; stroke-linecap: round"/>
   </g>
   <g id="patch_5">
    <path d="M 21.838271 38.991472 
L 25.146 29.88 
L 29.034522 38.759155 
z
" clip-path="url(#p86993ab693)" style="fill: #808080"/>
   </g>
   <g id="patch_6">
    <path d="M 61.146 73.98 
C 61.146 257.255981 61.146 328.68 61.146 328.68 
" clip-path="url(#p86993ab693)" style="fill: none; stroke: #0000ff; stroke-width: 2; stroke-linejoin: miter; stroke-linecap: round"/>
   </g>
   <g id="patch_7">
    <path d="M 57.546 78.48 
L 61.146 69.48 
L 64.746 78.48 
z
" clip-path="url(#p86993ab693)" style="fill: #0000ff"/>
   </g>
   <g id="patch_8">
    <path d="M 383.71682 73.747018 
C 322.252972 257.255981 304.146 328.68 61.146 328.68 
" clip-path="url(#p86993ab693)" style="fill: none; stroke: #0000ff; stroke-width: 2; stroke-linejoin: miter; stroke-linecap: round"/>
   </g>
   <g id="patch_9">
    <path d="M 378.874025 76.870692 
L 385.146 69.48 
L 385.701254 79.15738 
z
" clip-path="url(#p86993ab693)" style="fill: #0000ff"/>
   </g>
   <g id="line2d_1">
    <path d="M 133.146 94.68 
L 133.146 100.08 
L 142.146 103.08 
L 124.146 109.08 
L 142.146 115.08 
L 124.146 121.08 
L 142.146 127.08 
L 124.146 133.08 
L 133.146 136.08 
L 133.146 141.48 
" clip-path="url(#p86993ab693)" style="fill: none; stroke: #000000; stroke-width: 2; stroke-linecap: round"/>
   </g>
   <g id="line2d_2">
    <path d="M 133.146 141.48 
L 115.146 141.48 
L 97.146 141.48 
" clip-path="url(#p86993ab693)" style="fill: none; stroke: #000000; stroke-width: 2; stroke-linecap: round"/>
   </g>
   <g id="line2d_3">
    <path d="M 97.146 141.48 
L 88.146 141.48 
L 85.146 150.48 
L 79.146 132.48 
L 73.146 150.48 
L 67.146 132.48 
L 61.146 150.48 
L 55.146 132.48 
L 52.146 141.48 
L 43.146 141.48 
" clip-path="url(#p86993ab693)" style="fill: none; stroke: #000000; stroke-width: 2; stroke-linecap: round"/>
   </g>
   <g id="line2d_4">
    <path d="M 43.146 141.48 
M 34.506 145.08 
L 14.346 157.68 
M 7.146 141.48 
" clip-path="url(#p86993ab693)" style="fill: none; stroke: #000000; stroke-width: 2; stroke-linecap: round"/>
   </g>
   <g id="line2d_5">
    <path d="M 133.146 141.48 
L 133.146 146.88 
L 142.146 149.88 
L 124.146 155.88 
L 142.146 161.88 
L 124.146 167.88 
L 142.146 173.88 
L 124.146 179.88 
L 133.146 182.88 
L 133.146 188.28 
" clip-path="url(#p86993ab693)" style="fill: none; stroke: #000000; stroke-width: 2; stroke-linecap: round"/>
   </g>
   <g id="line2d_6">
    <path d="M 133.146 188.28 
L 115.146 188.28 
L 97.146 188.28 
" clip-path="url(#p86993ab693)" style="fill: none; stroke: #000000; stroke-width: 2; stroke-linecap: round"/>
   </g>
   <g id="line2d_7">
    <path d="M 97.146 188.28 
L 88.146 188.28 
L 85.146 197.28 
L 79.146 179.28 
L 73.146 197.28 
L 67.146 179.28 
L 61.146 197.28 
L 55.146 179.28 
L 52.146 188.28 
L 43.146 188.28 
" clip-path="url(#p86993ab693)" style="fill: none; stroke: #000000; stroke-width: 2; stroke-linecap: round"/>
   </g>
   <g id="line2d_8">
    <path d="M 43.146 188.28 
M 34.506 191.88 
L 14.346 204.48 
M 7.146 188.28 
" clip-path="url(#p86993ab693)" style="fill: none; stroke: #000000; stroke-width: 2; stroke-linecap: round"/>
   </g>
   <g id="line2d_9">
    <path d="M 133.146 188.28 
L 133.146 193.68 
L 142.146 196.68 
L 124.146 202.68 
L 142.146 208.68 
L 124.146 214.68 
L 142.146 220.68 
L 124.146 226.68 
L 133.146 229.68 
L 133.146 235.08 
" clip-path="url(#p86993ab693)" style="fill: none; stroke: #000000; stroke-width: 2; stroke-linecap: round"/>
   </g>
   <g id="line2d_10">
    <path d="M 133.146 235.08 
L 115.146 235.08 
L 97.146 235.08 
" clip-path="url(#p86993ab693)" style="fill: none; stroke: #000000; stroke-width: 2; stroke-linecap: round"/>
   </g>
   <g id="line2d_11">
    <path d="M 97.146 235.08 
L 88.146 235.08 
L 85.146 244.08 
L 79.146 226.08 
L 73.146 244.08 
L 67.146 226.08 
L 61.146 244.08 
L 55.146 226.08 
L 52.146 235.08 
L 43.146 235.08 
" clip-path="url(#p86993ab693)" style="fill: none; stroke: #000000; stroke-width: 2; stroke-linecap: round"/>
   </g>
   <g id="line2d_12">
    <path d="M 43.146 235.08 
M 34.506 238.68 
L 14.346 251.28 
M 7.146 235.08 
" clip-path="url(#p86993ab693)" style="fill: none; stroke: #000000; stroke-width: 2; stroke-linecap: round"/>
   </g>
   <g id="line2d_13">
    <path d="M 133.146 235.08 
L 133.146 240.48 
L 142.146 243.48 
L 124.146 249.48 
L 142.146 255.48 
L 124.146 261.48 
L 142.146 267.48 
L 124.146 273.48 
L 133.146 276.48 
L 133.146 281.88 
" clip-path="url(#p86993ab693)" style="fill: none; stroke: #000000; stroke-width: 2; stroke-linecap: round"/>
   </g>
   <g id="line2d_14">
    <path d="M 133.146 281.88 
L 115.146 281.88 
L 97.146 281.88 
" clip-path="url(#p86993ab693)" style="fill: none; stroke: #000000; stroke-width: 2; stroke-linecap: round"/>
   </g>
   <g id="line2d_15">
    <path d="M 97.146 281.88 
L 88.146 281.88 
L 85.146 290.88 
L 79.146 272.88 
L 73.146 290.88 
L 67.146 272.88 
L 61.146 290.88 
L 55.146 272.88 
L 52.146 281.88 
L 43.146 281.88 
" clip-path="url(#p86993ab693)" style="fill: none; stroke: #000000; stroke-width: 2; stroke-linecap: round"/>
   </g>
   <g id="line2d_16">
    <path d="M 43.146 281.88 
M 34.506 285.48 
L 14.346 298.08 
M 7.146 281.88 
" clip-path="url(#p86993ab693)" style="fill: none; stroke: #000000; stroke-width: 2; stroke-linecap: round"/>
   </g>
   <g id="line2d_17">
    <path d="M 133.146 281.88 
L 133.146 287.28 
L 142.146 290.28 
L 124.146 296.28 
L 142.146 302.28 
L 124.146 308.28 
L 142.146 314.28 
L 124.146 320.28 
L 133.146 323.28 
L 133.146 328.68 
" clip-path="url(#p86993ab693)" style="fill: none; stroke: #000000; stroke-width: 2; stroke-linecap: round"/>
   </g>
   <g id="line2d_18">
    <path d="M 133.146 328.68 
L 133.146 343.08 
L 124.146 343.08 
L 142.146 343.08 
M 126.846 347.4 
L 139.446 347.4 
M 131.346 351.72 
L 134.946 351.72 
" clip-path="url(#p86993ab693)" style="fill: none; stroke: #000000; stroke-width: 2; stroke-linecap: round"/>
   </g>
   <g id="line2d_19">
    <path d="M 457.146 94.68 
L 457.146 100.08 
L 466.146 103.08 
L 448.146 109.08 
L 466.146 115.08 
L 448.146 121.08 
L 466.146 127.08 
L 448.146 133.08 
L 457.146 136.08 
L 457.146 141.48 
" clip-path="url(#p86993ab693)" style="fill: none; stroke: #000000; stroke-width: 2; stroke-linecap: round"/>
   </g>
   <g id="line2d_20">
    <path d="M 457.146 141.48 
L 439.146 141.48 
L 421.146 141.48 
" clip-path="url(#p86993ab693)" style="fill: none; stroke: #000000; stroke-width: 2; stroke-linecap: round"/>
   </g>
   <g id="line2d_21">
    <path d="M 421.146 141.48 
L 412.146 141.48 
L 409.146 150.48 
L 403.146 132.48 
L 397.146 150.48 
L 391.146 132.48 
L 385.146 150.48 
L 379.146 132.48 
L 376.146 141.48 
L 367.146 141.48 
" clip-path="url(#p86993ab693)" style="fill: none; stroke: #000000; stroke-width: 2; stroke-linecap: round"/>
   </g>
   <g id="line2d_22">
    <path d="M 367.146 141.48 
M 358.506 145.08 
L 338.346 157.68 
M 331.146 141.48 
" clip-path="url(#p86993ab693)" style="fill: none; stroke: #000000; stroke-width: 2; stroke-linecap: round"/>
   </g>
   <g id="line2d_23">
    <path d="M 457.146 141.48 
L 457.146 146.88 
L 466.146 149.88 
L 448.146 155.88 
L 466.146 161.88 
L 448.146 167.88 
L 466.146 173.88 
L 448.146 179.88 
L 457.146 182.88 
L 457.146 188.28 
" clip-path="url(#p86993ab693)" style="fill: none; stroke: #000000; stroke-width: 2; stroke-linecap: round"/>
   </g>
   <g id="line2d_24">
    <path d="M 457.146 188.28 
L 439.146 188.28 
L 421.146 188.28 
" clip-path="url(#p86993ab693)" style="fill: none; stroke: #000000; stroke-width: 2; stroke-linecap: round"/>
   </g>
   <g id="line2d_25">
    <path d="M 421.146 188.28 
L 412.146 188.28 
L 409.146 197.28 
L 403.146 179.28 
L 397.146 197.28 
L 391.146 179.28 
L 385.146 197.28 
L 379.146 179.28 
L 376.146 188.28 
L 367.146 188.28 
" clip-path="url(#p86993ab693)" style="fill: none; stroke: #000000; stroke-width: 2; stroke-linecap: round"/>
   </g>
   <g id="line2d_26">
    <path d="M 367.146 188.28 
M 358.506 191.88 
L 338.346 204.48 
M 331.146 188.28 
" clip-path="url(#p86993ab693)" style="fill: none; stroke: #000000; stroke-width: 2; stroke-linecap: round"/>
   </g>
   <g id="line2d_27">
    <path d="M 457.146 188.28 
L 457.146 193.68 
L 466.146 196.68 
L 448.146 202.68 
L 466.146 208.68 
L 448.146 214.68 
L 466.146 220.68 
L 448.146 226.68 
L 457.146 229.68 
L 457.146 235.08 
" clip-path="url(#p86993ab693)" style="fill: none; stroke: #000000; stroke-width: 2; stroke-linecap: round"/>
   </g>
   <g id="line2d_28">
    <path d="M 457.146 235.08 
L 439.146 235.08 
L 421.146 235.08 
" clip-path="url(#p86993ab693)" style="fill: none; stroke: #000000; stroke-width: 2; stroke-linecap: round"/>
   </g>
   <g id="line2d_29">
    <path d="M 421.146 235.08 
L 412.146 235.08 
L 409.146 244.08 
L 403.146 226.08 
L 397.146 244.08 
L 391.146 226.08 
L 385.146 244.08 
L 379.146 226.08 
L 376.146 235.08 
L 367.146 235.08 
" clip-path="url(#p86993ab693)" style="fill: none; stroke: #000000; stroke-width: 2; stroke-linecap: round"/>
   </g>
   <g id="line2d_30">
    <path d="M 367.146 235.08 
M 358.506 238.68 
L 338.346 251.28 
M 331.146 235.08 
" clip-path="url(#p86993ab693)" style="fill: none; stroke: #000000; stroke-width: 2; stroke-linecap: round"/>
   </g>
   <g id="line2d_31">
    <path d="M 457.146 235.08 
L 457.146 240.48 
L 466.146 243.48 
L 448.146 249.48 
L 466.146 255.48 
L 448.146 261.48 
L 466.146 267.48 
L 448.146 273.48 
L 457.146 276.48 
L 457.146 281.88 
" clip-path="url(#p86993ab693)" style="fill: none; stroke: #000000; stroke-width: 2; stroke-linecap: round"/>
   </g>
   <g id="line2d_32">
    <path d="M 457.146 281.88 
L 439.146 281.88 
L 421.146 281.88 
" clip-path="url(#p86993ab693)" style="fill: none; stroke: #000000; stroke-width: 2; stroke-linecap: round"/>
   </g>
   <g id="line2d_33">
    <path d="M 421.146 281.88 
L 412.146 281.88 
L 409.146 290.88 
L 403.146 272.88 
L 397.146 290.88 
L 391.146 272.88 
L 385.146 290.88 
L 379.146 272.88 
L 376.146 281.88 
L 367.146 281.88 
" clip-path="url(#p86993ab693)" style="fill: none; stroke: #000000; stroke-width: 2; stroke-linecap: round"/>
   </g>
   <g id="line2d_34">
    <path d="M 367.146 281.88 
M 358.506 285.48 
L 338.346 298.08 
M 331.146 281.88 
" clip-path="url(#p86993ab693)" style="fill: none; stroke: #000000; stroke-width: 2; stroke-linecap: round"/>
   </g>
   <g id="line2d_35">
    <path d="M 457.146 281.88 
L 457.146 287.28 
L 466.146 290.28 
L 448.146 296.28 
L 466.146 302.28 
L 448.146 308.28 
L 466.146 314.28 
L 448.146 320.28 
L 457.146 323.28 
L 457.146 328.68 
" clip-path="url(#p86993ab693)" style="fill: none; stroke: #000000; stroke-width: 2; stroke-linecap: round"/>
   </g>
   <g id="line2d_36">
    <path d="M 457.146 328.68 
L 457.146 343.08 
L 448.146 343.08 
L 466.146 343.08 
M 450.846 347.4 
L 463.446 347.4 
M 455.346 351.72 
L 458.946 351.72 
" clip-path="url(#p86993ab693)" style="fill: none; stroke: #000000; stroke-width: 2; stroke-linecap: round"/>
   </g>
   <g id="text_1">
    <!-- Dual 4-bit Bias DAC (FC + Q Control) -->
    <g transform="translate(64.746 332.543125) scale(0.14 -0.14)">
     <defs>
      <path id="DejaVuSans-44" d="M 1259 4147 
L 1259 519 
L 2022 519 
Q 2988 519 3436 956 
Q 3884 1394 3884 2338 
Q 3884 3275 3436 3711 
Q 2988 4147 2022 4147 
L 1259 4147 
z
M 628 4666 
L 1925 4666 
Q 3281 4666 3915 4102 
Q 4550 3538 4550 2338 
Q 4550 1131 3912 565 
Q 3275 0 1925 0 
L 628 0 
L 628 4666 
z
" transform="scale(0.015625)"/>
      <path id="DejaVuSans-75" d="M 544 1381 
L 544 3500 
L 1119 3500 
L 1119 1403 
Q 1119 906 1312 657 
Q 1506 409 1894 409 
Q 2359 409 2629 706 
Q 2900 1003 2900 1516 
L 2900 3500 
L 3475 3500 
L 3475 0 
L 2900 0 
L 2900 538 
Q 2691 219 2414 64 
Q 2138 -91 1772 -91 
Q 1169 -91 856 284 
Q 544 659 544 1381 
z
M 1991 3584 
L 1991 3584 
z
" transform="scale(0.015625)"/>
      <path id="DejaVuSans-61" d="M 2194 1759 
Q 1497 1759 1228 1600 
Q 959 1441 959 1056 
Q 959 750 1161 570 
Q 1363 391 1709 391 
Q 2188 391 2477 730 
Q 2766 1069 2766 1631 
L 2766 1759 
L 2194 1759 
z
M 3341 1997 
L 3341 0 
L 2766 0 
L 2766 531 
Q 2569 213 2275 61 
Q 1981 -91 1556 -91 
Q 1019 -91 701 211 
Q 384 513 384 1019 
Q 384 1609 779 1909 
Q 1175 2209 1959 2209 
L 2766 2209 
L 2766 2266 
Q 2766 2663 2505 2880 
Q 2244 3097 1772 3097 
Q 1472 3097 1187 3025 
Q 903 2953 641 2809 
L 641 3341 
Q 956 3463 1253 3523 
Q 1550 3584 1831 3584 
Q 2591 3584 2966 3190 
Q 3341 2797 3341 1997 
z
" transform="scale(0.015625)"/>
      <path id="DejaVuSans-6c" d="M 603 4863 
L 1178 4863 
L 1178 0 
L 603 0 
L 603 4863 
z
" transform="scale(0.015625)"/>
      <path id="DejaVuSans-20" transform="scale(0.015625)"/>
      <path id="DejaVuSans-34" d="M 2419 4116 
L 825 1625 
L 2419 1625 
L 2419 4116 
z
M 2253 4666 
L 3047 4666 
L 3047 1625 
L 3713 1625 
L 3713 1100 
L 3047 1100 
L 3047 0 
L 2419 0 
L 2419 1100 
L 313 1100 
L 313 1709 
L 2253 4666 
z
" transform="scale(0.015625)"/>
      <path id="DejaVuSans-2d" d="M 313 2009 
L 1997 2009 
L 1997 1497 
L 313 1497 
L 313 2009 
z
" transform="scale(0.015625)"/>
      <path id="DejaVuSans-62" d="M 3116 1747 
Q 3116 2381 2855 2742 
Q 2594 3103 2138 3103 
Q 1681 3103 1420 2742 
Q 1159 2381 1159 1747 
Q 1159 1113 1420 752 
Q 1681 391 2138 391 
Q 2594 391 2855 752 
Q 3116 1113 3116 1747 
z
M 1159 2969 
Q 1341 3281 1617 3432 
Q 1894 3584 2278 3584 
Q 2916 3584 3314 3078 
Q 3713 2572 3713 1747 
Q 3713 922 3314 415 
Q 2916 -91 2278 -91 
Q 1894 -91 1617 61 
Q 1341 213 1159 525 
L 1159 0 
L 581 0 
L 581 4863 
L 1159 4863 
L 1159 2969 
z
" transform="scale(0.015625)"/>
      <path id="DejaVuSans-69" d="M 603 3500 
L 1178 3500 
L 1178 0 
L 603 0 
L 603 3500 
z
M 603 4863 
L 1178 4863 
L 1178 4134 
L 603 4134 
L 603 4863 
z
" transform="scale(0.015625)"/>
      <path id="DejaVuSans-74" d="M 1172 4494 
L 1172 3500 
L 2356 3500 
L 2356 3053 
L 1172 3053 
L 1172 1153 
Q 1172 725 1289 603 
Q 1406 481 1766 481 
L 2356 481 
L 2356 0 
L 1766 0 
Q 1100 0 847 248 
Q 594 497 594 1153 
L 594 3053 
L 172 3053 
L 172 3500 
L 594 3500 
L 594 4494 
L 1172 4494 
z
" transform="scale(0.015625)"/>
      <path id="DejaVuSans-42" d="M 1259 2228 
L 1259 519 
L 2272 519 
Q 2781 519 3026 730 
Q 3272 941 3272 1375 
Q 3272 1813 3026 2020 
Q 2781 2228 2272 2228 
L 1259 2228 
z
M 1259 4147 
L 1259 2741 
L 2194 2741 
Q 2656 2741 2882 2914 
Q 3109 3088 3109 3444 
Q 3109 3797 2882 3972 
Q 2656 4147 2194 4147 
L 1259 4147 
z
M 628 4666 
L 2241 4666 
Q 2963 4666 3353 4366 
Q 3744 4066 3744 3513 
Q 3744 3084 3544 2831 
Q 3344 2578 2956 2516 
Q 3422 2416 3680 2098 
Q 3938 1781 3938 1306 
Q 3938 681 3513 340 
Q 3088 0 2303 0 
L 628 0 
L 628 4666 
z
" transform="scale(0.015625)"/>
      <path id="DejaVuSans-73" d="M 2834 3397 
L 2834 2853 
Q 2591 2978 2328 3040 
Q 2066 3103 1784 3103 
Q 1356 3103 1142 2972 
Q 928 2841 928 2578 
Q 928 2378 1081 2264 
Q 1234 2150 1697 2047 
L 1894 2003 
Q 2506 1872 2764 1633 
Q 3022 1394 3022 966 
Q 3022 478 2636 193 
Q 2250 -91 1575 -91 
Q 1294 -91 989 -36 
Q 684 19 347 128 
L 347 722 
Q 666 556 975 473 
Q 1284 391 1588 391 
Q 1994 391 2212 530 
Q 2431 669 2431 922 
Q 2431 1156 2273 1281 
Q 2116 1406 1581 1522 
L 1381 1569 
Q 847 1681 609 1914 
Q 372 2147 372 2553 
Q 372 3047 722 3315 
Q 1072 3584 1716 3584 
Q 2034 3584 2315 3537 
Q 2597 3491 2834 3397 
z
" transform="scale(0.015625)"/>
      <path id="DejaVuSans-41" d="M 2188 4044 
L 1331 1722 
L 3047 1722 
L 2188 4044 
z
M 1831 4666 
L 2547 4666 
L 4325 0 
L 3669 0 
L 3244 1197 
L 1141 1197 
L 716 0 
L 50 0 
L 1831 4666 
z
" transform="scale(0.015625)"/>
      <path id="DejaVuSans-43" d="M 4122 4306 
L 4122 3641 
Q 3803 3938 3442 4084 
Q 3081 4231 2675 4231 
Q 1875 4231 1450 3742 
Q 1025 3253 1025 2328 
Q 1025 1406 1450 917 
Q 1875 428 2675 428 
Q 3081 428 3442 575 
Q 3803 722 4122 1019 
L 4122 359 
Q 3791 134 3420 21 
Q 3050 -91 2638 -91 
Q 1578 -91 968 557 
Q 359 1206 359 2328 
Q 359 3453 968 4101 
Q 1578 4750 2638 4750 
Q 3056 4750 3426 4639 
Q 3797 4528 4122 4306 
z
" transform="scale(0.015625)"/>
      <path id="DejaVuSans-28" d="M 1984 4856 
Q 1566 4138 1362 3434 
Q 1159 2731 1159 2009 
Q 1159 1288 1364 580 
Q 1569 -128 1984 -844 
L 1484 -844 
Q 1016 -109 783 600 
Q 550 1309 550 2009 
Q 550 2706 781 3412 
Q 1013 4119 1484 4856 
L 1984 4856 
z
" transform="scale(0.015625)"/>
      <path id="DejaVuSans-46" d="M 628 4666 
L 3309 4666 
L 3309 4134 
L 1259 4134 
L 1259 2759 
L 3109 2759 
L 3109 2228 
L 1259 2228 
L 1259 0 
L 628 0 
L 628 4666 
z
" transform="scale(0.015625)"/>
      <path id="DejaVuSans-2b" d="M 2944 4013 
L 2944 2272 
L 4684 2272 
L 4684 1741 
L 2944 1741 
L 2944 0 
L 2419 0 
L 2419 1741 
L 678 1741 
L 678 2272 
L 2419 2272 
L 2419 4013 
L 2944 4013 
z
" transform="scale(0.015625)"/>
      <path id="DejaVuSans-51" d="M 2522 4238 
Q 1834 4238 1429 3725 
Q 1025 3213 1025 2328 
Q 1025 1447 1429 934 
Q 1834 422 2522 422 
Q 3209 422 3611 934 
Q 4013 1447 4013 2328 
Q 4013 3213 3611 3725 
Q 3209 4238 2522 4238 
z
M 3406 84 
L 4238 -825 
L 3475 -825 
L 2784 -78 
Q 2681 -84 2626 -87 
Q 2572 -91 2522 -91 
Q 1538 -91 948 567 
Q 359 1225 359 2328 
Q 359 3434 948 4092 
Q 1538 4750 2522 4750 
Q 3503 4750 4090 4092 
Q 4678 3434 4678 2328 
Q 4678 1516 4351 937 
Q 4025 359 3406 84 
z
" transform="scale(0.015625)"/>
      <path id="DejaVuSans-6f" d="M 1959 3097 
Q 1497 3097 1228 2736 
Q 959 2375 959 1747 
Q 959 1119 1226 758 
Q 1494 397 1959 397 
Q 2419 397 2687 759 
Q 2956 1122 2956 1747 
Q 2956 2369 2687 2733 
Q 2419 3097 1959 3097 
z
M 1959 3584 
Q 2709 3584 3137 3096 
Q 3566 2609 3566 1747 
Q 3566 888 3137 398 
Q 2709 -91 1959 -91 
Q 1206 -91 779 398 
Q 353 888 353 1747 
Q 353 2609 779 3096 
Q 1206 3584 1959 3584 
z
" transform="scale(0.015625)"/>
      <path id="DejaVuSans-6e" d="M 3513 2113 
L 3513 0 
L 2938 0 
L 2938 2094 
Q 2938 2591 2744 2837 
Q 2550 3084 2163 3084 
Q 1697 3084 1428 2787 
Q 1159 2491 1159 1978 
L 1159 0 
L 581 0 
L 581 3500 
L 1159 3500 
L 1159 2956 
Q 1366 3272 1645 3428 
Q 1925 3584 2291 3584 
Q 2894 3584 3203 3211 
Q 3513 2838 3513 2113 
z
" transform="scale(0.015625)"/>
      <path id="DejaVuSans-72" d="M 2631 2963 
Q 2534 3019 2420 3045 
Q 2306 3072 2169 3072 
Q 1681 3072 1420 2755 
Q 1159 2438 1159 1844 
L 1159 0 
L 581 0 
L 581 3500 
L 1159 3500 
L 1159 2956 
Q 1341 3275 1631 3429 
Q 1922 3584 2338 3584 
Q 2397 3584 2469 3576 
Q 2541 3569 2628 3553 
L 2631 2963 
z
" transform="scale(0.015625)"/>
      <path id="DejaVuSans-29" d="M 513 4856 
L 1013 4856 
Q 1481 4119 1714 3412 
Q 1947 2706 1947 2009 
Q 1947 1309 1714 600 
Q 1481 -109 1013 -844 
L 513 -844 
Q 928 -128 1133 580 
Q 1338 1288 1338 2009 
Q 1338 2731 1133 3434 
Q 928 4138 513 4856 
z
" transform="scale(0.015625)"/>
     </defs>
     <use xlink:href="#DejaVuSans-44"/>
     <use xlink:href="#DejaVuSans-75" transform="translate(77.001953 0)"/>
     <use xlink:href="#DejaVuSans-61" transform="translate(140.380859 0)"/>
     <use xlink:href="#DejaVuSans-6c" transform="translate(201.660156 0)"/>
     <use xlink:href="#DejaVuSans-20" transform="translate(229.443359 0)"/>
     <use xlink:href="#DejaVuSans-34" transform="translate(261.230469 0)"/>
     <use xlink:href="#DejaVuSans-2d" transform="translate(324.853516 0)"/>
     <use xlink:href="#DejaVuSans-62" transform="translate(360.9375 0)"/>
     <use xlink:href="#DejaVuSans-69" transform="translate(424.414062 0)"/>
     <use xlink:href="#DejaVuSans-74" transform="translate(452.197266 0)"/>
     <use xlink:href="#DejaVuSans-20" transform="translate(491.40625 0)"/>
     <use xlink:href="#DejaVuSans-42" transform="translate(523.193359 0)"/>
     <use xlink:href="#DejaVuSans-69" transform="translate(591.796875 0)"/>
     <use xlink:href="#DejaVuSans-61" transform="translate(619.580078 0)"/>
     <use xlink:href="#DejaVuSans-73" transform="translate(680.859375 0)"/>
     <use xlink:href="#DejaVuSans-20" transform="translate(732.958984 0)"/>
     <use xlink:href="#DejaVuSans-44" transform="translate(764.746094 0)"/>
     <use xlink:href="#DejaVuSans-41" transform="translate(839.998047 0)"/>
     <use xlink:href="#DejaVuSans-43" transform="translate(906.65625 0)"/>
     <use xlink:href="#DejaVuSans-20" transform="translate(976.480469 0)"/>
     <use xlink:href="#DejaVuSans-28" transform="translate(1008.267578 0)"/>
     <use xlink:href="#DejaVuSans-46" transform="translate(1047.28125 0)"/>
     <use xlink:href="#DejaVuSans-43" transform="translate(1104.800781 0)"/>
     <use xlink:href="#DejaVuSans-20" transform="translate(1174.625 0)"/>
     <use xlink:href="#DejaVuSans-2b" transform="translate(1206.412109 0)"/>
     <use xlink:href="#DejaVuSans-20" transform="translate(1290.201172 0)"/>
     <use xlink:href="#DejaVuSans-51" transform="translate(1321.988281 0)"/>
     <use xlink:href="#DejaVuSans-20" transform="translate(1400.699219 0)"/>
     <use xlink:href="#DejaVuSans-43" transform="translate(1432.486328 0)"/>
     <use xlink:href="#DejaVuSans-6f" transform="translate(1502.310547 0)"/>
     <use xlink:href="#DejaVuSans-6e" transform="translate(1563.492188 0)"/>
     <use xlink:href="#DejaVuSans-74" transform="translate(1626.871094 0)"/>
     <use xlink:href="#DejaVuSans-72" transform="translate(1666.080078 0)"/>
     <use xlink:href="#DejaVuSans-6f" transform="translate(1704.943359 0)"/>
     <use xlink:href="#DejaVuSans-6c" transform="translate(1766.125 0)"/>
     <use xlink:href="#DejaVuSans-29" transform="translate(1793.908203 0)"/>
    </g>
   </g>
   <g id="text_2">
    <!-- IHP SG13G2 130nm — R-2R ladder, VDD=1.2V -->
    <g style="fill: #808080" transform="translate(64.746 331.163438) scale(0.09 -0.09)">
     <defs>
      <path id="DejaVuSans-49" d="M 628 4666 
L 1259 4666 
L 1259 0 
L 628 0 
L 628 4666 
z
" transform="scale(0.015625)"/>
      <path id="DejaVuSans-48" d="M 628 4666 
L 1259 4666 
L 1259 2753 
L 3553 2753 
L 3553 4666 
L 4184 4666 
L 4184 0 
L 3553 0 
L 3553 2222 
L 1259 2222 
L 1259 0 
L 628 0 
L 628 4666 
z
" transform="scale(0.015625)"/>
      <path id="DejaVuSans-50" d="M 1259 4147 
L 1259 2394 
L 2053 2394 
Q 2494 2394 2734 2622 
Q 2975 2850 2975 3272 
Q 2975 3691 2734 3919 
Q 2494 4147 2053 4147 
L 1259 4147 
z
M 628 4666 
L 2053 4666 
Q 2838 4666 3239 4311 
Q 3641 3956 3641 3272 
Q 3641 2581 3239 2228 
Q 2838 1875 2053 1875 
L 1259 1875 
L 1259 0 
L 628 0 
L 628 4666 
z
" transform="scale(0.015625)"/>
      <path id="DejaVuSans-53" d="M 3425 4513 
L 3425 3897 
Q 3066 4069 2747 4153 
Q 2428 4238 2131 4238 
Q 1616 4238 1336 4038 
Q 1056 3838 1056 3469 
Q 1056 3159 1242 3001 
Q 1428 2844 1947 2747 
L 2328 2669 
Q 3034 2534 3370 2195 
Q 3706 1856 3706 1288 
Q 3706 609 3251 259 
Q 2797 -91 1919 -91 
Q 1588 -91 1214 -16 
Q 841 59 441 206 
L 441 856 
Q 825 641 1194 531 
Q 1563 422 1919 422 
Q 2459 422 2753 634 
Q 3047 847 3047 1241 
Q 3047 1584 2836 1778 
Q 2625 1972 2144 2069 
L 1759 2144 
Q 1053 2284 737 2584 
Q 422 2884 422 3419 
Q 422 4038 858 4394 
Q 1294 4750 2059 4750 
Q 2388 4750 2728 4690 
Q 3069 4631 3425 4513 
z
" transform="scale(0.015625)"/>
      <path id="DejaVuSans-47" d="M 3809 666 
L 3809 1919 
L 2778 1919 
L 2778 2438 
L 4434 2438 
L 4434 434 
Q 4069 175 3628 42 
Q 3188 -91 2688 -91 
Q 1594 -91 976 548 
Q 359 1188 359 2328 
Q 359 3472 976 4111 
Q 1594 4750 2688 4750 
Q 3144 4750 3555 4637 
Q 3966 4525 4313 4306 
L 4313 3634 
Q 3963 3931 3569 4081 
Q 3175 4231 2741 4231 
Q 1884 4231 1454 3753 
Q 1025 3275 1025 2328 
Q 1025 1384 1454 906 
Q 1884 428 2741 428 
Q 3075 428 3337 486 
Q 3600 544 3809 666 
z
" transform="scale(0.015625)"/>
      <path id="DejaVuSans-31" d="M 794 531 
L 1825 531 
L 1825 4091 
L 703 3866 
L 703 4441 
L 1819 4666 
L 2450 4666 
L 2450 531 
L 3481 531 
L 3481 0 
L 794 0 
L 794 531 
z
" transform="scale(0.015625)"/>
      <path id="DejaVuSans-33" d="M 2597 2516 
Q 3050 2419 3304 2112 
Q 3559 1806 3559 1356 
Q 3559 666 3084 287 
Q 2609 -91 1734 -91 
Q 1441 -91 1130 -33 
Q 819 25 488 141 
L 488 750 
Q 750 597 1062 519 
Q 1375 441 1716 441 
Q 2309 441 2620 675 
Q 2931 909 2931 1356 
Q 2931 1769 2642 2001 
Q 2353 2234 1838 2234 
L 1294 2234 
L 1294 2753 
L 1863 2753 
Q 2328 2753 2575 2939 
Q 2822 3125 2822 3475 
Q 2822 3834 2567 4026 
Q 2313 4219 1838 4219 
Q 1578 4219 1281 4162 
Q 984 4106 628 3988 
L 628 4550 
Q 988 4650 1302 4700 
Q 1616 4750 1894 4750 
Q 2613 4750 3031 4423 
Q 3450 4097 3450 3541 
Q 3450 3153 3228 2886 
Q 3006 2619 2597 2516 
z
" transform="scale(0.015625)"/>
      <path id="DejaVuSans-32" d="M 1228 531 
L 3431 531 
L 3431 0 
L 469 0 
L 469 531 
Q 828 903 1448 1529 
Q 2069 2156 2228 2338 
Q 2531 2678 2651 2914 
Q 2772 3150 2772 3378 
Q 2772 3750 2511 3984 
Q 2250 4219 1831 4219 
Q 1534 4219 1204 4116 
Q 875 4013 500 3803 
L 500 4441 
Q 881 4594 1212 4672 
Q 1544 4750 1819 4750 
Q 2544 4750 2975 4387 
Q 3406 4025 3406 3419 
Q 3406 3131 3298 2873 
Q 3191 2616 2906 2266 
Q 2828 2175 2409 1742 
Q 1991 1309 1228 531 
z
" transform="scale(0.015625)"/>
      <path id="DejaVuSans-30" d="M 2034 4250 
Q 1547 4250 1301 3770 
Q 1056 3291 1056 2328 
Q 1056 1369 1301 889 
Q 1547 409 2034 409 
Q 2525 409 2770 889 
Q 3016 1369 3016 2328 
Q 3016 3291 2770 3770 
Q 2525 4250 2034 4250 
z
M 2034 4750 
Q 2819 4750 3233 4129 
Q 3647 3509 3647 2328 
Q 3647 1150 3233 529 
Q 2819 -91 2034 -91 
Q 1250 -91 836 529 
Q 422 1150 422 2328 
Q 422 3509 836 4129 
Q 1250 4750 2034 4750 
z
" transform="scale(0.015625)"/>
      <path id="DejaVuSans-6d" d="M 3328 2828 
Q 3544 3216 3844 3400 
Q 4144 3584 4550 3584 
Q 5097 3584 5394 3201 
Q 5691 2819 5691 2113 
L 5691 0 
L 5113 0 
L 5113 2094 
Q 5113 2597 4934 2840 
Q 4756 3084 4391 3084 
Q 3944 3084 3684 2787 
Q 3425 2491 3425 1978 
L 3425 0 
L 2847 0 
L 2847 2094 
Q 2847 2600 2669 2842 
Q 2491 3084 2119 3084 
Q 1678 3084 1418 2786 
Q 1159 2488 1159 1978 
L 1159 0 
L 581 0 
L 581 3500 
L 1159 3500 
L 1159 2956 
Q 1356 3278 1631 3431 
Q 1906 3584 2284 3584 
Q 2666 3584 2933 3390 
Q 3200 3197 3328 2828 
z
" transform="scale(0.015625)"/>
      <path id="DejaVuSans-2014" d="M 313 1978 
L 6088 1978 
L 6088 1528 
L 313 1528 
L 313 1978 
z
" transform="scale(0.015625)"/>
      <path id="DejaVuSans-52" d="M 2841 2188 
Q 3044 2119 3236 1894 
Q 3428 1669 3622 1275 
L 4263 0 
L 3584 0 
L 2988 1197 
Q 2756 1666 2539 1819 
Q 2322 1972 1947 1972 
L 1259 1972 
L 1259 0 
L 628 0 
L 628 4666 
L 2053 4666 
Q 2853 4666 3247 4331 
Q 3641 3997 3641 3322 
Q 3641 2881 3436 2590 
Q 3231 2300 2841 2188 
z
M 1259 4147 
L 1259 2491 
L 2053 2491 
Q 2509 2491 2742 2702 
Q 2975 2913 2975 3322 
Q 2975 3731 2742 3939 
Q 2509 4147 2053 4147 
L 1259 4147 
z
" transform="scale(0.015625)"/>
      <path id="DejaVuSans-64" d="M 2906 2969 
L 2906 4863 
L 3481 4863 
L 3481 0 
L 2906 0 
L 2906 525 
Q 2725 213 2448 61 
Q 2172 -91 1784 -91 
Q 1150 -91 751 415 
Q 353 922 353 1747 
Q 353 2572 751 3078 
Q 1150 3584 1784 3584 
Q 2172 3584 2448 3432 
Q 2725 3281 2906 2969 
z
M 947 1747 
Q 947 1113 1208 752 
Q 1469 391 1925 391 
Q 2381 391 2643 752 
Q 2906 1113 2906 1747 
Q 2906 2381 2643 2742 
Q 2381 3103 1925 3103 
Q 1469 3103 1208 2742 
Q 947 2381 947 1747 
z
" transform="scale(0.015625)"/>
      <path id="DejaVuSans-65" d="M 3597 1894 
L 3597 1613 
L 953 1613 
Q 991 1019 1311 708 
Q 1631 397 2203 397 
Q 2534 397 2845 478 
Q 3156 559 3463 722 
L 3463 178 
Q 3153 47 2828 -22 
Q 2503 -91 2169 -91 
Q 1331 -91 842 396 
Q 353 884 353 1716 
Q 353 2575 817 3079 
Q 1281 3584 2069 3584 
Q 2775 3584 3186 3129 
Q 3597 2675 3597 1894 
z
M 3022 2063 
Q 3016 2534 2758 2815 
Q 2500 3097 2075 3097 
Q 1594 3097 1305 2825 
Q 1016 2553 972 2059 
L 3022 2063 
z
" transform="scale(0.015625)"/>
      <path id="DejaVuSans-2c" d="M 750 794 
L 1409 794 
L 1409 256 
L 897 -744 
L 494 -744 
L 750 256 
L 750 794 
z
" transform="scale(0.015625)"/>
      <path id="DejaVuSans-56" d="M 1831 0 
L 50 4666 
L 709 4666 
L 2188 738 
L 3669 4666 
L 4325 4666 
L 2547 0 
L 1831 0 
z
" transform="scale(0.015625)"/>
      <path id="DejaVuSans-3d" d="M 678 2906 
L 4684 2906 
L 4684 2381 
L 678 2381 
L 678 2906 
z
M 678 1631 
L 4684 1631 
L 4684 1100 
L 678 1100 
L 678 1631 
z
" transform="scale(0.015625)"/>
      <path id="DejaVuSans-2e" d="M 684 794 
L 1344 794 
L 1344 0 
L 684 0 
L 684 794 
z
" transform="scale(0.015625)"/>
     </defs>
     <use xlink:href="#DejaVuSans-49"/>
     <use xlink:href="#DejaVuSans-48" transform="translate(29.492188 0)"/>
     <use xlink:href="#DejaVuSans-50" transform="translate(104.6875 0)"/>
     <use xlink:href="#DejaVuSans-20" transform="translate(164.990234 0)"/>
     <use xlink:href="#DejaVuSans-53" transform="translate(196.777344 0)"/>
     <use xlink:href="#DejaVuSans-47" transform="translate(260.253906 0)"/>
     <use xlink:href="#DejaVuSans-31" transform="translate(337.744141 0)"/>
     <use xlink:href="#DejaVuSans-33" transform="translate(401.367188 0)"/>
     <use xlink:href="#DejaVuSans-47" transform="translate(464.990234 0)"/>
     <use xlink:href="#DejaVuSans-32" transform="translate(542.480469 0)"/>
     <use xlink:href="#DejaVuSans-20" transform="translate(606.103516 0)"/>
     <use xlink:href="#DejaVuSans-31" transform="translate(637.890625 0)"/>
     <use xlink:href="#DejaVuSans-33" transform="translate(701.513672 0)"/>
     <use xlink:href="#DejaVuSans-30" transform="translate(765.136719 0)"/>
     <use xlink:href="#DejaVuSans-6e" transform="translate(828.759766 0)"/>
     <use xlink:href="#DejaVuSans-6d" transform="translate(892.138672 0)"/>
     <use xlink:href="#DejaVuSans-20" transform="translate(989.550781 0)"/>
     <use xlink:href="#DejaVuSans-2014" transform="translate(1021.337891 0)"/>
     <use xlink:href="#DejaVuSans-20" transform="translate(1121.337891 0)"/>
     <use xlink:href="#DejaVuSans-52" transform="translate(1153.125 0)"/>
     <use xlink:href="#DejaVuSans-2d" transform="translate(1218.607422 0)"/>
     <use xlink:href="#DejaVuSans-32" transform="translate(1254.691406 0)"/>
     <use xlink:href="#DejaVuSans-52" transform="translate(1318.314453 0)"/>
     <use xlink:href="#DejaVuSans-20" transform="translate(1387.796875 0)"/>
     <use xlink:href="#DejaVuSans-6c" transform="translate(1419.583984 0)"/>
     <use xlink:href="#DejaVuSans-61" transform="translate(1447.367188 0)"/>
     <use xlink:href="#DejaVuSans-64" transform="translate(1508.646484 0)"/>
     <use xlink:href="#DejaVuSans-64" transform="translate(1572.123047 0)"/>
     <use xlink:href="#DejaVuSans-65" transform="translate(1635.599609 0)"/>
     <use xlink:href="#DejaVuSans-72" transform="translate(1697.123047 0)"/>
     <use xlink:href="#DejaVuSans-2c" transform="translate(1738.236328 0)"/>
     <use xlink:href="#DejaVuSans-20" transform="translate(1770.023438 0)"/>
     <use xlink:href="#DejaVuSans-56" transform="translate(1801.810547 0)"/>
     <use xlink:href="#DejaVuSans-44" transform="translate(1870.21875 0)"/>
     <use xlink:href="#DejaVuSans-44" transform="translate(1947.220703 0)"/>
     <use xlink:href="#DejaVuSans-3d" transform="translate(2024.222656 0)"/>
     <use xlink:href="#DejaVuSans-31" transform="translate(2108.011719 0)"/>
     <use xlink:href="#DejaVuSans-2e" transform="translate(2171.634766 0)"/>
     <use xlink:href="#DejaVuSans-32" transform="translate(2203.421875 0)"/>
     <use xlink:href="#DejaVuSans-56" transform="translate(2267.044922 0)"/>
    </g>
   </g>
   <g id="text_3">
    <!-- FC Channel -->
    <g style="fill: #0000ff" transform="translate(29.814047 322.792344) scale(0.11 -0.11)">
     <defs>
      <path id="DejaVuSans-68" d="M 3513 2113 
L 3513 0 
L 2938 0 
L 2938 2094 
Q 2938 2591 2744 2837 
Q 2550 3084 2163 3084 
Q 1697 3084 1428 2787 
Q 1159 2491 1159 1978 
L 1159 0 
L 581 0 
L 581 4863 
L 1159 4863 
L 1159 2956 
Q 1366 3272 1645 3428 
Q 1925 3584 2291 3584 
Q 2894 3584 3203 3211 
Q 3513 2838 3513 2113 
z
" transform="scale(0.015625)"/>
     </defs>
     <use xlink:href="#DejaVuSans-46"/>
     <use xlink:href="#DejaVuSans-43" transform="translate(57.519531 0)"/>
     <use xlink:href="#DejaVuSans-20" transform="translate(127.34375 0)"/>
     <use xlink:href="#DejaVuSans-43" transform="translate(159.130859 0)"/>
     <use xlink:href="#DejaVuSans-68" transform="translate(228.955078 0)"/>
     <use xlink:href="#DejaVuSans-61" transform="translate(292.333984 0)"/>
     <use xlink:href="#DejaVuSans-6e" transform="translate(353.613281 0)"/>
     <use xlink:href="#DejaVuSans-6e" transform="translate(416.992188 0)"/>
     <use xlink:href="#DejaVuSans-65" transform="translate(480.371094 0)"/>
     <use xlink:href="#DejaVuSans-6c" transform="translate(541.894531 0)"/>
    </g>
   </g>
   <g id="text_4">
    <!-- R -->
    <g transform="translate(129.671781 152.678438) scale(0.1 -0.1)">
     <use xlink:href="#DejaVuSans-52"/>
    </g>
   </g>
   <g id="text_5">
    <!-- 2R -->
    <g transform="translate(63.490531 126.800313) scale(0.1 -0.1)">
     <use xlink:href="#DejaVuSans-32"/>
     <use xlink:href="#DejaVuSans-52" transform="translate(63.623047 0)"/>
    </g>
   </g>
   <g id="patch_10">
    <path d="M 38.826 145.8 
C 39.971677 145.8 41.070585 145.344818 41.880701 144.534701 
C 42.690818 143.724585 43.146 142.625677 43.146 141.48 
C 43.146 140.334323 42.690818 139.235415 41.880701 138.425299 
C 41.070585 137.615182 39.971677 137.16 38.826 137.16 
C 37.680323 137.16 36.581415 137.615182 35.771299 138.425299 
C 34.961182 139.235415 34.506 140.334323 34.506 141.48 
C 34.506 142.625677 34.961182 143.724585 35.771299 144.534701 
C 36.581415 145.344818 37.680323 145.8 38.826 145.8 
z
" clip-path="url(#p86993ab693)" style="fill: #ffffff; stroke: #000000; stroke-width: 2; stroke-linejoin: miter"/>
   </g>
   <g id="patch_11">
    <path d="M 11.466 145.8 
C 12.611677 145.8 13.710585 145.344818 14.520701 144.534701 
C 15.330818 143.724585 15.786 142.625677 15.786 141.48 
C 15.786 140.334323 15.330818 139.235415 14.520701 138.425299 
C 13.710585 137.615182 12.611677 137.16 11.466 137.16 
C 10.320323 137.16 9.221415 137.615182 8.411299 138.425299 
C 7.601182 139.235415 7.146 140.334323 7.146 141.48 
C 7.146 142.625677 7.601182 143.724585 8.411299 144.534701 
C 9.221415 145.344818 10.320323 145.8 11.466 145.8 
z
" clip-path="url(#p86993ab693)" style="fill: #ffffff; stroke: #000000; stroke-width: 2; stroke-linejoin: miter"/>
   </g>
   <g id="text_6">
    <!-- dfc3 -->
    <g transform="translate(14.281156 121.802188) scale(0.1 -0.1)">
     <defs>
      <path id="DejaVuSans-66" d="M 2375 4863 
L 2375 4384 
L 1825 4384 
Q 1516 4384 1395 4259 
Q 1275 4134 1275 3809 
L 1275 3500 
L 2222 3500 
L 2222 3053 
L 1275 3053 
L 1275 0 
L 697 0 
L 697 3053 
L 147 3053 
L 147 3500 
L 697 3500 
L 697 3744 
Q 697 4328 969 4595 
Q 1241 4863 1831 4863 
L 2375 4863 
z
" transform="scale(0.015625)"/>
      <path id="DejaVuSans-63" d="M 3122 3366 
L 3122 2828 
Q 2878 2963 2633 3030 
Q 2388 3097 2138 3097 
Q 1578 3097 1268 2742 
Q 959 2388 959 1747 
Q 959 1106 1268 751 
Q 1578 397 2138 397 
Q 2388 397 2633 464 
Q 2878 531 3122 666 
L 3122 134 
Q 2881 22 2623 -34 
Q 2366 -91 2075 -91 
Q 1284 -91 818 406 
Q 353 903 353 1747 
Q 353 2603 823 3093 
Q 1294 3584 2113 3584 
Q 2378 3584 2631 3529 
Q 2884 3475 3122 3366 
z
" transform="scale(0.015625)"/>
     </defs>
     <use xlink:href="#DejaVuSans-64"/>
     <use xlink:href="#DejaVuSans-66" transform="translate(63.476562 0)"/>
     <use xlink:href="#DejaVuSans-63" transform="translate(98.681641 0)"/>
     <use xlink:href="#DejaVuSans-33" transform="translate(153.662109 0)"/>
    </g>
    <!-- (MSB) -->
    <g transform="translate(10.325687 131.480313) scale(0.1 -0.1)">
     <defs>
      <path id="DejaVuSans-4d" d="M 628 4666 
L 1569 4666 
L 2759 1491 
L 3956 4666 
L 4897 4666 
L 4897 0 
L 4281 0 
L 4281 4097 
L 3078 897 
L 2444 897 
L 1241 4097 
L 1241 0 
L 628 0 
L 628 4666 
z
" transform="scale(0.015625)"/>
     </defs>
     <use xlink:href="#DejaVuSans-28"/>
     <use xlink:href="#DejaVuSans-4d" transform="translate(39.013672 0)"/>
     <use xlink:href="#DejaVuSans-53" transform="translate(125.292969 0)"/>
     <use xlink:href="#DejaVuSans-42" transform="translate(188.769531 0)"/>
     <use xlink:href="#DejaVuSans-29" transform="translate(257.373047 0)"/>
    </g>
   </g>
   <g id="text_7">
    <!-- R -->
    <g transform="translate(129.671781 199.478438) scale(0.1 -0.1)">
     <use xlink:href="#DejaVuSans-52"/>
    </g>
   </g>
   <g id="text_8">
    <!-- 2R -->
    <g transform="translate(63.490531 173.600313) scale(0.1 -0.1)">
     <use xlink:href="#DejaVuSans-32"/>
     <use xlink:href="#DejaVuSans-52" transform="translate(63.623047 0)"/>
    </g>
   </g>
   <g id="patch_12">
    <path d="M 38.826 192.6 
C 39.971677 192.6 41.070585 192.144818 41.880701 191.334701 
C 42.690818 190.524585 43.146 189.425677 43.146 188.28 
C 43.146 187.134323 42.690818 186.035415 41.880701 185.225299 
C 41.070585 184.415182 39.971677 183.96 38.826 183.96 
C 37.680323 183.96 36.581415 184.415182 35.771299 185.225299 
C 34.961182 186.035415 34.506 187.134323 34.506 188.28 
C 34.506 189.425677 34.961182 190.524585 35.771299 191.334701 
C 36.581415 192.144818 37.680323 192.6 38.826 192.6 
z
" clip-path="url(#p86993ab693)" style="fill: #ffffff; stroke: #000000; stroke-width: 2; stroke-linejoin: miter"/>
   </g>
   <g id="patch_13">
    <path d="M 11.466 192.6 
C 12.611677 192.6 13.710585 192.144818 14.520701 191.334701 
C 15.330818 190.524585 15.786 189.425677 15.786 188.28 
C 15.786 187.134323 15.330818 186.035415 14.520701 185.225299 
C 13.710585 184.415182 12.611677 183.96 11.466 183.96 
C 10.320323 183.96 9.221415 184.415182 8.411299 185.225299 
C 7.601182 186.035415 7.146 187.134323 7.146 188.28 
C 7.146 189.425677 7.601182 190.524585 8.411299 191.334701 
C 9.221415 192.144818 10.320323 192.6 11.466 192.6 
z
" clip-path="url(#p86993ab693)" style="fill: #ffffff; stroke: #000000; stroke-width: 2; stroke-linejoin: miter"/>
   </g>
   <g id="text_9">
    <!-- dfc2 -->
    <g transform="translate(14.281156 178.280313) scale(0.1 -0.1)">
     <use xlink:href="#DejaVuSans-64"/>
     <use xlink:href="#DejaVuSans-66" transform="translate(63.476562 0)"/>
     <use xlink:href="#DejaVuSans-63" transform="translate(98.681641 0)"/>
     <use xlink:href="#DejaVuSans-32" transform="translate(153.662109 0)"/>
    </g>
   </g>
   <g id="text_10">
    <!-- R -->
    <g transform="translate(129.671781 246.278438) scale(0.1 -0.1)">
     <use xlink:href="#DejaVuSans-52"/>
    </g>
   </g>
   <g id="text_11">
    <!-- 2R -->
    <g transform="translate(63.490531 220.400313) scale(0.1 -0.1)">
     <use xlink:href="#DejaVuSans-32"/>
     <use xlink:href="#DejaVuSans-52" transform="translate(63.623047 0)"/>
    </g>
   </g>
   <g id="patch_14">
    <path d="M 38.826 239.4 
C 39.971677 239.4 41.070585 238.944818 41.880701 238.134701 
C 42.690818 237.324585 43.146 236.225677 43.146 235.08 
C 43.146 233.934323 42.690818 232.835415 41.880701 232.025299 
C 41.070585 231.215182 39.971677 230.76 38.826 230.76 
C 37.680323 230.76 36.581415 231.215182 35.771299 232.025299 
C 34.961182 232.835415 34.506 233.934323 34.506 235.08 
C 34.506 236.225677 34.961182 237.324585 35.771299 238.134701 
C 36.581415 238.944818 37.680323 239.4 38.826 239.4 
z
" clip-path="url(#p86993ab693)" style="fill: #ffffff; stroke: #000000; stroke-width: 2; stroke-linejoin: miter"/>
   </g>
   <g id="patch_15">
    <path d="M 11.466 239.4 
C 12.611677 239.4 13.710585 238.944818 14.520701 238.134701 
C 15.330818 237.324585 15.786 236.225677 15.786 235.08 
C 15.786 233.934323 15.330818 232.835415 14.520701 232.025299 
C 13.710585 231.215182 12.611677 230.76 11.466 230.76 
C 10.320323 230.76 9.221415 231.215182 8.411299 232.025299 
C 7.601182 232.835415 7.146 233.934323 7.146 235.08 
C 7.146 236.225677 7.601182 237.324585 8.411299 238.134701 
C 9.221415 238.944818 10.320323 239.4 11.466 239.4 
z
" clip-path="url(#p86993ab693)" style="fill: #ffffff; stroke: #000000; stroke-width: 2; stroke-linejoin: miter"/>
   </g>
   <g id="text_12">
    <!-- dfc1 -->
    <g transform="translate(14.281156 225.080313) scale(0.1 -0.1)">
     <use xlink:href="#DejaVuSans-64"/>
     <use xlink:href="#DejaVuSans-66" transform="translate(63.476562 0)"/>
     <use xlink:href="#DejaVuSans-63" transform="translate(98.681641 0)"/>
     <use xlink:href="#DejaVuSans-31" transform="translate(153.662109 0)"/>
    </g>
   </g>
   <g id="text_13">
    <!-- R -->
    <g transform="translate(129.671781 293.078438) scale(0.1 -0.1)">
     <use xlink:href="#DejaVuSans-52"/>
    </g>
   </g>
   <g id="text_14">
    <!-- 2R -->
    <g transform="translate(63.490531 267.200312) scale(0.1 -0.1)">
     <use xlink:href="#DejaVuSans-32"/>
     <use xlink:href="#DejaVuSans-52" transform="translate(63.623047 0)"/>
    </g>
   </g>
   <g id="patch_16">
    <path d="M 38.826 286.2 
C 39.971677 286.2 41.070585 285.744818 41.880701 284.934701 
C 42.690818 284.124585 43.146 283.025677 43.146 281.88 
C 43.146 280.734323 42.690818 279.635415 41.880701 278.825299 
C 41.070585 278.015182 39.971677 277.56 38.826 277.56 
C 37.680323 277.56 36.581415 278.015182 35.771299 278.825299 
C 34.961182 279.635415 34.506 280.734323 34.506 281.88 
C 34.506 283.025677 34.961182 284.124585 35.771299 284.934701 
C 36.581415 285.744818 37.680323 286.2 38.826 286.2 
z
" clip-path="url(#p86993ab693)" style="fill: #ffffff; stroke: #000000; stroke-width: 2; stroke-linejoin: miter"/>
   </g>
   <g id="patch_17">
    <path d="M 11.466 286.2 
C 12.611677 286.2 13.710585 285.744818 14.520701 284.934701 
C 15.330818 284.124585 15.786 283.025677 15.786 281.88 
C 15.786 280.734323 15.330818 279.635415 14.520701 278.825299 
C 13.710585 278.015182 12.611677 277.56 11.466 277.56 
C 10.320323 277.56 9.221415 278.015182 8.411299 278.825299 
C 7.601182 279.635415 7.146 280.734323 7.146 281.88 
C 7.146 283.025677 7.601182 284.124585 8.411299 284.934701 
C 9.221415 285.744818 10.320323 286.2 11.466 286.2 
z
" clip-path="url(#p86993ab693)" style="fill: #ffffff; stroke: #000000; stroke-width: 2; stroke-linejoin: miter"/>
   </g>
   <g id="text_15">
    <!-- dfc0 -->
    <g transform="translate(14.281156 262.202188) scale(0.1 -0.1)">
     <use xlink:href="#DejaVuSans-64"/>
     <use xlink:href="#DejaVuSans-66" transform="translate(63.476562 0)"/>
     <use xlink:href="#DejaVuSans-63" transform="translate(98.681641 0)"/>
     <use xlink:href="#DejaVuSans-30" transform="translate(153.662109 0)"/>
    </g>
    <!-- (LSB) -->
    <g transform="translate(11.853812 271.880313) scale(0.1 -0.1)">
     <defs>
      <path id="DejaVuSans-4c" d="M 628 4666 
L 1259 4666 
L 1259 531 
L 3531 531 
L 3531 0 
L 628 0 
L 628 4666 
z
" transform="scale(0.015625)"/>
     </defs>
     <use xlink:href="#DejaVuSans-28"/>
     <use xlink:href="#DejaVuSans-4c" transform="translate(39.013672 0)"/>
     <use xlink:href="#DejaVuSans-53" transform="translate(94.726562 0)"/>
     <use xlink:href="#DejaVuSans-42" transform="translate(158.203125 0)"/>
     <use xlink:href="#DejaVuSans-29" transform="translate(226.806641 0)"/>
    </g>
   </g>
   <g id="text_16">
    <!-- 2R -->
    <g transform="translate(126.490531 339.878438) scale(0.1 -0.1)">
     <use xlink:href="#DejaVuSans-32"/>
     <use xlink:href="#DejaVuSans-52" transform="translate(63.623047 0)"/>
    </g>
   </g>
   <g id="text_17">
    <!-- Q Channel -->
    <g style="fill: #0000ff" transform="translate(0.230844 331.715313) scale(0.11 -0.11)">
     <use xlink:href="#DejaVuSans-51"/>
     <use xlink:href="#DejaVuSans-20" transform="translate(78.710938 0)"/>
     <use xlink:href="#DejaVuSans-43" transform="translate(110.498047 0)"/>
     <use xlink:href="#DejaVuSans-68" transform="translate(180.322266 0)"/>
     <use xlink:href="#DejaVuSans-61" transform="translate(243.701172 0)"/>
     <use xlink:href="#DejaVuSans-6e" transform="translate(304.980469 0)"/>
     <use xlink:href="#DejaVuSans-6e" transform="translate(368.359375 0)"/>
     <use xlink:href="#DejaVuSans-65" transform="translate(431.738281 0)"/>
     <use xlink:href="#DejaVuSans-6c" transform="translate(493.261719 0)"/>
    </g>
   </g>
   <g id="text_18">
    <!-- R -->
    <g transform="translate(453.671781 152.678438) scale(0.1 -0.1)">
     <use xlink:href="#DejaVuSans-52"/>
    </g>
   </g>
   <g id="text_19">
    <!-- 2R -->
    <g transform="translate(387.490531 126.800313) scale(0.1 -0.1)">
     <use xlink:href="#DejaVuSans-32"/>
     <use xlink:href="#DejaVuSans-52" transform="translate(63.623047 0)"/>
    </g>
   </g>
   <g id="patch_18">
    <path d="M 362.826 145.8 
C 363.971677 145.8 365.070585 145.344818 365.880701 144.534701 
C 366.690818 143.724585 367.146 142.625677 367.146 141.48 
C 367.146 140.334323 366.690818 139.235415 365.880701 138.425299 
C 365.070585 137.615182 363.971677 137.16 362.826 137.16 
C 361.680323 137.16 360.581415 137.615182 359.771299 138.425299 
C 358.961182 139.235415 358.506 140.334323 358.506 141.48 
C 358.506 142.625677 358.961182 143.724585 359.771299 144.534701 
C 360.581415 145.344818 361.680323 145.8 362.826 145.8 
z
" clip-path="url(#p86993ab693)" style="fill: #ffffff; stroke: #000000; stroke-width: 2; stroke-linejoin: miter"/>
   </g>
   <g id="patch_19">
    <path d="M 335.466 145.8 
C 336.611677 145.8 337.710585 145.344818 338.520701 144.534701 
C 339.330818 143.724585 339.786 142.625677 339.786 141.48 
C 339.786 140.334323 339.330818 139.235415 338.520701 138.425299 
C 337.710585 137.615182 336.611677 137.16 335.466 137.16 
C 334.320323 137.16 333.221415 137.615182 332.411299 138.425299 
C 331.601182 139.235415 331.146 140.334323 331.146 141.48 
C 331.146 142.625677 331.601182 143.724585 332.411299 144.534701 
C 333.221415 145.344818 334.320323 145.8 335.466 145.8 
z
" clip-path="url(#p86993ab693)" style="fill: #ffffff; stroke: #000000; stroke-width: 2; stroke-linejoin: miter"/>
   </g>
   <g id="text_20">
    <!-- dq3 -->
    <g transform="translate(339.616312 121.802188) scale(0.1 -0.1)">
     <defs>
      <path id="DejaVuSans-71" d="M 947 1747 
Q 947 1113 1208 752 
Q 1469 391 1925 391 
Q 2381 391 2643 752 
Q 2906 1113 2906 1747 
Q 2906 2381 2643 2742 
Q 2381 3103 1925 3103 
Q 1469 3103 1208 2742 
Q 947 2381 947 1747 
z
M 2906 525 
Q 2725 213 2448 61 
Q 2172 -91 1784 -91 
Q 1150 -91 751 415 
Q 353 922 353 1747 
Q 353 2572 751 3078 
Q 1150 3584 1784 3584 
Q 2172 3584 2448 3432 
Q 2725 3281 2906 2969 
L 2906 3500 
L 3481 3500 
L 3481 -1331 
L 2906 -1331 
L 2906 525 
z
" transform="scale(0.015625)"/>
     </defs>
     <use xlink:href="#DejaVuSans-64"/>
     <use xlink:href="#DejaVuSans-71" transform="translate(63.476562 0)"/>
     <use xlink:href="#DejaVuSans-33" transform="translate(126.953125 0)"/>
    </g>
    <!-- (MSB) -->
    <g transform="translate(334.325688 131.480313) scale(0.1 -0.1)">
     <use xlink:href="#DejaVuSans-28"/>
     <use xlink:href="#DejaVuSans-4d" transform="translate(39.013672 0)"/>
     <use xlink:href="#DejaVuSans-53" transform="translate(125.292969 0)"/>
     <use xlink:href="#DejaVuSans-42" transform="translate(188.769531 0)"/>
     <use xlink:href="#DejaVuSans-29" transform="translate(257.373047 0)"/>
    </g>
   </g>
   <g id="text_21">
    <!-- R -->
    <g transform="translate(453.671781 199.478438) scale(0.1 -0.1)">
     <use xlink:href="#DejaVuSans-52"/>
    </g>
   </g>
   <g id="text_22">
    <!-- 2R -->
    <g transform="translate(387.490531 173.600313) scale(0.1 -0.1)">
     <use xlink:href="#DejaVuSans-32"/>
     <use xlink:href="#DejaVuSans-52" transform="translate(63.623047 0)"/>
    </g>
   </g>
   <g id="patch_20">
    <path d="M 362.826 192.6 
C 363.971677 192.6 365.070585 192.144818 365.880701 191.334701 
C 366.690818 190.524585 367.146 189.425677 367.146 188.28 
C 367.146 187.134323 366.690818 186.035415 365.880701 185.225299 
C 365.070585 184.415182 363.971677 183.96 362.826 183.96 
C 361.680323 183.96 360.581415 184.415182 359.771299 185.225299 
C 358.961182 186.035415 358.506 187.134323 358.506 188.28 
C 358.506 189.425677 358.961182 190.524585 359.771299 191.334701 
C 360.581415 192.144818 361.680323 192.6 362.826 192.6 
z
" clip-path="url(#p86993ab693)" style="fill: #ffffff; stroke: #000000; stroke-width: 2; stroke-linejoin: miter"/>
   </g>
   <g id="patch_21">
    <path d="M 335.466 192.6 
C 336.611677 192.6 337.710585 192.144818 338.520701 191.334701 
C 339.330818 190.524585 339.786 189.425677 339.786 188.28 
C 339.786 187.134323 339.330818 186.035415 338.520701 185.225299 
C 337.710585 184.415182 336.611677 183.96 335.466 183.96 
C 334.320323 183.96 333.221415 184.415182 332.411299 185.225299 
C 331.601182 186.035415 331.146 187.134323 331.146 188.28 
C 331.146 189.425677 331.601182 190.524585 332.411299 191.334701 
C 333.221415 192.144818 334.320323 192.6 335.466 192.6 
z
" clip-path="url(#p86993ab693)" style="fill: #ffffff; stroke: #000000; stroke-width: 2; stroke-linejoin: miter"/>
   </g>
   <g id="text_23">
    <!-- dq2 -->
    <g transform="translate(339.616312 178.280313) scale(0.1 -0.1)">
     <use xlink:href="#DejaVuSans-64"/>
     <use xlink:href="#DejaVuSans-71" transform="translate(63.476562 0)"/>
     <use xlink:href="#DejaVuSans-32" transform="translate(126.953125 0)"/>
    </g>
   </g>
   <g id="text_24">
    <!-- R -->
    <g transform="translate(453.671781 246.278438) scale(0.1 -0.1)">
     <use xlink:href="#DejaVuSans-52"/>
    </g>
   </g>
   <g id="text_25">
    <!-- 2R -->
    <g transform="translate(387.490531 220.400313) scale(0.1 -0.1)">
     <use xlink:href="#DejaVuSans-32"/>
     <use xlink:href="#DejaVuSans-52" transform="translate(63.623047 0)"/>
    </g>
   </g>
   <g id="patch_22">
    <path d="M 362.826 239.4 
C 363.971677 239.4 365.070585 238.944818 365.880701 238.134701 
C 366.690818 237.324585 367.146 236.225677 367.146 235.08 
C 367.146 233.934323 366.690818 232.835415 365.880701 232.025299 
C 365.070585 231.215182 363.971677 230.76 362.826 230.76 
C 361.680323 230.76 360.581415 231.215182 359.771299 232.025299 
C 358.961182 232.835415 358.506 233.934323 358.506 235.08 
C 358.506 236.225677 358.961182 237.324585 359.771299 238.134701 
C 360.581415 238.944818 361.680323 239.4 362.826 239.4 
z
" clip-path="url(#p86993ab693)" style="fill: #ffffff; stroke: #000000; stroke-width: 2; stroke-linejoin: miter"/>
   </g>
   <g id="patch_23">
    <path d="M 335.466 239.4 
C 336.611677 239.4 337.710585 238.944818 338.520701 238.134701 
C 339.330818 237.324585 339.786 236.225677 339.786 235.08 
C 339.786 233.934323 339.330818 232.835415 338.520701 232.025299 
C 337.710585 231.215182 336.611677 230.76 335.466 230.76 
C 334.320323 230.76 333.221415 231.215182 332.411299 232.025299 
C 331.601182 232.835415 331.146 233.934323 331.146 235.08 
C 331.146 236.225677 331.601182 237.324585 332.411299 238.134701 
C 333.221415 238.944818 334.320323 239.4 335.466 239.4 
z
" clip-path="url(#p86993ab693)" style="fill: #ffffff; stroke: #000000; stroke-width: 2; stroke-linejoin: miter"/>
   </g>
   <g id="text_26">
    <!-- dq1 -->
    <g transform="translate(339.616312 225.080313) scale(0.1 -0.1)">
     <use xlink:href="#DejaVuSans-64"/>
     <use xlink:href="#DejaVuSans-71" transform="translate(63.476562 0)"/>
     <use xlink:href="#DejaVuSans-31" transform="translate(126.953125 0)"/>
    </g>
   </g>
   <g id="text_27">
    <!-- R -->
    <g transform="translate(453.671781 293.078438) scale(0.1 -0.1)">
     <use xlink:href="#DejaVuSans-52"/>
    </g>
   </g>
   <g id="text_28">
    <!-- 2R -->
    <g transform="translate(387.490531 267.200312) scale(0.1 -0.1)">
     <use xlink:href="#DejaVuSans-32"/>
     <use xlink:href="#DejaVuSans-52" transform="translate(63.623047 0)"/>
    </g>
   </g>
   <g id="patch_24">
    <path d="M 362.826 286.2 
C 363.971677 286.2 365.070585 285.744818 365.880701 284.934701 
C 366.690818 284.124585 367.146 283.025677 367.146 281.88 
C 367.146 280.734323 366.690818 279.635415 365.880701 278.825299 
C 365.070585 278.015182 363.971677 277.56 362.826 277.56 
C 361.680323 277.56 360.581415 278.015182 359.771299 278.825299 
C 358.961182 279.635415 358.506 280.734323 358.506 281.88 
C 358.506 283.025677 358.961182 284.124585 359.771299 284.934701 
C 360.581415 285.744818 361.680323 286.2 362.826 286.2 
z
" clip-path="url(#p86993ab693)" style="fill: #ffffff; stroke: #000000; stroke-width: 2; stroke-linejoin: miter"/>
   </g>
   <g id="patch_25">
    <path d="M 335.466 286.2 
C 336.611677 286.2 337.710585 285.744818 338.520701 284.934701 
C 339.330818 284.124585 339.786 283.025677 339.786 281.88 
C 339.786 280.734323 339.330818 279.635415 338.520701 278.825299 
C 337.710585 278.015182 336.611677 277.56 335.466 277.56 
C 334.320323 277.56 333.221415 278.015182 332.411299 278.825299 
C 331.601182 279.635415 331.146 280.734323 331.146 281.88 
C 331.146 283.025677 331.601182 284.124585 332.411299 284.934701 
C 333.221415 285.744818 334.320323 286.2 335.466 286.2 
z
" clip-path="url(#p86993ab693)" style="fill: #ffffff; stroke: #000000; stroke-width: 2; stroke-linejoin: miter"/>
   </g>
   <g id="text_29">
    <!-- dq0 -->
    <g transform="translate(339.616312 262.202188) scale(0.1 -0.1)">
     <use xlink:href="#DejaVuSans-64"/>
     <use xlink:href="#DejaVuSans-71" transform="translate(63.476562 0)"/>
     <use xlink:href="#DejaVuSans-30" transform="translate(126.953125 0)"/>
    </g>
    <!-- (LSB) -->
    <g transform="translate(335.853813 271.880313) scale(0.1 -0.1)">
     <use xlink:href="#DejaVuSans-28"/>
     <use xlink:href="#DejaVuSans-4c" transform="translate(39.013672 0)"/>
     <use xlink:href="#DejaVuSans-53" transform="translate(94.726562 0)"/>
     <use xlink:href="#DejaVuSans-42" transform="translate(158.203125 0)"/>
     <use xlink:href="#DejaVuSans-29" transform="translate(226.806641 0)"/>
    </g>
   </g>
   <g id="text_30">
    <!-- 2R -->
    <g transform="translate(450.490531 339.878438) scale(0.1 -0.1)">
     <use xlink:href="#DejaVuSans-32"/>
     <use xlink:href="#DejaVuSans-52" transform="translate(63.623047 0)"/>
    </g>
   </g>
   <g id="patch_26">
    <path d="M 133.146 97.38 
C 133.862048 97.38 134.548866 97.095511 135.055188 96.589188 
C 135.561511 96.082866 135.846 95.396048 135.846 94.68 
C 135.846 93.963952 135.561511 93.277134 135.055188 92.770812 
C 134.548866 92.264489 133.862048 91.98 133.146 91.98 
C 132.429952 91.98 131.743134 92.264489 131.236812 92.770812 
C 130.730489 93.277134 130.446 93.963952 130.446 94.68 
C 130.446 95.396048 130.730489 96.082866 131.236812 96.589188 
C 131.743134 97.095511 132.429952 97.38 133.146 97.38 
z
" clip-path="url(#p86993ab693)" style="stroke: #000000; stroke-width: 2; stroke-linejoin: miter"/>
   </g>
   <g id="text_31">
    <!-- Vout_fc -->
    <g transform="translate(139.446 97.300313) scale(0.1 -0.1)">
     <defs>
      <path id="DejaVuSans-5f" d="M 3263 -1063 
L 3263 -1509 
L -63 -1509 
L -63 -1063 
L 3263 -1063 
z
" transform="scale(0.015625)"/>
     </defs>
     <use xlink:href="#DejaVuSans-56"/>
     <use xlink:href="#DejaVuSans-6f" transform="translate(60.658203 0)"/>
     <use xlink:href="#DejaVuSans-75" transform="translate(121.839844 0)"/>
     <use xlink:href="#DejaVuSans-74" transform="translate(185.21875 0)"/>
     <use xlink:href="#DejaVuSans-5f" transform="translate(224.427734 0)"/>
     <use xlink:href="#DejaVuSans-66" transform="translate(274.427734 0)"/>
     <use xlink:href="#DejaVuSans-63" transform="translate(309.632812 0)"/>
    </g>
   </g>
   <g id="patch_27">
    <path d="M 133.146 144.18 
C 133.862048 144.18 134.548866 143.895511 135.055188 143.389188 
C 135.561511 142.882866 135.846 142.196048 135.846 141.48 
C 135.846 140.763952 135.561511 140.077134 135.055188 139.570812 
C 134.548866 139.064489 133.862048 138.78 133.146 138.78 
C 132.429952 138.78 131.743134 139.064489 131.236812 139.570812 
C 130.730489 140.077134 130.446 140.763952 130.446 141.48 
C 130.446 142.196048 130.730489 142.882866 131.236812 143.389188 
C 131.743134 143.895511 132.429952 144.18 133.146 144.18 
z
" clip-path="url(#p86993ab693)" style="stroke: #000000; stroke-width: 2; stroke-linejoin: miter"/>
   </g>
   <g id="patch_28">
    <path d="M 133.146 190.98 
C 133.862048 190.98 134.548866 190.695511 135.055188 190.189188 
C 135.561511 189.682866 135.846 188.996048 135.846 188.28 
C 135.846 187.563952 135.561511 186.877134 135.055188 186.370812 
C 134.548866 185.864489 133.862048 185.58 133.146 185.58 
C 132.429952 185.58 131.743134 185.864489 131.236812 186.370812 
C 130.730489 186.877134 130.446 187.563952 130.446 188.28 
C 130.446 188.996048 130.730489 189.682866 131.236812 190.189188 
C 131.743134 190.695511 132.429952 190.98 133.146 190.98 
z
" clip-path="url(#p86993ab693)" style="stroke: #000000; stroke-width: 2; stroke-linejoin: miter"/>
   </g>
   <g id="patch_29">
    <path d="M 133.146 237.78 
C 133.862048 237.78 134.548866 237.495511 135.055188 236.989188 
C 135.561511 236.482866 135.846 235.796048 135.846 235.08 
C 135.846 234.363952 135.561511 233.677134 135.055188 233.170812 
C 134.548866 232.664489 133.862048 232.38 133.146 232.38 
C 132.429952 232.38 131.743134 232.664489 131.236812 233.170812 
C 130.730489 233.677134 130.446 234.363952 130.446 235.08 
C 130.446 235.796048 130.730489 236.482866 131.236812 236.989188 
C 131.743134 237.495511 132.429952 237.78 133.146 237.78 
z
" clip-path="url(#p86993ab693)" style="stroke: #000000; stroke-width: 2; stroke-linejoin: miter"/>
   </g>
   <g id="patch_30">
    <path d="M 133.146 284.58 
C 133.862048 284.58 134.548866 284.295511 135.055188 283.789188 
C 135.561511 283.282866 135.846 282.596048 135.846 281.88 
C 135.846 281.163952 135.561511 280.477134 135.055188 279.970812 
C 134.548866 279.464489 133.862048 279.18 133.146 279.18 
C 132.429952 279.18 131.743134 279.464489 131.236812 279.970812 
C 130.730489 280.477134 130.446 281.163952 130.446 281.88 
C 130.446 282.596048 130.730489 283.282866 131.236812 283.789188 
C 131.743134 284.295511 132.429952 284.58 133.146 284.58 
z
" clip-path="url(#p86993ab693)" style="stroke: #000000; stroke-width: 2; stroke-linejoin: miter"/>
   </g>
   <g id="patch_31">
    <path d="M 457.146 97.38 
C 457.862048 97.38 458.548866 97.095511 459.055188 96.589188 
C 459.561511 96.082866 459.846 95.396048 459.846 94.68 
C 459.846 93.963952 459.561511 93.277134 459.055188 92.770812 
C 458.548866 92.264489 457.862048 91.98 457.146 91.98 
C 456.429952 91.98 455.743134 92.264489 455.236812 92.770812 
C 454.730489 93.277134 454.446 93.963952 454.446 94.68 
C 454.446 95.396048 454.730489 96.082866 455.236812 96.589188 
C 455.743134 97.095511 456.429952 97.38 457.146 97.38 
z
" clip-path="url(#p86993ab693)" style="stroke: #000000; stroke-width: 2; stroke-linejoin: miter"/>
   </g>
   <g id="text_32">
    <!-- Vout_q -->
    <g transform="translate(463.446 97.16125) scale(0.1 -0.1)">
     <use xlink:href="#DejaVuSans-56"/>
     <use xlink:href="#DejaVuSans-6f" transform="translate(60.658203 0)"/>
     <use xlink:href="#DejaVuSans-75" transform="translate(121.839844 0)"/>
     <use xlink:href="#DejaVuSans-74" transform="translate(185.21875 0)"/>
     <use xlink:href="#DejaVuSans-5f" transform="translate(224.427734 0)"/>
     <use xlink:href="#DejaVuSans-71" transform="translate(274.427734 0)"/>
    </g>
   </g>
   <g id="patch_32">
    <path d="M 457.146 144.18 
C 457.862048 144.18 458.548866 143.895511 459.055188 143.389188 
C 459.561511 142.882866 459.846 142.196048 459.846 141.48 
C 459.846 140.763952 459.561511 140.077134 459.055188 139.570812 
C 458.548866 139.064489 457.862048 138.78 457.146 138.78 
C 456.429952 138.78 455.743134 139.064489 455.236812 139.570812 
C 454.730489 140.077134 454.446 140.763952 454.446 141.48 
C 454.446 142.196048 454.730489 142.882866 455.236812 143.389188 
C 455.743134 143.895511 456.429952 144.18 457.146 144.18 
z
" clip-path="url(#p86993ab693)" style="stroke: #000000; stroke-width: 2; stroke-linejoin: miter"/>
   </g>
   <g id="patch_33">
    <path d="M 457.146 190.98 
C 457.862048 190.98 458.548866 190.695511 459.055188 190.189188 
C 459.561511 189.682866 459.846 188.996048 459.846 188.28 
C 459.846 187.563952 459.561511 186.877134 459.055188 186.370812 
C 458.548866 185.864489 457.862048 185.58 457.146 185.58 
C 456.429952 185.58 455.743134 185.864489 455.236812 186.370812 
C 454.730489 186.877134 454.446 187.563952 454.446 188.28 
C 454.446 188.996048 454.730489 189.682866 455.236812 190.189188 
C 455.743134 190.695511 456.429952 190.98 457.146 190.98 
z
" clip-path="url(#p86993ab693)" style="stroke: #000000; stroke-width: 2; stroke-linejoin: miter"/>
   </g>
   <g id="patch_34">
    <path d="M 457.146 237.78 
C 457.862048 237.78 458.548866 237.495511 459.055188 236.989188 
C 459.561511 236.482866 459.846 235.796048 459.846 235.08 
C 459.846 234.363952 459.561511 233.677134 459.055188 233.170812 
C 458.548866 232.664489 457.862048 232.38 457.146 232.38 
C 456.429952 232.38 455.743134 232.664489 455.236812 233.170812 
C 454.730489 233.677134 454.446 234.363952 454.446 235.08 
C 454.446 235.796048 454.730489 236.482866 455.236812 236.989188 
C 455.743134 237.495511 456.429952 237.78 457.146 237.78 
z
" clip-path="url(#p86993ab693)" style="stroke: #000000; stroke-width: 2; stroke-linejoin: miter"/>
   </g>
   <g id="patch_35">
    <path d="M 457.146 284.58 
C 457.862048 284.58 458.548866 284.295511 459.055188 283.789188 
C 459.561511 283.282866 459.846 282.596048 459.846 281.88 
C 459.846 281.163952 459.561511 280.477134 459.055188 279.970812 
C 458.548866 279.464489 457.862048 279.18 457.146 279.18 
C 456.429952 279.18 455.743134 279.464489 455.236812 279.970812 
C 454.730489 280.477134 454.446 281.163952 454.446 281.88 
C 454.446 282.596048 454.730489 283.282866 455.236812 283.789188 
C 455.743134 284.295511 456.429952 284.58 457.146 284.58 
z
" clip-path="url(#p86993ab693)" style="stroke: #000000; stroke-width: 2; stroke-linejoin: miter"/>
   </g>
  </g>
 </g>
 <defs>
  <clipPath id="p86993ab693">
   <rect x="0" y="0" width="500.646" height="356.4"/>
  </clipPath>
 </defs>
</svg>
