<?xml version="1.0" encoding="utf-8" standalone="no"?>
<!DOCTYPE svg PUBLIC "-//W3C//DTD SVG 1.1//EN"
  "http://www.w3.org/Graphics/SVG/1.1/DTD/svg11.dtd">
<svg xmlns:xlink="http://www.w3.org/1999/xlink" width="526.94pt" height="485.36pt" viewBox="0 0 526.94 485.36" xmlns="http://www.w3.org/2000/svg" version="1.1">
 <metadata>
  <rdf:RDF xmlns:dc="http://purl.org/dc/elements/1.1/" xmlns:cc="http://creativecommons.org/ns#" xmlns:rdf="http://www.w3.org/1999/02/22-rdf-syntax-ns#">
   <cc:Work>
    <dc:type rdf:resource="http://purl.org/dc/dcmitype/StillImage"/>
    <dc:date>2026-03-01T17:04:30.441005</dc:date>
    <dc:format>image/svg+xml</dc:format>
    <dc:creator>
     <cc:Agent>
      <dc:title>Matplotlib v3.10.0, https://matplotlib.org/</dc:title>
     </cc:Agent>
    </dc:creator>
   </cc:Work>
  </rdf:RDF>
 </metadata>
 <defs>
  <style type="text/css">*{stroke-linejoin: round; stroke-linecap: butt}</style>
 </defs>
 <g id="figure_1">
  <g id="patch_1">
   <path d="M 0 485.36 
L 526.94 485.36 
L 526.94 0 
L 0 0 
L 0 485.36 
z
" style="fill: none"/>
  </g>
  <g id="axes_1">
   <g id="patch_2">
    <path d="M 35.968982 9.179044 
C 42.864364 343.719965 44.87625 472.68 71.87625 472.68 
" clip-path="url(#p5a565d563d)" style="fill: none; stroke: #000000; stroke-width: 2; stroke-linejoin: miter; stroke-linecap: round"/>
   </g>
   <g id="patch_3">
    <path d="M 32.462478 13.752274 
L 35.87625 4.68 
L 39.660949 13.603903 
z
" clip-path="url(#p5a565d563d)"/>
   </g>
   <g id="patch_4">
    <path d="M 35.974257 34.378933 
C 42.864364 350.663967 44.87625 472.68 71.87625 472.68 
" clip-path="url(#p5a565d563d)" style="fill: none; stroke: #808080; stroke-width: 2; stroke-linejoin: miter; stroke-linecap: round"/>
   </g>
   <g id="patch_5">
    <path d="M 32.473118 38.956271 
L 35.87625 29.88 
L 39.67141 38.79946 
z
" clip-path="url(#p5a565d563d)" style="fill: #808080"/>
   </g>
   <g id="patch_6">
    <path d="M 402.092195 81.071086 
C 338.785599 363.55997 320.27625 472.68 71.87625 472.68 
" clip-path="url(#p5a565d563d)" style="fill: none; stroke: #000000; stroke-width: 2; stroke-linejoin: miter; stroke-linecap: round"/>
   </g>
   <g id="patch_7">
    <path d="M 397.595271 84.674927 
L 403.07625 76.68 
L 404.621008 86.249416 
z
" clip-path="url(#p5a565d563d)"/>
   </g>
   <g id="patch_8">
    <path d="M 143.646878 99.17415 
C 129.900022 368.519972 125.87625 472.68 71.87625 472.68 
" clip-path="url(#p5a565d563d)" style="fill: none; stroke: #808080; stroke-width: 2; stroke-linejoin: miter; stroke-linecap: round"/>
   </g>
   <g id="patch_9">
    <path d="M 139.822185 103.484803 
L 143.87625 94.68 
L 147.012826 103.851799 
z
" clip-path="url(#p5a565d563d)" style="fill: #808080"/>
   </g>
   <g id="patch_10">
    <path d="M 305.139882 99.119342 
C 260.453508 368.519972 247.37625 472.68 71.87625 472.68 
" clip-path="url(#p5a565d563d)" style="fill: none; stroke: #808080; stroke-width: 2; stroke-linejoin: miter; stroke-linecap: round"/>
   </g>
   <g id="patch_11">
    <path d="M 300.852039 102.96959 
L 305.87625 94.68 
L 307.954987 104.14778 
z
" clip-path="url(#p5a565d563d)" style="fill: #808080"/>
   </g>
   <g id="patch_12">
    <path d="M 71.87625 117.18 
C 71.87625 373.479973 71.87625 472.68 71.87625 472.68 
" clip-path="url(#p5a565d563d)" style="fill: none; stroke: #0000ff; stroke-width: 2; stroke-linejoin: miter; stroke-linecap: round"/>
   </g>
   <g id="patch_13">
    <path d="M 68.27625 121.68 
L 71.87625 112.68 
L 75.47625 121.68 
z
" clip-path="url(#p5a565d563d)" style="fill: #0000ff"/>
   </g>
   <g id="patch_14">
    <path d="M 125.655947 181.974604 
C 115.394079 391.335978 112.37625 472.68 71.87625 472.68 
" clip-path="url(#p5a565d563d)" style="fill: none; stroke: #0000ff; stroke-width: 2; stroke-linejoin: miter; stroke-linecap: round"/>
   </g>
   <g id="patch_15">
    <path d="M 121.83996 186.292966 
L 125.87625 177.48 
L 129.031326 186.645451 
z
" clip-path="url(#p5a565d563d)" style="fill: #0000ff"/>
   </g>
   <g id="patch_16">
    <path d="M 89.795878 207.179282 
C 86.382193 398.27998 85.37625 472.68 71.87625 472.68 
" clip-path="url(#p5a565d563d)" style="fill: none; stroke: #808080; stroke-width: 2; stroke-linejoin: miter; stroke-linecap: round"/>
   </g>
   <g id="patch_17">
    <path d="M 86.11608 211.614267 
L 89.87625 202.68 
L 93.314932 211.742862 
z
" clip-path="url(#p5a565d563d)" style="fill: #808080"/>
   </g>
   <g id="patch_18">
    <path d="M 269.008609 207.095563 
C 231.441622 398.27998 220.37625 472.68 71.87625 472.68 
" clip-path="url(#p5a565d563d)" style="fill: none; stroke: #808080; stroke-width: 2; stroke-linejoin: miter; stroke-linecap: round"/>
   </g>
   <g id="patch_19">
    <path d="M 264.608518 210.817014 
L 269.87625 202.68 
L 271.673419 212.205239 
z
" clip-path="url(#p5a565d563d)" style="fill: #808080"/>
   </g>
   <g id="patch_20">
    <path d="M 125.585142 253.970574 
C 115.394079 411.175983 112.37625 472.68 71.87625 472.68 
" clip-path="url(#p5a565d563d)" style="fill: none; stroke: #0000ff; stroke-width: 2; stroke-linejoin: miter; stroke-linecap: round"/>
   </g>
   <g id="patch_21">
    <path d="M 121.701575 258.228262 
L 125.87625 249.48 
L 128.886494 258.694035 
z
" clip-path="url(#p5a565d563d)" style="fill: #0000ff"/>
   </g>
   <g id="patch_22">
    <path d="M 89.766667 279.178666 
C 86.382193 418.119985 85.37625 472.68 71.87625 472.68 
" clip-path="url(#p5a565d563d)" style="fill: none; stroke: #808080; stroke-width: 2; stroke-linejoin: miter; stroke-linecap: round"/>
   </g>
   <g id="patch_23">
    <path d="M 86.058151 283.589665 
L 89.87625 274.68 
L 93.256016 283.764998 
z
" clip-path="url(#p5a565d563d)" style="fill: #808080"/>
   </g>
   <g id="patch_24">
    <path d="M 268.711564 279.026666 
C 231.441622 418.119985 220.37625 472.68 71.87625 472.68 
" clip-path="url(#p5a565d563d)" style="fill: none; stroke: #808080; stroke-width: 2; stroke-linejoin: miter; stroke-linecap: round"/>
   </g>
   <g id="patch_25">
    <path d="M 264.069546 282.441584 
L 269.87625 274.68 
L 271.024212 284.305081 
z
" clip-path="url(#p5a565d563d)" style="fill: #808080"/>
   </g>
   <g id="patch_26">
    <path d="M 179.084929 315.109877 
C 158.911907 428.039988 152.87625 472.68 71.87625 472.68 
" clip-path="url(#p5a565d563d)" style="fill: none; stroke: #0000ff; stroke-width: 2; stroke-linejoin: miter; stroke-linecap: round"/>
   </g>
   <g id="patch_27">
    <path d="M 174.749706 318.906697 
L 179.87625 310.68 
L 181.837509 320.172811 
z
" clip-path="url(#p5a565d563d)" style="fill: #0000ff"/>
   </g>
   <g id="patch_28">
    <path d="M 89.725613 333.177478 
C 86.382193 432.999989 85.37625 472.68 71.87625 472.68 
" clip-path="url(#p5a565d563d)" style="fill: none; stroke: #000000; stroke-width: 2; stroke-linejoin: miter; stroke-linecap: round"/>
   </g>
   <g id="patch_29">
    <path d="M 85.976994 337.554446 
L 89.87625 328.68 
L 93.172959 337.795466 
z
" clip-path="url(#p5a565d563d)"/>
   </g>
   <g id="patch_30">
    <path d="M 400.715315 332.510925 
C 338.785599 432.999989 320.27625 472.68 71.87625 472.68 
" clip-path="url(#p5a565d563d)" style="fill: none; stroke: #000000; stroke-width: 2; stroke-linejoin: miter; stroke-linecap: round"/>
   </g>
   <g id="patch_31">
    <path d="M 395.289641 334.453103 
L 403.07625 328.68 
L 401.419121 338.230598 
z
" clip-path="url(#p5a565d563d)"/>
   </g>
   <g id="patch_32">
    <path d="M 213.905385 397.525453 
C 187.923793 450.855994 179.87625 472.68 71.87625 472.68 
" clip-path="url(#p5a565d563d)" style="fill: none; stroke: #808080; stroke-width: 2; stroke-linejoin: miter; stroke-linecap: round"/>
   </g>
   <g id="patch_33">
    <path d="M 208.698157 399.994214 
L 215.87625 393.48 
L 215.170882 403.147598 
z
" clip-path="url(#p5a565d563d)" style="fill: #808080"/>
   </g>
   <g id="patch_34">
    <path d="M 178.041296 411.988886 
C 158.911907 454.823995 152.87625 472.68 71.87625 472.68 
" clip-path="url(#p5a565d563d)" style="fill: none; stroke: #0000ff; stroke-width: 2; stroke-linejoin: miter; stroke-linecap: round"/>
   </g>
   <g id="patch_35">
    <path d="M 172.919233 414.629808 
L 179.87625 407.88 
L 179.49345 417.565735 
z
" clip-path="url(#p5a565d563d)" style="fill: #0000ff"/>
   </g>
   <g id="patch_36">
    <path d="M 266.386754 432.321376 
C 231.441622 460.775997 220.37625 472.68 71.87625 472.68 
" clip-path="url(#p5a565d563d)" style="fill: none; stroke: #000000; stroke-width: 2; stroke-linejoin: miter; stroke-linecap: round"/>
   </g>
   <g id="patch_37">
    <path d="M 260.624158 432.371156 
L 269.87625 429.48 
L 265.17036 437.954349 
z
" clip-path="url(#p5a565d563d)"/>
   </g>
   <g id="patch_38">
    <path d="M 38.001814 458.646356 
C 42.864364 467.719999 44.87625 472.68 71.87625 472.68 
" clip-path="url(#p5a565d563d)" style="fill: none; stroke: #808080; stroke-width: 2; stroke-linejoin: miter; stroke-linecap: round"/>
   </g>
   <g id="patch_39">
    <path d="M 36.954293 464.313163 
L 35.87625 454.68 
L 43.300462 460.912261 
z
" clip-path="url(#p5a565d563d)" style="fill: #808080"/>
   </g>
   <g id="line2d_1">
    <path d="M 107.87625 76.68 
L 251.87625 76.68 
L 395.87625 76.68 
" clip-path="url(#p5a565d563d)" style="fill: none; stroke: #000000; stroke-width: 2; stroke-linecap: round"/>
   </g>
   <g id="line2d_2">
    <path d="M 179.87625 76.68 
L 179.87625 112.68 
L 179.87625 148.68 
" clip-path="url(#p5a565d563d)" style="fill: none; stroke: #000000; stroke-width: 2; stroke-linecap: round"/>
   </g>
   <g id="line2d_3">
    <path d="M 323.87625 76.68 
L 323.87625 112.68 
L 323.87625 148.68 
" clip-path="url(#p5a565d563d)" style="fill: none; stroke: #000000; stroke-width: 2; stroke-linecap: round"/>
   </g>
   <g id="line2d_4">
    <path d="M 107.87625 76.68 
L 107.87625 112.68 
L 107.87625 148.68 
" clip-path="url(#p5a565d563d)" style="fill: none; stroke: #000000; stroke-width: 2; stroke-linecap: round"/>
   </g>
   <g id="line2d_5">
    <path d="M 395.87625 76.68 
L 395.87625 112.68 
L 395.87625 148.68 
" clip-path="url(#p5a565d563d)" style="fill: none; stroke: #000000; stroke-width: 2; stroke-linecap: round"/>
   </g>
   <g id="line2d_6">
    <path d="M 107.87625 148.68 
L 107.87625 184.68 
L 107.87625 220.68 
" clip-path="url(#p5a565d563d)" style="fill: none; stroke: #000000; stroke-width: 2; stroke-linecap: round"/>
   </g>
   <g id="line2d_7">
    <path d="M 395.87625 148.68 
L 395.87625 184.68 
L 395.87625 220.68 
" clip-path="url(#p5a565d563d)" style="fill: none; stroke: #000000; stroke-width: 2; stroke-linecap: round"/>
   </g>
   <g id="line2d_8">
    <path d="M 107.87625 220.68 
L 143.87625 220.68 
L 179.87625 220.68 
" clip-path="url(#p5a565d563d)" style="fill: none; stroke: #000000; stroke-width: 2; stroke-linecap: round"/>
   </g>
   <g id="line2d_9">
    <path d="M 395.87625 220.68 
L 359.87625 220.68 
L 323.87625 220.68 
" clip-path="url(#p5a565d563d)" style="fill: none; stroke: #000000; stroke-width: 2; stroke-linecap: round"/>
   </g>
   <g id="line2d_10">
    <path d="M 179.87625 220.68 
L 179.87625 274.68 
L 179.87625 328.68 
" clip-path="url(#p5a565d563d)" style="fill: none; stroke: #000000; stroke-width: 2; stroke-linecap: round"/>
   </g>
   <g id="line2d_11">
    <path d="M 323.87625 220.68 
L 323.87625 274.68 
L 323.87625 328.68 
" clip-path="url(#p5a565d563d)" style="fill: none; stroke: #000000; stroke-width: 2; stroke-linecap: round"/>
   </g>
   <g id="line2d_12">
    <path d="M 179.87625 328.68 
L 143.87625 328.68 
L 107.87625 328.68 
" clip-path="url(#p5a565d563d)" style="fill: none; stroke: #000000; stroke-width: 2; stroke-linecap: round"/>
   </g>
   <g id="line2d_13">
    <path d="M 323.87625 328.68 
L 359.87625 328.68 
L 395.87625 328.68 
" clip-path="url(#p5a565d563d)" style="fill: none; stroke: #000000; stroke-width: 2; stroke-linecap: round"/>
   </g>
   <g id="line2d_14">
    <path d="M 179.87625 328.68 
L 179.87625 346.68 
L 179.87625 364.68 
" clip-path="url(#p5a565d563d)" style="fill: none; stroke: #000000; stroke-width: 2; stroke-linecap: round"/>
   </g>
   <g id="line2d_15">
    <path d="M 179.87625 364.68 
L 143.87625 364.68 
L 107.87625 364.68 
" clip-path="url(#p5a565d563d)" style="fill: none; stroke: #000000; stroke-width: 2; stroke-linecap: round"/>
   </g>
   <g id="line2d_16">
    <path d="M 323.87625 328.68 
L 323.87625 346.68 
L 323.87625 364.68 
" clip-path="url(#p5a565d563d)" style="fill: none; stroke: #000000; stroke-width: 2; stroke-linecap: round"/>
   </g>
   <g id="line2d_17">
    <path d="M 323.87625 364.68 
L 359.87625 364.68 
L 395.87625 364.68 
" clip-path="url(#p5a565d563d)" style="fill: none; stroke: #000000; stroke-width: 2; stroke-linecap: round"/>
   </g>
   <g id="line2d_18">
    <path d="M 179.87625 364.68 
L 251.87625 364.68 
L 323.87625 364.68 
" clip-path="url(#p5a565d563d)" style="fill: none; stroke: #000000; stroke-width: 2; stroke-linecap: round"/>
   </g>
   <g id="line2d_19">
    <path d="M 251.87625 364.68 
L 251.87625 391.68 
L 251.87625 418.68 
" clip-path="url(#p5a565d563d)" style="fill: none; stroke: #000000; stroke-width: 2; stroke-linecap: round"/>
   </g>
   <g id="line2d_20">
    <path d="M 251.87625 418.68 
L 251.87625 433.08 
L 242.87625 433.08 
L 260.87625 433.08 
M 245.57625 437.4 
L 258.17625 437.4 
M 250.07625 441.72 
L 253.67625 441.72 
" clip-path="url(#p5a565d563d)" style="fill: none; stroke: #000000; stroke-width: 2; stroke-linecap: round"/>
   </g>
   <g id="text_1">
    <!-- StrongARM Latch Comparator -->
    <g transform="translate(75.47625 476.543125) scale(0.14 -0.14)">
     <defs>
      <path id="DejaVuSans-53" d="M 3425 4513 
L 3425 3897 
Q 3066 4069 2747 4153 
Q 2428 4238 2131 4238 
Q 1616 4238 1336 4038 
Q 1056 3838 1056 3469 
Q 1056 3159 1242 3001 
Q 1428 2844 1947 2747 
L 2328 2669 
Q 3034 2534 3370 2195 
Q 3706 1856 3706 1288 
Q 3706 609 3251 259 
Q 2797 -91 1919 -91 
Q 1588 -91 1214 -16 
Q 841 59 441 206 
L 441 856 
Q 825 641 1194 531 
Q 1563 422 1919 422 
Q 2459 422 2753 634 
Q 3047 847 3047 1241 
Q 3047 1584 2836 1778 
Q 2625 1972 2144 2069 
L 1759 2144 
Q 1053 2284 737 2584 
Q 422 2884 422 3419 
Q 422 4038 858 4394 
Q 1294 4750 2059 4750 
Q 2388 4750 2728 4690 
Q 3069 4631 3425 4513 
z
" transform="scale(0.015625)"/>
      <path id="DejaVuSans-74" d="M 1172 4494 
L 1172 3500 
L 2356 3500 
L 2356 3053 
L 1172 3053 
L 1172 1153 
Q 1172 725 1289 603 
Q 1406 481 1766 481 
L 2356 481 
L 2356 0 
L 1766 0 
Q 1100 0 847 248 
Q 594 497 594 1153 
L 594 3053 
L 172 3053 
L 172 3500 
L 594 3500 
L 594 4494 
L 1172 4494 
z
" transform="scale(0.015625)"/>
      <path id="DejaVuSans-72" d="M 2631 2963 
Q 2534 3019 2420 3045 
Q 2306 3072 2169 3072 
Q 1681 3072 1420 2755 
Q 1159 2438 1159 1844 
L 1159 0 
L 581 0 
L 581 3500 
L 1159 3500 
L 1159 2956 
Q 1341 3275 1631 3429 
Q 1922 3584 2338 3584 
Q 2397 3584 2469 3576 
Q 2541 3569 2628 3553 
L 2631 2963 
z
" transform="scale(0.015625)"/>
      <path id="DejaVuSans-6f" d="M 1959 3097 
Q 1497 3097 1228 2736 
Q 959 2375 959 1747 
Q 959 1119 1226 758 
Q 1494 397 1959 397 
Q 2419 397 2687 759 
Q 2956 1122 2956 1747 
Q 2956 2369 2687 2733 
Q 2419 3097 1959 3097 
z
M 1959 3584 
Q 2709 3584 3137 3096 
Q 3566 2609 3566 1747 
Q 3566 888 3137 398 
Q 2709 -91 1959 -91 
Q 1206 -91 779 398 
Q 353 888 353 1747 
Q 353 2609 779 3096 
Q 1206 3584 1959 3584 
z
" transform="scale(0.015625)"/>
      <path id="DejaVuSans-6e" d="M 3513 2113 
L 3513 0 
L 2938 0 
L 2938 2094 
Q 2938 2591 2744 2837 
Q 2550 3084 2163 3084 
Q 1697 3084 1428 2787 
Q 1159 2491 1159 1978 
L 1159 0 
L 581 0 
L 581 3500 
L 1159 3500 
L 1159 2956 
Q 1366 3272 1645 3428 
Q 1925 3584 2291 3584 
Q 2894 3584 3203 3211 
Q 3513 2838 3513 2113 
z
" transform="scale(0.015625)"/>
      <path id="DejaVuSans-67" d="M 2906 1791 
Q 2906 2416 2648 2759 
Q 2391 3103 1925 3103 
Q 1463 3103 1205 2759 
Q 947 2416 947 1791 
Q 947 1169 1205 825 
Q 1463 481 1925 481 
Q 2391 481 2648 825 
Q 2906 1169 2906 1791 
z
M 3481 434 
Q 3481 -459 3084 -895 
Q 2688 -1331 1869 -1331 
Q 1566 -1331 1297 -1286 
Q 1028 -1241 775 -1147 
L 775 -588 
Q 1028 -725 1275 -790 
Q 1522 -856 1778 -856 
Q 2344 -856 2625 -561 
Q 2906 -266 2906 331 
L 2906 616 
Q 2728 306 2450 153 
Q 2172 0 1784 0 
Q 1141 0 747 490 
Q 353 981 353 1791 
Q 353 2603 747 3093 
Q 1141 3584 1784 3584 
Q 2172 3584 2450 3431 
Q 2728 3278 2906 2969 
L 2906 3500 
L 3481 3500 
L 3481 434 
z
" transform="scale(0.015625)"/>
      <path id="DejaVuSans-41" d="M 2188 4044 
L 1331 1722 
L 3047 1722 
L 2188 4044 
z
M 1831 4666 
L 2547 4666 
L 4325 0 
L 3669 0 
L 3244 1197 
L 1141 1197 
L 716 0 
L 50 0 
L 1831 4666 
z
" transform="scale(0.015625)"/>
      <path id="DejaVuSans-52" d="M 2841 2188 
Q 3044 2119 3236 1894 
Q 3428 1669 3622 1275 
L 4263 0 
L 3584 0 
L 2988 1197 
Q 2756 1666 2539 1819 
Q 2322 1972 1947 1972 
L 1259 1972 
L 1259 0 
L 628 0 
L 628 4666 
L 2053 4666 
Q 2853 4666 3247 4331 
Q 3641 3997 3641 3322 
Q 3641 2881 3436 2590 
Q 3231 2300 2841 2188 
z
M 1259 4147 
L 1259 2491 
L 2053 2491 
Q 2509 2491 2742 2702 
Q 2975 2913 2975 3322 
Q 2975 3731 2742 3939 
Q 2509 4147 2053 4147 
L 1259 4147 
z
" transform="scale(0.015625)"/>
      <path id="DejaVuSans-4d" d="M 628 4666 
L 1569 4666 
L 2759 1491 
L 3956 4666 
L 4897 4666 
L 4897 0 
L 4281 0 
L 4281 4097 
L 3078 897 
L 2444 897 
L 1241 4097 
L 1241 0 
L 628 0 
L 628 4666 
z
" transform="scale(0.015625)"/>
      <path id="DejaVuSans-20" transform="scale(0.015625)"/>
      <path id="DejaVuSans-4c" d="M 628 4666 
L 1259 4666 
L 1259 531 
L 3531 531 
L 3531 0 
L 628 0 
L 628 4666 
z
" transform="scale(0.015625)"/>
      <path id="DejaVuSans-61" d="M 2194 1759 
Q 1497 1759 1228 1600 
Q 959 1441 959 1056 
Q 959 750 1161 570 
Q 1363 391 1709 391 
Q 2188 391 2477 730 
Q 2766 1069 2766 1631 
L 2766 1759 
L 2194 1759 
z
M 3341 1997 
L 3341 0 
L 2766 0 
L 2766 531 
Q 2569 213 2275 61 
Q 1981 -91 1556 -91 
Q 1019 -91 701 211 
Q 384 513 384 1019 
Q 384 1609 779 1909 
Q 1175 2209 1959 2209 
L 2766 2209 
L 2766 2266 
Q 2766 2663 2505 2880 
Q 2244 3097 1772 3097 
Q 1472 3097 1187 3025 
Q 903 2953 641 2809 
L 641 3341 
Q 956 3463 1253 3523 
Q 1550 3584 1831 3584 
Q 2591 3584 2966 3190 
Q 3341 2797 3341 1997 
z
" transform="scale(0.015625)"/>
      <path id="DejaVuSans-63" d="M 3122 3366 
L 3122 2828 
Q 2878 2963 2633 3030 
Q 2388 3097 2138 3097 
Q 1578 3097 1268 2742 
Q 959 2388 959 1747 
Q 959 1106 1268 751 
Q 1578 397 2138 397 
Q 2388 397 2633 464 
Q 2878 531 3122 666 
L 3122 134 
Q 2881 22 2623 -34 
Q 2366 -91 2075 -91 
Q 1284 -91 818 406 
Q 353 903 353 1747 
Q 353 2603 823 3093 
Q 1294 3584 2113 3584 
Q 2378 3584 2631 3529 
Q 2884 3475 3122 3366 
z
" transform="scale(0.015625)"/>
      <path id="DejaVuSans-68" d="M 3513 2113 
L 3513 0 
L 2938 0 
L 2938 2094 
Q 2938 2591 2744 2837 
Q 2550 3084 2163 3084 
Q 1697 3084 1428 2787 
Q 1159 2491 1159 1978 
L 1159 0 
L 581 0 
L 581 4863 
L 1159 4863 
L 1159 2956 
Q 1366 3272 1645 3428 
Q 1925 3584 2291 3584 
Q 2894 3584 3203 3211 
Q 3513 2838 3513 2113 
z
" transform="scale(0.015625)"/>
      <path id="DejaVuSans-43" d="M 4122 4306 
L 4122 3641 
Q 3803 3938 3442 4084 
Q 3081 4231 2675 4231 
Q 1875 4231 1450 3742 
Q 1025 3253 1025 2328 
Q 1025 1406 1450 917 
Q 1875 428 2675 428 
Q 3081 428 3442 575 
Q 3803 722 4122 1019 
L 4122 359 
Q 3791 134 3420 21 
Q 3050 -91 2638 -91 
Q 1578 -91 968 557 
Q 359 1206 359 2328 
Q 359 3453 968 4101 
Q 1578 4750 2638 4750 
Q 3056 4750 3426 4639 
Q 3797 4528 4122 4306 
z
" transform="scale(0.015625)"/>
      <path id="DejaVuSans-6d" d="M 3328 2828 
Q 3544 3216 3844 3400 
Q 4144 3584 4550 3584 
Q 5097 3584 5394 3201 
Q 5691 2819 5691 2113 
L 5691 0 
L 5113 0 
L 5113 2094 
Q 5113 2597 4934 2840 
Q 4756 3084 4391 3084 
Q 3944 3084 3684 2787 
Q 3425 2491 3425 1978 
L 3425 0 
L 2847 0 
L 2847 2094 
Q 2847 2600 2669 2842 
Q 2491 3084 2119 3084 
Q 1678 3084 1418 2786 
Q 1159 2488 1159 1978 
L 1159 0 
L 581 0 
L 581 3500 
L 1159 3500 
L 1159 2956 
Q 1356 3278 1631 3431 
Q 1906 3584 2284 3584 
Q 2666 3584 2933 3390 
Q 3200 3197 3328 2828 
z
" transform="scale(0.015625)"/>
      <path id="DejaVuSans-70" d="M 1159 525 
L 1159 -1331 
L 581 -1331 
L 581 3500 
L 1159 3500 
L 1159 2969 
Q 1341 3281 1617 3432 
Q 1894 3584 2278 3584 
Q 2916 3584 3314 3078 
Q 3713 2572 3713 1747 
Q 3713 922 3314 415 
Q 2916 -91 2278 -91 
Q 1894 -91 1617 61 
Q 1341 213 1159 525 
z
M 3116 1747 
Q 3116 2381 2855 2742 
Q 2594 3103 2138 3103 
Q 1681 3103 1420 2742 
Q 1159 2381 1159 1747 
Q 1159 1113 1420 752 
Q 1681 391 2138 391 
Q 2594 391 2855 752 
Q 3116 1113 3116 1747 
z
" transform="scale(0.015625)"/>
     </defs>
     <use xlink:href="#DejaVuSans-53"/>
     <use xlink:href="#DejaVuSans-74" transform="translate(63.476562 0)"/>
     <use xlink:href="#DejaVuSans-72" transform="translate(102.685547 0)"/>
     <use xlink:href="#DejaVuSans-6f" transform="translate(141.548828 0)"/>
     <use xlink:href="#DejaVuSans-6e" transform="translate(202.730469 0)"/>
     <use xlink:href="#DejaVuSans-67" transform="translate(266.109375 0)"/>
     <use xlink:href="#DejaVuSans-41" transform="translate(329.585938 0)"/>
     <use xlink:href="#DejaVuSans-52" transform="translate(397.994141 0)"/>
     <use xlink:href="#DejaVuSans-4d" transform="translate(467.476562 0)"/>
     <use xlink:href="#DejaVuSans-20" transform="translate(553.755859 0)"/>
     <use xlink:href="#DejaVuSans-4c" transform="translate(585.542969 0)"/>
     <use xlink:href="#DejaVuSans-61" transform="translate(641.255859 0)"/>
     <use xlink:href="#DejaVuSans-74" transform="translate(702.535156 0)"/>
     <use xlink:href="#DejaVuSans-63" transform="translate(741.744141 0)"/>
     <use xlink:href="#DejaVuSans-68" transform="translate(796.724609 0)"/>
     <use xlink:href="#DejaVuSans-20" transform="translate(860.103516 0)"/>
     <use xlink:href="#DejaVuSans-43" transform="translate(891.890625 0)"/>
     <use xlink:href="#DejaVuSans-6f" transform="translate(961.714844 0)"/>
     <use xlink:href="#DejaVuSans-6d" transform="translate(1022.896484 0)"/>
     <use xlink:href="#DejaVuSans-70" transform="translate(1120.308594 0)"/>
     <use xlink:href="#DejaVuSans-61" transform="translate(1183.785156 0)"/>
     <use xlink:href="#DejaVuSans-72" transform="translate(1245.064453 0)"/>
     <use xlink:href="#DejaVuSans-61" transform="translate(1286.177734 0)"/>
     <use xlink:href="#DejaVuSans-74" transform="translate(1347.457031 0)"/>
     <use xlink:href="#DejaVuSans-6f" transform="translate(1386.666016 0)"/>
     <use xlink:href="#DejaVuSans-72" transform="translate(1447.847656 0)"/>
    </g>
   </g>
   <g id="text_2">
    <!-- IHP SG13G2 130nm — VDD=1.2V -->
    <g style="fill: #808080" transform="translate(75.47625 475.163437) scale(0.09 -0.09)">
     <defs>
      <path id="DejaVuSans-49" d="M 628 4666 
L 1259 4666 
L 1259 0 
L 628 0 
L 628 4666 
z
" transform="scale(0.015625)"/>
      <path id="DejaVuSans-48" d="M 628 4666 
L 1259 4666 
L 1259 2753 
L 3553 2753 
L 3553 4666 
L 4184 4666 
L 4184 0 
L 3553 0 
L 3553 2222 
L 1259 2222 
L 1259 0 
L 628 0 
L 628 4666 
z
" transform="scale(0.015625)"/>
      <path id="DejaVuSans-50" d="M 1259 4147 
L 1259 2394 
L 2053 2394 
Q 2494 2394 2734 2622 
Q 2975 2850 2975 3272 
Q 2975 3691 2734 3919 
Q 2494 4147 2053 4147 
L 1259 4147 
z
M 628 4666 
L 2053 4666 
Q 2838 4666 3239 4311 
Q 3641 3956 3641 3272 
Q 3641 2581 3239 2228 
Q 2838 1875 2053 1875 
L 1259 1875 
L 1259 0 
L 628 0 
L 628 4666 
z
" transform="scale(0.015625)"/>
      <path id="DejaVuSans-47" d="M 3809 666 
L 3809 1919 
L 2778 1919 
L 2778 2438 
L 4434 2438 
L 4434 434 
Q 4069 175 3628 42 
Q 3188 -91 2688 -91 
Q 1594 -91 976 548 
Q 359 1188 359 2328 
Q 359 3472 976 4111 
Q 1594 4750 2688 4750 
Q 3144 4750 3555 4637 
Q 3966 4525 4313 4306 
L 4313 3634 
Q 3963 3931 3569 4081 
Q 3175 4231 2741 4231 
Q 1884 4231 1454 3753 
Q 1025 3275 1025 2328 
Q 1025 1384 1454 906 
Q 1884 428 2741 428 
Q 3075 428 3337 486 
Q 3600 544 3809 666 
z
" transform="scale(0.015625)"/>
      <path id="DejaVuSans-31" d="M 794 531 
L 1825 531 
L 1825 4091 
L 703 3866 
L 703 4441 
L 1819 4666 
L 2450 4666 
L 2450 531 
L 3481 531 
L 3481 0 
L 794 0 
L 794 531 
z
" transform="scale(0.015625)"/>
      <path id="DejaVuSans-33" d="M 2597 2516 
Q 3050 2419 3304 2112 
Q 3559 1806 3559 1356 
Q 3559 666 3084 287 
Q 2609 -91 1734 -91 
Q 1441 -91 1130 -33 
Q 819 25 488 141 
L 488 750 
Q 750 597 1062 519 
Q 1375 441 1716 441 
Q 2309 441 2620 675 
Q 2931 909 2931 1356 
Q 2931 1769 2642 2001 
Q 2353 2234 1838 2234 
L 1294 2234 
L 1294 2753 
L 1863 2753 
Q 2328 2753 2575 2939 
Q 2822 3125 2822 3475 
Q 2822 3834 2567 4026 
Q 2313 4219 1838 4219 
Q 1578 4219 1281 4162 
Q 984 4106 628 3988 
L 628 4550 
Q 988 4650 1302 4700 
Q 1616 4750 1894 4750 
Q 2613 4750 3031 4423 
Q 3450 4097 3450 3541 
Q 3450 3153 3228 2886 
Q 3006 2619 2597 2516 
z
" transform="scale(0.015625)"/>
      <path id="DejaVuSans-32" d="M 1228 531 
L 3431 531 
L 3431 0 
L 469 0 
L 469 531 
Q 828 903 1448 1529 
Q 2069 2156 2228 2338 
Q 2531 2678 2651 2914 
Q 2772 3150 2772 3378 
Q 2772 3750 2511 3984 
Q 2250 4219 1831 4219 
Q 1534 4219 1204 4116 
Q 875 4013 500 3803 
L 500 4441 
Q 881 4594 1212 4672 
Q 1544 4750 1819 4750 
Q 2544 4750 2975 4387 
Q 3406 4025 3406 3419 
Q 3406 3131 3298 2873 
Q 3191 2616 2906 2266 
Q 2828 2175 2409 1742 
Q 1991 1309 1228 531 
z
" transform="scale(0.015625)"/>
      <path id="DejaVuSans-30" d="M 2034 4250 
Q 1547 4250 1301 3770 
Q 1056 3291 1056 2328 
Q 1056 1369 1301 889 
Q 1547 409 2034 409 
Q 2525 409 2770 889 
Q 3016 1369 3016 2328 
Q 3016 3291 2770 3770 
Q 2525 4250 2034 4250 
z
M 2034 4750 
Q 2819 4750 3233 4129 
Q 3647 3509 3647 2328 
Q 3647 1150 3233 529 
Q 2819 -91 2034 -91 
Q 1250 -91 836 529 
Q 422 1150 422 2328 
Q 422 3509 836 4129 
Q 1250 4750 2034 4750 
z
" transform="scale(0.015625)"/>
      <path id="DejaVuSans-2014" d="M 313 1978 
L 6088 1978 
L 6088 1528 
L 313 1528 
L 313 1978 
z
" transform="scale(0.015625)"/>
      <path id="DejaVuSans-56" d="M 1831 0 
L 50 4666 
L 709 4666 
L 2188 738 
L 3669 4666 
L 4325 4666 
L 2547 0 
L 1831 0 
z
" transform="scale(0.015625)"/>
      <path id="DejaVuSans-44" d="M 1259 4147 
L 1259 519 
L 2022 519 
Q 2988 519 3436 956 
Q 3884 1394 3884 2338 
Q 3884 3275 3436 3711 
Q 2988 4147 2022 4147 
L 1259 4147 
z
M 628 4666 
L 1925 4666 
Q 3281 4666 3915 4102 
Q 4550 3538 4550 2338 
Q 4550 1131 3912 565 
Q 3275 0 1925 0 
L 628 0 
L 628 4666 
z
" transform="scale(0.015625)"/>
      <path id="DejaVuSans-3d" d="M 678 2906 
L 4684 2906 
L 4684 2381 
L 678 2381 
L 678 2906 
z
M 678 1631 
L 4684 1631 
L 4684 1100 
L 678 1100 
L 678 1631 
z
" transform="scale(0.015625)"/>
      <path id="DejaVuSans-2e" d="M 684 794 
L 1344 794 
L 1344 0 
L 684 0 
L 684 794 
z
" transform="scale(0.015625)"/>
     </defs>
     <use xlink:href="#DejaVuSans-49"/>
     <use xlink:href="#DejaVuSans-48" transform="translate(29.492188 0)"/>
     <use xlink:href="#DejaVuSans-50" transform="translate(104.6875 0)"/>
     <use xlink:href="#DejaVuSans-20" transform="translate(164.990234 0)"/>
     <use xlink:href="#DejaVuSans-53" transform="translate(196.777344 0)"/>
     <use xlink:href="#DejaVuSans-47" transform="translate(260.253906 0)"/>
     <use xlink:href="#DejaVuSans-31" transform="translate(337.744141 0)"/>
     <use xlink:href="#DejaVuSans-33" transform="translate(401.367188 0)"/>
     <use xlink:href="#DejaVuSans-47" transform="translate(464.990234 0)"/>
     <use xlink:href="#DejaVuSans-32" transform="translate(542.480469 0)"/>
     <use xlink:href="#DejaVuSans-20" transform="translate(606.103516 0)"/>
     <use xlink:href="#DejaVuSans-31" transform="translate(637.890625 0)"/>
     <use xlink:href="#DejaVuSans-33" transform="translate(701.513672 0)"/>
     <use xlink:href="#DejaVuSans-30" transform="translate(765.136719 0)"/>
     <use xlink:href="#DejaVuSans-6e" transform="translate(828.759766 0)"/>
     <use xlink:href="#DejaVuSans-6d" transform="translate(892.138672 0)"/>
     <use xlink:href="#DejaVuSans-20" transform="translate(989.550781 0)"/>
     <use xlink:href="#DejaVuSans-2014" transform="translate(1021.337891 0)"/>
     <use xlink:href="#DejaVuSans-20" transform="translate(1121.337891 0)"/>
     <use xlink:href="#DejaVuSans-56" transform="translate(1153.125 0)"/>
     <use xlink:href="#DejaVuSans-44" transform="translate(1221.533203 0)"/>
     <use xlink:href="#DejaVuSans-44" transform="translate(1298.535156 0)"/>
     <use xlink:href="#DejaVuSans-3d" transform="translate(1375.537109 0)"/>
     <use xlink:href="#DejaVuSans-31" transform="translate(1459.326172 0)"/>
     <use xlink:href="#DejaVuSans-2e" transform="translate(1522.949219 0)"/>
     <use xlink:href="#DejaVuSans-32" transform="translate(1554.736328 0)"/>
     <use xlink:href="#DejaVuSans-56" transform="translate(1618.359375 0)"/>
    </g>
   </g>
   <g id="text_3">
    <!-- VDD -->
    <g transform="translate(46.035625 475.439375) scale(0.1 -0.1)">
     <use xlink:href="#DejaVuSans-56"/>
     <use xlink:href="#DejaVuSans-44" transform="translate(68.408203 0)"/>
     <use xlink:href="#DejaVuSans-44" transform="translate(145.410156 0)"/>
    </g>
   </g>
   <g id="text_4">
    <!-- Mp_rst1 -->
    <g style="fill: #808080" transform="translate(36.6125 474.665) scale(0.08 -0.08)">
     <defs>
      <path id="DejaVuSans-5f" d="M 3263 -1063 
L 3263 -1509 
L -63 -1509 
L -63 -1063 
L 3263 -1063 
z
" transform="scale(0.015625)"/>
      <path id="DejaVuSans-73" d="M 2834 3397 
L 2834 2853 
Q 2591 2978 2328 3040 
Q 2066 3103 1784 3103 
Q 1356 3103 1142 2972 
Q 928 2841 928 2578 
Q 928 2378 1081 2264 
Q 1234 2150 1697 2047 
L 1894 2003 
Q 2506 1872 2764 1633 
Q 3022 1394 3022 966 
Q 3022 478 2636 193 
Q 2250 -91 1575 -91 
Q 1294 -91 989 -36 
Q 684 19 347 128 
L 347 722 
Q 666 556 975 473 
Q 1284 391 1588 391 
Q 1994 391 2212 530 
Q 2431 669 2431 922 
Q 2431 1156 2273 1281 
Q 2116 1406 1581 1522 
L 1381 1569 
Q 847 1681 609 1914 
Q 372 2147 372 2553 
Q 372 3047 722 3315 
Q 1072 3584 1716 3584 
Q 2034 3584 2315 3537 
Q 2597 3491 2834 3397 
z
" transform="scale(0.015625)"/>
     </defs>
     <use xlink:href="#DejaVuSans-4d"/>
     <use xlink:href="#DejaVuSans-70" transform="translate(86.279297 0)"/>
     <use xlink:href="#DejaVuSans-5f" transform="translate(149.755859 0)"/>
     <use xlink:href="#DejaVuSans-72" transform="translate(199.755859 0)"/>
     <use xlink:href="#DejaVuSans-73" transform="translate(240.869141 0)"/>
     <use xlink:href="#DejaVuSans-74" transform="translate(292.96875 0)"/>
     <use xlink:href="#DejaVuSans-31" transform="translate(332.177734 0)"/>
    </g>
   </g>
   <g id="text_5">
    <!-- Mp_rst2 -->
    <g style="fill: #808080" transform="translate(36.6125 474.705625) scale(0.08 -0.08)">
     <use xlink:href="#DejaVuSans-4d"/>
     <use xlink:href="#DejaVuSans-70" transform="translate(86.279297 0)"/>
     <use xlink:href="#DejaVuSans-5f" transform="translate(149.755859 0)"/>
     <use xlink:href="#DejaVuSans-72" transform="translate(199.755859 0)"/>
     <use xlink:href="#DejaVuSans-73" transform="translate(240.869141 0)"/>
     <use xlink:href="#DejaVuSans-74" transform="translate(292.96875 0)"/>
     <use xlink:href="#DejaVuSans-32" transform="translate(332.177734 0)"/>
    </g>
   </g>
   <g id="text_6">
    <!-- clk_b → -->
    <g style="fill: #0000ff" transform="translate(57.086875 467.19375) scale(0.08 -0.08)">
     <defs>
      <path id="DejaVuSans-6c" d="M 603 4863 
L 1178 4863 
L 1178 0 
L 603 0 
L 603 4863 
z
" transform="scale(0.015625)"/>
      <path id="DejaVuSans-6b" d="M 581 4863 
L 1159 4863 
L 1159 1991 
L 2875 3500 
L 3609 3500 
L 1753 1863 
L 3688 0 
L 2938 0 
L 1159 1709 
L 1159 0 
L 581 0 
L 581 4863 
z
" transform="scale(0.015625)"/>
      <path id="DejaVuSans-62" d="M 3116 1747 
Q 3116 2381 2855 2742 
Q 2594 3103 2138 3103 
Q 1681 3103 1420 2742 
Q 1159 2381 1159 1747 
Q 1159 1113 1420 752 
Q 1681 391 2138 391 
Q 2594 391 2855 752 
Q 3116 1113 3116 1747 
z
M 1159 2969 
Q 1341 3281 1617 3432 
Q 1894 3584 2278 3584 
Q 2916 3584 3314 3078 
Q 3713 2572 3713 1747 
Q 3713 922 3314 415 
Q 2916 -91 2278 -91 
Q 1894 -91 1617 61 
Q 1341 213 1159 525 
L 1159 0 
L 581 0 
L 581 4863 
L 1159 4863 
L 1159 2969 
z
" transform="scale(0.015625)"/>
      <path id="DejaVuSans-2192" d="M 5050 2147 
L 5050 1866 
L 3822 638 
L 3447 1013 
L 4175 1741 
L 366 1741 
L 366 2272 
L 4175 2272 
L 3447 3000 
L 3822 3375 
L 5050 2147 
z
" transform="scale(0.015625)"/>
     </defs>
     <use xlink:href="#DejaVuSans-63"/>
     <use xlink:href="#DejaVuSans-6c" transform="translate(54.980469 0)"/>
     <use xlink:href="#DejaVuSans-6b" transform="translate(82.763672 0)"/>
     <use xlink:href="#DejaVuSans-5f" transform="translate(140.673828 0)"/>
     <use xlink:href="#DejaVuSans-62" transform="translate(190.673828 0)"/>
     <use xlink:href="#DejaVuSans-20" transform="translate(254.150391 0)"/>
     <use xlink:href="#DejaVuSans-2192" transform="translate(285.9375 0)"/>
    </g>
   </g>
   <g id="text_7">
    <!-- PMOS latch -->
    <g style="fill: #0000ff" transform="translate(22.90125 474.8875) scale(0.08 -0.08)">
     <defs>
      <path id="DejaVuSans-4f" d="M 2522 4238 
Q 1834 4238 1429 3725 
Q 1025 3213 1025 2328 
Q 1025 1447 1429 934 
Q 1834 422 2522 422 
Q 3209 422 3611 934 
Q 4013 1447 4013 2328 
Q 4013 3213 3611 3725 
Q 3209 4238 2522 4238 
z
M 2522 4750 
Q 3503 4750 4090 4092 
Q 4678 3434 4678 2328 
Q 4678 1225 4090 567 
Q 3503 -91 2522 -91 
Q 1538 -91 948 565 
Q 359 1222 359 2328 
Q 359 3434 948 4092 
Q 1538 4750 2522 4750 
z
" transform="scale(0.015625)"/>
     </defs>
     <use xlink:href="#DejaVuSans-50"/>
     <use xlink:href="#DejaVuSans-4d" transform="translate(60.302734 0)"/>
     <use xlink:href="#DejaVuSans-4f" transform="translate(146.582031 0)"/>
     <use xlink:href="#DejaVuSans-53" transform="translate(225.292969 0)"/>
     <use xlink:href="#DejaVuSans-20" transform="translate(288.769531 0)"/>
     <use xlink:href="#DejaVuSans-6c" transform="translate(320.556641 0)"/>
     <use xlink:href="#DejaVuSans-61" transform="translate(348.339844 0)"/>
     <use xlink:href="#DejaVuSans-74" transform="translate(409.619141 0)"/>
     <use xlink:href="#DejaVuSans-63" transform="translate(448.828125 0)"/>
     <use xlink:href="#DejaVuSans-68" transform="translate(503.808594 0)"/>
    </g>
   </g>
   <g id="text_8">
    <!-- Mp_cc1: outn→gate -->
    <g style="fill: #808080" transform="translate(0.007656 474.416875) scale(0.07 -0.07)">
     <defs>
      <path id="DejaVuSans-3a" d="M 750 794 
L 1409 794 
L 1409 0 
L 750 0 
L 750 794 
z
M 750 3309 
L 1409 3309 
L 1409 2516 
L 750 2516 
L 750 3309 
z
" transform="scale(0.015625)"/>
      <path id="DejaVuSans-75" d="M 544 1381 
L 544 3500 
L 1119 3500 
L 1119 1403 
Q 1119 906 1312 657 
Q 1506 409 1894 409 
Q 2359 409 2629 706 
Q 2900 1003 2900 1516 
L 2900 3500 
L 3475 3500 
L 3475 0 
L 2900 0 
L 2900 538 
Q 2691 219 2414 64 
Q 2138 -91 1772 -91 
Q 1169 -91 856 284 
Q 544 659 544 1381 
z
M 1991 3584 
L 1991 3584 
z
" transform="scale(0.015625)"/>
      <path id="DejaVuSans-65" d="M 3597 1894 
L 3597 1613 
L 953 1613 
Q 991 1019 1311 708 
Q 1631 397 2203 397 
Q 2534 397 2845 478 
Q 3156 559 3463 722 
L 3463 178 
Q 3153 47 2828 -22 
Q 2503 -91 2169 -91 
Q 1331 -91 842 396 
Q 353 884 353 1716 
Q 353 2575 817 3079 
Q 1281 3584 2069 3584 
Q 2775 3584 3186 3129 
Q 3597 2675 3597 1894 
z
M 3022 2063 
Q 3016 2534 2758 2815 
Q 2500 3097 2075 3097 
Q 1594 3097 1305 2825 
Q 1016 2553 972 2059 
L 3022 2063 
z
" transform="scale(0.015625)"/>
     </defs>
     <use xlink:href="#DejaVuSans-4d"/>
     <use xlink:href="#DejaVuSans-70" transform="translate(86.279297 0)"/>
     <use xlink:href="#DejaVuSans-5f" transform="translate(149.755859 0)"/>
     <use xlink:href="#DejaVuSans-63" transform="translate(199.755859 0)"/>
     <use xlink:href="#DejaVuSans-63" transform="translate(254.736328 0)"/>
     <use xlink:href="#DejaVuSans-31" transform="translate(309.716797 0)"/>
     <use xlink:href="#DejaVuSans-3a" transform="translate(373.339844 0)"/>
     <use xlink:href="#DejaVuSans-20" transform="translate(407.03125 0)"/>
     <use xlink:href="#DejaVuSans-6f" transform="translate(438.818359 0)"/>
     <use xlink:href="#DejaVuSans-75" transform="translate(500 0)"/>
     <use xlink:href="#DejaVuSans-74" transform="translate(563.378906 0)"/>
     <use xlink:href="#DejaVuSans-6e" transform="translate(602.587891 0)"/>
     <use xlink:href="#DejaVuSans-2192" transform="translate(665.966797 0)"/>
     <use xlink:href="#DejaVuSans-67" transform="translate(749.755859 0)"/>
     <use xlink:href="#DejaVuSans-61" transform="translate(813.232422 0)"/>
     <use xlink:href="#DejaVuSans-74" transform="translate(874.511719 0)"/>
     <use xlink:href="#DejaVuSans-65" transform="translate(913.720703 0)"/>
    </g>
   </g>
   <g id="text_9">
    <!-- Mp_cc2: outp→gate -->
    <g style="fill: #808080" transform="translate(0 474.452422) scale(0.07 -0.07)">
     <use xlink:href="#DejaVuSans-4d"/>
     <use xlink:href="#DejaVuSans-70" transform="translate(86.279297 0)"/>
     <use xlink:href="#DejaVuSans-5f" transform="translate(149.755859 0)"/>
     <use xlink:href="#DejaVuSans-63" transform="translate(199.755859 0)"/>
     <use xlink:href="#DejaVuSans-63" transform="translate(254.736328 0)"/>
     <use xlink:href="#DejaVuSans-32" transform="translate(309.716797 0)"/>
     <use xlink:href="#DejaVuSans-3a" transform="translate(373.339844 0)"/>
     <use xlink:href="#DejaVuSans-20" transform="translate(407.03125 0)"/>
     <use xlink:href="#DejaVuSans-6f" transform="translate(438.818359 0)"/>
     <use xlink:href="#DejaVuSans-75" transform="translate(500 0)"/>
     <use xlink:href="#DejaVuSans-74" transform="translate(563.378906 0)"/>
     <use xlink:href="#DejaVuSans-70" transform="translate(602.587891 0)"/>
     <use xlink:href="#DejaVuSans-2192" transform="translate(666.064453 0)"/>
     <use xlink:href="#DejaVuSans-67" transform="translate(749.853516 0)"/>
     <use xlink:href="#DejaVuSans-61" transform="translate(813.330078 0)"/>
     <use xlink:href="#DejaVuSans-74" transform="translate(874.609375 0)"/>
     <use xlink:href="#DejaVuSans-65" transform="translate(913.818359 0)"/>
    </g>
   </g>
   <g id="text_10">
    <!-- NMOS latch -->
    <g style="fill: #0000ff" transform="translate(21.74 474.8875) scale(0.08 -0.08)">
     <defs>
      <path id="DejaVuSans-4e" d="M 628 4666 
L 1478 4666 
L 3547 763 
L 3547 4666 
L 4159 4666 
L 4159 0 
L 3309 0 
L 1241 3903 
L 1241 0 
L 628 0 
L 628 4666 
z
" transform="scale(0.015625)"/>
     </defs>
     <use xlink:href="#DejaVuSans-4e"/>
     <use xlink:href="#DejaVuSans-4d" transform="translate(74.804688 0)"/>
     <use xlink:href="#DejaVuSans-4f" transform="translate(161.083984 0)"/>
     <use xlink:href="#DejaVuSans-53" transform="translate(239.794922 0)"/>
     <use xlink:href="#DejaVuSans-20" transform="translate(303.271484 0)"/>
     <use xlink:href="#DejaVuSans-6c" transform="translate(335.058594 0)"/>
     <use xlink:href="#DejaVuSans-61" transform="translate(362.841797 0)"/>
     <use xlink:href="#DejaVuSans-74" transform="translate(424.121094 0)"/>
     <use xlink:href="#DejaVuSans-63" transform="translate(463.330078 0)"/>
     <use xlink:href="#DejaVuSans-68" transform="translate(518.310547 0)"/>
    </g>
   </g>
   <g id="text_11">
    <!-- Mn_cc1: outn→gate -->
    <g style="fill: #808080" transform="translate(0.015312 474.416875) scale(0.07 -0.07)">
     <use xlink:href="#DejaVuSans-4d"/>
     <use xlink:href="#DejaVuSans-6e" transform="translate(86.279297 0)"/>
     <use xlink:href="#DejaVuSans-5f" transform="translate(149.658203 0)"/>
     <use xlink:href="#DejaVuSans-63" transform="translate(199.658203 0)"/>
     <use xlink:href="#DejaVuSans-63" transform="translate(254.638672 0)"/>
     <use xlink:href="#DejaVuSans-31" transform="translate(309.619141 0)"/>
     <use xlink:href="#DejaVuSans-3a" transform="translate(373.242188 0)"/>
     <use xlink:href="#DejaVuSans-20" transform="translate(406.933594 0)"/>
     <use xlink:href="#DejaVuSans-6f" transform="translate(438.720703 0)"/>
     <use xlink:href="#DejaVuSans-75" transform="translate(499.902344 0)"/>
     <use xlink:href="#DejaVuSans-74" transform="translate(563.28125 0)"/>
     <use xlink:href="#DejaVuSans-6e" transform="translate(602.490234 0)"/>
     <use xlink:href="#DejaVuSans-2192" transform="translate(665.869141 0)"/>
     <use xlink:href="#DejaVuSans-67" transform="translate(749.658203 0)"/>
     <use xlink:href="#DejaVuSans-61" transform="translate(813.134766 0)"/>
     <use xlink:href="#DejaVuSans-74" transform="translate(874.414062 0)"/>
     <use xlink:href="#DejaVuSans-65" transform="translate(913.623047 0)"/>
    </g>
   </g>
   <g id="text_12">
    <!-- Mn_cc2: outp→gate -->
    <g style="fill: #808080" transform="translate(0.007656 474.452422) scale(0.07 -0.07)">
     <use xlink:href="#DejaVuSans-4d"/>
     <use xlink:href="#DejaVuSans-6e" transform="translate(86.279297 0)"/>
     <use xlink:href="#DejaVuSans-5f" transform="translate(149.658203 0)"/>
     <use xlink:href="#DejaVuSans-63" transform="translate(199.658203 0)"/>
     <use xlink:href="#DejaVuSans-63" transform="translate(254.638672 0)"/>
     <use xlink:href="#DejaVuSans-32" transform="translate(309.619141 0)"/>
     <use xlink:href="#DejaVuSans-3a" transform="translate(373.242188 0)"/>
     <use xlink:href="#DejaVuSans-20" transform="translate(406.933594 0)"/>
     <use xlink:href="#DejaVuSans-6f" transform="translate(438.720703 0)"/>
     <use xlink:href="#DejaVuSans-75" transform="translate(499.902344 0)"/>
     <use xlink:href="#DejaVuSans-74" transform="translate(563.28125 0)"/>
     <use xlink:href="#DejaVuSans-70" transform="translate(602.490234 0)"/>
     <use xlink:href="#DejaVuSans-2192" transform="translate(665.966797 0)"/>
     <use xlink:href="#DejaVuSans-67" transform="translate(749.755859 0)"/>
     <use xlink:href="#DejaVuSans-61" transform="translate(813.232422 0)"/>
     <use xlink:href="#DejaVuSans-74" transform="translate(874.511719 0)"/>
     <use xlink:href="#DejaVuSans-65" transform="translate(913.720703 0)"/>
    </g>
   </g>
   <g id="text_13">
    <!-- NMOS Diff Pair -->
    <g style="fill: #0000ff" transform="translate(2.754844 475.163437) scale(0.09 -0.09)">
     <defs>
      <path id="DejaVuSans-69" d="M 603 3500 
L 1178 3500 
L 1178 0 
L 603 0 
L 603 3500 
z
M 603 4863 
L 1178 4863 
L 1178 4134 
L 603 4134 
L 603 4863 
z
" transform="scale(0.015625)"/>
      <path id="DejaVuSans-66" d="M 2375 4863 
L 2375 4384 
L 1825 4384 
Q 1516 4384 1395 4259 
Q 1275 4134 1275 3809 
L 1275 3500 
L 2222 3500 
L 2222 3053 
L 1275 3053 
L 1275 0 
L 697 0 
L 697 3053 
L 147 3053 
L 147 3500 
L 697 3500 
L 697 3744 
Q 697 4328 969 4595 
Q 1241 4863 1831 4863 
L 2375 4863 
z
" transform="scale(0.015625)"/>
     </defs>
     <use xlink:href="#DejaVuSans-4e"/>
     <use xlink:href="#DejaVuSans-4d" transform="translate(74.804688 0)"/>
     <use xlink:href="#DejaVuSans-4f" transform="translate(161.083984 0)"/>
     <use xlink:href="#DejaVuSans-53" transform="translate(239.794922 0)"/>
     <use xlink:href="#DejaVuSans-20" transform="translate(303.271484 0)"/>
     <use xlink:href="#DejaVuSans-44" transform="translate(335.058594 0)"/>
     <use xlink:href="#DejaVuSans-69" transform="translate(412.060547 0)"/>
     <use xlink:href="#DejaVuSans-66" transform="translate(439.84375 0)"/>
     <use xlink:href="#DejaVuSans-66" transform="translate(475.048828 0)"/>
     <use xlink:href="#DejaVuSans-20" transform="translate(510.253906 0)"/>
     <use xlink:href="#DejaVuSans-50" transform="translate(542.041016 0)"/>
     <use xlink:href="#DejaVuSans-61" transform="translate(597.84375 0)"/>
     <use xlink:href="#DejaVuSans-69" transform="translate(659.123047 0)"/>
     <use xlink:href="#DejaVuSans-72" transform="translate(686.90625 0)"/>
    </g>
   </g>
   <g id="text_14">
    <!-- Vin+ -->
    <g transform="translate(44.165312 475.439375) scale(0.1 -0.1)">
     <defs>
      <path id="DejaVuSans-2b" d="M 2944 4013 
L 2944 2272 
L 4684 2272 
L 4684 1741 
L 2944 1741 
L 2944 0 
L 2419 0 
L 2419 1741 
L 678 1741 
L 678 2272 
L 2419 2272 
L 2419 4013 
L 2944 4013 
z
" transform="scale(0.015625)"/>
     </defs>
     <use xlink:href="#DejaVuSans-56"/>
     <use xlink:href="#DejaVuSans-69" transform="translate(66.158203 0)"/>
     <use xlink:href="#DejaVuSans-6e" transform="translate(93.941406 0)"/>
     <use xlink:href="#DejaVuSans-2b" transform="translate(157.320312 0)"/>
    </g>
   </g>
   <g id="text_15">
    <!-- Vin− -->
    <g transform="translate(44.165312 475.439375) scale(0.1 -0.1)">
     <defs>
      <path id="DejaVuSans-2212" d="M 678 2272 
L 4684 2272 
L 4684 1741 
L 678 1741 
L 678 2272 
z
" transform="scale(0.015625)"/>
     </defs>
     <use xlink:href="#DejaVuSans-56"/>
     <use xlink:href="#DejaVuSans-69" transform="translate(66.158203 0)"/>
     <use xlink:href="#DejaVuSans-6e" transform="translate(93.941406 0)"/>
     <use xlink:href="#DejaVuSans-2212" transform="translate(157.320312 0)"/>
    </g>
   </g>
   <g id="text_16">
    <!-- Mtail -->
    <g style="fill: #808080" transform="translate(48.89 471.01625) scale(0.08 -0.08)">
     <use xlink:href="#DejaVuSans-4d"/>
     <use xlink:href="#DejaVuSans-74" transform="translate(86.279297 0)"/>
     <use xlink:href="#DejaVuSans-61" transform="translate(125.488281 0)"/>
     <use xlink:href="#DejaVuSans-69" transform="translate(186.767578 0)"/>
     <use xlink:href="#DejaVuSans-6c" transform="translate(214.550781 0)"/>
    </g>
    <!-- (W=4µm) -->
    <g style="fill: #808080" transform="translate(29.4475 478.75875) scale(0.08 -0.08)">
     <defs>
      <path id="DejaVuSans-28" d="M 1984 4856 
Q 1566 4138 1362 3434 
Q 1159 2731 1159 2009 
Q 1159 1288 1364 580 
Q 1569 -128 1984 -844 
L 1484 -844 
Q 1016 -109 783 600 
Q 550 1309 550 2009 
Q 550 2706 781 3412 
Q 1013 4119 1484 4856 
L 1984 4856 
z
" transform="scale(0.015625)"/>
      <path id="DejaVuSans-57" d="M 213 4666 
L 850 4666 
L 1831 722 
L 2809 4666 
L 3519 4666 
L 4500 722 
L 5478 4666 
L 6119 4666 
L 4947 0 
L 4153 0 
L 3169 4050 
L 2175 0 
L 1381 0 
L 213 4666 
z
" transform="scale(0.015625)"/>
      <path id="DejaVuSans-34" d="M 2419 4116 
L 825 1625 
L 2419 1625 
L 2419 4116 
z
M 2253 4666 
L 3047 4666 
L 3047 1625 
L 3713 1625 
L 3713 1100 
L 3047 1100 
L 3047 0 
L 2419 0 
L 2419 1100 
L 313 1100 
L 313 1709 
L 2253 4666 
z
" transform="scale(0.015625)"/>
      <path id="DejaVuSans-b5" d="M 544 -1331 
L 544 3500 
L 1119 3500 
L 1119 1325 
Q 1119 872 1334 640 
Q 1550 409 1972 409 
Q 2434 409 2667 671 
Q 2900 934 2900 1459 
L 2900 3500 
L 3475 3500 
L 3475 806 
Q 3475 619 3529 530 
Q 3584 441 3700 441 
Q 3728 441 3778 458 
Q 3828 475 3916 513 
L 3916 50 
Q 3788 -22 3673 -56 
Q 3559 -91 3450 -91 
Q 3234 -91 3106 31 
Q 2978 153 2931 403 
Q 2775 156 2548 32 
Q 2322 -91 2016 -91 
Q 1697 -91 1473 31 
Q 1250 153 1119 397 
L 1119 -1331 
L 544 -1331 
z
" transform="scale(0.015625)"/>
      <path id="DejaVuSans-29" d="M 513 4856 
L 1013 4856 
Q 1481 4119 1714 3412 
Q 1947 2706 1947 2009 
Q 1947 1309 1714 600 
Q 1481 -109 1013 -844 
L 513 -844 
Q 928 -128 1133 580 
Q 1338 1288 1338 2009 
Q 1338 2731 1133 3434 
Q 928 4138 513 4856 
z
" transform="scale(0.015625)"/>
     </defs>
     <use xlink:href="#DejaVuSans-28"/>
     <use xlink:href="#DejaVuSans-57" transform="translate(39.013672 0)"/>
     <use xlink:href="#DejaVuSans-3d" transform="translate(137.890625 0)"/>
     <use xlink:href="#DejaVuSans-34" transform="translate(221.679688 0)"/>
     <use xlink:href="#DejaVuSans-b5" transform="translate(285.302734 0)"/>
     <use xlink:href="#DejaVuSans-6d" transform="translate(348.925781 0)"/>
     <use xlink:href="#DejaVuSans-29" transform="translate(446.337891 0)"/>
    </g>
   </g>
   <g id="text_17">
    <!-- clk → -->
    <g style="fill: #0000ff" transform="translate(45.21375 475.163437) scale(0.09 -0.09)">
     <use xlink:href="#DejaVuSans-63"/>
     <use xlink:href="#DejaVuSans-6c" transform="translate(54.980469 0)"/>
     <use xlink:href="#DejaVuSans-6b" transform="translate(82.763672 0)"/>
     <use xlink:href="#DejaVuSans-20" transform="translate(140.673828 0)"/>
     <use xlink:href="#DejaVuSans-2192" transform="translate(172.460938 0)"/>
    </g>
   </g>
   <g id="text_18">
    <!-- VSS -->
    <g transform="translate(50.6925 475.163437) scale(0.09 -0.09)">
     <use xlink:href="#DejaVuSans-56"/>
     <use xlink:href="#DejaVuSans-53" transform="translate(68.408203 0)"/>
     <use xlink:href="#DejaVuSans-53" transform="translate(131.884766 0)"/>
    </g>
   </g>
   <g id="text_19">
    <!-- Sizes: Diff pair W=2µm L=0.5µm | Latch W=1µm L=0.13µm | Reset W=2µm L=0.13µm | Tail W=4µm L=0.13µm -->
    <g style="fill: #808080" transform="translate(75.47625 474.79375) scale(0.08 -0.08)">
     <defs>
      <path id="DejaVuSans-7a" d="M 353 3500 
L 3084 3500 
L 3084 2975 
L 922 459 
L 3084 459 
L 3084 0 
L 275 0 
L 275 525 
L 2438 3041 
L 353 3041 
L 353 3500 
z
" transform="scale(0.015625)"/>
      <path id="DejaVuSans-35" d="M 691 4666 
L 3169 4666 
L 3169 4134 
L 1269 4134 
L 1269 2991 
Q 1406 3038 1543 3061 
Q 1681 3084 1819 3084 
Q 2600 3084 3056 2656 
Q 3513 2228 3513 1497 
Q 3513 744 3044 326 
Q 2575 -91 1722 -91 
Q 1428 -91 1123 -41 
Q 819 9 494 109 
L 494 744 
Q 775 591 1075 516 
Q 1375 441 1709 441 
Q 2250 441 2565 725 
Q 2881 1009 2881 1497 
Q 2881 1984 2565 2268 
Q 2250 2553 1709 2553 
Q 1456 2553 1204 2497 
Q 953 2441 691 2322 
L 691 4666 
z
" transform="scale(0.015625)"/>
      <path id="DejaVuSans-7c" d="M 1344 4891 
L 1344 -1509 
L 813 -1509 
L 813 4891 
L 1344 4891 
z
" transform="scale(0.015625)"/>
      <path id="DejaVuSans-54" d="M -19 4666 
L 3928 4666 
L 3928 4134 
L 2272 4134 
L 2272 0 
L 1638 0 
L 1638 4134 
L -19 4134 
L -19 4666 
z
" transform="scale(0.015625)"/>
     </defs>
     <use xlink:href="#DejaVuSans-53"/>
     <use xlink:href="#DejaVuSans-69" transform="translate(63.476562 0)"/>
     <use xlink:href="#DejaVuSans-7a" transform="translate(91.259766 0)"/>
     <use xlink:href="#DejaVuSans-65" transform="translate(143.75 0)"/>
     <use xlink:href="#DejaVuSans-73" transform="translate(205.273438 0)"/>
     <use xlink:href="#DejaVuSans-3a" transform="translate(257.373047 0)"/>
     <use xlink:href="#DejaVuSans-20" transform="translate(291.064453 0)"/>
     <use xlink:href="#DejaVuSans-44" transform="translate(322.851562 0)"/>
     <use xlink:href="#DejaVuSans-69" transform="translate(399.853516 0)"/>
     <use xlink:href="#DejaVuSans-66" transform="translate(427.636719 0)"/>
     <use xlink:href="#DejaVuSans-66" transform="translate(462.841797 0)"/>
     <use xlink:href="#DejaVuSans-20" transform="translate(498.046875 0)"/>
     <use xlink:href="#DejaVuSans-70" transform="translate(529.833984 0)"/>
     <use xlink:href="#DejaVuSans-61" transform="translate(593.310547 0)"/>
     <use xlink:href="#DejaVuSans-69" transform="translate(654.589844 0)"/>
     <use xlink:href="#DejaVuSans-72" transform="translate(682.373047 0)"/>
     <use xlink:href="#DejaVuSans-20" transform="translate(723.486328 0)"/>
     <use xlink:href="#DejaVuSans-57" transform="translate(755.273438 0)"/>
     <use xlink:href="#DejaVuSans-3d" transform="translate(854.150391 0)"/>
     <use xlink:href="#DejaVuSans-32" transform="translate(937.939453 0)"/>
     <use xlink:href="#DejaVuSans-b5" transform="translate(1001.5625 0)"/>
     <use xlink:href="#DejaVuSans-6d" transform="translate(1065.185547 0)"/>
     <use xlink:href="#DejaVuSans-20" transform="translate(1162.597656 0)"/>
     <use xlink:href="#DejaVuSans-4c" transform="translate(1194.384766 0)"/>
     <use xlink:href="#DejaVuSans-3d" transform="translate(1250.097656 0)"/>
     <use xlink:href="#DejaVuSans-30" transform="translate(1333.886719 0)"/>
     <use xlink:href="#DejaVuSans-2e" transform="translate(1397.509766 0)"/>
     <use xlink:href="#DejaVuSans-35" transform="translate(1429.296875 0)"/>
     <use xlink:href="#DejaVuSans-b5" transform="translate(1492.919922 0)"/>
     <use xlink:href="#DejaVuSans-6d" transform="translate(1556.542969 0)"/>
     <use xlink:href="#DejaVuSans-20" transform="translate(1653.955078 0)"/>
     <use xlink:href="#DejaVuSans-7c" transform="translate(1685.742188 0)"/>
     <use xlink:href="#DejaVuSans-20" transform="translate(1719.433594 0)"/>
     <use xlink:href="#DejaVuSans-4c" transform="translate(1751.220703 0)"/>
     <use xlink:href="#DejaVuSans-61" transform="translate(1806.933594 0)"/>
     <use xlink:href="#DejaVuSans-74" transform="translate(1868.212891 0)"/>
     <use xlink:href="#DejaVuSans-63" transform="translate(1907.421875 0)"/>
     <use xlink:href="#DejaVuSans-68" transform="translate(1962.402344 0)"/>
     <use xlink:href="#DejaVuSans-20" transform="translate(2025.78125 0)"/>
     <use xlink:href="#DejaVuSans-57" transform="translate(2057.568359 0)"/>
     <use xlink:href="#DejaVuSans-3d" transform="translate(2156.445312 0)"/>
     <use xlink:href="#DejaVuSans-31" transform="translate(2240.234375 0)"/>
     <use xlink:href="#DejaVuSans-b5" transform="translate(2303.857422 0)"/>
     <use xlink:href="#DejaVuSans-6d" transform="translate(2367.480469 0)"/>
     <use xlink:href="#DejaVuSans-20" transform="translate(2464.892578 0)"/>
     <use xlink:href="#DejaVuSans-4c" transform="translate(2496.679688 0)"/>
     <use xlink:href="#DejaVuSans-3d" transform="translate(2552.392578 0)"/>
     <use xlink:href="#DejaVuSans-30" transform="translate(2636.181641 0)"/>
     <use xlink:href="#DejaVuSans-2e" transform="translate(2699.804688 0)"/>
     <use xlink:href="#DejaVuSans-31" transform="translate(2731.591797 0)"/>
     <use xlink:href="#DejaVuSans-33" transform="translate(2795.214844 0)"/>
     <use xlink:href="#DejaVuSans-b5" transform="translate(2858.837891 0)"/>
     <use xlink:href="#DejaVuSans-6d" transform="translate(2922.460938 0)"/>
     <use xlink:href="#DejaVuSans-20" transform="translate(3019.873047 0)"/>
     <use xlink:href="#DejaVuSans-7c" transform="translate(3051.660156 0)"/>
     <use xlink:href="#DejaVuSans-20" transform="translate(3085.351562 0)"/>
     <use xlink:href="#DejaVuSans-52" transform="translate(3117.138672 0)"/>
     <use xlink:href="#DejaVuSans-65" transform="translate(3182.121094 0)"/>
     <use xlink:href="#DejaVuSans-73" transform="translate(3243.644531 0)"/>
     <use xlink:href="#DejaVuSans-65" transform="translate(3295.744141 0)"/>
     <use xlink:href="#DejaVuSans-74" transform="translate(3357.267578 0)"/>
     <use xlink:href="#DejaVuSans-20" transform="translate(3396.476562 0)"/>
     <use xlink:href="#DejaVuSans-57" transform="translate(3428.263672 0)"/>
     <use xlink:href="#DejaVuSans-3d" transform="translate(3527.140625 0)"/>
     <use xlink:href="#DejaVuSans-32" transform="translate(3610.929688 0)"/>
     <use xlink:href="#DejaVuSans-b5" transform="translate(3674.552734 0)"/>
     <use xlink:href="#DejaVuSans-6d" transform="translate(3738.175781 0)"/>
     <use xlink:href="#DejaVuSans-20" transform="translate(3835.587891 0)"/>
     <use xlink:href="#DejaVuSans-4c" transform="translate(3867.375 0)"/>
     <use xlink:href="#DejaVuSans-3d" transform="translate(3923.087891 0)"/>
     <use xlink:href="#DejaVuSans-30" transform="translate(4006.876953 0)"/>
     <use xlink:href="#DejaVuSans-2e" transform="translate(4070.5 0)"/>
     <use xlink:href="#DejaVuSans-31" transform="translate(4102.287109 0)"/>
     <use xlink:href="#DejaVuSans-33" transform="translate(4165.910156 0)"/>
     <use xlink:href="#DejaVuSans-b5" transform="translate(4229.533203 0)"/>
     <use xlink:href="#DejaVuSans-6d" transform="translate(4293.15625 0)"/>
     <use xlink:href="#DejaVuSans-20" transform="translate(4390.568359 0)"/>
     <use xlink:href="#DejaVuSans-7c" transform="translate(4422.355469 0)"/>
     <use xlink:href="#DejaVuSans-20" transform="translate(4456.046875 0)"/>
     <use xlink:href="#DejaVuSans-54" transform="translate(4487.833984 0)"/>
     <use xlink:href="#DejaVuSans-61" transform="translate(4532.417969 0)"/>
     <use xlink:href="#DejaVuSans-69" transform="translate(4593.697266 0)"/>
     <use xlink:href="#DejaVuSans-6c" transform="translate(4621.480469 0)"/>
     <use xlink:href="#DejaVuSans-20" transform="translate(4649.263672 0)"/>
     <use xlink:href="#DejaVuSans-57" transform="translate(4681.050781 0)"/>
     <use xlink:href="#DejaVuSans-3d" transform="translate(4779.927734 0)"/>
     <use xlink:href="#DejaVuSans-34" transform="translate(4863.716797 0)"/>
     <use xlink:href="#DejaVuSans-b5" transform="translate(4927.339844 0)"/>
     <use xlink:href="#DejaVuSans-6d" transform="translate(4990.962891 0)"/>
     <use xlink:href="#DejaVuSans-20" transform="translate(5088.375 0)"/>
     <use xlink:href="#DejaVuSans-4c" transform="translate(5120.162109 0)"/>
     <use xlink:href="#DejaVuSans-3d" transform="translate(5175.875 0)"/>
     <use xlink:href="#DejaVuSans-30" transform="translate(5259.664062 0)"/>
     <use xlink:href="#DejaVuSans-2e" transform="translate(5323.287109 0)"/>
     <use xlink:href="#DejaVuSans-31" transform="translate(5355.074219 0)"/>
     <use xlink:href="#DejaVuSans-33" transform="translate(5418.697266 0)"/>
     <use xlink:href="#DejaVuSans-b5" transform="translate(5482.320312 0)"/>
     <use xlink:href="#DejaVuSans-6d" transform="translate(5545.943359 0)"/>
    </g>
   </g>
   <g id="patch_40">
    <path d="M 179.87625 151.38 
C 180.592298 151.38 181.279116 151.095511 181.785438 150.589188 
C 182.291761 150.082866 182.57625 149.396048 182.57625 148.68 
C 182.57625 147.963952 182.291761 147.277134 181.785438 146.770812 
C 181.279116 146.264489 180.592298 145.98 179.87625 145.98 
C 179.160202 145.98 178.473384 146.264489 177.967062 146.770812 
C 177.460739 147.277134 177.17625 147.963952 177.17625 148.68 
C 177.17625 149.396048 177.460739 150.082866 177.967062 150.589188 
C 178.473384 151.095511 179.160202 151.38 179.87625 151.38 
z
" clip-path="url(#p5a565d563d)" style="stroke: #000000; stroke-width: 2; stroke-linejoin: miter"/>
   </g>
   <g id="text_20">
    <!-- dp -->
    <g transform="translate(162.149062 151.163437) scale(0.09 -0.09)">
     <defs>
      <path id="DejaVuSans-64" d="M 2906 2969 
L 2906 4863 
L 3481 4863 
L 3481 0 
L 2906 0 
L 2906 525 
Q 2725 213 2448 61 
Q 2172 -91 1784 -91 
Q 1150 -91 751 415 
Q 353 922 353 1747 
Q 353 2572 751 3078 
Q 1150 3584 1784 3584 
Q 2172 3584 2448 3432 
Q 2725 3281 2906 2969 
z
M 947 1747 
Q 947 1113 1208 752 
Q 1469 391 1925 391 
Q 2381 391 2643 752 
Q 2906 1113 2906 1747 
Q 2906 2381 2643 2742 
Q 2381 3103 1925 3103 
Q 1469 3103 1208 2742 
Q 947 2381 947 1747 
z
" transform="scale(0.015625)"/>
     </defs>
     <use xlink:href="#DejaVuSans-64"/>
     <use xlink:href="#DejaVuSans-70" transform="translate(63.476562 0)"/>
    </g>
   </g>
   <g id="patch_41">
    <path d="M 323.87625 151.38 
C 324.592298 151.38 325.279116 151.095511 325.785438 150.589188 
C 326.291761 150.082866 326.57625 149.396048 326.57625 148.68 
C 326.57625 147.963952 326.291761 147.277134 325.785438 146.770812 
C 325.279116 146.264489 324.592298 145.98 323.87625 145.98 
C 323.160202 145.98 322.473384 146.264489 321.967062 146.770812 
C 321.460739 147.277134 321.17625 147.963952 321.17625 148.68 
C 321.17625 149.396048 321.460739 150.082866 321.967062 150.589188 
C 322.473384 151.095511 323.160202 151.38 323.87625 151.38 
z
" clip-path="url(#p5a565d563d)" style="stroke: #000000; stroke-width: 2; stroke-linejoin: miter"/>
   </g>
   <g id="text_21">
    <!-- dn -->
    <g transform="translate(330.17625 151.163437) scale(0.09 -0.09)">
     <use xlink:href="#DejaVuSans-64"/>
     <use xlink:href="#DejaVuSans-6e" transform="translate(63.476562 0)"/>
    </g>
   </g>
   <g id="patch_42">
    <path d="M 107.87625 151.38 
C 108.592298 151.38 109.279116 151.095511 109.785438 150.589188 
C 110.291761 150.082866 110.57625 149.396048 110.57625 148.68 
C 110.57625 147.963952 110.291761 147.277134 109.785438 146.770812 
C 109.279116 146.264489 108.592298 145.98 107.87625 145.98 
C 107.160202 145.98 106.473384 146.264489 105.967062 146.770812 
C 105.460739 147.277134 105.17625 147.963952 105.17625 148.68 
C 105.17625 149.396048 105.460739 150.082866 105.967062 150.589188 
C 106.473384 151.095511 107.160202 151.38 107.87625 151.38 
z
" clip-path="url(#p5a565d563d)" style="stroke: #000000; stroke-width: 2; stroke-linejoin: miter"/>
   </g>
   <g id="text_22">
    <!-- outp -->
    <g transform="translate(81.12375 151.163437) scale(0.09 -0.09)">
     <use xlink:href="#DejaVuSans-6f"/>
     <use xlink:href="#DejaVuSans-75" transform="translate(61.181641 0)"/>
     <use xlink:href="#DejaVuSans-74" transform="translate(124.560547 0)"/>
     <use xlink:href="#DejaVuSans-70" transform="translate(163.769531 0)"/>
    </g>
   </g>
   <g id="patch_43">
    <path d="M 395.87625 151.38 
C 396.592298 151.38 397.279116 151.095511 397.785438 150.589188 
C 398.291761 150.082866 398.57625 149.396048 398.57625 148.68 
C 398.57625 147.963952 398.291761 147.277134 397.785438 146.770812 
C 397.279116 146.264489 396.592298 145.98 395.87625 145.98 
C 395.160202 145.98 394.473384 146.264489 393.967062 146.770812 
C 393.460739 147.277134 393.17625 147.963952 393.17625 148.68 
C 393.17625 149.396048 393.460739 150.082866 393.967062 150.589188 
C 394.473384 151.095511 395.160202 151.38 395.87625 151.38 
z
" clip-path="url(#p5a565d563d)" style="stroke: #000000; stroke-width: 2; stroke-linejoin: miter"/>
   </g>
   <g id="text_23">
    <!-- outn -->
    <g transform="translate(402.17625 151.163437) scale(0.09 -0.09)">
     <use xlink:href="#DejaVuSans-6f"/>
     <use xlink:href="#DejaVuSans-75" transform="translate(61.181641 0)"/>
     <use xlink:href="#DejaVuSans-74" transform="translate(124.560547 0)"/>
     <use xlink:href="#DejaVuSans-6e" transform="translate(163.769531 0)"/>
    </g>
   </g>
   <g id="patch_44">
    <path d="M 179.87625 331.38 
C 180.592298 331.38 181.279116 331.095511 181.785438 330.589188 
C 182.291761 330.082866 182.57625 329.396048 182.57625 328.68 
C 182.57625 327.963952 182.291761 327.277134 181.785438 326.770812 
C 181.279116 326.264489 180.592298 325.98 179.87625 325.98 
C 179.160202 325.98 178.473384 326.264489 177.967062 326.770812 
C 177.460739 327.277134 177.17625 327.963952 177.17625 328.68 
C 177.17625 329.396048 177.460739 330.082866 177.967062 330.589188 
C 178.473384 331.095511 179.160202 331.38 179.87625 331.38 
z
" clip-path="url(#p5a565d563d)" style="stroke: #000000; stroke-width: 2; stroke-linejoin: miter"/>
   </g>
   <g id="text_24">
    <!-- Mn1 -->
    <g transform="translate(156.51375 330.8875) scale(0.08 -0.08)">
     <use xlink:href="#DejaVuSans-4d"/>
     <use xlink:href="#DejaVuSans-6e" transform="translate(86.279297 0)"/>
     <use xlink:href="#DejaVuSans-31" transform="translate(149.658203 0)"/>
    </g>
   </g>
   <g id="patch_45">
    <path d="M 323.87625 331.38 
C 324.592298 331.38 325.279116 331.095511 325.785438 330.589188 
C 326.291761 330.082866 326.57625 329.396048 326.57625 328.68 
C 326.57625 327.963952 326.291761 327.277134 325.785438 326.770812 
C 325.279116 326.264489 324.592298 325.98 323.87625 325.98 
C 323.160202 325.98 322.473384 326.264489 321.967062 326.770812 
C 321.460739 327.277134 321.17625 327.963952 321.17625 328.68 
C 321.17625 329.396048 321.460739 330.082866 321.967062 330.589188 
C 322.473384 331.095511 323.160202 331.38 323.87625 331.38 
z
" clip-path="url(#p5a565d563d)" style="stroke: #000000; stroke-width: 2; stroke-linejoin: miter"/>
   </g>
   <g id="text_25">
    <!-- Mn2 -->
    <g transform="translate(330.17625 330.8875) scale(0.08 -0.08)">
     <use xlink:href="#DejaVuSans-4d"/>
     <use xlink:href="#DejaVuSans-6e" transform="translate(86.279297 0)"/>
     <use xlink:href="#DejaVuSans-32" transform="translate(149.658203 0)"/>
    </g>
   </g>
   <g id="patch_46">
    <path d="M 251.87625 367.38 
C 252.592298 367.38 253.279116 367.095511 253.785438 366.589188 
C 254.291761 366.082866 254.57625 365.396048 254.57625 364.68 
C 254.57625 363.963952 254.291761 363.277134 253.785438 362.770812 
C 253.279116 362.264489 252.592298 361.98 251.87625 361.98 
C 251.160202 361.98 250.473384 362.264489 249.967062 362.770812 
C 249.460739 363.277134 249.17625 363.963952 249.17625 364.68 
C 249.17625 365.396048 249.460739 366.082866 249.967062 366.589188 
C 250.473384 367.095511 251.160202 367.38 251.87625 367.38 
z
" clip-path="url(#p5a565d563d)" style="stroke: #000000; stroke-width: 2; stroke-linejoin: miter"/>
   </g>
  </g>
 </g>
 <defs>
  <clipPath id="p5a565d563d">
   <rect x="2.52225" y="-0" width="458.226" height="485.36"/>
  </clipPath>
 </defs>
</svg>
