<?xml version="1.0" encoding="utf-8" standalone="no"?>
<!DOCTYPE svg PUBLIC "-//W3C//DTD SVG 1.1//EN"
  "http://www.w3.org/Graphics/SVG/1.1/DTD/svg11.dtd">
<svg xmlns:xlink="http://www.w3.org/1999/xlink" width="326.611875pt" height="543.6pt" viewBox="0 0 326.611875 543.6" xmlns="http://www.w3.org/2000/svg" version="1.1">
 <metadata>
  <rdf:RDF xmlns:dc="http://purl.org/dc/elements/1.1/" xmlns:cc="http://creativecommons.org/ns#" xmlns:rdf="http://www.w3.org/1999/02/22-rdf-syntax-ns#">
   <cc:Work>
    <dc:type rdf:resource="http://purl.org/dc/dcmitype/StillImage"/>
    <dc:date>2026-03-01T17:04:29.546619</dc:date>
    <dc:format>image/svg+xml</dc:format>
    <dc:creator>
     <cc:Agent>
      <dc:title>Matplotlib v3.10.0, https://matplotlib.org/</dc:title>
     </cc:Agent>
    </dc:creator>
   </cc:Work>
  </rdf:RDF>
 </metadata>
 <defs>
  <style type="text/css">*{stroke-linejoin: round; stroke-linecap: butt}</style>
 </defs>
 <g id="figure_1">
  <g id="patch_1">
   <path d="M 0 543.6 
L 326.611875 543.6 
L 326.611875 0 
L 0 0 
L 0 543.6 
z
" style="fill: none"/>
  </g>
  <g id="axes_1">
   <g id="patch_2">
    <path d="M 4.784821 9.178779 
C 11.668114 304.599969 13.68 418.68 40.68 418.68 
" clip-path="url(#p2ee39ddbb5)" style="fill: none; stroke: #000000; stroke-width: 2; stroke-linejoin: miter; stroke-linecap: round"/>
   </g>
   <g id="patch_3">
    <path d="M 1.290619 13.761415 
L 4.68 4.68 
L 8.488666 13.593701 
z
" clip-path="url(#p2ee39ddbb5)"/>
   </g>
   <g id="patch_4">
    <path d="M 4.791611 34.378616 
C 11.668114 311.543971 13.68 418.68 40.68 418.68 
" clip-path="url(#p2ee39ddbb5)" style="fill: none; stroke: #808080; stroke-width: 2; stroke-linejoin: miter; stroke-linecap: round"/>
   </g>
   <g id="patch_5">
    <path d="M 1.30433 38.96652 
L 4.68 29.88 
L 8.502115 38.787942 
z
" clip-path="url(#p2ee39ddbb5)" style="fill: #808080"/>
   </g>
   <g id="patch_6">
    <path d="M 29.925214 135.179773 
C 31.976434 339.319978 32.58 418.68 40.68 418.68 
" clip-path="url(#p2ee39ddbb5)" style="fill: none; stroke: #808080; stroke-width: 2; stroke-linejoin: miter; stroke-linecap: round"/>
   </g>
   <g id="patch_7">
    <path d="M 26.37061 139.715717 
L 29.88 130.68 
L 33.570247 139.643374 
z
" clip-path="url(#p2ee39ddbb5)" style="fill: #808080"/>
   </g>
   <g id="patch_8">
    <path d="M 29.933986 181.979676 
C 31.976434 352.215982 32.58 418.68 40.68 418.68 
" clip-path="url(#p2ee39ddbb5)" style="fill: none; stroke: #808080; stroke-width: 2; stroke-linejoin: miter; stroke-linecap: round"/>
   </g>
   <g id="patch_9">
    <path d="M 26.388231 186.522541 
L 29.88 177.48 
L 33.587713 186.436164 
z
" clip-path="url(#p2ee39ddbb5)" style="fill: #808080"/>
   </g>
   <g id="patch_10">
    <path d="M 29.94698 228.779501 
C 31.976434 365.111985 32.58 418.68 40.68 418.68 
" clip-path="url(#p2ee39ddbb5)" style="fill: none; stroke: #808080; stroke-width: 2; stroke-linejoin: miter; stroke-linecap: round"/>
   </g>
   <g id="patch_11">
    <path d="M 26.414359 233.332587 
L 29.88 224.28 
L 33.613561 233.225419 
z
" clip-path="url(#p2ee39ddbb5)" style="fill: #808080"/>
   </g>
   <g id="patch_12">
    <path d="M 29.96821 275.579135 
C 31.976434 378.007989 32.58 418.68 40.68 418.68 
" clip-path="url(#p2ee39ddbb5)" style="fill: none; stroke: #808080; stroke-width: 2; stroke-linejoin: miter; stroke-linecap: round"/>
   </g>
   <g id="patch_13">
    <path d="M 26.457112 280.148839 
L 29.88 271.08 
L 33.655729 280.007703 
z
" clip-path="url(#p2ee39ddbb5)" style="fill: #808080"/>
   </g>
   <g id="patch_14">
    <path d="M 30.009137 322.378147 
C 31.976434 390.903992 32.58 418.68 40.68 418.68 
" clip-path="url(#p2ee39ddbb5)" style="fill: none; stroke: #808080; stroke-width: 2; stroke-linejoin: miter; stroke-linecap: round"/>
   </g>
   <g id="patch_15">
    <path d="M 26.539756 326.979603 
L 29.88 317.88 
L 33.736791 326.772984 
z
" clip-path="url(#p2ee39ddbb5)" style="fill: #808080"/>
   </g>
   <g id="patch_16">
    <path d="M 30.120809 369.173552 
C 31.976434 403.799996 32.58 418.68 40.68 418.68 
" clip-path="url(#p2ee39ddbb5)" style="fill: none; stroke: #808080; stroke-width: 2; stroke-linejoin: miter; stroke-linecap: round"/>
   </g>
   <g id="patch_17">
    <path d="M 26.766776 373.859751 
L 29.88 364.68 
L 33.956459 373.474457 
z
" clip-path="url(#p2ee39ddbb5)" style="fill: #808080"/>
   </g>
   <g id="patch_18">
    <path d="M 31.55818 415.65537 
C 31.976434 416.695999 32.58 418.68 40.68 418.68 
" clip-path="url(#p2ee39ddbb5)" style="fill: none; stroke: #808080; stroke-width: 2; stroke-linejoin: miter; stroke-linecap: round"/>
   </g>
   <g id="patch_19">
    <path d="M 29.896065 421.173283 
L 29.88 411.48 
L 36.576656 418.488195 
z
" clip-path="url(#p2ee39ddbb5)" style="fill: #808080"/>
   </g>
   <g id="patch_20">
    <path d="M 30.207972 453.791968 
C 31.976434 429.592003 32.58 418.68 40.68 418.68 
" clip-path="url(#p2ee39ddbb5)" style="fill: none; stroke: #808080; stroke-width: 2; stroke-linejoin: miter; stroke-linecap: round"/>
   </g>
   <g id="patch_21">
    <path d="M 34.12637 449.566313 
L 29.88 458.28 
L 26.945518 449.041558 
z
" clip-path="url(#p2ee39ddbb5)" style="fill: #808080"/>
   </g>
   <g id="line2d_1">
    <path d="M 220.68 94.68 
L 220.68 100.08 
L 229.68 103.08 
L 211.68 109.08 
L 229.68 115.08 
L 211.68 121.08 
L 229.68 127.08 
L 211.68 133.08 
L 220.68 136.08 
L 220.68 141.48 
" clip-path="url(#p2ee39ddbb5)" style="fill: none; stroke: #000000; stroke-width: 2; stroke-linecap: round"/>
   </g>
   <g id="line2d_2">
    <path d="M 220.68 141.48 
L 193.68 141.48 
L 166.68 141.48 
" clip-path="url(#p2ee39ddbb5)" style="fill: none; stroke: #000000; stroke-width: 2; stroke-linecap: round"/>
   </g>
   <g id="line2d_3">
    <path d="M 166.68 141.48 
L 148.68 141.48 
L 145.68 150.48 
L 139.68 132.48 
L 133.68 150.48 
L 127.68 132.48 
L 121.68 150.48 
L 115.68 132.48 
L 112.68 141.48 
L 94.68 141.48 
" clip-path="url(#p2ee39ddbb5)" style="fill: none; stroke: #000000; stroke-width: 2; stroke-linecap: round"/>
   </g>
   <g id="line2d_4">
    <path d="M 94.68 141.48 
L 85.68 141.48 
M 77.04 145.08 
L 56.88 157.68 
M 49.68 141.48 
L 40.68 141.48 
" clip-path="url(#p2ee39ddbb5)" style="fill: none; stroke: #000000; stroke-width: 2; stroke-linecap: round"/>
   </g>
   <g id="line2d_5">
    <path d="M 220.68 141.48 
L 220.68 146.88 
L 229.68 149.88 
L 211.68 155.88 
L 229.68 161.88 
L 211.68 167.88 
L 229.68 173.88 
L 211.68 179.88 
L 220.68 182.88 
L 220.68 188.28 
" clip-path="url(#p2ee39ddbb5)" style="fill: none; stroke: #000000; stroke-width: 2; stroke-linecap: round"/>
   </g>
   <g id="line2d_6">
    <path d="M 220.68 188.28 
L 193.68 188.28 
L 166.68 188.28 
" clip-path="url(#p2ee39ddbb5)" style="fill: none; stroke: #000000; stroke-width: 2; stroke-linecap: round"/>
   </g>
   <g id="line2d_7">
    <path d="M 166.68 188.28 
L 148.68 188.28 
L 145.68 197.28 
L 139.68 179.28 
L 133.68 197.28 
L 127.68 179.28 
L 121.68 197.28 
L 115.68 179.28 
L 112.68 188.28 
L 94.68 188.28 
" clip-path="url(#p2ee39ddbb5)" style="fill: none; stroke: #000000; stroke-width: 2; stroke-linecap: round"/>
   </g>
   <g id="line2d_8">
    <path d="M 94.68 188.28 
L 85.68 188.28 
M 77.04 191.88 
L 56.88 204.48 
M 49.68 188.28 
L 40.68 188.28 
" clip-path="url(#p2ee39ddbb5)" style="fill: none; stroke: #000000; stroke-width: 2; stroke-linecap: round"/>
   </g>
   <g id="line2d_9">
    <path d="M 220.68 188.28 
L 220.68 193.68 
L 229.68 196.68 
L 211.68 202.68 
L 229.68 208.68 
L 211.68 214.68 
L 229.68 220.68 
L 211.68 226.68 
L 220.68 229.68 
L 220.68 235.08 
" clip-path="url(#p2ee39ddbb5)" style="fill: none; stroke: #000000; stroke-width: 2; stroke-linecap: round"/>
   </g>
   <g id="line2d_10">
    <path d="M 220.68 235.08 
L 193.68 235.08 
L 166.68 235.08 
" clip-path="url(#p2ee39ddbb5)" style="fill: none; stroke: #000000; stroke-width: 2; stroke-linecap: round"/>
   </g>
   <g id="line2d_11">
    <path d="M 166.68 235.08 
L 148.68 235.08 
L 145.68 244.08 
L 139.68 226.08 
L 133.68 244.08 
L 127.68 226.08 
L 121.68 244.08 
L 115.68 226.08 
L 112.68 235.08 
L 94.68 235.08 
" clip-path="url(#p2ee39ddbb5)" style="fill: none; stroke: #000000; stroke-width: 2; stroke-linecap: round"/>
   </g>
   <g id="line2d_12">
    <path d="M 94.68 235.08 
L 85.68 235.08 
M 77.04 238.68 
L 56.88 251.28 
M 49.68 235.08 
L 40.68 235.08 
" clip-path="url(#p2ee39ddbb5)" style="fill: none; stroke: #000000; stroke-width: 2; stroke-linecap: round"/>
   </g>
   <g id="line2d_13">
    <path d="M 220.68 235.08 
L 220.68 240.48 
L 229.68 243.48 
L 211.68 249.48 
L 229.68 255.48 
L 211.68 261.48 
L 229.68 267.48 
L 211.68 273.48 
L 220.68 276.48 
L 220.68 281.88 
" clip-path="url(#p2ee39ddbb5)" style="fill: none; stroke: #000000; stroke-width: 2; stroke-linecap: round"/>
   </g>
   <g id="line2d_14">
    <path d="M 220.68 281.88 
L 193.68 281.88 
L 166.68 281.88 
" clip-path="url(#p2ee39ddbb5)" style="fill: none; stroke: #000000; stroke-width: 2; stroke-linecap: round"/>
   </g>
   <g id="line2d_15">
    <path d="M 166.68 281.88 
L 148.68 281.88 
L 145.68 290.88 
L 139.68 272.88 
L 133.68 290.88 
L 127.68 272.88 
L 121.68 290.88 
L 115.68 272.88 
L 112.68 281.88 
L 94.68 281.88 
" clip-path="url(#p2ee39ddbb5)" style="fill: none; stroke: #000000; stroke-width: 2; stroke-linecap: round"/>
   </g>
   <g id="line2d_16">
    <path d="M 94.68 281.88 
L 85.68 281.88 
M 77.04 285.48 
L 56.88 298.08 
M 49.68 281.88 
L 40.68 281.88 
" clip-path="url(#p2ee39ddbb5)" style="fill: none; stroke: #000000; stroke-width: 2; stroke-linecap: round"/>
   </g>
   <g id="line2d_17">
    <path d="M 220.68 281.88 
L 220.68 287.28 
L 229.68 290.28 
L 211.68 296.28 
L 229.68 302.28 
L 211.68 308.28 
L 229.68 314.28 
L 211.68 320.28 
L 220.68 323.28 
L 220.68 328.68 
" clip-path="url(#p2ee39ddbb5)" style="fill: none; stroke: #000000; stroke-width: 2; stroke-linecap: round"/>
   </g>
   <g id="line2d_18">
    <path d="M 220.68 328.68 
L 193.68 328.68 
L 166.68 328.68 
" clip-path="url(#p2ee39ddbb5)" style="fill: none; stroke: #000000; stroke-width: 2; stroke-linecap: round"/>
   </g>
   <g id="line2d_19">
    <path d="M 166.68 328.68 
L 148.68 328.68 
L 145.68 337.68 
L 139.68 319.68 
L 133.68 337.68 
L 127.68 319.68 
L 121.68 337.68 
L 115.68 319.68 
L 112.68 328.68 
L 94.68 328.68 
" clip-path="url(#p2ee39ddbb5)" style="fill: none; stroke: #000000; stroke-width: 2; stroke-linecap: round"/>
   </g>
   <g id="line2d_20">
    <path d="M 94.68 328.68 
L 85.68 328.68 
M 77.04 332.28 
L 56.88 344.88 
M 49.68 328.68 
L 40.68 328.68 
" clip-path="url(#p2ee39ddbb5)" style="fill: none; stroke: #000000; stroke-width: 2; stroke-linecap: round"/>
   </g>
   <g id="line2d_21">
    <path d="M 220.68 328.68 
L 220.68 334.08 
L 229.68 337.08 
L 211.68 343.08 
L 229.68 349.08 
L 211.68 355.08 
L 229.68 361.08 
L 211.68 367.08 
L 220.68 370.08 
L 220.68 375.48 
" clip-path="url(#p2ee39ddbb5)" style="fill: none; stroke: #000000; stroke-width: 2; stroke-linecap: round"/>
   </g>
   <g id="line2d_22">
    <path d="M 220.68 375.48 
L 193.68 375.48 
L 166.68 375.48 
" clip-path="url(#p2ee39ddbb5)" style="fill: none; stroke: #000000; stroke-width: 2; stroke-linecap: round"/>
   </g>
   <g id="line2d_23">
    <path d="M 166.68 375.48 
L 148.68 375.48 
L 145.68 384.48 
L 139.68 366.48 
L 133.68 384.48 
L 127.68 366.48 
L 121.68 384.48 
L 115.68 366.48 
L 112.68 375.48 
L 94.68 375.48 
" clip-path="url(#p2ee39ddbb5)" style="fill: none; stroke: #000000; stroke-width: 2; stroke-linecap: round"/>
   </g>
   <g id="line2d_24">
    <path d="M 94.68 375.48 
L 85.68 375.48 
M 77.04 379.08 
L 56.88 391.68 
M 49.68 375.48 
L 40.68 375.48 
" clip-path="url(#p2ee39ddbb5)" style="fill: none; stroke: #000000; stroke-width: 2; stroke-linecap: round"/>
   </g>
   <g id="line2d_25">
    <path d="M 220.68 375.48 
L 220.68 380.88 
L 229.68 383.88 
L 211.68 389.88 
L 229.68 395.88 
L 211.68 401.88 
L 229.68 407.88 
L 211.68 413.88 
L 220.68 416.88 
L 220.68 422.28 
" clip-path="url(#p2ee39ddbb5)" style="fill: none; stroke: #000000; stroke-width: 2; stroke-linecap: round"/>
   </g>
   <g id="line2d_26">
    <path d="M 220.68 422.28 
L 193.68 422.28 
L 166.68 422.28 
" clip-path="url(#p2ee39ddbb5)" style="fill: none; stroke: #000000; stroke-width: 2; stroke-linecap: round"/>
   </g>
   <g id="line2d_27">
    <path d="M 166.68 422.28 
L 148.68 422.28 
L 145.68 431.28 
L 139.68 413.28 
L 133.68 431.28 
L 127.68 413.28 
L 121.68 431.28 
L 115.68 413.28 
L 112.68 422.28 
L 94.68 422.28 
" clip-path="url(#p2ee39ddbb5)" style="fill: none; stroke: #000000; stroke-width: 2; stroke-linecap: round"/>
   </g>
   <g id="line2d_28">
    <path d="M 94.68 422.28 
L 85.68 422.28 
M 77.04 425.88 
L 56.88 438.48 
M 49.68 422.28 
L 40.68 422.28 
" clip-path="url(#p2ee39ddbb5)" style="fill: none; stroke: #000000; stroke-width: 2; stroke-linecap: round"/>
   </g>
   <g id="line2d_29">
    <path d="M 220.68 422.28 
L 220.68 427.68 
L 229.68 430.68 
L 211.68 436.68 
L 229.68 442.68 
L 211.68 448.68 
L 229.68 454.68 
L 211.68 460.68 
L 220.68 463.68 
L 220.68 469.08 
" clip-path="url(#p2ee39ddbb5)" style="fill: none; stroke: #000000; stroke-width: 2; stroke-linecap: round"/>
   </g>
   <g id="line2d_30">
    <path d="M 220.68 469.08 
L 193.68 469.08 
L 166.68 469.08 
" clip-path="url(#p2ee39ddbb5)" style="fill: none; stroke: #000000; stroke-width: 2; stroke-linecap: round"/>
   </g>
   <g id="line2d_31">
    <path d="M 166.68 469.08 
L 148.68 469.08 
L 145.68 478.08 
L 139.68 460.08 
L 133.68 478.08 
L 127.68 460.08 
L 121.68 478.08 
L 115.68 460.08 
L 112.68 469.08 
L 94.68 469.08 
" clip-path="url(#p2ee39ddbb5)" style="fill: none; stroke: #000000; stroke-width: 2; stroke-linecap: round"/>
   </g>
   <g id="line2d_32">
    <path d="M 94.68 469.08 
L 85.68 469.08 
M 77.04 472.68 
L 56.88 485.28 
M 49.68 469.08 
L 40.68 469.08 
" clip-path="url(#p2ee39ddbb5)" style="fill: none; stroke: #000000; stroke-width: 2; stroke-linecap: round"/>
   </g>
   <g id="line2d_33">
    <path d="M 220.68 469.08 
L 220.68 474.48 
L 229.68 477.48 
L 211.68 483.48 
L 229.68 489.48 
L 211.68 495.48 
L 229.68 501.48 
L 211.68 507.48 
L 220.68 510.48 
L 220.68 515.88 
" clip-path="url(#p2ee39ddbb5)" style="fill: none; stroke: #000000; stroke-width: 2; stroke-linecap: round"/>
   </g>
   <g id="line2d_34">
    <path d="M 220.68 515.88 
L 220.68 530.28 
L 211.68 530.28 
L 229.68 530.28 
M 214.38 534.6 
L 226.98 534.6 
M 218.88 538.92 
L 222.48 538.92 
" clip-path="url(#p2ee39ddbb5)" style="fill: none; stroke: #000000; stroke-width: 2; stroke-linecap: round"/>
   </g>
   <g id="line2d_35">
    <path d="M 220.68 94.68 
L 193.68 94.68 
L 166.68 94.68 
" clip-path="url(#p2ee39ddbb5)" style="fill: none; stroke: #000000; stroke-width: 2; stroke-linecap: round"/>
   </g>
   <g id="line2d_36">
    <path d="M 166.68 94.68 
L 148.68 94.68 
L 145.68 103.68 
L 139.68 85.68 
L 133.68 103.68 
L 127.68 85.68 
L 121.68 103.68 
L 115.68 85.68 
L 112.68 94.68 
L 94.68 94.68 
" clip-path="url(#p2ee39ddbb5)" style="fill: none; stroke: #000000; stroke-width: 2; stroke-linecap: round"/>
   </g>
   <g id="line2d_37">
    <path d="M 94.68 94.68 
L 85.68 94.68 
M 77.04 98.28 
L 56.88 110.88 
M 49.68 94.68 
L 40.68 94.68 
" clip-path="url(#p2ee39ddbb5)" style="fill: none; stroke: #000000; stroke-width: 2; stroke-linecap: round"/>
   </g>
   <g id="text_1">
    <!-- 8-bit R-2R DAC (Complementary Switch) -->
    <g transform="translate(44.28 422.543125) scale(0.14 -0.14)">
     <defs>
      <path id="DejaVuSans-38" d="M 2034 2216 
Q 1584 2216 1326 1975 
Q 1069 1734 1069 1313 
Q 1069 891 1326 650 
Q 1584 409 2034 409 
Q 2484 409 2743 651 
Q 3003 894 3003 1313 
Q 3003 1734 2745 1975 
Q 2488 2216 2034 2216 
z
M 1403 2484 
Q 997 2584 770 2862 
Q 544 3141 544 3541 
Q 544 4100 942 4425 
Q 1341 4750 2034 4750 
Q 2731 4750 3128 4425 
Q 3525 4100 3525 3541 
Q 3525 3141 3298 2862 
Q 3072 2584 2669 2484 
Q 3125 2378 3379 2068 
Q 3634 1759 3634 1313 
Q 3634 634 3220 271 
Q 2806 -91 2034 -91 
Q 1263 -91 848 271 
Q 434 634 434 1313 
Q 434 1759 690 2068 
Q 947 2378 1403 2484 
z
M 1172 3481 
Q 1172 3119 1398 2916 
Q 1625 2713 2034 2713 
Q 2441 2713 2670 2916 
Q 2900 3119 2900 3481 
Q 2900 3844 2670 4047 
Q 2441 4250 2034 4250 
Q 1625 4250 1398 4047 
Q 1172 3844 1172 3481 
z
" transform="scale(0.015625)"/>
      <path id="DejaVuSans-2d" d="M 313 2009 
L 1997 2009 
L 1997 1497 
L 313 1497 
L 313 2009 
z
" transform="scale(0.015625)"/>
      <path id="DejaVuSans-62" d="M 3116 1747 
Q 3116 2381 2855 2742 
Q 2594 3103 2138 3103 
Q 1681 3103 1420 2742 
Q 1159 2381 1159 1747 
Q 1159 1113 1420 752 
Q 1681 391 2138 391 
Q 2594 391 2855 752 
Q 3116 1113 3116 1747 
z
M 1159 2969 
Q 1341 3281 1617 3432 
Q 1894 3584 2278 3584 
Q 2916 3584 3314 3078 
Q 3713 2572 3713 1747 
Q 3713 922 3314 415 
Q 2916 -91 2278 -91 
Q 1894 -91 1617 61 
Q 1341 213 1159 525 
L 1159 0 
L 581 0 
L 581 4863 
L 1159 4863 
L 1159 2969 
z
" transform="scale(0.015625)"/>
      <path id="DejaVuSans-69" d="M 603 3500 
L 1178 3500 
L 1178 0 
L 603 0 
L 603 3500 
z
M 603 4863 
L 1178 4863 
L 1178 4134 
L 603 4134 
L 603 4863 
z
" transform="scale(0.015625)"/>
      <path id="DejaVuSans-74" d="M 1172 4494 
L 1172 3500 
L 2356 3500 
L 2356 3053 
L 1172 3053 
L 1172 1153 
Q 1172 725 1289 603 
Q 1406 481 1766 481 
L 2356 481 
L 2356 0 
L 1766 0 
Q 1100 0 847 248 
Q 594 497 594 1153 
L 594 3053 
L 172 3053 
L 172 3500 
L 594 3500 
L 594 4494 
L 1172 4494 
z
" transform="scale(0.015625)"/>
      <path id="DejaVuSans-20" transform="scale(0.015625)"/>
      <path id="DejaVuSans-52" d="M 2841 2188 
Q 3044 2119 3236 1894 
Q 3428 1669 3622 1275 
L 4263 0 
L 3584 0 
L 2988 1197 
Q 2756 1666 2539 1819 
Q 2322 1972 1947 1972 
L 1259 1972 
L 1259 0 
L 628 0 
L 628 4666 
L 2053 4666 
Q 2853 4666 3247 4331 
Q 3641 3997 3641 3322 
Q 3641 2881 3436 2590 
Q 3231 2300 2841 2188 
z
M 1259 4147 
L 1259 2491 
L 2053 2491 
Q 2509 2491 2742 2702 
Q 2975 2913 2975 3322 
Q 2975 3731 2742 3939 
Q 2509 4147 2053 4147 
L 1259 4147 
z
" transform="scale(0.015625)"/>
      <path id="DejaVuSans-32" d="M 1228 531 
L 3431 531 
L 3431 0 
L 469 0 
L 469 531 
Q 828 903 1448 1529 
Q 2069 2156 2228 2338 
Q 2531 2678 2651 2914 
Q 2772 3150 2772 3378 
Q 2772 3750 2511 3984 
Q 2250 4219 1831 4219 
Q 1534 4219 1204 4116 
Q 875 4013 500 3803 
L 500 4441 
Q 881 4594 1212 4672 
Q 1544 4750 1819 4750 
Q 2544 4750 2975 4387 
Q 3406 4025 3406 3419 
Q 3406 3131 3298 2873 
Q 3191 2616 2906 2266 
Q 2828 2175 2409 1742 
Q 1991 1309 1228 531 
z
" transform="scale(0.015625)"/>
      <path id="DejaVuSans-44" d="M 1259 4147 
L 1259 519 
L 2022 519 
Q 2988 519 3436 956 
Q 3884 1394 3884 2338 
Q 3884 3275 3436 3711 
Q 2988 4147 2022 4147 
L 1259 4147 
z
M 628 4666 
L 1925 4666 
Q 3281 4666 3915 4102 
Q 4550 3538 4550 2338 
Q 4550 1131 3912 565 
Q 3275 0 1925 0 
L 628 0 
L 628 4666 
z
" transform="scale(0.015625)"/>
      <path id="DejaVuSans-41" d="M 2188 4044 
L 1331 1722 
L 3047 1722 
L 2188 4044 
z
M 1831 4666 
L 2547 4666 
L 4325 0 
L 3669 0 
L 3244 1197 
L 1141 1197 
L 716 0 
L 50 0 
L 1831 4666 
z
" transform="scale(0.015625)"/>
      <path id="DejaVuSans-43" d="M 4122 4306 
L 4122 3641 
Q 3803 3938 3442 4084 
Q 3081 4231 2675 4231 
Q 1875 4231 1450 3742 
Q 1025 3253 1025 2328 
Q 1025 1406 1450 917 
Q 1875 428 2675 428 
Q 3081 428 3442 575 
Q 3803 722 4122 1019 
L 4122 359 
Q 3791 134 3420 21 
Q 3050 -91 2638 -91 
Q 1578 -91 968 557 
Q 359 1206 359 2328 
Q 359 3453 968 4101 
Q 1578 4750 2638 4750 
Q 3056 4750 3426 4639 
Q 3797 4528 4122 4306 
z
" transform="scale(0.015625)"/>
      <path id="DejaVuSans-28" d="M 1984 4856 
Q 1566 4138 1362 3434 
Q 1159 2731 1159 2009 
Q 1159 1288 1364 580 
Q 1569 -128 1984 -844 
L 1484 -844 
Q 1016 -109 783 600 
Q 550 1309 550 2009 
Q 550 2706 781 3412 
Q 1013 4119 1484 4856 
L 1984 4856 
z
" transform="scale(0.015625)"/>
      <path id="DejaVuSans-6f" d="M 1959 3097 
Q 1497 3097 1228 2736 
Q 959 2375 959 1747 
Q 959 1119 1226 758 
Q 1494 397 1959 397 
Q 2419 397 2687 759 
Q 2956 1122 2956 1747 
Q 2956 2369 2687 2733 
Q 2419 3097 1959 3097 
z
M 1959 3584 
Q 2709 3584 3137 3096 
Q 3566 2609 3566 1747 
Q 3566 888 3137 398 
Q 2709 -91 1959 -91 
Q 1206 -91 779 398 
Q 353 888 353 1747 
Q 353 2609 779 3096 
Q 1206 3584 1959 3584 
z
" transform="scale(0.015625)"/>
      <path id="DejaVuSans-6d" d="M 3328 2828 
Q 3544 3216 3844 3400 
Q 4144 3584 4550 3584 
Q 5097 3584 5394 3201 
Q 5691 2819 5691 2113 
L 5691 0 
L 5113 0 
L 5113 2094 
Q 5113 2597 4934 2840 
Q 4756 3084 4391 3084 
Q 3944 3084 3684 2787 
Q 3425 2491 3425 1978 
L 3425 0 
L 2847 0 
L 2847 2094 
Q 2847 2600 2669 2842 
Q 2491 3084 2119 3084 
Q 1678 3084 1418 2786 
Q 1159 2488 1159 1978 
L 1159 0 
L 581 0 
L 581 3500 
L 1159 3500 
L 1159 2956 
Q 1356 3278 1631 3431 
Q 1906 3584 2284 3584 
Q 2666 3584 2933 3390 
Q 3200 3197 3328 2828 
z
" transform="scale(0.015625)"/>
      <path id="DejaVuSans-70" d="M 1159 525 
L 1159 -1331 
L 581 -1331 
L 581 3500 
L 1159 3500 
L 1159 2969 
Q 1341 3281 1617 3432 
Q 1894 3584 2278 3584 
Q 2916 3584 3314 3078 
Q 3713 2572 3713 1747 
Q 3713 922 3314 415 
Q 2916 -91 2278 -91 
Q 1894 -91 1617 61 
Q 1341 213 1159 525 
z
M 3116 1747 
Q 3116 2381 2855 2742 
Q 2594 3103 2138 3103 
Q 1681 3103 1420 2742 
Q 1159 2381 1159 1747 
Q 1159 1113 1420 752 
Q 1681 391 2138 391 
Q 2594 391 2855 752 
Q 3116 1113 3116 1747 
z
" transform="scale(0.015625)"/>
      <path id="DejaVuSans-6c" d="M 603 4863 
L 1178 4863 
L 1178 0 
L 603 0 
L 603 4863 
z
" transform="scale(0.015625)"/>
      <path id="DejaVuSans-65" d="M 3597 1894 
L 3597 1613 
L 953 1613 
Q 991 1019 1311 708 
Q 1631 397 2203 397 
Q 2534 397 2845 478 
Q 3156 559 3463 722 
L 3463 178 
Q 3153 47 2828 -22 
Q 2503 -91 2169 -91 
Q 1331 -91 842 396 
Q 353 884 353 1716 
Q 353 2575 817 3079 
Q 1281 3584 2069 3584 
Q 2775 3584 3186 3129 
Q 3597 2675 3597 1894 
z
M 3022 2063 
Q 3016 2534 2758 2815 
Q 2500 3097 2075 3097 
Q 1594 3097 1305 2825 
Q 1016 2553 972 2059 
L 3022 2063 
z
" transform="scale(0.015625)"/>
      <path id="DejaVuSans-6e" d="M 3513 2113 
L 3513 0 
L 2938 0 
L 2938 2094 
Q 2938 2591 2744 2837 
Q 2550 3084 2163 3084 
Q 1697 3084 1428 2787 
Q 1159 2491 1159 1978 
L 1159 0 
L 581 0 
L 581 3500 
L 1159 3500 
L 1159 2956 
Q 1366 3272 1645 3428 
Q 1925 3584 2291 3584 
Q 2894 3584 3203 3211 
Q 3513 2838 3513 2113 
z
" transform="scale(0.015625)"/>
      <path id="DejaVuSans-61" d="M 2194 1759 
Q 1497 1759 1228 1600 
Q 959 1441 959 1056 
Q 959 750 1161 570 
Q 1363 391 1709 391 
Q 2188 391 2477 730 
Q 2766 1069 2766 1631 
L 2766 1759 
L 2194 1759 
z
M 3341 1997 
L 3341 0 
L 2766 0 
L 2766 531 
Q 2569 213 2275 61 
Q 1981 -91 1556 -91 
Q 1019 -91 701 211 
Q 384 513 384 1019 
Q 384 1609 779 1909 
Q 1175 2209 1959 2209 
L 2766 2209 
L 2766 2266 
Q 2766 2663 2505 2880 
Q 2244 3097 1772 3097 
Q 1472 3097 1187 3025 
Q 903 2953 641 2809 
L 641 3341 
Q 956 3463 1253 3523 
Q 1550 3584 1831 3584 
Q 2591 3584 2966 3190 
Q 3341 2797 3341 1997 
z
" transform="scale(0.015625)"/>
      <path id="DejaVuSans-72" d="M 2631 2963 
Q 2534 3019 2420 3045 
Q 2306 3072 2169 3072 
Q 1681 3072 1420 2755 
Q 1159 2438 1159 1844 
L 1159 0 
L 581 0 
L 581 3500 
L 1159 3500 
L 1159 2956 
Q 1341 3275 1631 3429 
Q 1922 3584 2338 3584 
Q 2397 3584 2469 3576 
Q 2541 3569 2628 3553 
L 2631 2963 
z
" transform="scale(0.015625)"/>
      <path id="DejaVuSans-79" d="M 2059 -325 
Q 1816 -950 1584 -1140 
Q 1353 -1331 966 -1331 
L 506 -1331 
L 506 -850 
L 844 -850 
Q 1081 -850 1212 -737 
Q 1344 -625 1503 -206 
L 1606 56 
L 191 3500 
L 800 3500 
L 1894 763 
L 2988 3500 
L 3597 3500 
L 2059 -325 
z
" transform="scale(0.015625)"/>
      <path id="DejaVuSans-53" d="M 3425 4513 
L 3425 3897 
Q 3066 4069 2747 4153 
Q 2428 4238 2131 4238 
Q 1616 4238 1336 4038 
Q 1056 3838 1056 3469 
Q 1056 3159 1242 3001 
Q 1428 2844 1947 2747 
L 2328 2669 
Q 3034 2534 3370 2195 
Q 3706 1856 3706 1288 
Q 3706 609 3251 259 
Q 2797 -91 1919 -91 
Q 1588 -91 1214 -16 
Q 841 59 441 206 
L 441 856 
Q 825 641 1194 531 
Q 1563 422 1919 422 
Q 2459 422 2753 634 
Q 3047 847 3047 1241 
Q 3047 1584 2836 1778 
Q 2625 1972 2144 2069 
L 1759 2144 
Q 1053 2284 737 2584 
Q 422 2884 422 3419 
Q 422 4038 858 4394 
Q 1294 4750 2059 4750 
Q 2388 4750 2728 4690 
Q 3069 4631 3425 4513 
z
" transform="scale(0.015625)"/>
      <path id="DejaVuSans-77" d="M 269 3500 
L 844 3500 
L 1563 769 
L 2278 3500 
L 2956 3500 
L 3675 769 
L 4391 3500 
L 4966 3500 
L 4050 0 
L 3372 0 
L 2619 2869 
L 1863 0 
L 1184 0 
L 269 3500 
z
" transform="scale(0.015625)"/>
      <path id="DejaVuSans-63" d="M 3122 3366 
L 3122 2828 
Q 2878 2963 2633 3030 
Q 2388 3097 2138 3097 
Q 1578 3097 1268 2742 
Q 959 2388 959 1747 
Q 959 1106 1268 751 
Q 1578 397 2138 397 
Q 2388 397 2633 464 
Q 2878 531 3122 666 
L 3122 134 
Q 2881 22 2623 -34 
Q 2366 -91 2075 -91 
Q 1284 -91 818 406 
Q 353 903 353 1747 
Q 353 2603 823 3093 
Q 1294 3584 2113 3584 
Q 2378 3584 2631 3529 
Q 2884 3475 3122 3366 
z
" transform="scale(0.015625)"/>
      <path id="DejaVuSans-68" d="M 3513 2113 
L 3513 0 
L 2938 0 
L 2938 2094 
Q 2938 2591 2744 2837 
Q 2550 3084 2163 3084 
Q 1697 3084 1428 2787 
Q 1159 2491 1159 1978 
L 1159 0 
L 581 0 
L 581 4863 
L 1159 4863 
L 1159 2956 
Q 1366 3272 1645 3428 
Q 1925 3584 2291 3584 
Q 2894 3584 3203 3211 
Q 3513 2838 3513 2113 
z
" transform="scale(0.015625)"/>
      <path id="DejaVuSans-29" d="M 513 4856 
L 1013 4856 
Q 1481 4119 1714 3412 
Q 1947 2706 1947 2009 
Q 1947 1309 1714 600 
Q 1481 -109 1013 -844 
L 513 -844 
Q 928 -128 1133 580 
Q 1338 1288 1338 2009 
Q 1338 2731 1133 3434 
Q 928 4138 513 4856 
z
" transform="scale(0.015625)"/>
     </defs>
     <use xlink:href="#DejaVuSans-38"/>
     <use xlink:href="#DejaVuSans-2d" transform="translate(63.623047 0)"/>
     <use xlink:href="#DejaVuSans-62" transform="translate(99.707031 0)"/>
     <use xlink:href="#DejaVuSans-69" transform="translate(163.183594 0)"/>
     <use xlink:href="#DejaVuSans-74" transform="translate(190.966797 0)"/>
     <use xlink:href="#DejaVuSans-20" transform="translate(230.175781 0)"/>
     <use xlink:href="#DejaVuSans-52" transform="translate(261.962891 0)"/>
     <use xlink:href="#DejaVuSans-2d" transform="translate(327.445312 0)"/>
     <use xlink:href="#DejaVuSans-32" transform="translate(363.529297 0)"/>
     <use xlink:href="#DejaVuSans-52" transform="translate(427.152344 0)"/>
     <use xlink:href="#DejaVuSans-20" transform="translate(496.634766 0)"/>
     <use xlink:href="#DejaVuSans-44" transform="translate(528.421875 0)"/>
     <use xlink:href="#DejaVuSans-41" transform="translate(603.673828 0)"/>
     <use xlink:href="#DejaVuSans-43" transform="translate(670.332031 0)"/>
     <use xlink:href="#DejaVuSans-20" transform="translate(740.15625 0)"/>
     <use xlink:href="#DejaVuSans-28" transform="translate(771.943359 0)"/>
     <use xlink:href="#DejaVuSans-43" transform="translate(810.957031 0)"/>
     <use xlink:href="#DejaVuSans-6f" transform="translate(880.78125 0)"/>
     <use xlink:href="#DejaVuSans-6d" transform="translate(941.962891 0)"/>
     <use xlink:href="#DejaVuSans-70" transform="translate(1039.375 0)"/>
     <use xlink:href="#DejaVuSans-6c" transform="translate(1102.851562 0)"/>
     <use xlink:href="#DejaVuSans-65" transform="translate(1130.634766 0)"/>
     <use xlink:href="#DejaVuSans-6d" transform="translate(1192.158203 0)"/>
     <use xlink:href="#DejaVuSans-65" transform="translate(1289.570312 0)"/>
     <use xlink:href="#DejaVuSans-6e" transform="translate(1351.09375 0)"/>
     <use xlink:href="#DejaVuSans-74" transform="translate(1414.472656 0)"/>
     <use xlink:href="#DejaVuSans-61" transform="translate(1453.681641 0)"/>
     <use xlink:href="#DejaVuSans-72" transform="translate(1514.960938 0)"/>
     <use xlink:href="#DejaVuSans-79" transform="translate(1556.074219 0)"/>
     <use xlink:href="#DejaVuSans-20" transform="translate(1615.253906 0)"/>
     <use xlink:href="#DejaVuSans-53" transform="translate(1647.041016 0)"/>
     <use xlink:href="#DejaVuSans-77" transform="translate(1710.517578 0)"/>
     <use xlink:href="#DejaVuSans-69" transform="translate(1792.304688 0)"/>
     <use xlink:href="#DejaVuSans-74" transform="translate(1820.087891 0)"/>
     <use xlink:href="#DejaVuSans-63" transform="translate(1859.296875 0)"/>
     <use xlink:href="#DejaVuSans-68" transform="translate(1914.277344 0)"/>
     <use xlink:href="#DejaVuSans-29" transform="translate(1977.65625 0)"/>
    </g>
   </g>
   <g id="text_2">
    <!-- IHP SG13G2 130nm — R=2kΩ, 2R=4kΩ, VDD=1.2V -->
    <g style="fill: #808080" transform="translate(44.28 421.163437) scale(0.09 -0.09)">
     <defs>
      <path id="DejaVuSans-49" d="M 628 4666 
L 1259 4666 
L 1259 0 
L 628 0 
L 628 4666 
z
" transform="scale(0.015625)"/>
      <path id="DejaVuSans-48" d="M 628 4666 
L 1259 4666 
L 1259 2753 
L 3553 2753 
L 3553 4666 
L 4184 4666 
L 4184 0 
L 3553 0 
L 3553 2222 
L 1259 2222 
L 1259 0 
L 628 0 
L 628 4666 
z
" transform="scale(0.015625)"/>
      <path id="DejaVuSans-50" d="M 1259 4147 
L 1259 2394 
L 2053 2394 
Q 2494 2394 2734 2622 
Q 2975 2850 2975 3272 
Q 2975 3691 2734 3919 
Q 2494 4147 2053 4147 
L 1259 4147 
z
M 628 4666 
L 2053 4666 
Q 2838 4666 3239 4311 
Q 3641 3956 3641 3272 
Q 3641 2581 3239 2228 
Q 2838 1875 2053 1875 
L 1259 1875 
L 1259 0 
L 628 0 
L 628 4666 
z
" transform="scale(0.015625)"/>
      <path id="DejaVuSans-47" d="M 3809 666 
L 3809 1919 
L 2778 1919 
L 2778 2438 
L 4434 2438 
L 4434 434 
Q 4069 175 3628 42 
Q 3188 -91 2688 -91 
Q 1594 -91 976 548 
Q 359 1188 359 2328 
Q 359 3472 976 4111 
Q 1594 4750 2688 4750 
Q 3144 4750 3555 4637 
Q 3966 4525 4313 4306 
L 4313 3634 
Q 3963 3931 3569 4081 
Q 3175 4231 2741 4231 
Q 1884 4231 1454 3753 
Q 1025 3275 1025 2328 
Q 1025 1384 1454 906 
Q 1884 428 2741 428 
Q 3075 428 3337 486 
Q 3600 544 3809 666 
z
" transform="scale(0.015625)"/>
      <path id="DejaVuSans-31" d="M 794 531 
L 1825 531 
L 1825 4091 
L 703 3866 
L 703 4441 
L 1819 4666 
L 2450 4666 
L 2450 531 
L 3481 531 
L 3481 0 
L 794 0 
L 794 531 
z
" transform="scale(0.015625)"/>
      <path id="DejaVuSans-33" d="M 2597 2516 
Q 3050 2419 3304 2112 
Q 3559 1806 3559 1356 
Q 3559 666 3084 287 
Q 2609 -91 1734 -91 
Q 1441 -91 1130 -33 
Q 819 25 488 141 
L 488 750 
Q 750 597 1062 519 
Q 1375 441 1716 441 
Q 2309 441 2620 675 
Q 2931 909 2931 1356 
Q 2931 1769 2642 2001 
Q 2353 2234 1838 2234 
L 1294 2234 
L 1294 2753 
L 1863 2753 
Q 2328 2753 2575 2939 
Q 2822 3125 2822 3475 
Q 2822 3834 2567 4026 
Q 2313 4219 1838 4219 
Q 1578 4219 1281 4162 
Q 984 4106 628 3988 
L 628 4550 
Q 988 4650 1302 4700 
Q 1616 4750 1894 4750 
Q 2613 4750 3031 4423 
Q 3450 4097 3450 3541 
Q 3450 3153 3228 2886 
Q 3006 2619 2597 2516 
z
" transform="scale(0.015625)"/>
      <path id="DejaVuSans-30" d="M 2034 4250 
Q 1547 4250 1301 3770 
Q 1056 3291 1056 2328 
Q 1056 1369 1301 889 
Q 1547 409 2034 409 
Q 2525 409 2770 889 
Q 3016 1369 3016 2328 
Q 3016 3291 2770 3770 
Q 2525 4250 2034 4250 
z
M 2034 4750 
Q 2819 4750 3233 4129 
Q 3647 3509 3647 2328 
Q 3647 1150 3233 529 
Q 2819 -91 2034 -91 
Q 1250 -91 836 529 
Q 422 1150 422 2328 
Q 422 3509 836 4129 
Q 1250 4750 2034 4750 
z
" transform="scale(0.015625)"/>
      <path id="DejaVuSans-2014" d="M 313 1978 
L 6088 1978 
L 6088 1528 
L 313 1528 
L 313 1978 
z
" transform="scale(0.015625)"/>
      <path id="DejaVuSans-3d" d="M 678 2906 
L 4684 2906 
L 4684 2381 
L 678 2381 
L 678 2906 
z
M 678 1631 
L 4684 1631 
L 4684 1100 
L 678 1100 
L 678 1631 
z
" transform="scale(0.015625)"/>
      <path id="DejaVuSans-6b" d="M 581 4863 
L 1159 4863 
L 1159 1991 
L 2875 3500 
L 3609 3500 
L 1753 1863 
L 3688 0 
L 2938 0 
L 1159 1709 
L 1159 0 
L 581 0 
L 581 4863 
z
" transform="scale(0.015625)"/>
      <path id="DejaVuSans-3a9" d="M 4647 556 
L 4647 0 
L 2772 0 
L 2772 556 
Q 3325 859 3634 1378 
Q 3944 1897 3944 2528 
Q 3944 3278 3531 3731 
Q 3119 4184 2444 4184 
Q 1769 4184 1355 3729 
Q 941 3275 941 2528 
Q 941 1897 1250 1378 
Q 1563 859 2119 556 
L 2119 0 
L 244 0 
L 244 556 
L 1241 556 
Q 747 991 519 1456 
Q 294 1922 294 2497 
Q 294 3491 894 4106 
Q 1491 4722 2444 4722 
Q 3391 4722 3994 4106 
Q 4594 3494 4594 2528 
Q 4594 1922 4372 1459 
Q 4150 997 3647 556 
L 4647 556 
z
" transform="scale(0.015625)"/>
      <path id="DejaVuSans-2c" d="M 750 794 
L 1409 794 
L 1409 256 
L 897 -744 
L 494 -744 
L 750 256 
L 750 794 
z
" transform="scale(0.015625)"/>
      <path id="DejaVuSans-34" d="M 2419 4116 
L 825 1625 
L 2419 1625 
L 2419 4116 
z
M 2253 4666 
L 3047 4666 
L 3047 1625 
L 3713 1625 
L 3713 1100 
L 3047 1100 
L 3047 0 
L 2419 0 
L 2419 1100 
L 313 1100 
L 313 1709 
L 2253 4666 
z
" transform="scale(0.015625)"/>
      <path id="DejaVuSans-56" d="M 1831 0 
L 50 4666 
L 709 4666 
L 2188 738 
L 3669 4666 
L 4325 4666 
L 2547 0 
L 1831 0 
z
" transform="scale(0.015625)"/>
      <path id="DejaVuSans-2e" d="M 684 794 
L 1344 794 
L 1344 0 
L 684 0 
L 684 794 
z
" transform="scale(0.015625)"/>
     </defs>
     <use xlink:href="#DejaVuSans-49"/>
     <use xlink:href="#DejaVuSans-48" transform="translate(29.492188 0)"/>
     <use xlink:href="#DejaVuSans-50" transform="translate(104.6875 0)"/>
     <use xlink:href="#DejaVuSans-20" transform="translate(164.990234 0)"/>
     <use xlink:href="#DejaVuSans-53" transform="translate(196.777344 0)"/>
     <use xlink:href="#DejaVuSans-47" transform="translate(260.253906 0)"/>
     <use xlink:href="#DejaVuSans-31" transform="translate(337.744141 0)"/>
     <use xlink:href="#DejaVuSans-33" transform="translate(401.367188 0)"/>
     <use xlink:href="#DejaVuSans-47" transform="translate(464.990234 0)"/>
     <use xlink:href="#DejaVuSans-32" transform="translate(542.480469 0)"/>
     <use xlink:href="#DejaVuSans-20" transform="translate(606.103516 0)"/>
     <use xlink:href="#DejaVuSans-31" transform="translate(637.890625 0)"/>
     <use xlink:href="#DejaVuSans-33" transform="translate(701.513672 0)"/>
     <use xlink:href="#DejaVuSans-30" transform="translate(765.136719 0)"/>
     <use xlink:href="#DejaVuSans-6e" transform="translate(828.759766 0)"/>
     <use xlink:href="#DejaVuSans-6d" transform="translate(892.138672 0)"/>
     <use xlink:href="#DejaVuSans-20" transform="translate(989.550781 0)"/>
     <use xlink:href="#DejaVuSans-2014" transform="translate(1021.337891 0)"/>
     <use xlink:href="#DejaVuSans-20" transform="translate(1121.337891 0)"/>
     <use xlink:href="#DejaVuSans-52" transform="translate(1153.125 0)"/>
     <use xlink:href="#DejaVuSans-3d" transform="translate(1222.607422 0)"/>
     <use xlink:href="#DejaVuSans-32" transform="translate(1306.396484 0)"/>
     <use xlink:href="#DejaVuSans-6b" transform="translate(1370.019531 0)"/>
     <use xlink:href="#DejaVuSans-3a9" transform="translate(1427.929688 0)"/>
     <use xlink:href="#DejaVuSans-2c" transform="translate(1504.345703 0)"/>
     <use xlink:href="#DejaVuSans-20" transform="translate(1536.132812 0)"/>
     <use xlink:href="#DejaVuSans-32" transform="translate(1567.919922 0)"/>
     <use xlink:href="#DejaVuSans-52" transform="translate(1631.542969 0)"/>
     <use xlink:href="#DejaVuSans-3d" transform="translate(1701.025391 0)"/>
     <use xlink:href="#DejaVuSans-34" transform="translate(1784.814453 0)"/>
     <use xlink:href="#DejaVuSans-6b" transform="translate(1848.4375 0)"/>
     <use xlink:href="#DejaVuSans-3a9" transform="translate(1906.347656 0)"/>
     <use xlink:href="#DejaVuSans-2c" transform="translate(1982.763672 0)"/>
     <use xlink:href="#DejaVuSans-20" transform="translate(2014.550781 0)"/>
     <use xlink:href="#DejaVuSans-56" transform="translate(2046.337891 0)"/>
     <use xlink:href="#DejaVuSans-44" transform="translate(2114.746094 0)"/>
     <use xlink:href="#DejaVuSans-44" transform="translate(2191.748047 0)"/>
     <use xlink:href="#DejaVuSans-3d" transform="translate(2268.75 0)"/>
     <use xlink:href="#DejaVuSans-31" transform="translate(2352.539062 0)"/>
     <use xlink:href="#DejaVuSans-2e" transform="translate(2416.162109 0)"/>
     <use xlink:href="#DejaVuSans-32" transform="translate(2447.949219 0)"/>
     <use xlink:href="#DejaVuSans-56" transform="translate(2511.572266 0)"/>
    </g>
   </g>
   <g id="text_3">
    <!-- R -->
    <g transform="translate(216.858359 153.438281) scale(0.11 -0.11)">
     <use xlink:href="#DejaVuSans-52"/>
    </g>
   </g>
   <g id="text_4">
    <!-- 2R -->
    <g transform="translate(123.358984 126.592344) scale(0.11 -0.11)">
     <use xlink:href="#DejaVuSans-32"/>
     <use xlink:href="#DejaVuSans-52" transform="translate(63.623047 0)"/>
    </g>
   </g>
   <g id="patch_22">
    <path d="M 81.36 145.8 
C 82.505677 145.8 83.604585 145.344818 84.414701 144.534701 
C 85.224818 143.724585 85.68 142.625677 85.68 141.48 
C 85.68 140.334323 85.224818 139.235415 84.414701 138.425299 
C 83.604585 137.615182 82.505677 137.16 81.36 137.16 
C 80.214323 137.16 79.115415 137.615182 78.305299 138.425299 
C 77.495182 139.235415 77.04 140.334323 77.04 141.48 
C 77.04 142.625677 77.495182 143.724585 78.305299 144.534701 
C 79.115415 145.344818 80.214323 145.8 81.36 145.8 
z
" clip-path="url(#p2ee39ddbb5)" style="fill: #ffffff; stroke: #000000; stroke-width: 2; stroke-linejoin: miter"/>
   </g>
   <g id="patch_23">
    <path d="M 54 145.8 
C 55.145677 145.8 56.244585 145.344818 57.054701 144.534701 
C 57.864818 143.724585 58.32 142.625677 58.32 141.48 
C 58.32 140.334323 57.864818 139.235415 57.054701 138.425299 
C 56.244585 137.615182 55.145677 137.16 54 137.16 
C 52.854323 137.16 51.755415 137.615182 50.945299 138.425299 
C 50.135182 139.235415 49.68 140.334323 49.68 141.48 
C 49.68 142.625677 50.135182 143.724585 50.945299 144.534701 
C 51.755415 145.344818 52.854323 145.8 54 145.8 
z
" clip-path="url(#p2ee39ddbb5)" style="fill: #ffffff; stroke: #000000; stroke-width: 2; stroke-linejoin: miter"/>
   </g>
   <g id="text_5">
    <!-- b7 -->
    <g transform="translate(60.688984 120.626406) scale(0.11 -0.11)">
     <defs>
      <path id="DejaVuSans-37" d="M 525 4666 
L 3525 4666 
L 3525 4397 
L 1831 0 
L 1172 0 
L 2766 4134 
L 525 4134 
L 525 4666 
z
" transform="scale(0.015625)"/>
     </defs>
     <use xlink:href="#DejaVuSans-62"/>
     <use xlink:href="#DejaVuSans-37" transform="translate(63.476562 0)"/>
    </g>
    <!-- (MSB) -->
    <g transform="translate(51.377656 131.272344) scale(0.11 -0.11)">
     <defs>
      <path id="DejaVuSans-4d" d="M 628 4666 
L 1569 4666 
L 2759 1491 
L 3956 4666 
L 4897 4666 
L 4897 0 
L 4281 0 
L 4281 4097 
L 3078 897 
L 2444 897 
L 1241 4097 
L 1241 0 
L 628 0 
L 628 4666 
z
" transform="scale(0.015625)"/>
      <path id="DejaVuSans-42" d="M 1259 2228 
L 1259 519 
L 2272 519 
Q 2781 519 3026 730 
Q 3272 941 3272 1375 
Q 3272 1813 3026 2020 
Q 2781 2228 2272 2228 
L 1259 2228 
z
M 1259 4147 
L 1259 2741 
L 2194 2741 
Q 2656 2741 2882 2914 
Q 3109 3088 3109 3444 
Q 3109 3797 2882 3972 
Q 2656 4147 2194 4147 
L 1259 4147 
z
M 628 4666 
L 2241 4666 
Q 2963 4666 3353 4366 
Q 3744 4066 3744 3513 
Q 3744 3084 3544 2831 
Q 3344 2578 2956 2516 
Q 3422 2416 3680 2098 
Q 3938 1781 3938 1306 
Q 3938 681 3513 340 
Q 3088 0 2303 0 
L 628 0 
L 628 4666 
z
" transform="scale(0.015625)"/>
     </defs>
     <use xlink:href="#DejaVuSans-28"/>
     <use xlink:href="#DejaVuSans-4d" transform="translate(39.013672 0)"/>
     <use xlink:href="#DejaVuSans-53" transform="translate(125.292969 0)"/>
     <use xlink:href="#DejaVuSans-42" transform="translate(188.769531 0)"/>
     <use xlink:href="#DejaVuSans-29" transform="translate(257.373047 0)"/>
    </g>
   </g>
   <g id="text_6">
    <!-- VDD/VSS -->
    <g style="fill: #808080" transform="translate(44.28 420.611562) scale(0.07 -0.07)">
     <defs>
      <path id="DejaVuSans-2f" d="M 1625 4666 
L 2156 4666 
L 531 -594 
L 0 -594 
L 1625 4666 
z
" transform="scale(0.015625)"/>
     </defs>
     <use xlink:href="#DejaVuSans-56"/>
     <use xlink:href="#DejaVuSans-44" transform="translate(68.408203 0)"/>
     <use xlink:href="#DejaVuSans-44" transform="translate(145.410156 0)"/>
     <use xlink:href="#DejaVuSans-2f" transform="translate(222.412109 0)"/>
     <use xlink:href="#DejaVuSans-56" transform="translate(256.103516 0)"/>
     <use xlink:href="#DejaVuSans-53" transform="translate(324.511719 0)"/>
     <use xlink:href="#DejaVuSans-53" transform="translate(387.988281 0)"/>
    </g>
   </g>
   <g id="text_7">
    <!-- R -->
    <g transform="translate(216.858359 200.238281) scale(0.11 -0.11)">
     <use xlink:href="#DejaVuSans-52"/>
    </g>
   </g>
   <g id="text_8">
    <!-- 2R -->
    <g transform="translate(123.358984 173.392344) scale(0.11 -0.11)">
     <use xlink:href="#DejaVuSans-32"/>
     <use xlink:href="#DejaVuSans-52" transform="translate(63.623047 0)"/>
    </g>
   </g>
   <g id="patch_24">
    <path d="M 81.36 192.6 
C 82.505677 192.6 83.604585 192.144818 84.414701 191.334701 
C 85.224818 190.524585 85.68 189.425677 85.68 188.28 
C 85.68 187.134323 85.224818 186.035415 84.414701 185.225299 
C 83.604585 184.415182 82.505677 183.96 81.36 183.96 
C 80.214323 183.96 79.115415 184.415182 78.305299 185.225299 
C 77.495182 186.035415 77.04 187.134323 77.04 188.28 
C 77.04 189.425677 77.495182 190.524585 78.305299 191.334701 
C 79.115415 192.144818 80.214323 192.6 81.36 192.6 
z
" clip-path="url(#p2ee39ddbb5)" style="fill: #ffffff; stroke: #000000; stroke-width: 2; stroke-linejoin: miter"/>
   </g>
   <g id="patch_25">
    <path d="M 54 192.6 
C 55.145677 192.6 56.244585 192.144818 57.054701 191.334701 
C 57.864818 190.524585 58.32 189.425677 58.32 188.28 
C 58.32 187.134323 57.864818 186.035415 57.054701 185.225299 
C 56.244585 184.415182 55.145677 183.96 54 183.96 
C 52.854323 183.96 51.755415 184.415182 50.945299 185.225299 
C 50.135182 186.035415 49.68 187.134323 49.68 188.28 
C 49.68 189.425677 50.135182 190.524585 50.945299 191.334701 
C 51.755415 192.144818 52.854323 192.6 54 192.6 
z
" clip-path="url(#p2ee39ddbb5)" style="fill: #ffffff; stroke: #000000; stroke-width: 2; stroke-linejoin: miter"/>
   </g>
   <g id="text_9">
    <!-- b6 -->
    <g transform="translate(60.688984 178.072344) scale(0.11 -0.11)">
     <defs>
      <path id="DejaVuSans-36" d="M 2113 2584 
Q 1688 2584 1439 2293 
Q 1191 2003 1191 1497 
Q 1191 994 1439 701 
Q 1688 409 2113 409 
Q 2538 409 2786 701 
Q 3034 994 3034 1497 
Q 3034 2003 2786 2293 
Q 2538 2584 2113 2584 
z
M 3366 4563 
L 3366 3988 
Q 3128 4100 2886 4159 
Q 2644 4219 2406 4219 
Q 1781 4219 1451 3797 
Q 1122 3375 1075 2522 
Q 1259 2794 1537 2939 
Q 1816 3084 2150 3084 
Q 2853 3084 3261 2657 
Q 3669 2231 3669 1497 
Q 3669 778 3244 343 
Q 2819 -91 2113 -91 
Q 1303 -91 875 529 
Q 447 1150 447 2328 
Q 447 3434 972 4092 
Q 1497 4750 2381 4750 
Q 2619 4750 2861 4703 
Q 3103 4656 3366 4563 
z
" transform="scale(0.015625)"/>
     </defs>
     <use xlink:href="#DejaVuSans-62"/>
     <use xlink:href="#DejaVuSans-36" transform="translate(63.476562 0)"/>
    </g>
   </g>
   <g id="text_10">
    <!-- VDD/VSS -->
    <g style="fill: #808080" transform="translate(44.28 420.611562) scale(0.07 -0.07)">
     <use xlink:href="#DejaVuSans-56"/>
     <use xlink:href="#DejaVuSans-44" transform="translate(68.408203 0)"/>
     <use xlink:href="#DejaVuSans-44" transform="translate(145.410156 0)"/>
     <use xlink:href="#DejaVuSans-2f" transform="translate(222.412109 0)"/>
     <use xlink:href="#DejaVuSans-56" transform="translate(256.103516 0)"/>
     <use xlink:href="#DejaVuSans-53" transform="translate(324.511719 0)"/>
     <use xlink:href="#DejaVuSans-53" transform="translate(387.988281 0)"/>
    </g>
   </g>
   <g id="text_11">
    <!-- R -->
    <g transform="translate(216.858359 247.038281) scale(0.11 -0.11)">
     <use xlink:href="#DejaVuSans-52"/>
    </g>
   </g>
   <g id="text_12">
    <!-- 2R -->
    <g transform="translate(123.358984 220.192344) scale(0.11 -0.11)">
     <use xlink:href="#DejaVuSans-32"/>
     <use xlink:href="#DejaVuSans-52" transform="translate(63.623047 0)"/>
    </g>
   </g>
   <g id="patch_26">
    <path d="M 81.36 239.4 
C 82.505677 239.4 83.604585 238.944818 84.414701 238.134701 
C 85.224818 237.324585 85.68 236.225677 85.68 235.08 
C 85.68 233.934323 85.224818 232.835415 84.414701 232.025299 
C 83.604585 231.215182 82.505677 230.76 81.36 230.76 
C 80.214323 230.76 79.115415 231.215182 78.305299 232.025299 
C 77.495182 232.835415 77.04 233.934323 77.04 235.08 
C 77.04 236.225677 77.495182 237.324585 78.305299 238.134701 
C 79.115415 238.944818 80.214323 239.4 81.36 239.4 
z
" clip-path="url(#p2ee39ddbb5)" style="fill: #ffffff; stroke: #000000; stroke-width: 2; stroke-linejoin: miter"/>
   </g>
   <g id="patch_27">
    <path d="M 54 239.4 
C 55.145677 239.4 56.244585 238.944818 57.054701 238.134701 
C 57.864818 237.324585 58.32 236.225677 58.32 235.08 
C 58.32 233.934323 57.864818 232.835415 57.054701 232.025299 
C 56.244585 231.215182 55.145677 230.76 54 230.76 
C 52.854323 230.76 51.755415 231.215182 50.945299 232.025299 
C 50.135182 232.835415 49.68 233.934323 49.68 235.08 
C 49.68 236.225677 50.135182 237.324585 50.945299 238.134701 
C 51.755415 238.944818 52.854323 239.4 54 239.4 
z
" clip-path="url(#p2ee39ddbb5)" style="fill: #ffffff; stroke: #000000; stroke-width: 2; stroke-linejoin: miter"/>
   </g>
   <g id="text_13">
    <!-- b5 -->
    <g transform="translate(60.688984 224.872344) scale(0.11 -0.11)">
     <defs>
      <path id="DejaVuSans-35" d="M 691 4666 
L 3169 4666 
L 3169 4134 
L 1269 4134 
L 1269 2991 
Q 1406 3038 1543 3061 
Q 1681 3084 1819 3084 
Q 2600 3084 3056 2656 
Q 3513 2228 3513 1497 
Q 3513 744 3044 326 
Q 2575 -91 1722 -91 
Q 1428 -91 1123 -41 
Q 819 9 494 109 
L 494 744 
Q 775 591 1075 516 
Q 1375 441 1709 441 
Q 2250 441 2565 725 
Q 2881 1009 2881 1497 
Q 2881 1984 2565 2268 
Q 2250 2553 1709 2553 
Q 1456 2553 1204 2497 
Q 953 2441 691 2322 
L 691 4666 
z
" transform="scale(0.015625)"/>
     </defs>
     <use xlink:href="#DejaVuSans-62"/>
     <use xlink:href="#DejaVuSans-35" transform="translate(63.476562 0)"/>
    </g>
   </g>
   <g id="text_14">
    <!-- VDD/VSS -->
    <g style="fill: #808080" transform="translate(44.28 420.611562) scale(0.07 -0.07)">
     <use xlink:href="#DejaVuSans-56"/>
     <use xlink:href="#DejaVuSans-44" transform="translate(68.408203 0)"/>
     <use xlink:href="#DejaVuSans-44" transform="translate(145.410156 0)"/>
     <use xlink:href="#DejaVuSans-2f" transform="translate(222.412109 0)"/>
     <use xlink:href="#DejaVuSans-56" transform="translate(256.103516 0)"/>
     <use xlink:href="#DejaVuSans-53" transform="translate(324.511719 0)"/>
     <use xlink:href="#DejaVuSans-53" transform="translate(387.988281 0)"/>
    </g>
   </g>
   <g id="text_15">
    <!-- R -->
    <g transform="translate(216.858359 293.838281) scale(0.11 -0.11)">
     <use xlink:href="#DejaVuSans-52"/>
    </g>
   </g>
   <g id="text_16">
    <!-- 2R -->
    <g transform="translate(123.358984 266.992344) scale(0.11 -0.11)">
     <use xlink:href="#DejaVuSans-32"/>
     <use xlink:href="#DejaVuSans-52" transform="translate(63.623047 0)"/>
    </g>
   </g>
   <g id="patch_28">
    <path d="M 81.36 286.2 
C 82.505677 286.2 83.604585 285.744818 84.414701 284.934701 
C 85.224818 284.124585 85.68 283.025677 85.68 281.88 
C 85.68 280.734323 85.224818 279.635415 84.414701 278.825299 
C 83.604585 278.015182 82.505677 277.56 81.36 277.56 
C 80.214323 277.56 79.115415 278.015182 78.305299 278.825299 
C 77.495182 279.635415 77.04 280.734323 77.04 281.88 
C 77.04 283.025677 77.495182 284.124585 78.305299 284.934701 
C 79.115415 285.744818 80.214323 286.2 81.36 286.2 
z
" clip-path="url(#p2ee39ddbb5)" style="fill: #ffffff; stroke: #000000; stroke-width: 2; stroke-linejoin: miter"/>
   </g>
   <g id="patch_29">
    <path d="M 54 286.2 
C 55.145677 286.2 56.244585 285.744818 57.054701 284.934701 
C 57.864818 284.124585 58.32 283.025677 58.32 281.88 
C 58.32 280.734323 57.864818 279.635415 57.054701 278.825299 
C 56.244585 278.015182 55.145677 277.56 54 277.56 
C 52.854323 277.56 51.755415 278.015182 50.945299 278.825299 
C 50.135182 279.635415 49.68 280.734323 49.68 281.88 
C 49.68 283.025677 50.135182 284.124585 50.945299 284.934701 
C 51.755415 285.744818 52.854323 286.2 54 286.2 
z
" clip-path="url(#p2ee39ddbb5)" style="fill: #ffffff; stroke: #000000; stroke-width: 2; stroke-linejoin: miter"/>
   </g>
   <g id="text_17">
    <!-- b4 -->
    <g transform="translate(60.688984 271.672344) scale(0.11 -0.11)">
     <use xlink:href="#DejaVuSans-62"/>
     <use xlink:href="#DejaVuSans-34" transform="translate(63.476562 0)"/>
    </g>
   </g>
   <g id="text_18">
    <!-- VDD/VSS -->
    <g style="fill: #808080" transform="translate(44.28 420.611562) scale(0.07 -0.07)">
     <use xlink:href="#DejaVuSans-56"/>
     <use xlink:href="#DejaVuSans-44" transform="translate(68.408203 0)"/>
     <use xlink:href="#DejaVuSans-44" transform="translate(145.410156 0)"/>
     <use xlink:href="#DejaVuSans-2f" transform="translate(222.412109 0)"/>
     <use xlink:href="#DejaVuSans-56" transform="translate(256.103516 0)"/>
     <use xlink:href="#DejaVuSans-53" transform="translate(324.511719 0)"/>
     <use xlink:href="#DejaVuSans-53" transform="translate(387.988281 0)"/>
    </g>
   </g>
   <g id="text_19">
    <!-- R -->
    <g transform="translate(216.858359 340.638281) scale(0.11 -0.11)">
     <use xlink:href="#DejaVuSans-52"/>
    </g>
   </g>
   <g id="text_20">
    <!-- 2R -->
    <g transform="translate(123.358984 313.792344) scale(0.11 -0.11)">
     <use xlink:href="#DejaVuSans-32"/>
     <use xlink:href="#DejaVuSans-52" transform="translate(63.623047 0)"/>
    </g>
   </g>
   <g id="patch_30">
    <path d="M 81.36 333 
C 82.505677 333 83.604585 332.544818 84.414701 331.734701 
C 85.224818 330.924585 85.68 329.825677 85.68 328.68 
C 85.68 327.534323 85.224818 326.435415 84.414701 325.625299 
C 83.604585 324.815182 82.505677 324.36 81.36 324.36 
C 80.214323 324.36 79.115415 324.815182 78.305299 325.625299 
C 77.495182 326.435415 77.04 327.534323 77.04 328.68 
C 77.04 329.825677 77.495182 330.924585 78.305299 331.734701 
C 79.115415 332.544818 80.214323 333 81.36 333 
z
" clip-path="url(#p2ee39ddbb5)" style="fill: #ffffff; stroke: #000000; stroke-width: 2; stroke-linejoin: miter"/>
   </g>
   <g id="patch_31">
    <path d="M 54 333 
C 55.145677 333 56.244585 332.544818 57.054701 331.734701 
C 57.864818 330.924585 58.32 329.825677 58.32 328.68 
C 58.32 327.534323 57.864818 326.435415 57.054701 325.625299 
C 56.244585 324.815182 55.145677 324.36 54 324.36 
C 52.854323 324.36 51.755415 324.815182 50.945299 325.625299 
C 50.135182 326.435415 49.68 327.534323 49.68 328.68 
C 49.68 329.825677 50.135182 330.924585 50.945299 331.734701 
C 51.755415 332.544818 52.854323 333 54 333 
z
" clip-path="url(#p2ee39ddbb5)" style="fill: #ffffff; stroke: #000000; stroke-width: 2; stroke-linejoin: miter"/>
   </g>
   <g id="text_21">
    <!-- b3 -->
    <g transform="translate(60.688984 318.472344) scale(0.11 -0.11)">
     <use xlink:href="#DejaVuSans-62"/>
     <use xlink:href="#DejaVuSans-33" transform="translate(63.476562 0)"/>
    </g>
   </g>
   <g id="text_22">
    <!-- VDD/VSS -->
    <g style="fill: #808080" transform="translate(44.28 420.611562) scale(0.07 -0.07)">
     <use xlink:href="#DejaVuSans-56"/>
     <use xlink:href="#DejaVuSans-44" transform="translate(68.408203 0)"/>
     <use xlink:href="#DejaVuSans-44" transform="translate(145.410156 0)"/>
     <use xlink:href="#DejaVuSans-2f" transform="translate(222.412109 0)"/>
     <use xlink:href="#DejaVuSans-56" transform="translate(256.103516 0)"/>
     <use xlink:href="#DejaVuSans-53" transform="translate(324.511719 0)"/>
     <use xlink:href="#DejaVuSans-53" transform="translate(387.988281 0)"/>
    </g>
   </g>
   <g id="text_23">
    <!-- R -->
    <g transform="translate(216.858359 387.438281) scale(0.11 -0.11)">
     <use xlink:href="#DejaVuSans-52"/>
    </g>
   </g>
   <g id="text_24">
    <!-- 2R -->
    <g transform="translate(123.358984 360.592344) scale(0.11 -0.11)">
     <use xlink:href="#DejaVuSans-32"/>
     <use xlink:href="#DejaVuSans-52" transform="translate(63.623047 0)"/>
    </g>
   </g>
   <g id="patch_32">
    <path d="M 81.36 379.8 
C 82.505677 379.8 83.604585 379.344818 84.414701 378.534701 
C 85.224818 377.724585 85.68 376.625677 85.68 375.48 
C 85.68 374.334323 85.224818 373.235415 84.414701 372.425299 
C 83.604585 371.615182 82.505677 371.16 81.36 371.16 
C 80.214323 371.16 79.115415 371.615182 78.305299 372.425299 
C 77.495182 373.235415 77.04 374.334323 77.04 375.48 
C 77.04 376.625677 77.495182 377.724585 78.305299 378.534701 
C 79.115415 379.344818 80.214323 379.8 81.36 379.8 
z
" clip-path="url(#p2ee39ddbb5)" style="fill: #ffffff; stroke: #000000; stroke-width: 2; stroke-linejoin: miter"/>
   </g>
   <g id="patch_33">
    <path d="M 54 379.8 
C 55.145677 379.8 56.244585 379.344818 57.054701 378.534701 
C 57.864818 377.724585 58.32 376.625677 58.32 375.48 
C 58.32 374.334323 57.864818 373.235415 57.054701 372.425299 
C 56.244585 371.615182 55.145677 371.16 54 371.16 
C 52.854323 371.16 51.755415 371.615182 50.945299 372.425299 
C 50.135182 373.235415 49.68 374.334323 49.68 375.48 
C 49.68 376.625677 50.135182 377.724585 50.945299 378.534701 
C 51.755415 379.344818 52.854323 379.8 54 379.8 
z
" clip-path="url(#p2ee39ddbb5)" style="fill: #ffffff; stroke: #000000; stroke-width: 2; stroke-linejoin: miter"/>
   </g>
   <g id="text_25">
    <!-- b2 -->
    <g transform="translate(60.688984 365.272344) scale(0.11 -0.11)">
     <use xlink:href="#DejaVuSans-62"/>
     <use xlink:href="#DejaVuSans-32" transform="translate(63.476562 0)"/>
    </g>
   </g>
   <g id="text_26">
    <!-- VDD/VSS -->
    <g style="fill: #808080" transform="translate(44.28 420.611562) scale(0.07 -0.07)">
     <use xlink:href="#DejaVuSans-56"/>
     <use xlink:href="#DejaVuSans-44" transform="translate(68.408203 0)"/>
     <use xlink:href="#DejaVuSans-44" transform="translate(145.410156 0)"/>
     <use xlink:href="#DejaVuSans-2f" transform="translate(222.412109 0)"/>
     <use xlink:href="#DejaVuSans-56" transform="translate(256.103516 0)"/>
     <use xlink:href="#DejaVuSans-53" transform="translate(324.511719 0)"/>
     <use xlink:href="#DejaVuSans-53" transform="translate(387.988281 0)"/>
    </g>
   </g>
   <g id="text_27">
    <!-- R -->
    <g transform="translate(216.858359 434.238281) scale(0.11 -0.11)">
     <use xlink:href="#DejaVuSans-52"/>
    </g>
   </g>
   <g id="text_28">
    <!-- 2R -->
    <g transform="translate(123.358984 407.392344) scale(0.11 -0.11)">
     <use xlink:href="#DejaVuSans-32"/>
     <use xlink:href="#DejaVuSans-52" transform="translate(63.623047 0)"/>
    </g>
   </g>
   <g id="patch_34">
    <path d="M 81.36 426.6 
C 82.505677 426.6 83.604585 426.144818 84.414701 425.334701 
C 85.224818 424.524585 85.68 423.425677 85.68 422.28 
C 85.68 421.134323 85.224818 420.035415 84.414701 419.225299 
C 83.604585 418.415182 82.505677 417.96 81.36 417.96 
C 80.214323 417.96 79.115415 418.415182 78.305299 419.225299 
C 77.495182 420.035415 77.04 421.134323 77.04 422.28 
C 77.04 423.425677 77.495182 424.524585 78.305299 425.334701 
C 79.115415 426.144818 80.214323 426.6 81.36 426.6 
z
" clip-path="url(#p2ee39ddbb5)" style="fill: #ffffff; stroke: #000000; stroke-width: 2; stroke-linejoin: miter"/>
   </g>
   <g id="patch_35">
    <path d="M 54 426.6 
C 55.145677 426.6 56.244585 426.144818 57.054701 425.334701 
C 57.864818 424.524585 58.32 423.425677 58.32 422.28 
C 58.32 421.134323 57.864818 420.035415 57.054701 419.225299 
C 56.244585 418.415182 55.145677 417.96 54 417.96 
C 52.854323 417.96 51.755415 418.415182 50.945299 419.225299 
C 50.135182 420.035415 49.68 421.134323 49.68 422.28 
C 49.68 423.425677 50.135182 424.524585 50.945299 425.334701 
C 51.755415 426.144818 52.854323 426.6 54 426.6 
z
" clip-path="url(#p2ee39ddbb5)" style="fill: #ffffff; stroke: #000000; stroke-width: 2; stroke-linejoin: miter"/>
   </g>
   <g id="text_29">
    <!-- b1 -->
    <g transform="translate(60.688984 412.072344) scale(0.11 -0.11)">
     <use xlink:href="#DejaVuSans-62"/>
     <use xlink:href="#DejaVuSans-31" transform="translate(63.476562 0)"/>
    </g>
   </g>
   <g id="text_30">
    <!-- VDD/VSS -->
    <g style="fill: #808080" transform="translate(44.28 420.611562) scale(0.07 -0.07)">
     <use xlink:href="#DejaVuSans-56"/>
     <use xlink:href="#DejaVuSans-44" transform="translate(68.408203 0)"/>
     <use xlink:href="#DejaVuSans-44" transform="translate(145.410156 0)"/>
     <use xlink:href="#DejaVuSans-2f" transform="translate(222.412109 0)"/>
     <use xlink:href="#DejaVuSans-56" transform="translate(256.103516 0)"/>
     <use xlink:href="#DejaVuSans-53" transform="translate(324.511719 0)"/>
     <use xlink:href="#DejaVuSans-53" transform="translate(387.988281 0)"/>
    </g>
   </g>
   <g id="text_31">
    <!-- R -->
    <g transform="translate(216.858359 481.038281) scale(0.11 -0.11)">
     <use xlink:href="#DejaVuSans-52"/>
    </g>
   </g>
   <g id="text_32">
    <!-- 2R -->
    <g transform="translate(123.358984 454.192344) scale(0.11 -0.11)">
     <use xlink:href="#DejaVuSans-32"/>
     <use xlink:href="#DejaVuSans-52" transform="translate(63.623047 0)"/>
    </g>
   </g>
   <g id="patch_36">
    <path d="M 81.36 473.4 
C 82.505677 473.4 83.604585 472.944818 84.414701 472.134701 
C 85.224818 471.324585 85.68 470.225677 85.68 469.08 
C 85.68 467.934323 85.224818 466.835415 84.414701 466.025299 
C 83.604585 465.215182 82.505677 464.76 81.36 464.76 
C 80.214323 464.76 79.115415 465.215182 78.305299 466.025299 
C 77.495182 466.835415 77.04 467.934323 77.04 469.08 
C 77.04 470.225677 77.495182 471.324585 78.305299 472.134701 
C 79.115415 472.944818 80.214323 473.4 81.36 473.4 
z
" clip-path="url(#p2ee39ddbb5)" style="fill: #ffffff; stroke: #000000; stroke-width: 2; stroke-linejoin: miter"/>
   </g>
   <g id="patch_37">
    <path d="M 54 473.4 
C 55.145677 473.4 56.244585 472.944818 57.054701 472.134701 
C 57.864818 471.324585 58.32 470.225677 58.32 469.08 
C 58.32 467.934323 57.864818 466.835415 57.054701 466.025299 
C 56.244585 465.215182 55.145677 464.76 54 464.76 
C 52.854323 464.76 51.755415 465.215182 50.945299 466.025299 
C 50.135182 466.835415 49.68 467.934323 49.68 469.08 
C 49.68 470.225677 50.135182 471.324585 50.945299 472.134701 
C 51.755415 472.944818 52.854323 473.4 54 473.4 
z
" clip-path="url(#p2ee39ddbb5)" style="fill: #ffffff; stroke: #000000; stroke-width: 2; stroke-linejoin: miter"/>
   </g>
   <g id="text_33">
    <!-- b0 -->
    <g transform="translate(60.688984 448.226406) scale(0.11 -0.11)">
     <use xlink:href="#DejaVuSans-62"/>
     <use xlink:href="#DejaVuSans-30" transform="translate(63.476562 0)"/>
    </g>
    <!-- (LSB) -->
    <g transform="translate(53.058594 458.872344) scale(0.11 -0.11)">
     <defs>
      <path id="DejaVuSans-4c" d="M 628 4666 
L 1259 4666 
L 1259 531 
L 3531 531 
L 3531 0 
L 628 0 
L 628 4666 
z
" transform="scale(0.015625)"/>
     </defs>
     <use xlink:href="#DejaVuSans-28"/>
     <use xlink:href="#DejaVuSans-4c" transform="translate(39.013672 0)"/>
     <use xlink:href="#DejaVuSans-53" transform="translate(94.726562 0)"/>
     <use xlink:href="#DejaVuSans-42" transform="translate(158.203125 0)"/>
     <use xlink:href="#DejaVuSans-29" transform="translate(226.806641 0)"/>
    </g>
   </g>
   <g id="text_34">
    <!-- VDD/VSS -->
    <g style="fill: #808080" transform="translate(44.28 420.611562) scale(0.07 -0.07)">
     <use xlink:href="#DejaVuSans-56"/>
     <use xlink:href="#DejaVuSans-44" transform="translate(68.408203 0)"/>
     <use xlink:href="#DejaVuSans-44" transform="translate(145.410156 0)"/>
     <use xlink:href="#DejaVuSans-2f" transform="translate(222.412109 0)"/>
     <use xlink:href="#DejaVuSans-56" transform="translate(256.103516 0)"/>
     <use xlink:href="#DejaVuSans-53" transform="translate(324.511719 0)"/>
     <use xlink:href="#DejaVuSans-53" transform="translate(387.988281 0)"/>
    </g>
   </g>
   <g id="text_35">
    <!-- 2R -->
    <g transform="translate(213.358984 527.838281) scale(0.11 -0.11)">
     <use xlink:href="#DejaVuSans-32"/>
     <use xlink:href="#DejaVuSans-52" transform="translate(63.623047 0)"/>
    </g>
   </g>
   <g id="text_36">
    <!-- 2R -->
    <g transform="translate(123.358984 79.792344) scale(0.11 -0.11)">
     <use xlink:href="#DejaVuSans-32"/>
     <use xlink:href="#DejaVuSans-52" transform="translate(63.623047 0)"/>
    </g>
   </g>
   <g id="patch_38">
    <path d="M 81.36 99 
C 82.505677 99 83.604585 98.544818 84.414701 97.734701 
C 85.224818 96.924585 85.68 95.825677 85.68 94.68 
C 85.68 93.534323 85.224818 92.435415 84.414701 91.625299 
C 83.604585 90.815182 82.505677 90.36 81.36 90.36 
C 80.214323 90.36 79.115415 90.815182 78.305299 91.625299 
C 77.495182 92.435415 77.04 93.534323 77.04 94.68 
C 77.04 95.825677 77.495182 96.924585 78.305299 97.734701 
C 79.115415 98.544818 80.214323 99 81.36 99 
z
" clip-path="url(#p2ee39ddbb5)" style="fill: #ffffff; stroke: #000000; stroke-width: 2; stroke-linejoin: miter"/>
   </g>
   <g id="patch_39">
    <path d="M 54 99 
C 55.145677 99 56.244585 98.544818 57.054701 97.734701 
C 57.864818 96.924585 58.32 95.825677 58.32 94.68 
C 58.32 93.534323 57.864818 92.435415 57.054701 91.625299 
C 56.244585 90.815182 55.145677 90.36 54 90.36 
C 52.854323 90.36 51.755415 90.815182 50.945299 91.625299 
C 50.135182 92.435415 49.68 93.534323 49.68 94.68 
C 49.68 95.825677 50.135182 96.924585 50.945299 97.734701 
C 51.755415 98.544818 52.854323 99 54 99 
z
" clip-path="url(#p2ee39ddbb5)" style="fill: #ffffff; stroke: #000000; stroke-width: 2; stroke-linejoin: miter"/>
   </g>
   <g id="text_37">
    <!-- b7 -->
    <g transform="translate(60.688984 73.826406) scale(0.11 -0.11)">
     <use xlink:href="#DejaVuSans-62"/>
     <use xlink:href="#DejaVuSans-37" transform="translate(63.476562 0)"/>
    </g>
    <!-- (MSB) -->
    <g transform="translate(51.377656 84.472344) scale(0.11 -0.11)">
     <use xlink:href="#DejaVuSans-28"/>
     <use xlink:href="#DejaVuSans-4d" transform="translate(39.013672 0)"/>
     <use xlink:href="#DejaVuSans-53" transform="translate(125.292969 0)"/>
     <use xlink:href="#DejaVuSans-42" transform="translate(188.769531 0)"/>
     <use xlink:href="#DejaVuSans-29" transform="translate(257.373047 0)"/>
    </g>
   </g>
   <g id="patch_40">
    <path d="M 220.68 97.38 
C 221.396048 97.38 222.082866 97.095511 222.589188 96.589188 
C 223.095511 96.082866 223.38 95.396048 223.38 94.68 
C 223.38 93.963952 223.095511 93.277134 222.589188 92.770812 
C 222.082866 92.264489 221.396048 91.98 220.68 91.98 
C 219.963952 91.98 219.277134 92.264489 218.770812 92.770812 
C 218.264489 93.277134 217.98 93.963952 217.98 94.68 
C 217.98 95.396048 218.264489 96.082866 218.770812 96.589188 
C 219.277134 97.095511 219.963952 97.38 220.68 97.38 
z
" clip-path="url(#p2ee39ddbb5)" style="stroke: #000000; stroke-width: 2; stroke-linejoin: miter"/>
   </g>
   <g id="text_38">
    <!-- Vout -->
    <g transform="translate(226.98 97.715312) scale(0.11 -0.11)">
     <defs>
      <path id="DejaVuSans-75" d="M 544 1381 
L 544 3500 
L 1119 3500 
L 1119 1403 
Q 1119 906 1312 657 
Q 1506 409 1894 409 
Q 2359 409 2629 706 
Q 2900 1003 2900 1516 
L 2900 3500 
L 3475 3500 
L 3475 0 
L 2900 0 
L 2900 538 
Q 2691 219 2414 64 
Q 2138 -91 1772 -91 
Q 1169 -91 856 284 
Q 544 659 544 1381 
z
M 1991 3584 
L 1991 3584 
z
" transform="scale(0.015625)"/>
     </defs>
     <use xlink:href="#DejaVuSans-56"/>
     <use xlink:href="#DejaVuSans-6f" transform="translate(60.658203 0)"/>
     <use xlink:href="#DejaVuSans-75" transform="translate(121.839844 0)"/>
     <use xlink:href="#DejaVuSans-74" transform="translate(185.21875 0)"/>
    </g>
   </g>
   <g id="patch_41">
    <path d="M 220.68 144.18 
C 221.396048 144.18 222.082866 143.895511 222.589188 143.389188 
C 223.095511 142.882866 223.38 142.196048 223.38 141.48 
C 223.38 140.763952 223.095511 140.077134 222.589188 139.570812 
C 222.082866 139.064489 221.396048 138.78 220.68 138.78 
C 219.963952 138.78 219.277134 139.064489 218.770812 139.570812 
C 218.264489 140.077134 217.98 140.763952 217.98 141.48 
C 217.98 142.196048 218.264489 142.882866 218.770812 143.389188 
C 219.277134 143.895511 219.963952 144.18 220.68 144.18 
z
" clip-path="url(#p2ee39ddbb5)" style="stroke: #000000; stroke-width: 2; stroke-linejoin: miter"/>
   </g>
   <g id="patch_42">
    <path d="M 220.68 190.98 
C 221.396048 190.98 222.082866 190.695511 222.589188 190.189188 
C 223.095511 189.682866 223.38 188.996048 223.38 188.28 
C 223.38 187.563952 223.095511 186.877134 222.589188 186.370812 
C 222.082866 185.864489 221.396048 185.58 220.68 185.58 
C 219.963952 185.58 219.277134 185.864489 218.770812 186.370812 
C 218.264489 186.877134 217.98 187.563952 217.98 188.28 
C 217.98 188.996048 218.264489 189.682866 218.770812 190.189188 
C 219.277134 190.695511 219.963952 190.98 220.68 190.98 
z
" clip-path="url(#p2ee39ddbb5)" style="stroke: #000000; stroke-width: 2; stroke-linejoin: miter"/>
   </g>
   <g id="patch_43">
    <path d="M 220.68 237.78 
C 221.396048 237.78 222.082866 237.495511 222.589188 236.989188 
C 223.095511 236.482866 223.38 235.796048 223.38 235.08 
C 223.38 234.363952 223.095511 233.677134 222.589188 233.170812 
C 222.082866 232.664489 221.396048 232.38 220.68 232.38 
C 219.963952 232.38 219.277134 232.664489 218.770812 233.170812 
C 218.264489 233.677134 217.98 234.363952 217.98 235.08 
C 217.98 235.796048 218.264489 236.482866 218.770812 236.989188 
C 219.277134 237.495511 219.963952 237.78 220.68 237.78 
z
" clip-path="url(#p2ee39ddbb5)" style="stroke: #000000; stroke-width: 2; stroke-linejoin: miter"/>
   </g>
   <g id="patch_44">
    <path d="M 220.68 284.58 
C 221.396048 284.58 222.082866 284.295511 222.589188 283.789188 
C 223.095511 283.282866 223.38 282.596048 223.38 281.88 
C 223.38 281.163952 223.095511 280.477134 222.589188 279.970812 
C 222.082866 279.464489 221.396048 279.18 220.68 279.18 
C 219.963952 279.18 219.277134 279.464489 218.770812 279.970812 
C 218.264489 280.477134 217.98 281.163952 217.98 281.88 
C 217.98 282.596048 218.264489 283.282866 218.770812 283.789188 
C 219.277134 284.295511 219.963952 284.58 220.68 284.58 
z
" clip-path="url(#p2ee39ddbb5)" style="stroke: #000000; stroke-width: 2; stroke-linejoin: miter"/>
   </g>
   <g id="patch_45">
    <path d="M 220.68 331.38 
C 221.396048 331.38 222.082866 331.095511 222.589188 330.589188 
C 223.095511 330.082866 223.38 329.396048 223.38 328.68 
C 223.38 327.963952 223.095511 327.277134 222.589188 326.770812 
C 222.082866 326.264489 221.396048 325.98 220.68 325.98 
C 219.963952 325.98 219.277134 326.264489 218.770812 326.770812 
C 218.264489 327.277134 217.98 327.963952 217.98 328.68 
C 217.98 329.396048 218.264489 330.082866 218.770812 330.589188 
C 219.277134 331.095511 219.963952 331.38 220.68 331.38 
z
" clip-path="url(#p2ee39ddbb5)" style="stroke: #000000; stroke-width: 2; stroke-linejoin: miter"/>
   </g>
   <g id="patch_46">
    <path d="M 220.68 378.18 
C 221.396048 378.18 222.082866 377.895511 222.589188 377.389188 
C 223.095511 376.882866 223.38 376.196048 223.38 375.48 
C 223.38 374.763952 223.095511 374.077134 222.589188 373.570812 
C 222.082866 373.064489 221.396048 372.78 220.68 372.78 
C 219.963952 372.78 219.277134 373.064489 218.770812 373.570812 
C 218.264489 374.077134 217.98 374.763952 217.98 375.48 
C 217.98 376.196048 218.264489 376.882866 218.770812 377.389188 
C 219.277134 377.895511 219.963952 378.18 220.68 378.18 
z
" clip-path="url(#p2ee39ddbb5)" style="stroke: #000000; stroke-width: 2; stroke-linejoin: miter"/>
   </g>
   <g id="patch_47">
    <path d="M 220.68 424.98 
C 221.396048 424.98 222.082866 424.695511 222.589188 424.189188 
C 223.095511 423.682866 223.38 422.996048 223.38 422.28 
C 223.38 421.563952 223.095511 420.877134 222.589188 420.370812 
C 222.082866 419.864489 221.396048 419.58 220.68 419.58 
C 219.963952 419.58 219.277134 419.864489 218.770812 420.370812 
C 218.264489 420.877134 217.98 421.563952 217.98 422.28 
C 217.98 422.996048 218.264489 423.682866 218.770812 424.189188 
C 219.277134 424.695511 219.963952 424.98 220.68 424.98 
z
" clip-path="url(#p2ee39ddbb5)" style="stroke: #000000; stroke-width: 2; stroke-linejoin: miter"/>
   </g>
   <g id="patch_48">
    <path d="M 220.68 471.78 
C 221.396048 471.78 222.082866 471.495511 222.589188 470.989188 
C 223.095511 470.482866 223.38 469.796048 223.38 469.08 
C 223.38 468.363952 223.095511 467.677134 222.589188 467.170812 
C 222.082866 466.664489 221.396048 466.38 220.68 466.38 
C 219.963952 466.38 219.277134 466.664489 218.770812 467.170812 
C 218.264489 467.677134 217.98 468.363952 217.98 469.08 
C 217.98 469.796048 218.264489 470.482866 218.770812 470.989188 
C 219.277134 471.495511 219.963952 471.78 220.68 471.78 
z
" clip-path="url(#p2ee39ddbb5)" style="stroke: #000000; stroke-width: 2; stroke-linejoin: miter"/>
   </g>
   <g id="patch_49">
    <path d="M 220.68 97.38 
C 221.396048 97.38 222.082866 97.095511 222.589188 96.589188 
C 223.095511 96.082866 223.38 95.396048 223.38 94.68 
C 223.38 93.963952 223.095511 93.277134 222.589188 92.770812 
C 222.082866 92.264489 221.396048 91.98 220.68 91.98 
C 219.963952 91.98 219.277134 92.264489 218.770812 92.770812 
C 218.264489 93.277134 217.98 93.963952 217.98 94.68 
C 217.98 95.396048 218.264489 96.082866 218.770812 96.589188 
C 219.277134 97.095511 219.963952 97.38 220.68 97.38 
z
" clip-path="url(#p2ee39ddbb5)" style="stroke: #000000; stroke-width: 2; stroke-linejoin: miter"/>
   </g>
  </g>
 </g>
 <defs>
  <clipPath id="p2ee39ddbb5">
   <rect x="0" y="0" width="301.38" height="543.6"/>
  </clipPath>
 </defs>
</svg>
