<?xml version="1.0" encoding="UTF-8" standalone="no"?>
<!DOCTYPE svg PUBLIC "-//W3C//DTD SVG 1.1//EN"
 "http://www.w3.org/Graphics/SVG/1.1/DTD/svg11.dtd">
<!-- Generated by graphviz version 2.43.0 (0)
 -->
<!-- Title: spi_timing Pages: 1 -->
<svg width="584pt" height="149pt"
 viewBox="0.00 0.00 584.00 149.00" xmlns="http://www.w3.org/2000/svg" xmlns:xlink="http://www.w3.org/1999/xlink">
<g id="graph0" class="graph" transform="scale(1 1) rotate(0) translate(4 145)">
<title>spi_timing</title>
<polygon fill="white" stroke="transparent" points="-4,4 -4,-145 580,-145 580,4 -4,4"/>
<!-- title -->
<g id="node1" class="node">
<title>title</title>
<text text-anchor="start" x="148" y="-127.6" font-family="Helvetica,sans-Serif" font-weight="bold" font-size="13.00">SPI Write Transaction (24&#45;bit, Mode 0)</text>
<text text-anchor="start" x="130" y="-111.8" font-family="Helvetica,sans-Serif" font-size="9.00" fill="#666666">CPOL=0, CPHA=0, MSB first — data sampled on rising edge of spi_clk</text>
</g>
<!-- timing -->
<g id="node2" class="node">
<title>timing</title>
<text text-anchor="start" x="67" y="-60.3" font-family="Helvetica,sans-Serif" font-size="9.00" fill="#888888"> </text>
<polygon fill="white" stroke="transparent" points="71,-57.5 71,-67.5 99,-67.5 99,-57.5 71,-57.5"/>
<text text-anchor="start" x="78" y="-60.9" font-family="Helvetica,sans-Serif" font-size="7.00" fill="#888888">idle</text>
<polygon fill="white" stroke="transparent" points="99,-57.5 99,-67.5 127,-67.5 127,-57.5 99,-57.5"/>
<text text-anchor="start" x="110.5" y="-60.9" font-family="Helvetica,sans-Serif" font-size="7.00" fill="#888888">1</text>
<polygon fill="white" stroke="transparent" points="127,-57.5 127,-67.5 155,-67.5 155,-57.5 127,-57.5"/>
<text text-anchor="start" x="138.5" y="-60.9" font-family="Helvetica,sans-Serif" font-size="7.00" fill="#888888">2</text>
<polygon fill="white" stroke="transparent" points="155,-57.5 155,-67.5 183,-67.5 183,-57.5 155,-57.5"/>
<text text-anchor="start" x="166.5" y="-60.9" font-family="Helvetica,sans-Serif" font-size="7.00" fill="#888888">3</text>
<polygon fill="white" stroke="transparent" points="183,-57.5 183,-67.5 211,-67.5 211,-57.5 183,-57.5"/>
<text text-anchor="start" x="194.5" y="-60.9" font-family="Helvetica,sans-Serif" font-size="7.00" fill="#888888">4</text>
<polygon fill="white" stroke="transparent" points="211,-57.5 211,-67.5 239,-67.5 239,-57.5 211,-57.5"/>
<text text-anchor="start" x="222.5" y="-60.9" font-family="Helvetica,sans-Serif" font-size="7.00" fill="#888888">5</text>
<polygon fill="white" stroke="transparent" points="239,-57.5 239,-67.5 267,-67.5 267,-57.5 239,-57.5"/>
<text text-anchor="start" x="250.5" y="-60.9" font-family="Helvetica,sans-Serif" font-size="7.00" fill="#888888">6</text>
<polygon fill="white" stroke="transparent" points="267,-57.5 267,-67.5 295,-67.5 295,-57.5 267,-57.5"/>
<text text-anchor="start" x="278.5" y="-60.9" font-family="Helvetica,sans-Serif" font-size="7.00" fill="#888888">7</text>
<polygon fill="white" stroke="transparent" points="295,-57.5 295,-67.5 323,-67.5 323,-57.5 295,-57.5"/>
<text text-anchor="start" x="306.5" y="-60.9" font-family="Helvetica,sans-Serif" font-size="7.00" fill="#888888">8</text>
<polygon fill="white" stroke="transparent" points="323,-57.5 323,-67.5 337,-67.5 337,-57.5 323,-57.5"/>
<text text-anchor="start" x="327.5" y="-60.9" font-family="Helvetica,sans-Serif" font-size="7.00" fill="#888888"> &#160;</text>
<polygon fill="white" stroke="transparent" points="337,-57.5 337,-67.5 365,-67.5 365,-57.5 337,-57.5"/>
<text text-anchor="start" x="348.5" y="-60.9" font-family="Helvetica,sans-Serif" font-size="7.00" fill="#888888">9</text>
<polygon fill="white" stroke="transparent" points="365,-57.5 365,-67.5 393,-67.5 393,-57.5 365,-57.5"/>
<text text-anchor="start" x="375.5" y="-60.9" font-family="Helvetica,sans-Serif" font-size="7.00" fill="#888888">...</text>
<polygon fill="white" stroke="transparent" points="393,-57.5 393,-67.5 421,-67.5 421,-57.5 393,-57.5"/>
<text text-anchor="start" x="402" y="-60.9" font-family="Helvetica,sans-Serif" font-size="7.00" fill="#888888">16</text>
<polygon fill="white" stroke="transparent" points="421,-57.5 421,-67.5 435,-67.5 435,-57.5 421,-57.5"/>
<text text-anchor="start" x="425.5" y="-60.9" font-family="Helvetica,sans-Serif" font-size="7.00" fill="#888888"> &#160;</text>
<polygon fill="white" stroke="transparent" points="435,-57.5 435,-67.5 463,-67.5 463,-57.5 435,-57.5"/>
<text text-anchor="start" x="444" y="-60.9" font-family="Helvetica,sans-Serif" font-size="7.00" fill="#888888">17</text>
<polygon fill="white" stroke="transparent" points="463,-57.5 463,-67.5 491,-67.5 491,-57.5 463,-57.5"/>
<text text-anchor="start" x="473.5" y="-60.9" font-family="Helvetica,sans-Serif" font-size="7.00" fill="#888888">...</text>
<polygon fill="white" stroke="transparent" points="491,-57.5 491,-67.5 519,-67.5 519,-57.5 491,-57.5"/>
<text text-anchor="start" x="500" y="-60.9" font-family="Helvetica,sans-Serif" font-size="7.00" fill="#888888">23</text>
<polygon fill="white" stroke="transparent" points="519,-57.5 519,-67.5 547,-67.5 547,-57.5 519,-57.5"/>
<text text-anchor="start" x="528" y="-61.9" font-family="Helvetica,sans-Serif" font-weight="bold" font-size="7.00" fill="#c0392b">24</text>
<polygon fill="white" stroke="transparent" points="547,-57.5 547,-67.5 575,-67.5 575,-57.5 547,-57.5"/>
<text text-anchor="start" x="554" y="-60.9" font-family="Helvetica,sans-Serif" font-size="7.00" fill="#888888">idle</text>
<text text-anchor="start" x="24" y="-50.5" font-family="Helvetica,sans-Serif" font-weight="bold" font-size="10.00">spi_cs_n</text>
<polygon fill="#fadbd8" stroke="transparent" points="71,-46.5 71,-57.5 99,-57.5 99,-46.5 71,-46.5"/>
<polygon fill="none" stroke="#cccccc" points="71,-46.5 71,-57.5 99,-57.5 99,-46.5 71,-46.5"/>
<text text-anchor="start" x="74.5" y="-50.1" font-family="Helvetica,sans-Serif" font-size="8.00">HIGH</text>
<polygon fill="#aed6f1" stroke="transparent" points="99,-46.5 99,-57.5 547,-57.5 547,-46.5 99,-46.5"/>
<polygon fill="none" stroke="#cccccc" points="99,-46.5 99,-57.5 547,-57.5 547,-46.5 99,-46.5"/>
<text text-anchor="start" x="297" y="-50.1" font-family="Helvetica,sans-Serif" font-size="8.00">LOW (active)</text>
<polygon fill="#fadbd8" stroke="transparent" points="547,-46.5 547,-57.5 575,-57.5 575,-46.5 547,-46.5"/>
<polygon fill="none" stroke="#cccccc" points="547,-46.5 547,-57.5 575,-57.5 575,-46.5 547,-46.5"/>
<text text-anchor="start" x="550.5" y="-50.1" font-family="Helvetica,sans-Serif" font-size="8.00">HIGH</text>
<text text-anchor="start" x="31" y="-39.5" font-family="Helvetica,sans-Serif" font-weight="bold" font-size="10.00">spi_clk</text>
<polygon fill="#e8e8e8" stroke="transparent" points="71,-35.5 71,-46.5 99,-46.5 99,-35.5 71,-35.5"/>
<polygon fill="none" stroke="#cccccc" points="71,-35.5 71,-46.5 99,-46.5 99,-35.5 71,-35.5"/>
<text text-anchor="start" x="83" y="-39.4" font-family="Helvetica,sans-Serif" font-size="7.00">L</text>
<polygon fill="#aed6f1" stroke="transparent" points="99,-35.5 99,-46.5 127,-46.5 127,-35.5 99,-35.5"/>
<polygon fill="none" stroke="#cccccc" points="99,-35.5 99,-46.5 127,-46.5 127,-35.5 99,-35.5"/>
<text text-anchor="start" x="110.5" y="-39.4" font-family="Helvetica,sans-Serif" font-size="7.00">/\</text>
<polygon fill="#aed6f1" stroke="transparent" points="127,-35.5 127,-46.5 155,-46.5 155,-35.5 127,-35.5"/>
<polygon fill="none" stroke="#cccccc" points="127,-35.5 127,-46.5 155,-46.5 155,-35.5 127,-35.5"/>
<text text-anchor="start" x="138.5" y="-39.4" font-family="Helvetica,sans-Serif" font-size="7.00">/\</text>
<polygon fill="#aed6f1" stroke="transparent" points="155,-35.5 155,-46.5 183,-46.5 183,-35.5 155,-35.5"/>
<polygon fill="none" stroke="#cccccc" points="155,-35.5 155,-46.5 183,-46.5 183,-35.5 155,-35.5"/>
<text text-anchor="start" x="166.5" y="-39.4" font-family="Helvetica,sans-Serif" font-size="7.00">/\</text>
<polygon fill="#aed6f1" stroke="transparent" points="183,-35.5 183,-46.5 211,-46.5 211,-35.5 183,-35.5"/>
<polygon fill="none" stroke="#cccccc" points="183,-35.5 183,-46.5 211,-46.5 211,-35.5 183,-35.5"/>
<text text-anchor="start" x="194.5" y="-39.4" font-family="Helvetica,sans-Serif" font-size="7.00">/\</text>
<polygon fill="#aed6f1" stroke="transparent" points="211,-35.5 211,-46.5 239,-46.5 239,-35.5 211,-35.5"/>
<polygon fill="none" stroke="#cccccc" points="211,-35.5 211,-46.5 239,-46.5 239,-35.5 211,-35.5"/>
<text text-anchor="start" x="222.5" y="-39.4" font-family="Helvetica,sans-Serif" font-size="7.00">/\</text>
<polygon fill="#aed6f1" stroke="transparent" points="239,-35.5 239,-46.5 267,-46.5 267,-35.5 239,-35.5"/>
<polygon fill="none" stroke="#cccccc" points="239,-35.5 239,-46.5 267,-46.5 267,-35.5 239,-35.5"/>
<text text-anchor="start" x="250.5" y="-39.4" font-family="Helvetica,sans-Serif" font-size="7.00">/\</text>
<polygon fill="#aed6f1" stroke="transparent" points="267,-35.5 267,-46.5 295,-46.5 295,-35.5 267,-35.5"/>
<polygon fill="none" stroke="#cccccc" points="267,-35.5 267,-46.5 295,-46.5 295,-35.5 267,-35.5"/>
<text text-anchor="start" x="278.5" y="-39.4" font-family="Helvetica,sans-Serif" font-size="7.00">/\</text>
<polygon fill="#aed6f1" stroke="transparent" points="295,-35.5 295,-46.5 323,-46.5 323,-35.5 295,-35.5"/>
<polygon fill="none" stroke="#cccccc" points="295,-35.5 295,-46.5 323,-46.5 323,-35.5 295,-35.5"/>
<text text-anchor="start" x="306.5" y="-39.4" font-family="Helvetica,sans-Serif" font-size="7.00">/\</text>
<polygon fill="#e8e8e8" stroke="transparent" points="323,-35.5 323,-46.5 337,-46.5 337,-35.5 323,-35.5"/>
<polygon fill="none" stroke="#cccccc" points="323,-35.5 323,-46.5 337,-46.5 337,-35.5 323,-35.5"/>
<text text-anchor="start" x="329" y="-40" font-family="Helvetica,sans-Serif" font-size="5.00"> </text>
<polygon fill="#aed6f1" stroke="transparent" points="337,-35.5 337,-46.5 365,-46.5 365,-35.5 337,-35.5"/>
<polygon fill="none" stroke="#cccccc" points="337,-35.5 337,-46.5 365,-46.5 365,-35.5 337,-35.5"/>
<text text-anchor="start" x="348.5" y="-39.4" font-family="Helvetica,sans-Serif" font-size="7.00">/\</text>
<polygon fill="#d5d8dc" stroke="transparent" points="365,-35.5 365,-46.5 393,-46.5 393,-35.5 365,-35.5"/>
<polygon fill="none" stroke="#cccccc" points="365,-35.5 365,-46.5 393,-46.5 393,-35.5 365,-35.5"/>
<text text-anchor="start" x="375.5" y="-39.4" font-family="Helvetica,sans-Serif" font-size="7.00">...</text>
<polygon fill="#aed6f1" stroke="transparent" points="393,-35.5 393,-46.5 421,-46.5 421,-35.5 393,-35.5"/>
<polygon fill="none" stroke="#cccccc" points="393,-35.5 393,-46.5 421,-46.5 421,-35.5 393,-35.5"/>
<text text-anchor="start" x="404.5" y="-39.4" font-family="Helvetica,sans-Serif" font-size="7.00">/\</text>
<polygon fill="#e8e8e8" stroke="transparent" points="421,-35.5 421,-46.5 435,-46.5 435,-35.5 421,-35.5"/>
<polygon fill="none" stroke="#cccccc" points="421,-35.5 421,-46.5 435,-46.5 435,-35.5 421,-35.5"/>
<text text-anchor="start" x="427" y="-40" font-family="Helvetica,sans-Serif" font-size="5.00"> </text>
<polygon fill="#aed6f1" stroke="transparent" points="435,-35.5 435,-46.5 463,-46.5 463,-35.5 435,-35.5"/>
<polygon fill="none" stroke="#cccccc" points="435,-35.5 435,-46.5 463,-46.5 463,-35.5 435,-35.5"/>
<text text-anchor="start" x="446.5" y="-39.4" font-family="Helvetica,sans-Serif" font-size="7.00">/\</text>
<polygon fill="#d5d8dc" stroke="transparent" points="463,-35.5 463,-46.5 491,-46.5 491,-35.5 463,-35.5"/>
<polygon fill="none" stroke="#cccccc" points="463,-35.5 463,-46.5 491,-46.5 491,-35.5 463,-35.5"/>
<text text-anchor="start" x="473.5" y="-39.4" font-family="Helvetica,sans-Serif" font-size="7.00">...</text>
<polygon fill="#aed6f1" stroke="transparent" points="491,-35.5 491,-46.5 519,-46.5 519,-35.5 491,-35.5"/>
<polygon fill="none" stroke="#cccccc" points="491,-35.5 491,-46.5 519,-46.5 519,-35.5 491,-35.5"/>
<text text-anchor="start" x="502.5" y="-39.4" font-family="Helvetica,sans-Serif" font-size="7.00">/\</text>
<polygon fill="#f9e79f" stroke="transparent" points="519,-35.5 519,-46.5 547,-46.5 547,-35.5 519,-35.5"/>
<polygon fill="none" stroke="#cccccc" points="519,-35.5 519,-46.5 547,-46.5 547,-35.5 519,-35.5"/>
<text text-anchor="start" x="530.5" y="-40.4" font-family="Helvetica,sans-Serif" font-weight="bold" font-size="7.00">/\</text>
<polygon fill="#e8e8e8" stroke="transparent" points="547,-35.5 547,-46.5 575,-46.5 575,-35.5 547,-35.5"/>
<polygon fill="none" stroke="#cccccc" points="547,-35.5 547,-46.5 575,-46.5 575,-35.5 547,-35.5"/>
<text text-anchor="start" x="559" y="-39.4" font-family="Helvetica,sans-Serif" font-size="7.00">L</text>
<text text-anchor="start" x="21" y="-28.5" font-family="Helvetica,sans-Serif" font-weight="bold" font-size="10.00">spi_mosi</text>
<polygon fill="#e8e8e8" stroke="transparent" points="71,-24.5 71,-35.5 99,-35.5 99,-24.5 71,-24.5"/>
<polygon fill="none" stroke="#cccccc" points="71,-24.5 71,-35.5 99,-35.5 99,-24.5 71,-24.5"/>
<text text-anchor="start" x="83.5" y="-28.4" font-family="Helvetica,sans-Serif" font-size="7.00">&#45;</text>
<polygon fill="#d4efdf" stroke="transparent" points="99,-24.5 99,-35.5 127,-35.5 127,-24.5 99,-24.5"/>
<polygon fill="none" stroke="#cccccc" points="99,-24.5 99,-35.5 127,-35.5 127,-24.5 99,-24.5"/>
<text text-anchor="start" x="109" y="-29.4" font-family="Helvetica,sans-Serif" font-weight="bold" font-size="7.00">W</text>
<polygon fill="#d4efdf" stroke="transparent" points="127,-24.5 127,-35.5 155,-35.5 155,-24.5 127,-24.5"/>
<polygon fill="none" stroke="#cccccc" points="127,-24.5 127,-35.5 155,-35.5 155,-24.5 127,-24.5"/>
<text text-anchor="start" x="138.5" y="-28.4" font-family="Helvetica,sans-Serif" font-size="7.00">x</text>
<polygon fill="#d4efdf" stroke="transparent" points="155,-24.5 155,-35.5 183,-35.5 183,-24.5 155,-24.5"/>
<polygon fill="none" stroke="#cccccc" points="155,-24.5 155,-35.5 183,-35.5 183,-24.5 155,-24.5"/>
<text text-anchor="start" x="166.5" y="-28.4" font-family="Helvetica,sans-Serif" font-size="7.00">x</text>
<polygon fill="#d4efdf" stroke="transparent" points="183,-24.5 183,-35.5 211,-35.5 211,-24.5 183,-24.5"/>
<polygon fill="none" stroke="#cccccc" points="183,-24.5 183,-35.5 211,-35.5 211,-24.5 183,-24.5"/>
<text text-anchor="start" x="194.5" y="-28.4" font-family="Helvetica,sans-Serif" font-size="7.00">x</text>
<polygon fill="#d4efdf" stroke="transparent" points="211,-24.5 211,-35.5 239,-35.5 239,-24.5 211,-24.5"/>
<polygon fill="none" stroke="#cccccc" points="211,-24.5 211,-35.5 239,-35.5 239,-24.5 211,-24.5"/>
<text text-anchor="start" x="222.5" y="-28.4" font-family="Helvetica,sans-Serif" font-size="7.00">x</text>
<polygon fill="#d4efdf" stroke="transparent" points="239,-24.5 239,-35.5 267,-35.5 267,-24.5 239,-24.5"/>
<polygon fill="none" stroke="#cccccc" points="239,-24.5 239,-35.5 267,-35.5 267,-24.5 239,-24.5"/>
<text text-anchor="start" x="248" y="-28.4" font-family="Helvetica,sans-Serif" font-size="7.00">A2</text>
<polygon fill="#d4efdf" stroke="transparent" points="267,-24.5 267,-35.5 295,-35.5 295,-24.5 267,-24.5"/>
<polygon fill="none" stroke="#cccccc" points="267,-24.5 267,-35.5 295,-35.5 295,-24.5 267,-24.5"/>
<text text-anchor="start" x="276" y="-28.4" font-family="Helvetica,sans-Serif" font-size="7.00">A1</text>
<polygon fill="#d4efdf" stroke="transparent" points="295,-24.5 295,-35.5 323,-35.5 323,-24.5 295,-24.5"/>
<polygon fill="none" stroke="#cccccc" points="295,-24.5 295,-35.5 323,-35.5 323,-24.5 295,-24.5"/>
<text text-anchor="start" x="304" y="-28.4" font-family="Helvetica,sans-Serif" font-size="7.00">A0</text>
<polygon fill="#e8e8e8" stroke="transparent" points="323,-24.5 323,-35.5 337,-35.5 337,-24.5 323,-24.5"/>
<polygon fill="none" stroke="#cccccc" points="323,-24.5 323,-35.5 337,-35.5 337,-24.5 323,-24.5"/>
<text text-anchor="start" x="329" y="-29" font-family="Helvetica,sans-Serif" font-size="5.00"> </text>
<polygon fill="#aed6f1" stroke="transparent" points="337,-24.5 337,-35.5 365,-35.5 365,-24.5 337,-24.5"/>
<polygon fill="none" stroke="#cccccc" points="337,-24.5 337,-35.5 365,-35.5 365,-24.5 337,-24.5"/>
<text text-anchor="start" x="343.5" y="-28.4" font-family="Helvetica,sans-Serif" font-size="7.00">D15</text>
<polygon fill="#aed6f1" stroke="transparent" points="365,-24.5 365,-35.5 393,-35.5 393,-24.5 365,-24.5"/>
<polygon fill="none" stroke="#cccccc" points="365,-24.5 365,-35.5 393,-35.5 393,-24.5 365,-24.5"/>
<text text-anchor="start" x="375.5" y="-28.4" font-family="Helvetica,sans-Serif" font-size="7.00">...</text>
<polygon fill="#aed6f1" stroke="transparent" points="393,-24.5 393,-35.5 421,-35.5 421,-24.5 393,-24.5"/>
<polygon fill="none" stroke="#cccccc" points="393,-24.5 393,-35.5 421,-35.5 421,-24.5 393,-24.5"/>
<text text-anchor="start" x="402" y="-28.4" font-family="Helvetica,sans-Serif" font-size="7.00">D8</text>
<polygon fill="#e8e8e8" stroke="transparent" points="421,-24.5 421,-35.5 435,-35.5 435,-24.5 421,-24.5"/>
<polygon fill="none" stroke="#cccccc" points="421,-24.5 421,-35.5 435,-35.5 435,-24.5 421,-24.5"/>
<text text-anchor="start" x="427" y="-29" font-family="Helvetica,sans-Serif" font-size="5.00"> </text>
<polygon fill="#d7bde2" stroke="transparent" points="435,-24.5 435,-35.5 463,-35.5 463,-24.5 435,-24.5"/>
<polygon fill="none" stroke="#cccccc" points="435,-24.5 435,-35.5 463,-35.5 463,-24.5 435,-24.5"/>
<text text-anchor="start" x="444" y="-28.4" font-family="Helvetica,sans-Serif" font-size="7.00">D7</text>
<polygon fill="#d7bde2" stroke="transparent" points="463,-24.5 463,-35.5 491,-35.5 491,-24.5 463,-24.5"/>
<polygon fill="none" stroke="#cccccc" points="463,-24.5 463,-35.5 491,-35.5 491,-24.5 463,-24.5"/>
<text text-anchor="start" x="473.5" y="-28.4" font-family="Helvetica,sans-Serif" font-size="7.00">...</text>
<polygon fill="#d7bde2" stroke="transparent" points="491,-24.5 491,-35.5 519,-35.5 519,-24.5 491,-24.5"/>
<polygon fill="none" stroke="#cccccc" points="491,-24.5 491,-35.5 519,-35.5 519,-24.5 491,-24.5"/>
<text text-anchor="start" x="500" y="-28.4" font-family="Helvetica,sans-Serif" font-size="7.00">D1</text>
<polygon fill="#d7bde2" stroke="transparent" points="519,-24.5 519,-35.5 547,-35.5 547,-24.5 519,-24.5"/>
<polygon fill="none" stroke="#cccccc" points="519,-24.5 519,-35.5 547,-35.5 547,-24.5 519,-24.5"/>
<text text-anchor="start" x="527.5" y="-29.4" font-family="Helvetica,sans-Serif" font-weight="bold" font-size="7.00">D0</text>
<polygon fill="#e8e8e8" stroke="transparent" points="547,-24.5 547,-35.5 575,-35.5 575,-24.5 547,-24.5"/>
<polygon fill="none" stroke="#cccccc" points="547,-24.5 547,-35.5 575,-35.5 575,-24.5 547,-24.5"/>
<text text-anchor="start" x="559.5" y="-28.4" font-family="Helvetica,sans-Serif" font-size="7.00">&#45;</text>
<text text-anchor="start" x="50" y="-17.3" font-family="Helvetica,sans-Serif" font-size="9.00" fill="#888888">byte</text>
<polygon fill="white" stroke="transparent" points="71,-14.5 71,-24.5 99,-24.5 99,-14.5 71,-14.5"/>
<polygon fill="#d4efdf" stroke="transparent" points="99,-14.5 99,-24.5 323,-24.5 323,-14.5 99,-14.5"/>
<text text-anchor="start" x="144" y="-18.6" font-family="Helvetica,sans-Serif" font-weight="bold" font-size="8.00" fill="#1a5276">Byte 0: CMD</text>
<text text-anchor="start" x="200" y="-18.6" font-family="Helvetica,sans-Serif" font-size="8.00" fill="#1a5276"> &#160;(0x80 | reg_index)</text>
<polygon fill="white" stroke="transparent" points="323,-14.5 323,-24.5 337,-24.5 337,-14.5 323,-14.5"/>
<polygon fill="#aed6f1" stroke="transparent" points="337,-14.5 337,-24.5 421,-24.5 421,-14.5 337,-14.5"/>
<text text-anchor="start" x="345" y="-18.6" font-family="Helvetica,sans-Serif" font-weight="bold" font-size="8.00" fill="#1a5276">Byte 1: DATA_H</text>
<polygon fill="white" stroke="transparent" points="421,-14.5 421,-24.5 435,-24.5 435,-14.5 421,-14.5"/>
<polygon fill="#d7bde2" stroke="transparent" points="435,-14.5 435,-24.5 547,-24.5 547,-14.5 435,-14.5"/>
<text text-anchor="start" x="457.5" y="-18.6" font-family="Helvetica,sans-Serif" font-weight="bold" font-size="8.00" fill="#1a5276">Byte 2: DATA_L</text>
<polygon fill="white" stroke="transparent" points="547,-14.5 547,-24.5 575,-24.5 575,-14.5 547,-14.5"/>
<text text-anchor="start" x="43" y="-5.3" font-family="Helvetica,sans-Serif" font-size="9.00" fill="#888888">action</text>
<polygon fill="white" stroke="transparent" points="71,-0.5 71,-14.5 99,-14.5 99,-0.5 71,-0.5"/>
<polygon fill="white" stroke="transparent" points="99,-0.5 99,-14.5 323,-14.5 323,-0.5 99,-0.5"/>
<text text-anchor="start" x="161" y="-5.6" font-family="Helvetica,sans-Serif" font-size="8.00" fill="#888888">cmd_captured after bit 8</text>
<polygon fill="white" stroke="transparent" points="323,-0.5 323,-14.5 337,-14.5 337,-0.5 323,-0.5"/>
<polygon fill="white" stroke="transparent" points="337,-0.5 337,-14.5 421,-14.5 421,-0.5 337,-0.5"/>
<polygon fill="white" stroke="transparent" points="421,-0.5 421,-14.5 435,-14.5 435,-0.5 421,-0.5"/>
<polygon fill="white" stroke="transparent" points="435,-0.5 435,-14.5 519,-14.5 519,-0.5 435,-0.5"/>
<polygon fill="#f9e79f" stroke="transparent" points="519,-0.5 519,-14.5 547,-14.5 547,-0.5 519,-0.5"/>
<text text-anchor="start" x="525" y="-9.9" font-family="Helvetica,sans-Serif" font-weight="bold" font-size="7.00" fill="#c0392b">REG</text>
<text text-anchor="start" x="520.5" y="-2.9" font-family="Helvetica,sans-Serif" font-weight="bold" font-size="7.00" fill="#c0392b">WRITE</text>
<polygon fill="white" stroke="transparent" points="547,-0.5 547,-14.5 575,-14.5 575,-0.5 547,-0.5"/>
<polygon fill="none" stroke="#cccccc" points="0,0 0,-69 576,-69 576,0 0,0"/>
</g>
<!-- title&#45;&gt;timing -->
</g>
</svg>
